%TF.GenerationSoftware,KiCad,Pcbnew,7.0.9*%
%TF.CreationDate,2024-02-18T16:29:39+01:00*%
%TF.ProjectId,VFD-Driverboard,5646442d-4472-4697-9665-72626f617264,rev?*%
%TF.SameCoordinates,Original*%
%TF.FileFunction,Legend,Bot*%
%TF.FilePolarity,Positive*%
%FSLAX46Y46*%
G04 Gerber Fmt 4.6, Leading zero omitted, Abs format (unit mm)*
G04 Created by KiCad (PCBNEW 7.0.9) date 2024-02-18 16:29:39*
%MOMM*%
%LPD*%
G01*
G04 APERTURE LIST*
%ADD10C,0.150000*%
%ADD11C,0.120000*%
G04 APERTURE END LIST*
D10*
X76816419Y-34961466D02*
X77530704Y-34961466D01*
X77530704Y-34961466D02*
X77673561Y-34913847D01*
X77673561Y-34913847D02*
X77768800Y-34818609D01*
X77768800Y-34818609D02*
X77816419Y-34675752D01*
X77816419Y-34675752D02*
X77816419Y-34580514D01*
X76911657Y-35390038D02*
X76864038Y-35437657D01*
X76864038Y-35437657D02*
X76816419Y-35532895D01*
X76816419Y-35532895D02*
X76816419Y-35770990D01*
X76816419Y-35770990D02*
X76864038Y-35866228D01*
X76864038Y-35866228D02*
X76911657Y-35913847D01*
X76911657Y-35913847D02*
X77006895Y-35961466D01*
X77006895Y-35961466D02*
X77102133Y-35961466D01*
X77102133Y-35961466D02*
X77244990Y-35913847D01*
X77244990Y-35913847D02*
X77816419Y-35342419D01*
X77816419Y-35342419D02*
X77816419Y-35961466D01*
D11*
%TO.C,J2*%
X50841600Y-36624800D02*
X50841600Y-33964800D01*
X73761600Y-36624800D02*
X50841600Y-36624800D01*
X73761600Y-36624800D02*
X73761600Y-33964800D01*
X75031600Y-36624800D02*
X76361600Y-36624800D01*
X76361600Y-36624800D02*
X76361600Y-35294800D01*
X73761600Y-33964800D02*
X50841600Y-33964800D01*
%TD*%
M02*
