%TF.GenerationSoftware,KiCad,Pcbnew,7.0.9*%
%TF.CreationDate,2024-02-18T16:29:39+01:00*%
%TF.ProjectId,VFD-Driverboard,5646442d-4472-4697-9665-72626f617264,rev?*%
%TF.SameCoordinates,Original*%
%TF.FileFunction,Copper,L2,Bot*%
%TF.FilePolarity,Positive*%
%FSLAX46Y46*%
G04 Gerber Fmt 4.6, Leading zero omitted, Abs format (unit mm)*
G04 Created by KiCad (PCBNEW 7.0.9) date 2024-02-18 16:29:39*
%MOMM*%
%LPD*%
G01*
G04 APERTURE LIST*
%TA.AperFunction,ComponentPad*%
%ADD10C,1.524000*%
%TD*%
%TA.AperFunction,ComponentPad*%
%ADD11R,1.700000X1.700000*%
%TD*%
%TA.AperFunction,ComponentPad*%
%ADD12O,1.700000X1.700000*%
%TD*%
%TA.AperFunction,Conductor*%
%ADD13C,1.000000*%
%TD*%
G04 APERTURE END LIST*
D10*
%TO.P,V1,1,F-*%
%TO.N,VF1*%
X107405600Y-15798800D03*
%TO.P,V1,2,F-*%
X105405600Y-15798800D03*
%TO.P,V1,4*%
%TO.N,N/C*%
X101405600Y-15798800D03*
%TO.P,V1,5,VDD*%
%TO.N,VCC*%
X99405600Y-15798800D03*
%TO.P,V1,6,VEE*%
%TO.N,VEE*%
X97405600Y-15798800D03*
%TO.P,V1,7,Gnd*%
%TO.N,GNDD*%
X95405600Y-15798800D03*
%TO.P,V1,8,OSC0*%
%TO.N,Net-(J1-Pin_4)*%
X93405600Y-15798800D03*
%TO.P,V1,9,Reset*%
%TO.N,Net-(J1-Pin_5)*%
X91405600Y-15798800D03*
%TO.P,V1,10,CS*%
%TO.N,Net-(J1-Pin_6)*%
X89405600Y-15798800D03*
%TO.P,V1,11,Clk*%
%TO.N,Net-(J1-Pin_7)*%
X87405600Y-15798800D03*
%TO.P,V1,12,DI*%
%TO.N,Net-(J1-Pin_8)*%
X85405600Y-15798800D03*
%TO.P,V1,39*%
%TO.N,N/C*%
X31405600Y-15798800D03*
%TO.P,V1,40*%
X29405600Y-15798800D03*
%TO.P,V1,41*%
X27405600Y-15798800D03*
%TO.P,V1,44,F+*%
%TO.N,VF2*%
X21405600Y-15798800D03*
%TO.P,V1,45,F+*%
X19405600Y-15798800D03*
%TD*%
D11*
%TO.P,J2,1,Pin_1*%
%TO.N,VF1*%
X75031600Y-35294800D03*
D12*
%TO.P,J2,2,Pin_2*%
%TO.N,VCC*%
X72491600Y-35294800D03*
%TO.P,J2,3,Pin_3*%
%TO.N,VEE*%
X69951600Y-35294800D03*
%TO.P,J2,4,Pin_4*%
%TO.N,GNDD*%
X67411600Y-35294800D03*
%TO.P,J2,5,Pin_5*%
%TO.N,Net-(J1-Pin_4)*%
X64871600Y-35294800D03*
%TO.P,J2,6,Pin_6*%
%TO.N,Net-(J1-Pin_5)*%
X62331600Y-35294800D03*
%TO.P,J2,7,Pin_7*%
%TO.N,Net-(J1-Pin_6)*%
X59791600Y-35294800D03*
%TO.P,J2,8,Pin_8*%
%TO.N,Net-(J1-Pin_7)*%
X57251600Y-35294800D03*
%TO.P,J2,9,Pin_9*%
%TO.N,Net-(J1-Pin_8)*%
X54711600Y-35294800D03*
%TO.P,J2,10,Pin_10*%
%TO.N,VF2*%
X52171600Y-35294800D03*
%TD*%
D13*
%TO.N,VCC*%
X99405600Y-15909900D02*
X99405600Y-15798800D01*
X81870700Y-33444800D02*
X99405600Y-15909900D01*
X72491600Y-35294800D02*
X72491600Y-35116500D01*
X74163300Y-33444800D02*
X81870700Y-33444800D01*
X72491600Y-35116500D02*
X74163300Y-33444800D01*
%TO.N,GNDD*%
X84089500Y-27209100D02*
X75497300Y-27209100D01*
X95405600Y-15798800D02*
X95405600Y-15893000D01*
X75497300Y-27209100D02*
X67411600Y-35294800D01*
X95405600Y-15893000D02*
X84089500Y-27209100D01*
%TO.N,VF1*%
X85909600Y-35294800D02*
X75031600Y-35294800D01*
X105405600Y-15798800D02*
X85909600Y-35294800D01*
X105405600Y-15798800D02*
X107405600Y-15798800D01*
%TO.N,VF2*%
X21405600Y-15798800D02*
X40901600Y-35294800D01*
X19405600Y-15798800D02*
X21405600Y-15798800D01*
X40901600Y-35294800D02*
X52171600Y-35294800D01*
%TO.N,VEE*%
X69951600Y-35294800D02*
X73293400Y-31953000D01*
X81325900Y-31953000D02*
X97405600Y-15873300D01*
X73293400Y-31953000D02*
X81325900Y-31953000D01*
X97405600Y-15873300D02*
X97405600Y-15798800D01*
%TO.N,Net-(J1-Pin_4)*%
X83582300Y-25695200D02*
X74471100Y-25695200D01*
X74471100Y-25695200D02*
X74471100Y-25695300D01*
X74471100Y-25695300D02*
X64871600Y-35294800D01*
X93405600Y-15871900D02*
X83582300Y-25695200D01*
X93405600Y-15798800D02*
X93405600Y-15871900D01*
%TO.N,Net-(J1-Pin_5)*%
X77087900Y-20538500D02*
X86764800Y-20538500D01*
X62331600Y-35294800D02*
X77087900Y-20538500D01*
X86764800Y-20538500D02*
X91405600Y-15897700D01*
X91405600Y-15897700D02*
X91405600Y-15798800D01*
%TO.N,Net-(J1-Pin_6)*%
X89405600Y-15890800D02*
X85958200Y-19338200D01*
X89405600Y-15798800D02*
X89405600Y-15890800D01*
X85958200Y-19338200D02*
X75748200Y-19338200D01*
X75748200Y-19338200D02*
X59791600Y-35294800D01*
%TO.N,Net-(J1-Pin_7)*%
X85648800Y-17640600D02*
X74905800Y-17640600D01*
X74905800Y-17640600D02*
X57251600Y-35294800D01*
X87405600Y-15883800D02*
X85648800Y-17640600D01*
X87405600Y-15798800D02*
X87405600Y-15883800D01*
%TO.N,Net-(J1-Pin_8)*%
X85405600Y-15798800D02*
X74207600Y-15798800D01*
X74207600Y-15798800D02*
X54711600Y-35294800D01*
%TD*%
%TA.AperFunction,Conductor*%
%TO.N,GNDD*%
G36*
X38506856Y-34318985D02*
G01*
X38527498Y-34335619D01*
X40185166Y-35993287D01*
X40246538Y-36057850D01*
X40246541Y-36057853D01*
X40296881Y-36092892D01*
X40300643Y-36095728D01*
X40348187Y-36134494D01*
X40348190Y-36134495D01*
X40348193Y-36134498D01*
X40378645Y-36150404D01*
X40385358Y-36154472D01*
X40413551Y-36174095D01*
X40469929Y-36198289D01*
X40474178Y-36200307D01*
X40528551Y-36228709D01*
X40556089Y-36236588D01*
X40561574Y-36238158D01*
X40568968Y-36240790D01*
X40600542Y-36254340D01*
X40600545Y-36254340D01*
X40600546Y-36254341D01*
X40660622Y-36266687D01*
X40665200Y-36267810D01*
X40667304Y-36268412D01*
X40724182Y-36284687D01*
X40758439Y-36287295D01*
X40766214Y-36288386D01*
X40799855Y-36295300D01*
X40799859Y-36295300D01*
X40861199Y-36295300D01*
X40865905Y-36295478D01*
X40893196Y-36297557D01*
X40927076Y-36300137D01*
X40927076Y-36300136D01*
X40927077Y-36300137D01*
X40961160Y-36295796D01*
X40968990Y-36295300D01*
X51210842Y-36295300D01*
X51277881Y-36314985D01*
X51298523Y-36331619D01*
X51300199Y-36333295D01*
X51396984Y-36401065D01*
X51493765Y-36468832D01*
X51493767Y-36468833D01*
X51493770Y-36468835D01*
X51707937Y-36568703D01*
X51936192Y-36629863D01*
X52112634Y-36645300D01*
X52171599Y-36650459D01*
X52171600Y-36650459D01*
X52171601Y-36650459D01*
X52230566Y-36645300D01*
X52407008Y-36629863D01*
X52635263Y-36568703D01*
X52849430Y-36468835D01*
X53043001Y-36333295D01*
X53210095Y-36166201D01*
X53340025Y-35980642D01*
X53394602Y-35937017D01*
X53464100Y-35929823D01*
X53526455Y-35961346D01*
X53543175Y-35980642D01*
X53672881Y-36165882D01*
X53673105Y-36166201D01*
X53840199Y-36333295D01*
X53936984Y-36401065D01*
X54033765Y-36468832D01*
X54033767Y-36468833D01*
X54033770Y-36468835D01*
X54247937Y-36568703D01*
X54476192Y-36629863D01*
X54652634Y-36645300D01*
X54711599Y-36650459D01*
X54711600Y-36650459D01*
X54711601Y-36650459D01*
X54770566Y-36645300D01*
X54947008Y-36629863D01*
X55175263Y-36568703D01*
X55389430Y-36468835D01*
X55583001Y-36333295D01*
X55750095Y-36166201D01*
X55880025Y-35980642D01*
X55934602Y-35937017D01*
X56004100Y-35929823D01*
X56066455Y-35961346D01*
X56083175Y-35980642D01*
X56212881Y-36165882D01*
X56213105Y-36166201D01*
X56380199Y-36333295D01*
X56476984Y-36401065D01*
X56573765Y-36468832D01*
X56573767Y-36468833D01*
X56573770Y-36468835D01*
X56787937Y-36568703D01*
X57016192Y-36629863D01*
X57192634Y-36645300D01*
X57251599Y-36650459D01*
X57251600Y-36650459D01*
X57251601Y-36650459D01*
X57310566Y-36645300D01*
X57487008Y-36629863D01*
X57715263Y-36568703D01*
X57929430Y-36468835D01*
X58123001Y-36333295D01*
X58290095Y-36166201D01*
X58420025Y-35980642D01*
X58474602Y-35937017D01*
X58544100Y-35929823D01*
X58606455Y-35961346D01*
X58623175Y-35980642D01*
X58752881Y-36165882D01*
X58753105Y-36166201D01*
X58920199Y-36333295D01*
X59016984Y-36401065D01*
X59113765Y-36468832D01*
X59113767Y-36468833D01*
X59113770Y-36468835D01*
X59327937Y-36568703D01*
X59556192Y-36629863D01*
X59732634Y-36645300D01*
X59791599Y-36650459D01*
X59791600Y-36650459D01*
X59791601Y-36650459D01*
X59850566Y-36645300D01*
X60027008Y-36629863D01*
X60255263Y-36568703D01*
X60469430Y-36468835D01*
X60663001Y-36333295D01*
X60830095Y-36166201D01*
X60960025Y-35980642D01*
X61014602Y-35937017D01*
X61084100Y-35929823D01*
X61146455Y-35961346D01*
X61163175Y-35980642D01*
X61292881Y-36165882D01*
X61293105Y-36166201D01*
X61460199Y-36333295D01*
X61556984Y-36401065D01*
X61653765Y-36468832D01*
X61653767Y-36468833D01*
X61653770Y-36468835D01*
X61867937Y-36568703D01*
X62096192Y-36629863D01*
X62272634Y-36645300D01*
X62331599Y-36650459D01*
X62331600Y-36650459D01*
X62331601Y-36650459D01*
X62390566Y-36645300D01*
X62567008Y-36629863D01*
X62795263Y-36568703D01*
X63009430Y-36468835D01*
X63203001Y-36333295D01*
X63370095Y-36166201D01*
X63500025Y-35980642D01*
X63554602Y-35937017D01*
X63624100Y-35929823D01*
X63686455Y-35961346D01*
X63703175Y-35980642D01*
X63832881Y-36165882D01*
X63833105Y-36166201D01*
X64000199Y-36333295D01*
X64096984Y-36401065D01*
X64193765Y-36468832D01*
X64193767Y-36468833D01*
X64193770Y-36468835D01*
X64407937Y-36568703D01*
X64636192Y-36629863D01*
X64812634Y-36645300D01*
X64871599Y-36650459D01*
X64871600Y-36650459D01*
X64871601Y-36650459D01*
X64930566Y-36645300D01*
X65107008Y-36629863D01*
X65335263Y-36568703D01*
X65549430Y-36468835D01*
X65743001Y-36333295D01*
X65910095Y-36166201D01*
X66040330Y-35980205D01*
X66094907Y-35936581D01*
X66164405Y-35929387D01*
X66226760Y-35960910D01*
X66243479Y-35980205D01*
X66373490Y-36165878D01*
X66540517Y-36332905D01*
X66734021Y-36468400D01*
X66948107Y-36568229D01*
X66948116Y-36568233D01*
X67161600Y-36625434D01*
X67161600Y-35730301D01*
X67269285Y-35779480D01*
X67375837Y-35794800D01*
X67447363Y-35794800D01*
X67553915Y-35779480D01*
X67661600Y-35730301D01*
X67661600Y-36625433D01*
X67875083Y-36568233D01*
X67875092Y-36568229D01*
X68089178Y-36468400D01*
X68282682Y-36332905D01*
X68449705Y-36165882D01*
X68579719Y-35980205D01*
X68634296Y-35936581D01*
X68703795Y-35929388D01*
X68766149Y-35960910D01*
X68782869Y-35980205D01*
X68913105Y-36166201D01*
X69080199Y-36333295D01*
X69176984Y-36401065D01*
X69273765Y-36468832D01*
X69273767Y-36468833D01*
X69273770Y-36468835D01*
X69487937Y-36568703D01*
X69716192Y-36629863D01*
X69892634Y-36645300D01*
X69951599Y-36650459D01*
X69951600Y-36650459D01*
X69951601Y-36650459D01*
X70010566Y-36645300D01*
X70187008Y-36629863D01*
X70415263Y-36568703D01*
X70629430Y-36468835D01*
X70823001Y-36333295D01*
X70990095Y-36166201D01*
X71120025Y-35980642D01*
X71174602Y-35937017D01*
X71244100Y-35929823D01*
X71306455Y-35961346D01*
X71323175Y-35980642D01*
X71452881Y-36165882D01*
X71453105Y-36166201D01*
X71620199Y-36333295D01*
X71716984Y-36401065D01*
X71813765Y-36468832D01*
X71813767Y-36468833D01*
X71813770Y-36468835D01*
X72027937Y-36568703D01*
X72256192Y-36629863D01*
X72432634Y-36645300D01*
X72491599Y-36650459D01*
X72491600Y-36650459D01*
X72491601Y-36650459D01*
X72550566Y-36645300D01*
X72727008Y-36629863D01*
X72955263Y-36568703D01*
X73169430Y-36468835D01*
X73363001Y-36333295D01*
X73484929Y-36211366D01*
X73546248Y-36177884D01*
X73615940Y-36182868D01*
X73671874Y-36224739D01*
X73688789Y-36255717D01*
X73737802Y-36387128D01*
X73737806Y-36387135D01*
X73824052Y-36502344D01*
X73824055Y-36502347D01*
X73939264Y-36588593D01*
X73939271Y-36588597D01*
X74074117Y-36638891D01*
X74074116Y-36638891D01*
X74081044Y-36639635D01*
X74133727Y-36645300D01*
X75929472Y-36645299D01*
X75989083Y-36638891D01*
X76123931Y-36588596D01*
X76239146Y-36502346D01*
X76325396Y-36387131D01*
X76329560Y-36375965D01*
X76371429Y-36320034D01*
X76436893Y-36295616D01*
X76445741Y-36295300D01*
X85896884Y-36295300D01*
X85985958Y-36297557D01*
X85985958Y-36297556D01*
X85985963Y-36297557D01*
X86046353Y-36286732D01*
X86051012Y-36286080D01*
X86093207Y-36281788D01*
X86112038Y-36279874D01*
X86144827Y-36269586D01*
X86152440Y-36267718D01*
X86186253Y-36261658D01*
X86243221Y-36238901D01*
X86247653Y-36237324D01*
X86306188Y-36218959D01*
X86336227Y-36202284D01*
X86343308Y-36198922D01*
X86375217Y-36186177D01*
X86426454Y-36152408D01*
X86430451Y-36149987D01*
X86484102Y-36120209D01*
X86510168Y-36097830D01*
X86516443Y-36093100D01*
X86516759Y-36092892D01*
X86545119Y-36074202D01*
X86588517Y-36030802D01*
X86591936Y-36027634D01*
X86638495Y-35987666D01*
X86659531Y-35960488D01*
X86664701Y-35954618D01*
X88283702Y-34335619D01*
X88345025Y-34302134D01*
X88371383Y-34299300D01*
X113269657Y-34299300D01*
X113336696Y-34318985D01*
X113382451Y-34371789D01*
X113393656Y-34423551D01*
X113389862Y-36286734D01*
X113385853Y-38255153D01*
X113366032Y-38322152D01*
X113313135Y-38367799D01*
X113261853Y-38378900D01*
X111417100Y-38378900D01*
X13522869Y-38354034D01*
X13455834Y-38334332D01*
X13410093Y-38281517D01*
X13398900Y-38230034D01*
X13398900Y-34423300D01*
X13418585Y-34356261D01*
X13471389Y-34310506D01*
X13522900Y-34299300D01*
X38439817Y-34299300D01*
X38506856Y-34318985D01*
G37*
%TD.AperFunction*%
%TA.AperFunction,Conductor*%
G36*
X68828837Y-34318985D02*
G01*
X68874592Y-34371789D01*
X68884536Y-34440947D01*
X68863373Y-34494424D01*
X68782869Y-34609395D01*
X68728292Y-34653020D01*
X68658793Y-34660212D01*
X68596439Y-34628690D01*
X68579719Y-34609394D01*
X68499216Y-34494423D01*
X68476889Y-34428217D01*
X68493899Y-34360450D01*
X68544847Y-34312637D01*
X68600791Y-34299300D01*
X68761798Y-34299300D01*
X68828837Y-34318985D01*
G37*
%TD.AperFunction*%
%TA.AperFunction,Conductor*%
G36*
X113340939Y-13818985D02*
G01*
X113386694Y-13871789D01*
X113397900Y-13923300D01*
X113397900Y-32340100D01*
X113394165Y-34174300D01*
X113394164Y-34174553D01*
X113374343Y-34241552D01*
X113321446Y-34287199D01*
X113270164Y-34298300D01*
X88620383Y-34298300D01*
X88553344Y-34278615D01*
X88507589Y-34225811D01*
X88497645Y-34156653D01*
X88526670Y-34093097D01*
X88532702Y-34086619D01*
X91703140Y-30916181D01*
X105535436Y-17083883D01*
X105596757Y-17050400D01*
X105612289Y-17048040D01*
X105625668Y-17046870D01*
X105839050Y-16989694D01*
X106039262Y-16896334D01*
X106145815Y-16821724D01*
X106212021Y-16799398D01*
X106216938Y-16799300D01*
X106594262Y-16799300D01*
X106661301Y-16818985D01*
X106665367Y-16821712D01*
X106771938Y-16896334D01*
X106972150Y-16989694D01*
X107185532Y-17046870D01*
X107342723Y-17060622D01*
X107405598Y-17066123D01*
X107405600Y-17066123D01*
X107405602Y-17066123D01*
X107460617Y-17061309D01*
X107625668Y-17046870D01*
X107839050Y-16989694D01*
X108039262Y-16896334D01*
X108220220Y-16769626D01*
X108376426Y-16613420D01*
X108503134Y-16432462D01*
X108596494Y-16232250D01*
X108653670Y-16018868D01*
X108672923Y-15798800D01*
X108670132Y-15766902D01*
X108654838Y-15592087D01*
X108653670Y-15578732D01*
X108596494Y-15365350D01*
X108503134Y-15165139D01*
X108433691Y-15065964D01*
X108376427Y-14984181D01*
X108299667Y-14907421D01*
X108220220Y-14827974D01*
X108220216Y-14827971D01*
X108220215Y-14827970D01*
X108039266Y-14701268D01*
X108039262Y-14701266D01*
X108039260Y-14701265D01*
X107839050Y-14607906D01*
X107839047Y-14607905D01*
X107839045Y-14607904D01*
X107625670Y-14550730D01*
X107625662Y-14550729D01*
X107405602Y-14531477D01*
X107405598Y-14531477D01*
X107185537Y-14550729D01*
X107185529Y-14550730D01*
X106972154Y-14607904D01*
X106972148Y-14607907D01*
X106771940Y-14701265D01*
X106771938Y-14701266D01*
X106706542Y-14747057D01*
X106665384Y-14775875D01*
X106599180Y-14798202D01*
X106594263Y-14798300D01*
X106216938Y-14798300D01*
X106149899Y-14778615D01*
X106145832Y-14775887D01*
X106039262Y-14701266D01*
X105839050Y-14607906D01*
X105839047Y-14607905D01*
X105839045Y-14607904D01*
X105625670Y-14550730D01*
X105625662Y-14550729D01*
X105405602Y-14531477D01*
X105405598Y-14531477D01*
X105185537Y-14550729D01*
X105185529Y-14550730D01*
X104972154Y-14607904D01*
X104972148Y-14607907D01*
X104771940Y-14701265D01*
X104771938Y-14701266D01*
X104590977Y-14827975D01*
X104434775Y-14984177D01*
X104308066Y-15165138D01*
X104308065Y-15165140D01*
X104214707Y-15365348D01*
X104214704Y-15365354D01*
X104157530Y-15578729D01*
X104157528Y-15578743D01*
X104156359Y-15592099D01*
X104130903Y-15657166D01*
X104120513Y-15668965D01*
X85531499Y-34257981D01*
X85470176Y-34291466D01*
X85443818Y-34294300D01*
X82735482Y-34294300D01*
X82668443Y-34274615D01*
X82622688Y-34221811D01*
X82612744Y-34152653D01*
X82641769Y-34089097D01*
X82647801Y-34082619D01*
X90375415Y-26355005D01*
X99681243Y-17049176D01*
X99736829Y-17017084D01*
X99744209Y-17015106D01*
X99839050Y-16989694D01*
X100039262Y-16896334D01*
X100220220Y-16769626D01*
X100317919Y-16671927D01*
X100379242Y-16638442D01*
X100448934Y-16643426D01*
X100493281Y-16671927D01*
X100590978Y-16769624D01*
X100590984Y-16769629D01*
X100771933Y-16896331D01*
X100771935Y-16896332D01*
X100771938Y-16896334D01*
X100972150Y-16989694D01*
X101185532Y-17046870D01*
X101342723Y-17060622D01*
X101405598Y-17066123D01*
X101405600Y-17066123D01*
X101405602Y-17066123D01*
X101460617Y-17061309D01*
X101625668Y-17046870D01*
X101839050Y-16989694D01*
X102039262Y-16896334D01*
X102220220Y-16769626D01*
X102376426Y-16613420D01*
X102503134Y-16432462D01*
X102596494Y-16232250D01*
X102653670Y-16018868D01*
X102672923Y-15798800D01*
X102670132Y-15766902D01*
X102654838Y-15592087D01*
X102653670Y-15578732D01*
X102596494Y-15365350D01*
X102503134Y-15165139D01*
X102433691Y-15065964D01*
X102376427Y-14984181D01*
X102299667Y-14907421D01*
X102220220Y-14827974D01*
X102220216Y-14827971D01*
X102220215Y-14827970D01*
X102039266Y-14701268D01*
X102039262Y-14701266D01*
X102039260Y-14701265D01*
X101839050Y-14607906D01*
X101839047Y-14607905D01*
X101839045Y-14607904D01*
X101625670Y-14550730D01*
X101625662Y-14550729D01*
X101405602Y-14531477D01*
X101405598Y-14531477D01*
X101185537Y-14550729D01*
X101185529Y-14550730D01*
X100972154Y-14607904D01*
X100972148Y-14607907D01*
X100771940Y-14701265D01*
X100771938Y-14701266D01*
X100590981Y-14827972D01*
X100493280Y-14925673D01*
X100431956Y-14959157D01*
X100362265Y-14954173D01*
X100317918Y-14925672D01*
X100220221Y-14827975D01*
X100220215Y-14827970D01*
X100039266Y-14701268D01*
X100039262Y-14701266D01*
X100039260Y-14701265D01*
X99839050Y-14607906D01*
X99839047Y-14607905D01*
X99839045Y-14607904D01*
X99625670Y-14550730D01*
X99625662Y-14550729D01*
X99405602Y-14531477D01*
X99405598Y-14531477D01*
X99185537Y-14550729D01*
X99185529Y-14550730D01*
X98972154Y-14607904D01*
X98972148Y-14607907D01*
X98771940Y-14701265D01*
X98771938Y-14701266D01*
X98590981Y-14827972D01*
X98493280Y-14925673D01*
X98431956Y-14959157D01*
X98362265Y-14954173D01*
X98317918Y-14925672D01*
X98220221Y-14827975D01*
X98220215Y-14827970D01*
X98039266Y-14701268D01*
X98039262Y-14701266D01*
X98039260Y-14701265D01*
X97839050Y-14607906D01*
X97839047Y-14607905D01*
X97839045Y-14607904D01*
X97625670Y-14550730D01*
X97625662Y-14550729D01*
X97405602Y-14531477D01*
X97405598Y-14531477D01*
X97185537Y-14550729D01*
X97185529Y-14550730D01*
X96972154Y-14607904D01*
X96972148Y-14607907D01*
X96771940Y-14701265D01*
X96771938Y-14701266D01*
X96590977Y-14827975D01*
X96434775Y-14984177D01*
X96308065Y-15165139D01*
X96243256Y-15304122D01*
X96218555Y-15339397D01*
X95790503Y-15767448D01*
X95790549Y-15766902D01*
X95759334Y-15643638D01*
X95689787Y-15537188D01*
X95589443Y-15459087D01*
X95469178Y-15417800D01*
X95433047Y-15417800D01*
X96103787Y-14747058D01*
X96039009Y-14701700D01*
X96039007Y-14701699D01*
X95838884Y-14608380D01*
X95838870Y-14608375D01*
X95625586Y-14551226D01*
X95625576Y-14551224D01*
X95405601Y-14531979D01*
X95405599Y-14531979D01*
X95185623Y-14551224D01*
X95185613Y-14551226D01*
X94972329Y-14608375D01*
X94972320Y-14608379D01*
X94772186Y-14701703D01*
X94707412Y-14747057D01*
X94707411Y-14747058D01*
X95378154Y-15417800D01*
X95374031Y-15417800D01*
X95280179Y-15433461D01*
X95168349Y-15493980D01*
X95082229Y-15587531D01*
X95031152Y-15703977D01*
X95025494Y-15772248D01*
X94592643Y-15339397D01*
X94567942Y-15304121D01*
X94503134Y-15165140D01*
X94503133Y-15165138D01*
X94376427Y-14984181D01*
X94299667Y-14907421D01*
X94220220Y-14827974D01*
X94220216Y-14827971D01*
X94220215Y-14827970D01*
X94039266Y-14701268D01*
X94039262Y-14701266D01*
X94039260Y-14701265D01*
X93839050Y-14607906D01*
X93839047Y-14607905D01*
X93839045Y-14607904D01*
X93625670Y-14550730D01*
X93625662Y-14550729D01*
X93405602Y-14531477D01*
X93405598Y-14531477D01*
X93185537Y-14550729D01*
X93185529Y-14550730D01*
X92972154Y-14607904D01*
X92972148Y-14607907D01*
X92771940Y-14701265D01*
X92771938Y-14701266D01*
X92590981Y-14827972D01*
X92493280Y-14925673D01*
X92431956Y-14959157D01*
X92362265Y-14954173D01*
X92317918Y-14925672D01*
X92220221Y-14827975D01*
X92220215Y-14827970D01*
X92039266Y-14701268D01*
X92039262Y-14701266D01*
X92039260Y-14701265D01*
X91839050Y-14607906D01*
X91839047Y-14607905D01*
X91839045Y-14607904D01*
X91625670Y-14550730D01*
X91625662Y-14550729D01*
X91405602Y-14531477D01*
X91405598Y-14531477D01*
X91185537Y-14550729D01*
X91185529Y-14550730D01*
X90972154Y-14607904D01*
X90972148Y-14607907D01*
X90771940Y-14701265D01*
X90771938Y-14701266D01*
X90590981Y-14827972D01*
X90493280Y-14925673D01*
X90431956Y-14959157D01*
X90362265Y-14954173D01*
X90317918Y-14925672D01*
X90220221Y-14827975D01*
X90220215Y-14827970D01*
X90039266Y-14701268D01*
X90039262Y-14701266D01*
X90039260Y-14701265D01*
X89839050Y-14607906D01*
X89839047Y-14607905D01*
X89839045Y-14607904D01*
X89625670Y-14550730D01*
X89625662Y-14550729D01*
X89405602Y-14531477D01*
X89405598Y-14531477D01*
X89185537Y-14550729D01*
X89185529Y-14550730D01*
X88972154Y-14607904D01*
X88972148Y-14607907D01*
X88771940Y-14701265D01*
X88771938Y-14701266D01*
X88590981Y-14827972D01*
X88493280Y-14925673D01*
X88431956Y-14959157D01*
X88362265Y-14954173D01*
X88317918Y-14925672D01*
X88220221Y-14827975D01*
X88220215Y-14827970D01*
X88039266Y-14701268D01*
X88039262Y-14701266D01*
X88039260Y-14701265D01*
X87839050Y-14607906D01*
X87839047Y-14607905D01*
X87839045Y-14607904D01*
X87625670Y-14550730D01*
X87625662Y-14550729D01*
X87405602Y-14531477D01*
X87405598Y-14531477D01*
X87185537Y-14550729D01*
X87185529Y-14550730D01*
X86972154Y-14607904D01*
X86972148Y-14607907D01*
X86771940Y-14701265D01*
X86771938Y-14701266D01*
X86590981Y-14827972D01*
X86493280Y-14925673D01*
X86431956Y-14959157D01*
X86362265Y-14954173D01*
X86317918Y-14925672D01*
X86220221Y-14827975D01*
X86220215Y-14827970D01*
X86039266Y-14701268D01*
X86039262Y-14701266D01*
X86039260Y-14701265D01*
X85839050Y-14607906D01*
X85839047Y-14607905D01*
X85839045Y-14607904D01*
X85625670Y-14550730D01*
X85625662Y-14550729D01*
X85405602Y-14531477D01*
X85405598Y-14531477D01*
X85185537Y-14550729D01*
X85185529Y-14550730D01*
X84972154Y-14607904D01*
X84972148Y-14607907D01*
X84771940Y-14701265D01*
X84771938Y-14701266D01*
X84706542Y-14747057D01*
X84665384Y-14775875D01*
X84599180Y-14798202D01*
X84594263Y-14798300D01*
X74220317Y-14798300D01*
X74131237Y-14796043D01*
X74131228Y-14796043D01*
X74070860Y-14806864D01*
X74066195Y-14807518D01*
X74005163Y-14813725D01*
X74005155Y-14813727D01*
X73972381Y-14824010D01*
X73964754Y-14825882D01*
X73930950Y-14831941D01*
X73873984Y-14854694D01*
X73869548Y-14856273D01*
X73811014Y-14874640D01*
X73811012Y-14874641D01*
X73780985Y-14891306D01*
X73773893Y-14894674D01*
X73741983Y-14907421D01*
X73690754Y-14941183D01*
X73686726Y-14943624D01*
X73633102Y-14973388D01*
X73633099Y-14973390D01*
X73607027Y-14995770D01*
X73600760Y-15000495D01*
X73572082Y-15019398D01*
X73572075Y-15019403D01*
X73528716Y-15062762D01*
X73525261Y-15065964D01*
X73478706Y-15105932D01*
X73478705Y-15105933D01*
X73457676Y-15133100D01*
X73452484Y-15138994D01*
X54678570Y-33912908D01*
X54617247Y-33946393D01*
X54601698Y-33948755D01*
X54476196Y-33959736D01*
X54476186Y-33959738D01*
X54247944Y-34020894D01*
X54247935Y-34020898D01*
X54033771Y-34120764D01*
X54033769Y-34120765D01*
X53840197Y-34256305D01*
X53834522Y-34261981D01*
X53773199Y-34295466D01*
X53746841Y-34298300D01*
X53136358Y-34298300D01*
X53069319Y-34278615D01*
X53048677Y-34261981D01*
X53043002Y-34256306D01*
X53042995Y-34256301D01*
X53021931Y-34241552D01*
X52987773Y-34217634D01*
X52849434Y-34120767D01*
X52849430Y-34120765D01*
X52849428Y-34120764D01*
X52635263Y-34020897D01*
X52635259Y-34020896D01*
X52635255Y-34020894D01*
X52407013Y-33959738D01*
X52407003Y-33959736D01*
X52171601Y-33939141D01*
X52171599Y-33939141D01*
X51936196Y-33959736D01*
X51936186Y-33959738D01*
X51707944Y-34020894D01*
X51707935Y-34020898D01*
X51493771Y-34120764D01*
X51493769Y-34120765D01*
X51300197Y-34256305D01*
X51298522Y-34257981D01*
X51297600Y-34258484D01*
X51296049Y-34259786D01*
X51295787Y-34259474D01*
X51237199Y-34291466D01*
X51210841Y-34294300D01*
X41367382Y-34294300D01*
X41300343Y-34274615D01*
X41279701Y-34257981D01*
X22820522Y-15798802D01*
X26138277Y-15798802D01*
X26157529Y-16018862D01*
X26157530Y-16018870D01*
X26214704Y-16232245D01*
X26214705Y-16232247D01*
X26214706Y-16232250D01*
X26243258Y-16293480D01*
X26308066Y-16432462D01*
X26308068Y-16432466D01*
X26434770Y-16613415D01*
X26434775Y-16613421D01*
X26590978Y-16769624D01*
X26590984Y-16769629D01*
X26771933Y-16896331D01*
X26771935Y-16896332D01*
X26771938Y-16896334D01*
X26972150Y-16989694D01*
X27185532Y-17046870D01*
X27342723Y-17060622D01*
X27405598Y-17066123D01*
X27405600Y-17066123D01*
X27405602Y-17066123D01*
X27460617Y-17061309D01*
X27625668Y-17046870D01*
X27839050Y-16989694D01*
X28039262Y-16896334D01*
X28220220Y-16769626D01*
X28317919Y-16671927D01*
X28379242Y-16638442D01*
X28448934Y-16643426D01*
X28493281Y-16671927D01*
X28590978Y-16769624D01*
X28590984Y-16769629D01*
X28771933Y-16896331D01*
X28771935Y-16896332D01*
X28771938Y-16896334D01*
X28972150Y-16989694D01*
X29185532Y-17046870D01*
X29342723Y-17060622D01*
X29405598Y-17066123D01*
X29405600Y-17066123D01*
X29405602Y-17066123D01*
X29460617Y-17061309D01*
X29625668Y-17046870D01*
X29839050Y-16989694D01*
X30039262Y-16896334D01*
X30220220Y-16769626D01*
X30317919Y-16671927D01*
X30379242Y-16638442D01*
X30448934Y-16643426D01*
X30493281Y-16671927D01*
X30590978Y-16769624D01*
X30590984Y-16769629D01*
X30771933Y-16896331D01*
X30771935Y-16896332D01*
X30771938Y-16896334D01*
X30972150Y-16989694D01*
X31185532Y-17046870D01*
X31342723Y-17060622D01*
X31405598Y-17066123D01*
X31405600Y-17066123D01*
X31405602Y-17066123D01*
X31460617Y-17061309D01*
X31625668Y-17046870D01*
X31839050Y-16989694D01*
X32039262Y-16896334D01*
X32220220Y-16769626D01*
X32376426Y-16613420D01*
X32503134Y-16432462D01*
X32596494Y-16232250D01*
X32653670Y-16018868D01*
X32672923Y-15798800D01*
X32670132Y-15766902D01*
X32654838Y-15592087D01*
X32653670Y-15578732D01*
X32596494Y-15365350D01*
X32503134Y-15165139D01*
X32433691Y-15065964D01*
X32376427Y-14984181D01*
X32299667Y-14907421D01*
X32220220Y-14827974D01*
X32220216Y-14827971D01*
X32220215Y-14827970D01*
X32039266Y-14701268D01*
X32039262Y-14701266D01*
X32039260Y-14701265D01*
X31839050Y-14607906D01*
X31839047Y-14607905D01*
X31839045Y-14607904D01*
X31625670Y-14550730D01*
X31625662Y-14550729D01*
X31405602Y-14531477D01*
X31405598Y-14531477D01*
X31185537Y-14550729D01*
X31185529Y-14550730D01*
X30972154Y-14607904D01*
X30972148Y-14607907D01*
X30771940Y-14701265D01*
X30771938Y-14701266D01*
X30590981Y-14827972D01*
X30493280Y-14925673D01*
X30431956Y-14959157D01*
X30362265Y-14954173D01*
X30317918Y-14925672D01*
X30220221Y-14827975D01*
X30220215Y-14827970D01*
X30039266Y-14701268D01*
X30039262Y-14701266D01*
X30039260Y-14701265D01*
X29839050Y-14607906D01*
X29839047Y-14607905D01*
X29839045Y-14607904D01*
X29625670Y-14550730D01*
X29625662Y-14550729D01*
X29405602Y-14531477D01*
X29405598Y-14531477D01*
X29185537Y-14550729D01*
X29185529Y-14550730D01*
X28972154Y-14607904D01*
X28972148Y-14607907D01*
X28771940Y-14701265D01*
X28771938Y-14701266D01*
X28590981Y-14827972D01*
X28493280Y-14925673D01*
X28431956Y-14959157D01*
X28362265Y-14954173D01*
X28317918Y-14925672D01*
X28220221Y-14827975D01*
X28220215Y-14827970D01*
X28039266Y-14701268D01*
X28039262Y-14701266D01*
X28039260Y-14701265D01*
X27839050Y-14607906D01*
X27839047Y-14607905D01*
X27839045Y-14607904D01*
X27625670Y-14550730D01*
X27625662Y-14550729D01*
X27405602Y-14531477D01*
X27405598Y-14531477D01*
X27185537Y-14550729D01*
X27185529Y-14550730D01*
X26972154Y-14607904D01*
X26972148Y-14607907D01*
X26771940Y-14701265D01*
X26771938Y-14701266D01*
X26590977Y-14827975D01*
X26434775Y-14984177D01*
X26308066Y-15165138D01*
X26308065Y-15165140D01*
X26214707Y-15365348D01*
X26214704Y-15365354D01*
X26157530Y-15578729D01*
X26157529Y-15578737D01*
X26138277Y-15798797D01*
X26138277Y-15798802D01*
X22820522Y-15798802D01*
X22690685Y-15668965D01*
X22657200Y-15607642D01*
X22654838Y-15592087D01*
X22654439Y-15587531D01*
X22653670Y-15578732D01*
X22596494Y-15365350D01*
X22503134Y-15165139D01*
X22433691Y-15065964D01*
X22376427Y-14984181D01*
X22299667Y-14907421D01*
X22220220Y-14827974D01*
X22220216Y-14827971D01*
X22220215Y-14827970D01*
X22039266Y-14701268D01*
X22039262Y-14701266D01*
X22039260Y-14701265D01*
X21839050Y-14607906D01*
X21839047Y-14607905D01*
X21839045Y-14607904D01*
X21625670Y-14550730D01*
X21625662Y-14550729D01*
X21405602Y-14531477D01*
X21405598Y-14531477D01*
X21185537Y-14550729D01*
X21185529Y-14550730D01*
X20972154Y-14607904D01*
X20972148Y-14607907D01*
X20771940Y-14701265D01*
X20771938Y-14701266D01*
X20706542Y-14747057D01*
X20665384Y-14775875D01*
X20599180Y-14798202D01*
X20594263Y-14798300D01*
X20216938Y-14798300D01*
X20149899Y-14778615D01*
X20145832Y-14775887D01*
X20039262Y-14701266D01*
X19839050Y-14607906D01*
X19839047Y-14607905D01*
X19839045Y-14607904D01*
X19625670Y-14550730D01*
X19625662Y-14550729D01*
X19405602Y-14531477D01*
X19405598Y-14531477D01*
X19185537Y-14550729D01*
X19185529Y-14550730D01*
X18972154Y-14607904D01*
X18972148Y-14607907D01*
X18771940Y-14701265D01*
X18771938Y-14701266D01*
X18590977Y-14827975D01*
X18434775Y-14984177D01*
X18308066Y-15165138D01*
X18308065Y-15165140D01*
X18214707Y-15365348D01*
X18214704Y-15365354D01*
X18157530Y-15578729D01*
X18157529Y-15578737D01*
X18138277Y-15798797D01*
X18138277Y-15798802D01*
X18157529Y-16018862D01*
X18157530Y-16018870D01*
X18214704Y-16232245D01*
X18214705Y-16232247D01*
X18214706Y-16232250D01*
X18243258Y-16293480D01*
X18308066Y-16432462D01*
X18308068Y-16432466D01*
X18434770Y-16613415D01*
X18434775Y-16613421D01*
X18590978Y-16769624D01*
X18590984Y-16769629D01*
X18771933Y-16896331D01*
X18771935Y-16896332D01*
X18771938Y-16896334D01*
X18972150Y-16989694D01*
X19185532Y-17046870D01*
X19342723Y-17060622D01*
X19405598Y-17066123D01*
X19405600Y-17066123D01*
X19405602Y-17066123D01*
X19460617Y-17061309D01*
X19625668Y-17046870D01*
X19839050Y-16989694D01*
X20039262Y-16896334D01*
X20145815Y-16821724D01*
X20212021Y-16799398D01*
X20216938Y-16799300D01*
X20594262Y-16799300D01*
X20661301Y-16818985D01*
X20665367Y-16821712D01*
X20771938Y-16896334D01*
X20972150Y-16989694D01*
X21185532Y-17046870D01*
X21198888Y-17048038D01*
X21263956Y-17073488D01*
X21275764Y-17083885D01*
X38278498Y-34086619D01*
X38311983Y-34147942D01*
X38306999Y-34217634D01*
X38265127Y-34273567D01*
X38199663Y-34297984D01*
X38190817Y-34298300D01*
X13530100Y-34298300D01*
X13463061Y-34278615D01*
X13417306Y-34225811D01*
X13406100Y-34174300D01*
X13406100Y-13923300D01*
X13425785Y-13856261D01*
X13478589Y-13810506D01*
X13530100Y-13799300D01*
X113273900Y-13799300D01*
X113340939Y-13818985D01*
G37*
%TD.AperFunction*%
%TA.AperFunction,Conductor*%
G36*
X95020651Y-15830698D02*
G01*
X95051866Y-15953962D01*
X95121413Y-16060412D01*
X95221757Y-16138513D01*
X95342022Y-16179800D01*
X95378153Y-16179800D01*
X94707412Y-16850540D01*
X94766353Y-16891812D01*
X94809978Y-16946390D01*
X94817170Y-17015888D01*
X94785648Y-17078243D01*
X94782910Y-17081068D01*
X80947799Y-30916181D01*
X80886476Y-30949666D01*
X80860118Y-30952500D01*
X73306117Y-30952500D01*
X73217037Y-30950243D01*
X73217028Y-30950243D01*
X73164036Y-30959741D01*
X73156654Y-30961064D01*
X73151995Y-30961718D01*
X73090964Y-30967925D01*
X73090962Y-30967926D01*
X73058180Y-30978210D01*
X73050556Y-30980081D01*
X73042708Y-30981488D01*
X73016749Y-30986141D01*
X72959781Y-31008895D01*
X72955345Y-31010474D01*
X72896814Y-31028840D01*
X72896810Y-31028842D01*
X72866778Y-31045510D01*
X72859684Y-31048879D01*
X72827782Y-31061623D01*
X72827777Y-31061625D01*
X72776556Y-31095381D01*
X72772528Y-31097822D01*
X72718901Y-31127588D01*
X72692834Y-31149965D01*
X72686565Y-31154692D01*
X72657884Y-31173595D01*
X72657878Y-31173600D01*
X72614509Y-31216968D01*
X72611055Y-31220169D01*
X72564502Y-31260136D01*
X72543476Y-31287298D01*
X72538285Y-31293192D01*
X69918569Y-33912908D01*
X69857246Y-33946393D01*
X69841697Y-33948755D01*
X69716196Y-33959736D01*
X69716186Y-33959738D01*
X69487944Y-34020894D01*
X69487935Y-34020898D01*
X69273771Y-34120764D01*
X69273769Y-34120765D01*
X69080197Y-34256305D01*
X69074522Y-34261981D01*
X69013199Y-34295466D01*
X68986841Y-34298300D01*
X68375650Y-34298300D01*
X68308611Y-34278615D01*
X68287969Y-34261981D01*
X68282682Y-34256694D01*
X68089178Y-34121199D01*
X67875092Y-34021370D01*
X67875088Y-34021368D01*
X67834002Y-34010359D01*
X67774342Y-33973993D01*
X67743814Y-33911146D01*
X67752109Y-33841770D01*
X67778411Y-33802908D01*
X74849301Y-26732018D01*
X74910624Y-26698534D01*
X74936982Y-26695700D01*
X83569584Y-26695700D01*
X83658658Y-26697957D01*
X83658658Y-26697956D01*
X83658663Y-26697957D01*
X83719053Y-26687132D01*
X83723712Y-26686480D01*
X83765907Y-26682188D01*
X83784738Y-26680274D01*
X83817527Y-26669986D01*
X83825140Y-26668118D01*
X83858953Y-26662058D01*
X83915921Y-26639301D01*
X83920353Y-26637724D01*
X83978888Y-26619359D01*
X84008927Y-26602684D01*
X84016008Y-26599322D01*
X84047917Y-26586577D01*
X84099154Y-26552808D01*
X84103151Y-26550387D01*
X84156802Y-26520609D01*
X84182868Y-26498230D01*
X84189143Y-26493500D01*
X84217819Y-26474602D01*
X84261192Y-26431227D01*
X84264650Y-26428023D01*
X84267913Y-26425220D01*
X84311195Y-26388066D01*
X84332228Y-26360891D01*
X84337398Y-26355021D01*
X93629334Y-17063084D01*
X93684917Y-17030993D01*
X93839050Y-16989694D01*
X94039262Y-16896334D01*
X94220220Y-16769626D01*
X94376426Y-16613420D01*
X94503134Y-16432462D01*
X94567946Y-16293471D01*
X94592642Y-16258201D01*
X95020696Y-15830147D01*
X95020651Y-15830698D01*
G37*
%TD.AperFunction*%
%TD*%
M02*
