M48
; DRILL file {KiCad 8.0.3+dfsg-1} date 2024-07-07T12:28:46+0200
; FORMAT={-:-/ absolute / inch / decimal}
; #@! TF.CreationDate,2024-07-07T12:28:46+02:00
; #@! TF.GenerationSoftware,Kicad,Pcbnew,8.0.3+dfsg-1
; #@! TF.FileFunction,Plated,1,2,PTH
FMAT,2
INCH
; #@! TA.AperFunction,Plated,PTH,ViaDrill
T1C0.0157
; #@! TA.AperFunction,Plated,PTH,ComponentDrill
T2C0.0300
; #@! TA.AperFunction,Plated,PTH,ComponentDrill
T3C0.0394
; #@! TA.AperFunction,Plated,PTH,ComponentDrill
T4C0.1260
%
G90
G05
T1
X0.727Y-1.058
X1.5575Y-1.116
X1.6676Y-0.9327
X1.7652Y-1.1
X1.7897Y-0.932
X2.0387Y-1.3545
X2.4513Y-0.9096
X2.6897Y-0.9399
X3.0297Y-1.33
X3.0322Y-1.3808
X3.4605Y-0.902
X3.4864Y-1.0637
X3.7872Y-1.2665
X3.7918Y-1.017
X4.116Y-1.0622
X4.2207Y-0.9697
T2
X0.7634Y-0.844
X0.8421Y-0.844
X1.0784Y-0.844
X1.1571Y-0.844
X1.2358Y-0.844
X3.3618Y-0.844
X3.4406Y-0.844
X3.5193Y-0.844
X3.598Y-0.844
X3.6768Y-0.844
X3.7555Y-0.844
X3.8343Y-0.844
X3.913Y-0.844
X3.9917Y-0.844
X4.1492Y-0.844
X4.228Y-0.844
T3
X3.2437Y-0.6473
X3.3437Y-0.6473
X3.4437Y-0.6473
X3.5437Y-0.6473
X3.6437Y-0.6473
X3.7437Y-0.6473
X3.8437Y-0.6473
X3.9437Y-0.6473
T4
X0.6769Y-0.6686
X0.6769Y-1.771
X4.3108Y-1.771
X4.3186Y-0.6686
M30
