%TF.GenerationSoftware,KiCad,Pcbnew,8.0.3+dfsg-1*%
%TF.CreationDate,2024-07-07T12:28:03+02:00*%
%TF.ProjectId,VFD-Driverboard,5646442d-4472-4697-9665-72626f617264,rev?*%
%TF.SameCoordinates,Original*%
%TF.FileFunction,Copper,L1,Top*%
%TF.FilePolarity,Positive*%
%FSLAX45Y45*%
G04 Gerber Fmt 4.5, Leading zero omitted, Abs format (unit mm)*
G04 Created by KiCad (PCBNEW 8.0.3+dfsg-1) date 2024-07-07 12:28:03*
%MOMM*%
%LPD*%
G01*
G04 APERTURE LIST*
G04 Aperture macros list*
%AMRoundRect*
0 Rectangle with rounded corners*
0 $1 Rounding radius*
0 $2 $3 $4 $5 $6 $7 $8 $9 X,Y pos of 4 corners*
0 Add a 4 corners polygon primitive as box body*
4,1,4,$2,$3,$4,$5,$6,$7,$8,$9,$2,$3,0*
0 Add four circle primitives for the rounded corners*
1,1,$1+$1,$2,$3*
1,1,$1+$1,$4,$5*
1,1,$1+$1,$6,$7*
1,1,$1+$1,$8,$9*
0 Add four rect primitives between the rounded corners*
20,1,$1+$1,$2,$3,$4,$5,0*
20,1,$1+$1,$4,$5,$6,$7,0*
20,1,$1+$1,$6,$7,$8,$9,0*
20,1,$1+$1,$8,$9,$2,$3,0*%
G04 Aperture macros list end*
%TA.AperFunction,ComponentPad*%
%ADD10C,1.524000*%
%TD*%
%TA.AperFunction,SMDPad,CuDef*%
%ADD11RoundRect,0.250000X-0.400000X-0.625000X0.400000X-0.625000X0.400000X0.625000X-0.400000X0.625000X0*%
%TD*%
%TA.AperFunction,ComponentPad*%
%ADD12C,3.600000*%
%TD*%
%TA.AperFunction,ConnectorPad*%
%ADD13C,5.500000*%
%TD*%
%TA.AperFunction,SMDPad,CuDef*%
%ADD14RoundRect,0.250000X0.400000X0.625000X-0.400000X0.625000X-0.400000X-0.625000X0.400000X-0.625000X0*%
%TD*%
%TA.AperFunction,SMDPad,CuDef*%
%ADD15RoundRect,0.250000X0.412500X0.650000X-0.412500X0.650000X-0.412500X-0.650000X0.412500X-0.650000X0*%
%TD*%
%TA.AperFunction,ComponentPad*%
%ADD16R,1.700000X1.700000*%
%TD*%
%TA.AperFunction,ComponentPad*%
%ADD17O,1.700000X1.700000*%
%TD*%
%TA.AperFunction,ViaPad*%
%ADD18C,0.800000*%
%TD*%
%TA.AperFunction,Conductor*%
%ADD19C,0.500000*%
%TD*%
G04 APERTURE END LIST*
D10*
%TO.P,V1,1,F-*%
%TO.N,VF1*%
X10739030Y-2143690D03*
%TO.P,V1,2,F-*%
X10539030Y-2143690D03*
%TO.P,V1,4*%
%TO.N,N/C*%
X10139030Y-2143690D03*
%TO.P,V1,5,VDD*%
%TO.N,VCC*%
X9939030Y-2143690D03*
%TO.P,V1,6,VEE*%
%TO.N,VEE*%
X9739030Y-2143690D03*
%TO.P,V1,7,Gnd*%
%TO.N,Gnd*%
X9539030Y-2143690D03*
%TO.P,V1,8,OSC0*%
%TO.N,Net-(J1-Pin_4)*%
X9339030Y-2143690D03*
%TO.P,V1,9,Reset*%
%TO.N,Net-(J1-Pin_5)*%
X9139030Y-2143690D03*
%TO.P,V1,10,CS*%
%TO.N,Net-(J1-Pin_6)*%
X8939030Y-2143690D03*
%TO.P,V1,11,Clk*%
%TO.N,Net-(J1-Pin_7)*%
X8739030Y-2143690D03*
%TO.P,V1,12,DI*%
%TO.N,Net-(J1-Pin_8)*%
X8539030Y-2143690D03*
%TO.P,V1,39*%
%TO.N,N/C*%
X3139030Y-2143690D03*
%TO.P,V1,40*%
X2939030Y-2143690D03*
%TO.P,V1,41*%
X2739030Y-2143690D03*
%TO.P,V1,44,F+*%
%TO.N,VF2*%
X2139030Y-2143690D03*
%TO.P,V1,45,F+*%
X1939030Y-2143690D03*
%TD*%
D11*
%TO.P,R12,1*%
%TO.N,Net-(J1-Pin_4)*%
X9178620Y-2848220D03*
%TO.P,R12,2*%
%TO.N,VCC*%
X9488620Y-2848220D03*
%TD*%
D12*
%TO.P,H1,1*%
%TO.N,N/C*%
X1719340Y-1698340D03*
D13*
X1719340Y-1698340D03*
%TD*%
D14*
%TO.P,R11,1*%
%TO.N,Net-(U1-Vfb)*%
X10110980Y-2848220D03*
%TO.P,R11,2*%
%TO.N,Net-(U1-GND)*%
X9800980Y-2848220D03*
%TD*%
D15*
%TO.P,C9,1*%
%TO.N,Gnd*%
X9489870Y-2492620D03*
%TO.P,C9,2*%
%TO.N,Net-(J1-Pin_4)*%
X9177370Y-2492620D03*
%TD*%
D12*
%TO.P,H4,1*%
%TO.N,N/C*%
X10949340Y-4498340D03*
D13*
X10949340Y-4498340D03*
%TD*%
D16*
%TO.P,J1,1,Pin_1*%
%TO.N,VCC*%
X10016940Y-1644260D03*
D17*
%TO.P,J1,2,Pin_2*%
%TO.N,unconnected-(J1-Pin_2-Pad2)*%
X9762940Y-1644260D03*
%TO.P,J1,3,Pin_3*%
%TO.N,Gnd*%
X9508940Y-1644260D03*
%TO.P,J1,4,Pin_4*%
%TO.N,Net-(J1-Pin_4)*%
X9254940Y-1644260D03*
%TO.P,J1,5,Pin_5*%
%TO.N,Net-(J1-Pin_5)*%
X9000940Y-1644260D03*
%TO.P,J1,6,Pin_6*%
%TO.N,Net-(J1-Pin_6)*%
X8746940Y-1644260D03*
%TO.P,J1,7,Pin_7*%
%TO.N,Net-(J1-Pin_7)*%
X8492940Y-1644260D03*
%TO.P,J1,8,Pin_8*%
%TO.N,Net-(J1-Pin_8)*%
X8238940Y-1644260D03*
%TD*%
D11*
%TO.P,R5,1*%
%TO.N,VF1*%
X10565460Y-2492620D03*
%TO.P,R5,2*%
%TO.N,Net-(D1-K)*%
X10875460Y-2492620D03*
%TD*%
D12*
%TO.P,H2,1*%
%TO.N,N/C*%
X10969340Y-1698340D03*
D13*
X10969340Y-1698340D03*
%TD*%
D11*
%TO.P,R6,1*%
%TO.N,VF2*%
X1952730Y-2482460D03*
%TO.P,R6,2*%
%TO.N,Net-(D1-K)*%
X2262730Y-2482460D03*
%TD*%
D14*
%TO.P,R10,1*%
%TO.N,Net-(U1-Vfb)*%
X10110920Y-2492620D03*
%TO.P,R10,2*%
%TO.N,VEE*%
X9800920Y-2492620D03*
%TD*%
D12*
%TO.P,H3,1*%
%TO.N,N/C*%
X1719340Y-4498340D03*
D13*
X1719340Y-4498340D03*
%TD*%
D18*
%TO.N,VCC*%
X7695400Y-3378120D03*
%TO.N,VF1*%
X10454640Y-2698090D03*
%TO.N,VF2*%
X1846580Y-2687440D03*
%TO.N,VEE*%
X9631060Y-2583130D03*
X8855570Y-2701900D03*
X6831940Y-2387310D03*
%TO.N,Net-(U2-V01)*%
X4235780Y-2369130D03*
X3956160Y-2834610D03*
%TO.N,Net-(U1-GND)*%
X9619450Y-3217010D03*
%TO.N,Net-(D1-K)*%
X6226250Y-2310490D03*
X8789630Y-2290980D03*
X10720460Y-2462970D03*
X5178240Y-3440380D03*
%TO.N,Net-(U2-+IN)*%
X4483650Y-2793940D03*
X4545780Y-2367390D03*
%TO.N,Net-(U1-Vfb)*%
X7701720Y-3507230D03*
%TD*%
D19*
%TO.N,VCC*%
X9939030Y-2559330D02*
X9939030Y-2143690D01*
X10016940Y-1779260D02*
X9939030Y-1857170D01*
X7695400Y-3378120D02*
X8958720Y-3378120D01*
X9711300Y-2625540D02*
X9872820Y-2625540D01*
X9939030Y-1857170D02*
X9939030Y-2143690D01*
X9488620Y-2848220D02*
X9711300Y-2625540D01*
X8958720Y-3378120D02*
X9488620Y-2848220D01*
X9872820Y-2625540D02*
X9939030Y-2559330D01*
X10016940Y-1644260D02*
X10016940Y-1779260D01*
%TO.N,VF1*%
X10539030Y-2143690D02*
X10565460Y-2143690D01*
X10565460Y-2492620D02*
X10565460Y-2143690D01*
X10454640Y-2698090D02*
X10565460Y-2587270D01*
X10565460Y-2143690D02*
X10739030Y-2143690D01*
X10565460Y-2587270D02*
X10565460Y-2492620D01*
%TO.N,VF2*%
X1952730Y-2482460D02*
X1939030Y-2468760D01*
X1952730Y-2581290D02*
X1952730Y-2482460D01*
X1939030Y-2468760D02*
X1939030Y-2143690D01*
X1939030Y-2143690D02*
X2139030Y-2143690D01*
X1846580Y-2687440D02*
X1952730Y-2581290D01*
%TO.N,VEE*%
X8855570Y-2701900D02*
X8540980Y-2387310D01*
X9739030Y-2430730D02*
X9761250Y-2452940D01*
X8540980Y-2387310D02*
X6831940Y-2387310D01*
X9739030Y-2143690D02*
X9739030Y-2430730D01*
X9631060Y-2583130D02*
X9761250Y-2452940D01*
X9761250Y-2452940D02*
X9800920Y-2492620D01*
%TO.N,Net-(J1-Pin_4)*%
X9254940Y-1779260D02*
X9339030Y-1863350D01*
X9339030Y-1863350D02*
X9339030Y-2143690D01*
X9178620Y-2493870D02*
X9178620Y-2848220D01*
X9254940Y-1644260D02*
X9254940Y-1779260D01*
X9177370Y-2492620D02*
X9178620Y-2493870D01*
X9339030Y-2330960D02*
X9177370Y-2492620D01*
X9339030Y-2143690D02*
X9339030Y-2330960D01*
%TO.N,Net-(J1-Pin_5)*%
X9000940Y-1644260D02*
X9000940Y-1779260D01*
X9139030Y-1917350D02*
X9139030Y-2143690D01*
X9000940Y-1779260D02*
X9139030Y-1917350D01*
%TO.N,Net-(J1-Pin_6)*%
X8746940Y-1779260D02*
X8939030Y-1971350D01*
X8746940Y-1644260D02*
X8746940Y-1779260D01*
X8939030Y-1971350D02*
X8939030Y-2143690D01*
%TO.N,Net-(J1-Pin_7)*%
X8492940Y-1779260D02*
X8739030Y-2025350D01*
X8739030Y-2025350D02*
X8739030Y-2143690D01*
X8492940Y-1644260D02*
X8492940Y-1779260D01*
%TO.N,Net-(J1-Pin_8)*%
X8238940Y-1644260D02*
X8238940Y-1779260D01*
X8238940Y-1779260D02*
X8539030Y-2079350D01*
X8539030Y-2079350D02*
X8539030Y-2143690D01*
%TO.N,Net-(U2-V01)*%
X3956160Y-2834610D02*
X3956160Y-2648750D01*
X3956160Y-2648750D02*
X4235780Y-2369130D01*
%TO.N,Gnd*%
X9489870Y-2192850D02*
X9539030Y-2143690D01*
X9489870Y-2492620D02*
X9489870Y-2192850D01*
%TO.N,Net-(U1-GND)*%
X9619450Y-3217010D02*
X9800980Y-3035480D01*
X9800980Y-3035480D02*
X9800980Y-2848220D01*
%TO.N,Net-(D1-K)*%
X6245760Y-2290980D02*
X8789630Y-2290980D01*
X6226250Y-2310490D02*
X6245760Y-2290980D01*
X10845810Y-2462970D02*
X10875460Y-2492620D01*
X10720460Y-2462970D02*
X10845810Y-2462970D01*
X2717580Y-2937310D02*
X2262730Y-2482460D01*
X5178240Y-3440380D02*
X4675170Y-2937310D01*
X5178240Y-3440380D02*
X6226250Y-2392370D01*
X6226250Y-2392370D02*
X6226250Y-2310490D01*
X4675170Y-2937310D02*
X2717580Y-2937310D01*
%TO.N,Net-(U2-+IN)*%
X4545780Y-2731810D02*
X4545780Y-2367390D01*
X4483650Y-2793940D02*
X4545780Y-2731810D01*
%TO.N,Net-(U1-Vfb)*%
X10110920Y-2848220D02*
X10110980Y-2848220D01*
X10110920Y-2848220D02*
X10110920Y-2492620D01*
X7701720Y-3507230D02*
X9451910Y-3507230D01*
X9451910Y-3507230D02*
X10110920Y-2848220D01*
%TD*%
%TA.AperFunction,Conductor*%
%TO.N,Gnd*%
G36*
X9500930Y-2148706D02*
G01*
X9503526Y-2158396D01*
X9508542Y-2167084D01*
X9515636Y-2174178D01*
X9524324Y-2179194D01*
X9534014Y-2181790D01*
X9536285Y-2181790D01*
X9469211Y-2248864D01*
X9475689Y-2253400D01*
X9475689Y-2253400D01*
X9495702Y-2262732D01*
X9495703Y-2262732D01*
X9517031Y-2268447D01*
X9517032Y-2268448D01*
X9539030Y-2270372D01*
X9539030Y-2270372D01*
X9561028Y-2268448D01*
X9561029Y-2268447D01*
X9582357Y-2262732D01*
X9582358Y-2262732D01*
X9602371Y-2253400D01*
X9602372Y-2253399D01*
X9608849Y-2248864D01*
X9541775Y-2181790D01*
X9544046Y-2181790D01*
X9553736Y-2179194D01*
X9562424Y-2174178D01*
X9569518Y-2167084D01*
X9574534Y-2158396D01*
X9577130Y-2148706D01*
X9577130Y-2146435D01*
X9620326Y-2189630D01*
X9622796Y-2193158D01*
X9629277Y-2207056D01*
X9629277Y-2207057D01*
X9641404Y-2224376D01*
X9641947Y-2225152D01*
X9657568Y-2240773D01*
X9658692Y-2241560D01*
X9663055Y-2247017D01*
X9663980Y-2251717D01*
X9663980Y-2422735D01*
X9663978Y-2422770D01*
X9663980Y-2430523D01*
X9663980Y-2438487D01*
X9663988Y-2438629D01*
X9663988Y-2438697D01*
X9663980Y-2438697D01*
X9663980Y-2438699D01*
X9663859Y-2438699D01*
X9663734Y-2438701D01*
X9662664Y-2444512D01*
X9660364Y-2447689D01*
X9627288Y-2480765D01*
X9621156Y-2484114D01*
X9614187Y-2483615D01*
X9608593Y-2479428D01*
X9606152Y-2472882D01*
X9606120Y-2471997D01*
X9606120Y-2422623D01*
X9606120Y-2422621D01*
X9605071Y-2412350D01*
X9599556Y-2395708D01*
X9599556Y-2395708D01*
X9590352Y-2380785D01*
X9577955Y-2368388D01*
X9563032Y-2359184D01*
X9563032Y-2359184D01*
X9546390Y-2353669D01*
X9546389Y-2353669D01*
X9536119Y-2352620D01*
X9514870Y-2352620D01*
X9514870Y-2632620D01*
X9536117Y-2632620D01*
X9536119Y-2632620D01*
X9546686Y-2631540D01*
X9553555Y-2632817D01*
X9557257Y-2635972D01*
X9557372Y-2635869D01*
X9567248Y-2646837D01*
X9570271Y-2653136D01*
X9569408Y-2660070D01*
X9566801Y-2663902D01*
X9523665Y-2707038D01*
X9517533Y-2710387D01*
X9514897Y-2710670D01*
X9443620Y-2710670D01*
X9443618Y-2710670D01*
X9433340Y-2711720D01*
X9433340Y-2711720D01*
X9416687Y-2717239D01*
X9416686Y-2717239D01*
X9401754Y-2726449D01*
X9389349Y-2738854D01*
X9380139Y-2753786D01*
X9380139Y-2753787D01*
X9374620Y-2770440D01*
X9373570Y-2780718D01*
X9373570Y-2851997D01*
X9371602Y-2858701D01*
X9369938Y-2860765D01*
X9314838Y-2915865D01*
X9308706Y-2919214D01*
X9301737Y-2918715D01*
X9296143Y-2914528D01*
X9293702Y-2907982D01*
X9293670Y-2907100D01*
X9293670Y-2780719D01*
X9293561Y-2779652D01*
X9292620Y-2770440D01*
X9292620Y-2770440D01*
X9290943Y-2765379D01*
X9287101Y-2753787D01*
X9277891Y-2738854D01*
X9265486Y-2726449D01*
X9265486Y-2726449D01*
X9259560Y-2722794D01*
X9254888Y-2717599D01*
X9253670Y-2712240D01*
X9253670Y-2631100D01*
X9255639Y-2624396D01*
X9259560Y-2620546D01*
X9265486Y-2616891D01*
X9277891Y-2604486D01*
X9287101Y-2589553D01*
X9292620Y-2572900D01*
X9293670Y-2562621D01*
X9293670Y-2562619D01*
X9373620Y-2562619D01*
X9374669Y-2572890D01*
X9380184Y-2589532D01*
X9380184Y-2589532D01*
X9389388Y-2604455D01*
X9401785Y-2616852D01*
X9416708Y-2626056D01*
X9416708Y-2626056D01*
X9433350Y-2631571D01*
X9433351Y-2631571D01*
X9443622Y-2632620D01*
X9464870Y-2632620D01*
X9464870Y-2632620D01*
X9464870Y-2517620D01*
X9373620Y-2517620D01*
X9373620Y-2562619D01*
X9293670Y-2562619D01*
X9293670Y-2487593D01*
X9295638Y-2480889D01*
X9297301Y-2478825D01*
X9352452Y-2423675D01*
X9358584Y-2420326D01*
X9365553Y-2420825D01*
X9371147Y-2425012D01*
X9373588Y-2431558D01*
X9373620Y-2432443D01*
X9373620Y-2467620D01*
X9464870Y-2467620D01*
X9464870Y-2352620D01*
X9443623Y-2352620D01*
X9443621Y-2352620D01*
X9433350Y-2353669D01*
X9429676Y-2354887D01*
X9422693Y-2355127D01*
X9416688Y-2351554D01*
X9413569Y-2345302D01*
X9413613Y-2340698D01*
X9414080Y-2338352D01*
X9414080Y-2323568D01*
X9414080Y-2251717D01*
X9416049Y-2245013D01*
X9419368Y-2241560D01*
X9420492Y-2240773D01*
X9436113Y-2225152D01*
X9448783Y-2207056D01*
X9455264Y-2193158D01*
X9457734Y-2189630D01*
X9500930Y-2146434D01*
X9500930Y-2148706D01*
G37*
%TD.AperFunction*%
%TA.AperFunction,Conductor*%
G36*
X9533940Y-1777323D02*
G01*
X9555288Y-1771603D01*
X9555289Y-1771603D01*
X9576698Y-1761620D01*
X9596048Y-1748070D01*
X9612751Y-1731368D01*
X9625752Y-1712800D01*
X9631210Y-1708438D01*
X9638160Y-1707719D01*
X9644395Y-1710871D01*
X9646067Y-1712800D01*
X9659091Y-1731400D01*
X9675800Y-1748109D01*
X9685478Y-1754886D01*
X9695157Y-1761663D01*
X9695157Y-1761663D01*
X9695157Y-1761663D01*
X9716574Y-1771650D01*
X9739399Y-1777766D01*
X9758232Y-1779414D01*
X9762940Y-1779826D01*
X9762940Y-1779826D01*
X9762940Y-1779826D01*
X9766863Y-1779483D01*
X9786481Y-1777766D01*
X9809306Y-1771650D01*
X9830723Y-1761663D01*
X9850080Y-1748109D01*
X9862273Y-1735917D01*
X9868405Y-1732568D01*
X9875374Y-1733067D01*
X9880967Y-1737254D01*
X9882659Y-1740352D01*
X9887560Y-1753493D01*
X9887561Y-1753493D01*
X9896185Y-1765014D01*
X9896185Y-1765014D01*
X9896185Y-1765015D01*
X9901236Y-1768795D01*
X9905423Y-1774389D01*
X9905921Y-1781358D01*
X9902573Y-1787490D01*
X9880735Y-1809328D01*
X9875811Y-1816697D01*
X9872522Y-1821620D01*
X9872521Y-1821621D01*
X9866864Y-1835279D01*
X9866864Y-1835279D01*
X9863980Y-1849778D01*
X9863980Y-2035663D01*
X9862012Y-2042366D01*
X9858693Y-2045820D01*
X9857569Y-2046607D01*
X9857568Y-2046607D01*
X9847798Y-2056377D01*
X9841666Y-2059726D01*
X9834697Y-2059227D01*
X9830262Y-2056377D01*
X9830262Y-2056377D01*
X9820492Y-2046607D01*
X9820492Y-2046607D01*
X9820492Y-2046607D01*
X9802397Y-2033937D01*
X9802396Y-2033937D01*
X9794128Y-2030081D01*
X9782375Y-2024601D01*
X9782375Y-2024600D01*
X9782375Y-2024600D01*
X9761037Y-2018883D01*
X9761036Y-2018883D01*
X9739030Y-2016958D01*
X9739030Y-2016958D01*
X9717024Y-2018883D01*
X9717023Y-2018883D01*
X9695685Y-2024600D01*
X9695685Y-2024601D01*
X9675664Y-2033936D01*
X9675664Y-2033937D01*
X9657568Y-2046607D01*
X9641948Y-2062228D01*
X9629277Y-2080324D01*
X9622796Y-2094222D01*
X9620326Y-2097750D01*
X9577130Y-2140945D01*
X9577130Y-2138674D01*
X9574534Y-2128984D01*
X9569518Y-2120296D01*
X9562424Y-2113202D01*
X9553736Y-2108186D01*
X9544046Y-2105590D01*
X9541775Y-2105590D01*
X9608849Y-2038516D01*
X9608849Y-2038516D01*
X9602371Y-2033980D01*
X9602371Y-2033980D01*
X9582358Y-2024648D01*
X9582357Y-2024647D01*
X9561029Y-2018933D01*
X9561028Y-2018932D01*
X9539030Y-2017008D01*
X9539030Y-2017008D01*
X9517032Y-2018932D01*
X9517031Y-2018933D01*
X9495703Y-2024647D01*
X9495702Y-2024648D01*
X9475689Y-2033980D01*
X9469211Y-2038516D01*
X9536285Y-2105590D01*
X9534014Y-2105590D01*
X9524324Y-2108186D01*
X9515636Y-2113202D01*
X9508542Y-2120296D01*
X9503526Y-2128984D01*
X9500930Y-2138674D01*
X9500930Y-2140945D01*
X9457734Y-2097749D01*
X9455264Y-2094222D01*
X9448783Y-2080324D01*
X9436113Y-2062228D01*
X9420492Y-2046607D01*
X9420492Y-2046607D01*
X9420491Y-2046607D01*
X9419368Y-2045820D01*
X9415005Y-2040362D01*
X9414080Y-2035663D01*
X9414080Y-1855958D01*
X9411196Y-1841459D01*
X9411196Y-1841459D01*
X9411196Y-1841459D01*
X9408636Y-1835279D01*
X9405539Y-1827801D01*
X9405538Y-1827800D01*
X9397325Y-1815508D01*
X9396626Y-1814809D01*
X9386872Y-1805055D01*
X9368469Y-1786652D01*
X9344771Y-1762954D01*
X9341423Y-1756822D01*
X9341921Y-1749853D01*
X9344771Y-1745418D01*
X9350181Y-1740008D01*
X9358790Y-1731400D01*
X9371813Y-1712800D01*
X9377271Y-1708438D01*
X9384221Y-1707719D01*
X9390456Y-1710871D01*
X9392128Y-1712800D01*
X9405129Y-1731368D01*
X9421832Y-1748070D01*
X9441182Y-1761620D01*
X9462591Y-1771603D01*
X9462592Y-1771603D01*
X9483940Y-1777323D01*
X9483940Y-1687561D01*
X9489641Y-1690852D01*
X9502357Y-1694260D01*
X9515523Y-1694260D01*
X9528239Y-1690852D01*
X9533940Y-1687561D01*
X9533940Y-1777323D01*
G37*
%TD.AperFunction*%
%TA.AperFunction,Conductor*%
G36*
X1653590Y-1358329D02*
G01*
X1658166Y-1363609D01*
X1659160Y-1370525D01*
X1656258Y-1376880D01*
X1650380Y-1380658D01*
X1649552Y-1380870D01*
X1632252Y-1384678D01*
X1598849Y-1395933D01*
X1598849Y-1395933D01*
X1566861Y-1410732D01*
X1566860Y-1410733D01*
X1536658Y-1428904D01*
X1508599Y-1450235D01*
X1508598Y-1450235D01*
X1483008Y-1474475D01*
X1460190Y-1501338D01*
X1460190Y-1501339D01*
X1440409Y-1530513D01*
X1423900Y-1561654D01*
X1423899Y-1561655D01*
X1410853Y-1594399D01*
X1410853Y-1594399D01*
X1401423Y-1628360D01*
X1401423Y-1628361D01*
X1395721Y-1663144D01*
X1393813Y-1698340D01*
X1393813Y-1698340D01*
X1395721Y-1733535D01*
X1401423Y-1768319D01*
X1401423Y-1768320D01*
X1410853Y-1802281D01*
X1410853Y-1802281D01*
X1423899Y-1835024D01*
X1423900Y-1835026D01*
X1436639Y-1859055D01*
X1440409Y-1866167D01*
X1455387Y-1888257D01*
X1460190Y-1895341D01*
X1460190Y-1895342D01*
X1483008Y-1922205D01*
X1483009Y-1922205D01*
X1508598Y-1946445D01*
X1536658Y-1967775D01*
X1566860Y-1985947D01*
X1566861Y-1985947D01*
X1566861Y-1985948D01*
X1598849Y-2000747D01*
X1598849Y-2000747D01*
X1598850Y-2000747D01*
X1632252Y-2012002D01*
X1666675Y-2019579D01*
X1701716Y-2023390D01*
X1701717Y-2023390D01*
X1736963Y-2023390D01*
X1736964Y-2023390D01*
X1772004Y-2019579D01*
X1806428Y-2012002D01*
X1839830Y-2000747D01*
X1839831Y-2000747D01*
X1839831Y-2000747D01*
X1871819Y-1985948D01*
X1871820Y-1985947D01*
X1902022Y-1967775D01*
X1930082Y-1946445D01*
X1955671Y-1922205D01*
X1978490Y-1895341D01*
X1998270Y-1866167D01*
X2014781Y-1835025D01*
X2027827Y-1802281D01*
X2028141Y-1801151D01*
X2032167Y-1786652D01*
X2037257Y-1768319D01*
X2042959Y-1733536D01*
X2044867Y-1698340D01*
X2044494Y-1691463D01*
X2042959Y-1663144D01*
X2042959Y-1663144D01*
X2037257Y-1628361D01*
X2030562Y-1604250D01*
X2027827Y-1594399D01*
X2027827Y-1594399D01*
X2014781Y-1561655D01*
X2014780Y-1561654D01*
X2012394Y-1557153D01*
X1998270Y-1530513D01*
X1978490Y-1501339D01*
X1978490Y-1501339D01*
X1978489Y-1501338D01*
X1955671Y-1474475D01*
X1930082Y-1450235D01*
X1930081Y-1450235D01*
X1930081Y-1450235D01*
X1902021Y-1428904D01*
X1871820Y-1410733D01*
X1871819Y-1410732D01*
X1839831Y-1395933D01*
X1839831Y-1395933D01*
X1839830Y-1395933D01*
X1839830Y-1395933D01*
X1823946Y-1390581D01*
X1806428Y-1384678D01*
X1806428Y-1384678D01*
X1806428Y-1384678D01*
X1789128Y-1380870D01*
X1783004Y-1377507D01*
X1779671Y-1371366D01*
X1780186Y-1364398D01*
X1784387Y-1358815D01*
X1790940Y-1356390D01*
X1791794Y-1356360D01*
X10896886Y-1356360D01*
X10903590Y-1358329D01*
X10908166Y-1363609D01*
X10909160Y-1370525D01*
X10906258Y-1376880D01*
X10900380Y-1380658D01*
X10899552Y-1380870D01*
X10882252Y-1384678D01*
X10848849Y-1395933D01*
X10848849Y-1395933D01*
X10816861Y-1410732D01*
X10816860Y-1410733D01*
X10786658Y-1428904D01*
X10758599Y-1450235D01*
X10758598Y-1450235D01*
X10733009Y-1474475D01*
X10710191Y-1501338D01*
X10710190Y-1501339D01*
X10690410Y-1530513D01*
X10673900Y-1561654D01*
X10673899Y-1561655D01*
X10660853Y-1594399D01*
X10660853Y-1594399D01*
X10651423Y-1628360D01*
X10651423Y-1628361D01*
X10645721Y-1663144D01*
X10643813Y-1698340D01*
X10643813Y-1698340D01*
X10645721Y-1733535D01*
X10651423Y-1768319D01*
X10651423Y-1768320D01*
X10660853Y-1802281D01*
X10660853Y-1802281D01*
X10673899Y-1835024D01*
X10673900Y-1835026D01*
X10686639Y-1859055D01*
X10690410Y-1866167D01*
X10705387Y-1888257D01*
X10710190Y-1895341D01*
X10710191Y-1895342D01*
X10733009Y-1922205D01*
X10733009Y-1922205D01*
X10758598Y-1946445D01*
X10786658Y-1967775D01*
X10816860Y-1985947D01*
X10816861Y-1985947D01*
X10816861Y-1985948D01*
X10848849Y-2000747D01*
X10848849Y-2000747D01*
X10848850Y-2000747D01*
X10882252Y-2012002D01*
X10916676Y-2019579D01*
X10951716Y-2023390D01*
X10951717Y-2023390D01*
X10986963Y-2023390D01*
X10986964Y-2023390D01*
X11022005Y-2019579D01*
X11056428Y-2012002D01*
X11089830Y-2000747D01*
X11089831Y-2000747D01*
X11089831Y-2000747D01*
X11121819Y-1985948D01*
X11121820Y-1985947D01*
X11152022Y-1967775D01*
X11180082Y-1946445D01*
X11205671Y-1922205D01*
X11228490Y-1895341D01*
X11248270Y-1866167D01*
X11264781Y-1835025D01*
X11277827Y-1802281D01*
X11278141Y-1801151D01*
X11282167Y-1786652D01*
X11287257Y-1768319D01*
X11292959Y-1733536D01*
X11294867Y-1698340D01*
X11294494Y-1691463D01*
X11292959Y-1663144D01*
X11292959Y-1663144D01*
X11287257Y-1628361D01*
X11280562Y-1604250D01*
X11277827Y-1594399D01*
X11277827Y-1594399D01*
X11264781Y-1561655D01*
X11264780Y-1561654D01*
X11262394Y-1557153D01*
X11248270Y-1530513D01*
X11228490Y-1501339D01*
X11228490Y-1501339D01*
X11228489Y-1501338D01*
X11205671Y-1474475D01*
X11180082Y-1450235D01*
X11180081Y-1450235D01*
X11180081Y-1450235D01*
X11152022Y-1428904D01*
X11121820Y-1410733D01*
X11121819Y-1410732D01*
X11089831Y-1395933D01*
X11089831Y-1395933D01*
X11089830Y-1395933D01*
X11089830Y-1395933D01*
X11073947Y-1390581D01*
X11056428Y-1384678D01*
X11056428Y-1384678D01*
X11056428Y-1384678D01*
X11039128Y-1380870D01*
X11033004Y-1377507D01*
X11029671Y-1371366D01*
X11030186Y-1364398D01*
X11034387Y-1358815D01*
X11040940Y-1356390D01*
X11041794Y-1356360D01*
X11316000Y-1356360D01*
X11322704Y-1358329D01*
X11327279Y-1363609D01*
X11328400Y-1368760D01*
X11328400Y-4816153D01*
X11326431Y-4822857D01*
X11321151Y-4827432D01*
X11316013Y-4828553D01*
X11062189Y-4828811D01*
X11055483Y-4826849D01*
X11050902Y-4821574D01*
X11049901Y-4814659D01*
X11052797Y-4808300D01*
X11058217Y-4804660D01*
X11069830Y-4800747D01*
X11069831Y-4800747D01*
X11069831Y-4800747D01*
X11101819Y-4785948D01*
X11101820Y-4785947D01*
X11132022Y-4767775D01*
X11160082Y-4746445D01*
X11185671Y-4722205D01*
X11208490Y-4695341D01*
X11228270Y-4666167D01*
X11244781Y-4635025D01*
X11257827Y-4602281D01*
X11267257Y-4568319D01*
X11272959Y-4533536D01*
X11274867Y-4498340D01*
X11272959Y-4463144D01*
X11267257Y-4428361D01*
X11263010Y-4413067D01*
X11257827Y-4394399D01*
X11257827Y-4394399D01*
X11244781Y-4361656D01*
X11244780Y-4361654D01*
X11228270Y-4330513D01*
X11208490Y-4301339D01*
X11208490Y-4301339D01*
X11208489Y-4301338D01*
X11185671Y-4274475D01*
X11160082Y-4250235D01*
X11160081Y-4250235D01*
X11160081Y-4250235D01*
X11132022Y-4228904D01*
X11101820Y-4210733D01*
X11101819Y-4210732D01*
X11069831Y-4195933D01*
X11069831Y-4195933D01*
X11069830Y-4195933D01*
X11069830Y-4195933D01*
X11059183Y-4192345D01*
X11036428Y-4184678D01*
X11002004Y-4177101D01*
X10966964Y-4173290D01*
X10966964Y-4173290D01*
X10931716Y-4173290D01*
X10931716Y-4173290D01*
X10896676Y-4177101D01*
X10862252Y-4184678D01*
X10828849Y-4195933D01*
X10828849Y-4195933D01*
X10796861Y-4210732D01*
X10796860Y-4210733D01*
X10766658Y-4228904D01*
X10738599Y-4250235D01*
X10738598Y-4250235D01*
X10713009Y-4274475D01*
X10690191Y-4301338D01*
X10690190Y-4301339D01*
X10670410Y-4330513D01*
X10653900Y-4361654D01*
X10653899Y-4361656D01*
X10640853Y-4394399D01*
X10640853Y-4394399D01*
X10631423Y-4428360D01*
X10631423Y-4428361D01*
X10625721Y-4463145D01*
X10623813Y-4498340D01*
X10623813Y-4498340D01*
X10625721Y-4533535D01*
X10631423Y-4568319D01*
X10631423Y-4568320D01*
X10640853Y-4602281D01*
X10640853Y-4602281D01*
X10653899Y-4635024D01*
X10653900Y-4635026D01*
X10670410Y-4666167D01*
X10690190Y-4695341D01*
X10690191Y-4695342D01*
X10713009Y-4722205D01*
X10713009Y-4722205D01*
X10738598Y-4746445D01*
X10766658Y-4767775D01*
X10796860Y-4785947D01*
X10796861Y-4785948D01*
X10796861Y-4785948D01*
X10828849Y-4800747D01*
X10828850Y-4800747D01*
X10841143Y-4804889D01*
X10846867Y-4808895D01*
X10849517Y-4815360D01*
X10848251Y-4822232D01*
X10843471Y-4827328D01*
X10837196Y-4829040D01*
X1801248Y-4838242D01*
X1794542Y-4836280D01*
X1789961Y-4831004D01*
X1788959Y-4824090D01*
X1791855Y-4817731D01*
X1797729Y-4813948D01*
X1798568Y-4813732D01*
X1804211Y-4812490D01*
X1806428Y-4812002D01*
X1815648Y-4808895D01*
X1839830Y-4800747D01*
X1839831Y-4800747D01*
X1839831Y-4800747D01*
X1871819Y-4785948D01*
X1871820Y-4785947D01*
X1902022Y-4767775D01*
X1930082Y-4746445D01*
X1955671Y-4722205D01*
X1978490Y-4695341D01*
X1998270Y-4666167D01*
X2014781Y-4635025D01*
X2027827Y-4602281D01*
X2037257Y-4568319D01*
X2042959Y-4533536D01*
X2044867Y-4498340D01*
X2042959Y-4463144D01*
X2037257Y-4428361D01*
X2033010Y-4413067D01*
X2027827Y-4394399D01*
X2027827Y-4394399D01*
X2014781Y-4361656D01*
X2014780Y-4361654D01*
X1998270Y-4330513D01*
X1978490Y-4301339D01*
X1978490Y-4301339D01*
X1978489Y-4301338D01*
X1955671Y-4274475D01*
X1930082Y-4250235D01*
X1930081Y-4250235D01*
X1930081Y-4250235D01*
X1902021Y-4228904D01*
X1871820Y-4210733D01*
X1871819Y-4210732D01*
X1839831Y-4195933D01*
X1839831Y-4195933D01*
X1839830Y-4195933D01*
X1839830Y-4195933D01*
X1829183Y-4192345D01*
X1806428Y-4184678D01*
X1772004Y-4177101D01*
X1736964Y-4173290D01*
X1736964Y-4173290D01*
X1701716Y-4173290D01*
X1701716Y-4173290D01*
X1666676Y-4177101D01*
X1632252Y-4184678D01*
X1598849Y-4195933D01*
X1598849Y-4195933D01*
X1566861Y-4210732D01*
X1566860Y-4210733D01*
X1536658Y-4228904D01*
X1508599Y-4250235D01*
X1508598Y-4250235D01*
X1483008Y-4274475D01*
X1460190Y-4301338D01*
X1460190Y-4301339D01*
X1440409Y-4330513D01*
X1423900Y-4361654D01*
X1423899Y-4361656D01*
X1410853Y-4394399D01*
X1410853Y-4394399D01*
X1401423Y-4428360D01*
X1401423Y-4428361D01*
X1395721Y-4463145D01*
X1393813Y-4498340D01*
X1393813Y-4498340D01*
X1395721Y-4533535D01*
X1401423Y-4568319D01*
X1401423Y-4568320D01*
X1410853Y-4602281D01*
X1410853Y-4602281D01*
X1423899Y-4635024D01*
X1423900Y-4635026D01*
X1440409Y-4666167D01*
X1460190Y-4695341D01*
X1460190Y-4695342D01*
X1483008Y-4722205D01*
X1483009Y-4722205D01*
X1508598Y-4746445D01*
X1536658Y-4767775D01*
X1566860Y-4785947D01*
X1566861Y-4785948D01*
X1566861Y-4785948D01*
X1598849Y-4800747D01*
X1598849Y-4800747D01*
X1598850Y-4800747D01*
X1632252Y-4812002D01*
X1639109Y-4813511D01*
X1640865Y-4813898D01*
X1646989Y-4817261D01*
X1650322Y-4823402D01*
X1649807Y-4830370D01*
X1645606Y-4835953D01*
X1639053Y-4838378D01*
X1638212Y-4838408D01*
X1363693Y-4838687D01*
X1356987Y-4836726D01*
X1352406Y-4831450D01*
X1351280Y-4826287D01*
X1351280Y-2687440D01*
X1756034Y-2687440D01*
X1758013Y-2706266D01*
X1758013Y-2706266D01*
X1763862Y-2724268D01*
X1763862Y-2724268D01*
X1773327Y-2740662D01*
X1782916Y-2751311D01*
X1785993Y-2754729D01*
X1801306Y-2765855D01*
X1801307Y-2765855D01*
X1818599Y-2773554D01*
X1818600Y-2773554D01*
X1837115Y-2777490D01*
X1837115Y-2777490D01*
X1856044Y-2777490D01*
X1856045Y-2777490D01*
X1874560Y-2773554D01*
X1891853Y-2765855D01*
X1907167Y-2754729D01*
X1919833Y-2740662D01*
X1929298Y-2724268D01*
X1934832Y-2707236D01*
X1937857Y-2702300D01*
X2011025Y-2629132D01*
X2017154Y-2619958D01*
X2018245Y-2618325D01*
X2023607Y-2613845D01*
X2024656Y-2613444D01*
X2024657Y-2613443D01*
X2024663Y-2613441D01*
X2039596Y-2604231D01*
X2052001Y-2591826D01*
X2061211Y-2576893D01*
X2066730Y-2560240D01*
X2067780Y-2549961D01*
X2067780Y-2414959D01*
X2067780Y-2414958D01*
X2147680Y-2414958D01*
X2147680Y-2549960D01*
X2147680Y-2549962D01*
X2148730Y-2560240D01*
X2148730Y-2560240D01*
X2152925Y-2572900D01*
X2154249Y-2576893D01*
X2163459Y-2591826D01*
X2175864Y-2604231D01*
X2190797Y-2613441D01*
X2207450Y-2618960D01*
X2217729Y-2620010D01*
X2289007Y-2620010D01*
X2295711Y-2621978D01*
X2297775Y-2623642D01*
X2659285Y-2985151D01*
X2659285Y-2985152D01*
X2667152Y-2993019D01*
X2669739Y-2995605D01*
X2682030Y-3003818D01*
X2682031Y-3003819D01*
X2695688Y-3009476D01*
X2695689Y-3009476D01*
X2695689Y-3009476D01*
X2695689Y-3009476D01*
X2710188Y-3012360D01*
X2710188Y-3012360D01*
X4638947Y-3012360D01*
X4645651Y-3014328D01*
X4647715Y-3015992D01*
X5086963Y-3455239D01*
X5089988Y-3460176D01*
X5095522Y-3477208D01*
X5095522Y-3477208D01*
X5104987Y-3493602D01*
X5117258Y-3507230D01*
X5117653Y-3507669D01*
X5132967Y-3518795D01*
X5132967Y-3518795D01*
X5150259Y-3526494D01*
X5150260Y-3526494D01*
X5168775Y-3530430D01*
X5168776Y-3530430D01*
X5187704Y-3530430D01*
X5187705Y-3530430D01*
X5206220Y-3526494D01*
X5223513Y-3518795D01*
X5238827Y-3507669D01*
X5251493Y-3493602D01*
X5260958Y-3477208D01*
X5266492Y-3460175D01*
X5269517Y-3455240D01*
X6284545Y-2440212D01*
X6288282Y-2434618D01*
X6292758Y-2427920D01*
X6295333Y-2421704D01*
X6298416Y-2414261D01*
X6301300Y-2399762D01*
X6301300Y-2384978D01*
X6301300Y-2378430D01*
X6303268Y-2371726D01*
X6308549Y-2367151D01*
X6313700Y-2366030D01*
X6729859Y-2366030D01*
X6736563Y-2367999D01*
X6741138Y-2373279D01*
X6742191Y-2379726D01*
X6741394Y-2387310D01*
X6743373Y-2406136D01*
X6743373Y-2406136D01*
X6749222Y-2424138D01*
X6749222Y-2424138D01*
X6758687Y-2440532D01*
X6765002Y-2447545D01*
X6771353Y-2454599D01*
X6786666Y-2465725D01*
X6786667Y-2465725D01*
X6803959Y-2473424D01*
X6803960Y-2473424D01*
X6822475Y-2477360D01*
X6822475Y-2477360D01*
X6841404Y-2477360D01*
X6841405Y-2477360D01*
X6859920Y-2473424D01*
X6877213Y-2465725D01*
X6877418Y-2465576D01*
X6878585Y-2464728D01*
X6885166Y-2462380D01*
X6885874Y-2462360D01*
X8504757Y-2462360D01*
X8511461Y-2464329D01*
X8513525Y-2465992D01*
X8764293Y-2716760D01*
X8767318Y-2721696D01*
X8772852Y-2738728D01*
X8772852Y-2738728D01*
X8782317Y-2755122D01*
X8791981Y-2765855D01*
X8794983Y-2769189D01*
X8810297Y-2780315D01*
X8810297Y-2780315D01*
X8827589Y-2788014D01*
X8827590Y-2788014D01*
X8846105Y-2791950D01*
X8846106Y-2791950D01*
X8865034Y-2791950D01*
X8865035Y-2791950D01*
X8883550Y-2788014D01*
X8900843Y-2780315D01*
X8916157Y-2769189D01*
X8928823Y-2755122D01*
X8938288Y-2738728D01*
X8944137Y-2720726D01*
X8946116Y-2701900D01*
X8944137Y-2683074D01*
X8938288Y-2665072D01*
X8928823Y-2648678D01*
X8916157Y-2634611D01*
X8915617Y-2634218D01*
X8900843Y-2623485D01*
X8900843Y-2623485D01*
X8883551Y-2615786D01*
X8883550Y-2615786D01*
X8877037Y-2614401D01*
X8870889Y-2611082D01*
X8870847Y-2611040D01*
X8647005Y-2387198D01*
X8643656Y-2381066D01*
X8644155Y-2374097D01*
X8648342Y-2368503D01*
X8654888Y-2366062D01*
X8655773Y-2366030D01*
X8735696Y-2366030D01*
X8742400Y-2367999D01*
X8742985Y-2368398D01*
X8744357Y-2369395D01*
X8744357Y-2369395D01*
X8761649Y-2377094D01*
X8761650Y-2377094D01*
X8780165Y-2381030D01*
X8780166Y-2381030D01*
X8799094Y-2381030D01*
X8799095Y-2381030D01*
X8817610Y-2377094D01*
X8834903Y-2369395D01*
X8850217Y-2358269D01*
X8862883Y-2344202D01*
X8872348Y-2327808D01*
X8878197Y-2309806D01*
X8880176Y-2290980D01*
X8878551Y-2275518D01*
X8879808Y-2268645D01*
X8884581Y-2263543D01*
X8891355Y-2261831D01*
X8895123Y-2262742D01*
X8895177Y-2262594D01*
X8895685Y-2262779D01*
X8895685Y-2262779D01*
X8917023Y-2268497D01*
X8932742Y-2269872D01*
X8939030Y-2270422D01*
X8939030Y-2270422D01*
X8939030Y-2270422D01*
X8944532Y-2269941D01*
X8961037Y-2268497D01*
X8982375Y-2262779D01*
X9002396Y-2253443D01*
X9020492Y-2240773D01*
X9030262Y-2231003D01*
X9036394Y-2227654D01*
X9043363Y-2228153D01*
X9047798Y-2231003D01*
X9057568Y-2240773D01*
X9057568Y-2240773D01*
X9057568Y-2240773D01*
X9075663Y-2253443D01*
X9075664Y-2253443D01*
X9075664Y-2253443D01*
X9095685Y-2262779D01*
X9117023Y-2268497D01*
X9132742Y-2269872D01*
X9139030Y-2270422D01*
X9139030Y-2270422D01*
X9139030Y-2270422D01*
X9144532Y-2269941D01*
X9161037Y-2268497D01*
X9182375Y-2262779D01*
X9202396Y-2253443D01*
X9220492Y-2240773D01*
X9230262Y-2231002D01*
X9236394Y-2227654D01*
X9243363Y-2228153D01*
X9247798Y-2231003D01*
X9257568Y-2240772D01*
X9257568Y-2240773D01*
X9258420Y-2241369D01*
X9258692Y-2241560D01*
X9263055Y-2247017D01*
X9263980Y-2251717D01*
X9263980Y-2294737D01*
X9262012Y-2301441D01*
X9260348Y-2303505D01*
X9214915Y-2348938D01*
X9208783Y-2352287D01*
X9206147Y-2352570D01*
X9131120Y-2352570D01*
X9131118Y-2352570D01*
X9120840Y-2353620D01*
X9120840Y-2353620D01*
X9104187Y-2359139D01*
X9104186Y-2359139D01*
X9089254Y-2368349D01*
X9076849Y-2380754D01*
X9067639Y-2395686D01*
X9067639Y-2395687D01*
X9067632Y-2395708D01*
X9062120Y-2412340D01*
X9062120Y-2412340D01*
X9062120Y-2412340D01*
X9061070Y-2422618D01*
X9061070Y-2562620D01*
X9061070Y-2562622D01*
X9062120Y-2572900D01*
X9062120Y-2572900D01*
X9067639Y-2589553D01*
X9067639Y-2589554D01*
X9070619Y-2594385D01*
X9076830Y-2604455D01*
X9076849Y-2604486D01*
X9089255Y-2616891D01*
X9089255Y-2616892D01*
X9097680Y-2622088D01*
X9102352Y-2627283D01*
X9103570Y-2632642D01*
X9103570Y-2712240D01*
X9101602Y-2718944D01*
X9097680Y-2722794D01*
X9091754Y-2726449D01*
X9079349Y-2738854D01*
X9070139Y-2753786D01*
X9070139Y-2753787D01*
X9064620Y-2770440D01*
X9063570Y-2780718D01*
X9063570Y-2915720D01*
X9063570Y-2915722D01*
X9064620Y-2926000D01*
X9064620Y-2926000D01*
X9070139Y-2942653D01*
X9070139Y-2942653D01*
X9079349Y-2957586D01*
X9091754Y-2969991D01*
X9106687Y-2979201D01*
X9123340Y-2984720D01*
X9133619Y-2985770D01*
X9214997Y-2985770D01*
X9221701Y-2987738D01*
X9226276Y-2993019D01*
X9227271Y-2999935D01*
X9224368Y-3006290D01*
X9223765Y-3006938D01*
X8931265Y-3299438D01*
X8925133Y-3302787D01*
X8922497Y-3303070D01*
X7749334Y-3303070D01*
X7742630Y-3301101D01*
X7742045Y-3300702D01*
X7740673Y-3299705D01*
X7740673Y-3299705D01*
X7723381Y-3292006D01*
X7723380Y-3292005D01*
X7708800Y-3288906D01*
X7704865Y-3288070D01*
X7685935Y-3288070D01*
X7684194Y-3288440D01*
X7667420Y-3292005D01*
X7667419Y-3292006D01*
X7650127Y-3299705D01*
X7650126Y-3299705D01*
X7634813Y-3310831D01*
X7622147Y-3324898D01*
X7612682Y-3341291D01*
X7612682Y-3341292D01*
X7606833Y-3359294D01*
X7606833Y-3359294D01*
X7604854Y-3378120D01*
X7606833Y-3396946D01*
X7606833Y-3396946D01*
X7612682Y-3414948D01*
X7612682Y-3414948D01*
X7622147Y-3431341D01*
X7628040Y-3437887D01*
X7631063Y-3444186D01*
X7630201Y-3451120D01*
X7628744Y-3453406D01*
X7628849Y-3453483D01*
X7628466Y-3454009D01*
X7619002Y-3470401D01*
X7619002Y-3470402D01*
X7613153Y-3488404D01*
X7613153Y-3488404D01*
X7611174Y-3507230D01*
X7613153Y-3526056D01*
X7613153Y-3526056D01*
X7619002Y-3544058D01*
X7619002Y-3544058D01*
X7628467Y-3560452D01*
X7640430Y-3573738D01*
X7641133Y-3574519D01*
X7656446Y-3585645D01*
X7656447Y-3585645D01*
X7673739Y-3593344D01*
X7673740Y-3593344D01*
X7692255Y-3597280D01*
X7692255Y-3597280D01*
X7711184Y-3597280D01*
X7711185Y-3597280D01*
X7729700Y-3593344D01*
X7746993Y-3585645D01*
X7747198Y-3585496D01*
X7748365Y-3584648D01*
X7754946Y-3582300D01*
X7755654Y-3582280D01*
X9459302Y-3582280D01*
X9469056Y-3580340D01*
X9473801Y-3579396D01*
X9487460Y-3573738D01*
X9492383Y-3570449D01*
X9499752Y-3565525D01*
X10075875Y-2989402D01*
X10082007Y-2986053D01*
X10084643Y-2985770D01*
X10155980Y-2985770D01*
X10155981Y-2985770D01*
X10166260Y-2984720D01*
X10182913Y-2979201D01*
X10197846Y-2969991D01*
X10210251Y-2957586D01*
X10219461Y-2942653D01*
X10224980Y-2926000D01*
X10226030Y-2915721D01*
X10226030Y-2780719D01*
X10225921Y-2779652D01*
X10224980Y-2770440D01*
X10224980Y-2770440D01*
X10223303Y-2765379D01*
X10219461Y-2753787D01*
X10210251Y-2738854D01*
X10197846Y-2726449D01*
X10197846Y-2726449D01*
X10191860Y-2722757D01*
X10187188Y-2717562D01*
X10185970Y-2712203D01*
X10185970Y-2698090D01*
X10364094Y-2698090D01*
X10366073Y-2716916D01*
X10366178Y-2717239D01*
X10371922Y-2734918D01*
X10371922Y-2734918D01*
X10381387Y-2751312D01*
X10386609Y-2757112D01*
X10394053Y-2765379D01*
X10409367Y-2776505D01*
X10409367Y-2776505D01*
X10426659Y-2784204D01*
X10426660Y-2784204D01*
X10445175Y-2788140D01*
X10445176Y-2788140D01*
X10464104Y-2788140D01*
X10464105Y-2788140D01*
X10482620Y-2784204D01*
X10499913Y-2776505D01*
X10515227Y-2765379D01*
X10527893Y-2751312D01*
X10537358Y-2734918D01*
X10542892Y-2717886D01*
X10545917Y-2712950D01*
X10623755Y-2635112D01*
X10627388Y-2629674D01*
X10632749Y-2625194D01*
X10633798Y-2624793D01*
X10635789Y-2624133D01*
X10637393Y-2623602D01*
X10637393Y-2623602D01*
X10637393Y-2623601D01*
X10652326Y-2614391D01*
X10664731Y-2601986D01*
X10673941Y-2587053D01*
X10679460Y-2570400D01*
X10680464Y-2560569D01*
X10683104Y-2554100D01*
X10688822Y-2550085D01*
X10695378Y-2549700D01*
X10710995Y-2553020D01*
X10710996Y-2553020D01*
X10729924Y-2553020D01*
X10729925Y-2553020D01*
X10745542Y-2549700D01*
X10752509Y-2550232D01*
X10758082Y-2554446D01*
X10760456Y-2560569D01*
X10761460Y-2570400D01*
X10761460Y-2570400D01*
X10766979Y-2587053D01*
X10766979Y-2587054D01*
X10768520Y-2589553D01*
X10776189Y-2601986D01*
X10788594Y-2614391D01*
X10803527Y-2623601D01*
X10820180Y-2629120D01*
X10830459Y-2630170D01*
X10920461Y-2630170D01*
X10920462Y-2630170D01*
X10920462Y-2630170D01*
X10926090Y-2629595D01*
X10930740Y-2629120D01*
X10947393Y-2623601D01*
X10962326Y-2614391D01*
X10974731Y-2601986D01*
X10983941Y-2587053D01*
X10989460Y-2570400D01*
X10990510Y-2560121D01*
X10990510Y-2425119D01*
X10990362Y-2423675D01*
X10989460Y-2414840D01*
X10989460Y-2414840D01*
X10985940Y-2404218D01*
X10983941Y-2398187D01*
X10974731Y-2383254D01*
X10962326Y-2370849D01*
X10950158Y-2363344D01*
X10947394Y-2361639D01*
X10947393Y-2361639D01*
X10941619Y-2359725D01*
X10930740Y-2356120D01*
X10930740Y-2356120D01*
X10920461Y-2355070D01*
X10830460Y-2355070D01*
X10830458Y-2355070D01*
X10820180Y-2356120D01*
X10820180Y-2356120D01*
X10803527Y-2361639D01*
X10803526Y-2361639D01*
X10788595Y-2370849D01*
X10778094Y-2381349D01*
X10771962Y-2384698D01*
X10764993Y-2384199D01*
X10764282Y-2383909D01*
X10748441Y-2376856D01*
X10748440Y-2376856D01*
X10733860Y-2373757D01*
X10729925Y-2372920D01*
X10710995Y-2372920D01*
X10709307Y-2373279D01*
X10692480Y-2376856D01*
X10676638Y-2383909D01*
X10669713Y-2384837D01*
X10663385Y-2381875D01*
X10662826Y-2381349D01*
X10652326Y-2370849D01*
X10646400Y-2367194D01*
X10641728Y-2361999D01*
X10640510Y-2356640D01*
X10640510Y-2252649D01*
X10642479Y-2245945D01*
X10647759Y-2241369D01*
X10654675Y-2240375D01*
X10660022Y-2242491D01*
X10675664Y-2253443D01*
X10695685Y-2262779D01*
X10717023Y-2268497D01*
X10732742Y-2269872D01*
X10739030Y-2270422D01*
X10739030Y-2270422D01*
X10739030Y-2270422D01*
X10744532Y-2269941D01*
X10761037Y-2268497D01*
X10782375Y-2262779D01*
X10802396Y-2253443D01*
X10820492Y-2240773D01*
X10836113Y-2225152D01*
X10848783Y-2207056D01*
X10858119Y-2187035D01*
X10863837Y-2165697D01*
X10865762Y-2143690D01*
X10863837Y-2121683D01*
X10858119Y-2100345D01*
X10848783Y-2080324D01*
X10836113Y-2062228D01*
X10820492Y-2046607D01*
X10820492Y-2046607D01*
X10820492Y-2046607D01*
X10802397Y-2033937D01*
X10802396Y-2033937D01*
X10794128Y-2030081D01*
X10782375Y-2024601D01*
X10782375Y-2024600D01*
X10782375Y-2024600D01*
X10761037Y-2018883D01*
X10761036Y-2018883D01*
X10739030Y-2016958D01*
X10739030Y-2016958D01*
X10717024Y-2018883D01*
X10717023Y-2018883D01*
X10695685Y-2024600D01*
X10695685Y-2024601D01*
X10675664Y-2033936D01*
X10675664Y-2033937D01*
X10657568Y-2046607D01*
X10647798Y-2056377D01*
X10641666Y-2059726D01*
X10634697Y-2059227D01*
X10630262Y-2056377D01*
X10620492Y-2046607D01*
X10620492Y-2046607D01*
X10602397Y-2033937D01*
X10602396Y-2033937D01*
X10594128Y-2030081D01*
X10582375Y-2024601D01*
X10582375Y-2024600D01*
X10582375Y-2024600D01*
X10561037Y-2018883D01*
X10561036Y-2018883D01*
X10539030Y-2016958D01*
X10539030Y-2016958D01*
X10517024Y-2018883D01*
X10517023Y-2018883D01*
X10495685Y-2024600D01*
X10495685Y-2024601D01*
X10475664Y-2033936D01*
X10475664Y-2033937D01*
X10457568Y-2046607D01*
X10441948Y-2062228D01*
X10429277Y-2080324D01*
X10429277Y-2080324D01*
X10419941Y-2100345D01*
X10419940Y-2100345D01*
X10414223Y-2121683D01*
X10414223Y-2121684D01*
X10412298Y-2143690D01*
X10412298Y-2143690D01*
X10414223Y-2165696D01*
X10414223Y-2165697D01*
X10419940Y-2187035D01*
X10419941Y-2187035D01*
X10419941Y-2187035D01*
X10428410Y-2205197D01*
X10429277Y-2207056D01*
X10429277Y-2207057D01*
X10441404Y-2224376D01*
X10441947Y-2225152D01*
X10457568Y-2240773D01*
X10457568Y-2240773D01*
X10457568Y-2240773D01*
X10461036Y-2243201D01*
X10475664Y-2253443D01*
X10483251Y-2256981D01*
X10488494Y-2261598D01*
X10490410Y-2268219D01*
X10490410Y-2356640D01*
X10488442Y-2363344D01*
X10484520Y-2367194D01*
X10478594Y-2370849D01*
X10466189Y-2383254D01*
X10456979Y-2398186D01*
X10456979Y-2398187D01*
X10454827Y-2404680D01*
X10451460Y-2414840D01*
X10451460Y-2414840D01*
X10451460Y-2414840D01*
X10450410Y-2425118D01*
X10450410Y-2560120D01*
X10450410Y-2560122D01*
X10451460Y-2570400D01*
X10451460Y-2570400D01*
X10455210Y-2581717D01*
X10455450Y-2588700D01*
X10452208Y-2594385D01*
X10439363Y-2607230D01*
X10433231Y-2610579D01*
X10433173Y-2610591D01*
X10426660Y-2611976D01*
X10426659Y-2611976D01*
X10409367Y-2619675D01*
X10409367Y-2619675D01*
X10394053Y-2630801D01*
X10381387Y-2644869D01*
X10371922Y-2661262D01*
X10371922Y-2661262D01*
X10367067Y-2676205D01*
X10366073Y-2679264D01*
X10364094Y-2698090D01*
X10185970Y-2698090D01*
X10185970Y-2628600D01*
X10187939Y-2621896D01*
X10191860Y-2618046D01*
X10197786Y-2614391D01*
X10210191Y-2601986D01*
X10219401Y-2587053D01*
X10224920Y-2570400D01*
X10225970Y-2560121D01*
X10225970Y-2425119D01*
X10225822Y-2423675D01*
X10224920Y-2414840D01*
X10224920Y-2414840D01*
X10221400Y-2404218D01*
X10219401Y-2398187D01*
X10210191Y-2383254D01*
X10197786Y-2370849D01*
X10185618Y-2363344D01*
X10182854Y-2361639D01*
X10182853Y-2361639D01*
X10177079Y-2359725D01*
X10166200Y-2356120D01*
X10166200Y-2356120D01*
X10155921Y-2355070D01*
X10065920Y-2355070D01*
X10065918Y-2355070D01*
X10055640Y-2356120D01*
X10055640Y-2356120D01*
X10038987Y-2361639D01*
X10038986Y-2361639D01*
X10032990Y-2365338D01*
X10026250Y-2367182D01*
X10019584Y-2365089D01*
X10015107Y-2359725D01*
X10014080Y-2354784D01*
X10014080Y-2251717D01*
X10016049Y-2245013D01*
X10019368Y-2241560D01*
X10020492Y-2240773D01*
X10030262Y-2231003D01*
X10036394Y-2227654D01*
X10043363Y-2228153D01*
X10047798Y-2231003D01*
X10057568Y-2240773D01*
X10057568Y-2240773D01*
X10057568Y-2240773D01*
X10075663Y-2253443D01*
X10075664Y-2253443D01*
X10075664Y-2253443D01*
X10095685Y-2262779D01*
X10117023Y-2268497D01*
X10132742Y-2269872D01*
X10139030Y-2270422D01*
X10139030Y-2270422D01*
X10139030Y-2270422D01*
X10144532Y-2269941D01*
X10161037Y-2268497D01*
X10182375Y-2262779D01*
X10202396Y-2253443D01*
X10220492Y-2240773D01*
X10236113Y-2225152D01*
X10248783Y-2207056D01*
X10258119Y-2187035D01*
X10263837Y-2165697D01*
X10265762Y-2143690D01*
X10263837Y-2121683D01*
X10258119Y-2100345D01*
X10248783Y-2080324D01*
X10236113Y-2062228D01*
X10220492Y-2046607D01*
X10220492Y-2046607D01*
X10220492Y-2046607D01*
X10202397Y-2033937D01*
X10202396Y-2033937D01*
X10194128Y-2030081D01*
X10182375Y-2024601D01*
X10182375Y-2024600D01*
X10182375Y-2024600D01*
X10161037Y-2018883D01*
X10161036Y-2018883D01*
X10139030Y-2016958D01*
X10139030Y-2016958D01*
X10117024Y-2018883D01*
X10117023Y-2018883D01*
X10095685Y-2024600D01*
X10095685Y-2024601D01*
X10075664Y-2033936D01*
X10075664Y-2033937D01*
X10057568Y-2046607D01*
X10047798Y-2056377D01*
X10041666Y-2059726D01*
X10034697Y-2059227D01*
X10030262Y-2056377D01*
X10020492Y-2046608D01*
X10020492Y-2046607D01*
X10020492Y-2046607D01*
X10020492Y-2046607D01*
X10020491Y-2046607D01*
X10019368Y-2045820D01*
X10015005Y-2040362D01*
X10014080Y-2035663D01*
X10014080Y-1893393D01*
X10016049Y-1886689D01*
X10017712Y-1884625D01*
X10075235Y-1827102D01*
X10075235Y-1827102D01*
X10083129Y-1815288D01*
X10083129Y-1815288D01*
X10083129Y-1815287D01*
X10083448Y-1814809D01*
X10089106Y-1801151D01*
X10091465Y-1789291D01*
X10094704Y-1783100D01*
X10100775Y-1779642D01*
X10103627Y-1779310D01*
X10106727Y-1779310D01*
X10106727Y-1779310D01*
X10112688Y-1778669D01*
X10126173Y-1773640D01*
X10137695Y-1765015D01*
X10146320Y-1753493D01*
X10151349Y-1740008D01*
X10151990Y-1734047D01*
X10151990Y-1554473D01*
X10151349Y-1548512D01*
X10151221Y-1548168D01*
X10146320Y-1535027D01*
X10146319Y-1535026D01*
X10137695Y-1523505D01*
X10137694Y-1523505D01*
X10126174Y-1514881D01*
X10126173Y-1514880D01*
X10112688Y-1509851D01*
X10112688Y-1509851D01*
X10106728Y-1509210D01*
X10106728Y-1509210D01*
X10106727Y-1509210D01*
X10106726Y-1509210D01*
X9927153Y-1509210D01*
X9927152Y-1509210D01*
X9921192Y-1509851D01*
X9907707Y-1514880D01*
X9907706Y-1514881D01*
X9896186Y-1523505D01*
X9896185Y-1523505D01*
X9887561Y-1535026D01*
X9887560Y-1535027D01*
X9882659Y-1548168D01*
X9878472Y-1553762D01*
X9871925Y-1556203D01*
X9865098Y-1554718D01*
X9862273Y-1552603D01*
X9850080Y-1540411D01*
X9850080Y-1540410D01*
X9830723Y-1526857D01*
X9830723Y-1526856D01*
X9830723Y-1526856D01*
X9809306Y-1516870D01*
X9809306Y-1516870D01*
X9809306Y-1516869D01*
X9786481Y-1510754D01*
X9786480Y-1510754D01*
X9762940Y-1508694D01*
X9762940Y-1508694D01*
X9739400Y-1510754D01*
X9739399Y-1510754D01*
X9716574Y-1516869D01*
X9716574Y-1516870D01*
X9695157Y-1526856D01*
X9695157Y-1526856D01*
X9675800Y-1540410D01*
X9659091Y-1557119D01*
X9646067Y-1575719D01*
X9640609Y-1580082D01*
X9633659Y-1580801D01*
X9627424Y-1577649D01*
X9625752Y-1575719D01*
X9612751Y-1557153D01*
X9612751Y-1557152D01*
X9596048Y-1540449D01*
X9576698Y-1526900D01*
X9555289Y-1516917D01*
X9555289Y-1516917D01*
X9533940Y-1511196D01*
X9533940Y-1600959D01*
X9528239Y-1597667D01*
X9515523Y-1594260D01*
X9502357Y-1594260D01*
X9489641Y-1597667D01*
X9483940Y-1600959D01*
X9483940Y-1511196D01*
X9483940Y-1511196D01*
X9462591Y-1516917D01*
X9462591Y-1516917D01*
X9441182Y-1526900D01*
X9441182Y-1526900D01*
X9421833Y-1540449D01*
X9421832Y-1540449D01*
X9405129Y-1557152D01*
X9405129Y-1557152D01*
X9392128Y-1575719D01*
X9386670Y-1580082D01*
X9379720Y-1580801D01*
X9373485Y-1577649D01*
X9371813Y-1575719D01*
X9358789Y-1557120D01*
X9342080Y-1540411D01*
X9342080Y-1540410D01*
X9322723Y-1526857D01*
X9322723Y-1526856D01*
X9322723Y-1526856D01*
X9301306Y-1516870D01*
X9301306Y-1516870D01*
X9301306Y-1516869D01*
X9278481Y-1510754D01*
X9278480Y-1510754D01*
X9254940Y-1508694D01*
X9254940Y-1508694D01*
X9231400Y-1510754D01*
X9231399Y-1510754D01*
X9208574Y-1516869D01*
X9208574Y-1516870D01*
X9187157Y-1526856D01*
X9187157Y-1526856D01*
X9167800Y-1540410D01*
X9151091Y-1557120D01*
X9138098Y-1575676D01*
X9132640Y-1580038D01*
X9125690Y-1580758D01*
X9119455Y-1577605D01*
X9117783Y-1575676D01*
X9104789Y-1557120D01*
X9088080Y-1540411D01*
X9088080Y-1540410D01*
X9068723Y-1526857D01*
X9068723Y-1526856D01*
X9068723Y-1526856D01*
X9047306Y-1516870D01*
X9047306Y-1516870D01*
X9047306Y-1516869D01*
X9024481Y-1510754D01*
X9024480Y-1510754D01*
X9000940Y-1508694D01*
X9000940Y-1508694D01*
X8977400Y-1510754D01*
X8977399Y-1510754D01*
X8954574Y-1516869D01*
X8954574Y-1516870D01*
X8933157Y-1526856D01*
X8933157Y-1526856D01*
X8913800Y-1540410D01*
X8897091Y-1557120D01*
X8884098Y-1575676D01*
X8878640Y-1580038D01*
X8871690Y-1580758D01*
X8865455Y-1577605D01*
X8863783Y-1575676D01*
X8850789Y-1557120D01*
X8834080Y-1540411D01*
X8834080Y-1540410D01*
X8814723Y-1526857D01*
X8814723Y-1526856D01*
X8814723Y-1526856D01*
X8793306Y-1516870D01*
X8793306Y-1516870D01*
X8793306Y-1516869D01*
X8770481Y-1510754D01*
X8770480Y-1510754D01*
X8746940Y-1508694D01*
X8746940Y-1508694D01*
X8723400Y-1510754D01*
X8723399Y-1510754D01*
X8700574Y-1516869D01*
X8700574Y-1516870D01*
X8679157Y-1526856D01*
X8679157Y-1526856D01*
X8659800Y-1540410D01*
X8643091Y-1557120D01*
X8630098Y-1575676D01*
X8624640Y-1580038D01*
X8617690Y-1580758D01*
X8611455Y-1577605D01*
X8609783Y-1575676D01*
X8596789Y-1557120D01*
X8580080Y-1540411D01*
X8580080Y-1540410D01*
X8560723Y-1526857D01*
X8560723Y-1526856D01*
X8560723Y-1526856D01*
X8539306Y-1516870D01*
X8539306Y-1516870D01*
X8539306Y-1516869D01*
X8516481Y-1510754D01*
X8516480Y-1510754D01*
X8492940Y-1508694D01*
X8492940Y-1508694D01*
X8469400Y-1510754D01*
X8469399Y-1510754D01*
X8446574Y-1516869D01*
X8446574Y-1516870D01*
X8425157Y-1526856D01*
X8425157Y-1526856D01*
X8405800Y-1540410D01*
X8389091Y-1557120D01*
X8376097Y-1575676D01*
X8370640Y-1580038D01*
X8363690Y-1580758D01*
X8357454Y-1577605D01*
X8355782Y-1575676D01*
X8342789Y-1557120D01*
X8326080Y-1540411D01*
X8326079Y-1540410D01*
X8306723Y-1526857D01*
X8306723Y-1526856D01*
X8306723Y-1526856D01*
X8285306Y-1516870D01*
X8285306Y-1516870D01*
X8285305Y-1516869D01*
X8262481Y-1510754D01*
X8262480Y-1510754D01*
X8238940Y-1508694D01*
X8238940Y-1508694D01*
X8215400Y-1510754D01*
X8215399Y-1510754D01*
X8192574Y-1516869D01*
X8192573Y-1516870D01*
X8171157Y-1526856D01*
X8171157Y-1526856D01*
X8151800Y-1540410D01*
X8135090Y-1557120D01*
X8121536Y-1576477D01*
X8121536Y-1576477D01*
X8111550Y-1597893D01*
X8111549Y-1597894D01*
X8105434Y-1620719D01*
X8105434Y-1620720D01*
X8103374Y-1644260D01*
X8103374Y-1644260D01*
X8105434Y-1667800D01*
X8105434Y-1667801D01*
X8111549Y-1690625D01*
X8111550Y-1690626D01*
X8111550Y-1690626D01*
X8119520Y-1707719D01*
X8121536Y-1712043D01*
X8121537Y-1712043D01*
X8132368Y-1727512D01*
X8135090Y-1731400D01*
X8135091Y-1731400D01*
X8151799Y-1748109D01*
X8151800Y-1748109D01*
X8151800Y-1748109D01*
X8158602Y-1752872D01*
X8162965Y-1758330D01*
X8163890Y-1763030D01*
X8163890Y-1786652D01*
X8163890Y-1786652D01*
X8163890Y-1786652D01*
X8166774Y-1801151D01*
X8166774Y-1801151D01*
X8172432Y-1814809D01*
X8172750Y-1815287D01*
X8172751Y-1815288D01*
X8172751Y-1815288D01*
X8180645Y-1827102D01*
X8180645Y-1827102D01*
X8424597Y-2071054D01*
X8427945Y-2077186D01*
X8427447Y-2084155D01*
X8427067Y-2085062D01*
X8419941Y-2100344D01*
X8419940Y-2100345D01*
X8414223Y-2121683D01*
X8414223Y-2121684D01*
X8412298Y-2143690D01*
X8412298Y-2143690D01*
X8414223Y-2165696D01*
X8414223Y-2165697D01*
X8419940Y-2187035D01*
X8419941Y-2187035D01*
X8419941Y-2187035D01*
X8425189Y-2198290D01*
X8426238Y-2205197D01*
X8423386Y-2211576D01*
X8417538Y-2215400D01*
X8413951Y-2215930D01*
X6238368Y-2215930D01*
X6223869Y-2218814D01*
X6223869Y-2218814D01*
X6222222Y-2219496D01*
X6217477Y-2220440D01*
X6216785Y-2220440D01*
X6214219Y-2220986D01*
X6198270Y-2224376D01*
X6198269Y-2224376D01*
X6180977Y-2232075D01*
X6180976Y-2232075D01*
X6165663Y-2243201D01*
X6152997Y-2257269D01*
X6143532Y-2273662D01*
X6143532Y-2273662D01*
X6137683Y-2291664D01*
X6137683Y-2291664D01*
X6135704Y-2310490D01*
X6137683Y-2329316D01*
X6137683Y-2329316D01*
X6143532Y-2347318D01*
X6143532Y-2347318D01*
X6146693Y-2352793D01*
X6148340Y-2359583D01*
X6146055Y-2366186D01*
X6144722Y-2367761D01*
X5187008Y-3325475D01*
X5180876Y-3328823D01*
X5173907Y-3328325D01*
X5169472Y-3325475D01*
X4723012Y-2879015D01*
X4723011Y-2879015D01*
X4715643Y-2874091D01*
X4715643Y-2874091D01*
X4710719Y-2870801D01*
X4697062Y-2865144D01*
X4697061Y-2865144D01*
X4682562Y-2862260D01*
X4682562Y-2862260D01*
X4569664Y-2862260D01*
X4562960Y-2860291D01*
X4558384Y-2855011D01*
X4557390Y-2848095D01*
X4558925Y-2843660D01*
X4559406Y-2842827D01*
X4566368Y-2830768D01*
X4571902Y-2813736D01*
X4574927Y-2808800D01*
X4604075Y-2779652D01*
X4610230Y-2770440D01*
X4612288Y-2767360D01*
X4617946Y-2753701D01*
X4620528Y-2740719D01*
X4620830Y-2739202D01*
X4620830Y-2420822D01*
X4622491Y-2414622D01*
X4622700Y-2414261D01*
X4628498Y-2404218D01*
X4634347Y-2386216D01*
X4636326Y-2367390D01*
X4634347Y-2348564D01*
X4628498Y-2330562D01*
X4619033Y-2314168D01*
X4606367Y-2300101D01*
X4606053Y-2299873D01*
X4591053Y-2288975D01*
X4591053Y-2288975D01*
X4573761Y-2281276D01*
X4573760Y-2281276D01*
X4559180Y-2278177D01*
X4555245Y-2277340D01*
X4536315Y-2277340D01*
X4533070Y-2278030D01*
X4517800Y-2281276D01*
X4517799Y-2281276D01*
X4500507Y-2288975D01*
X4500507Y-2288975D01*
X4485193Y-2300101D01*
X4472527Y-2314169D01*
X4463062Y-2330562D01*
X4463062Y-2330562D01*
X4457454Y-2347821D01*
X4457213Y-2348564D01*
X4455234Y-2367390D01*
X4457213Y-2386216D01*
X4457213Y-2386216D01*
X4463062Y-2404218D01*
X4463062Y-2404218D01*
X4468860Y-2414260D01*
X4469069Y-2414622D01*
X4470730Y-2420822D01*
X4470730Y-2694583D01*
X4468762Y-2701287D01*
X4463481Y-2705863D01*
X4460908Y-2706712D01*
X4455670Y-2707826D01*
X4455669Y-2707826D01*
X4438377Y-2715525D01*
X4438377Y-2715525D01*
X4423063Y-2726651D01*
X4410397Y-2740719D01*
X4400932Y-2757112D01*
X4400932Y-2757112D01*
X4395163Y-2774866D01*
X4395083Y-2775114D01*
X4393104Y-2793940D01*
X4395083Y-2812766D01*
X4395083Y-2812766D01*
X4400932Y-2830768D01*
X4400932Y-2830768D01*
X4400932Y-2830768D01*
X4407329Y-2841848D01*
X4408375Y-2843660D01*
X4410022Y-2850450D01*
X4407737Y-2857053D01*
X4402245Y-2861372D01*
X4397636Y-2862260D01*
X4057571Y-2862260D01*
X4050868Y-2860291D01*
X4046292Y-2855011D01*
X4045239Y-2848564D01*
X4046706Y-2834610D01*
X4044727Y-2815784D01*
X4038878Y-2797782D01*
X4033239Y-2788014D01*
X4032871Y-2787378D01*
X4031210Y-2781178D01*
X4031210Y-2684973D01*
X4033178Y-2678269D01*
X4034841Y-2676205D01*
X4251057Y-2459990D01*
X4257189Y-2456641D01*
X4257225Y-2456633D01*
X4263760Y-2455244D01*
X4281053Y-2447545D01*
X4296367Y-2436419D01*
X4309033Y-2422352D01*
X4318498Y-2405958D01*
X4324347Y-2387956D01*
X4326326Y-2369130D01*
X4324347Y-2350304D01*
X4318498Y-2332302D01*
X4309033Y-2315908D01*
X4296367Y-2301841D01*
X4296367Y-2301841D01*
X4281053Y-2290715D01*
X4281053Y-2290715D01*
X4263761Y-2283016D01*
X4263760Y-2283016D01*
X4249180Y-2279917D01*
X4245245Y-2279080D01*
X4226315Y-2279080D01*
X4223070Y-2279770D01*
X4207800Y-2283016D01*
X4207799Y-2283016D01*
X4190507Y-2290715D01*
X4190506Y-2290715D01*
X4175193Y-2301841D01*
X4162527Y-2315909D01*
X4153062Y-2332302D01*
X4153062Y-2332302D01*
X4147528Y-2349334D01*
X4144503Y-2354270D01*
X3897865Y-2600908D01*
X3897864Y-2600909D01*
X3895475Y-2604486D01*
X3895117Y-2605021D01*
X3893680Y-2607172D01*
X3889651Y-2613201D01*
X3883994Y-2626858D01*
X3883994Y-2626859D01*
X3881110Y-2641358D01*
X3881110Y-2781178D01*
X3879449Y-2787378D01*
X3873442Y-2797781D01*
X3867593Y-2815784D01*
X3867593Y-2815784D01*
X3866018Y-2830767D01*
X3865614Y-2834610D01*
X3867081Y-2848564D01*
X3865824Y-2855437D01*
X3861050Y-2860539D01*
X3854748Y-2862260D01*
X2753803Y-2862260D01*
X2747099Y-2860291D01*
X2745035Y-2858628D01*
X2381412Y-2495005D01*
X2378063Y-2488873D01*
X2377780Y-2486237D01*
X2377780Y-2414960D01*
X2377780Y-2414958D01*
X2376730Y-2404680D01*
X2376730Y-2404680D01*
X2376577Y-2404218D01*
X2371211Y-2388027D01*
X2362001Y-2373094D01*
X2349596Y-2360689D01*
X2340022Y-2354784D01*
X2334664Y-2351479D01*
X2334663Y-2351479D01*
X2331119Y-2350304D01*
X2318010Y-2345960D01*
X2318010Y-2345960D01*
X2307731Y-2344910D01*
X2217730Y-2344910D01*
X2217728Y-2344910D01*
X2207450Y-2345960D01*
X2207450Y-2345960D01*
X2190797Y-2351479D01*
X2190796Y-2351479D01*
X2175864Y-2360689D01*
X2163459Y-2373094D01*
X2154249Y-2388026D01*
X2154249Y-2388027D01*
X2148730Y-2404680D01*
X2148730Y-2404680D01*
X2148730Y-2404680D01*
X2147680Y-2414958D01*
X2067780Y-2414958D01*
X2066730Y-2404680D01*
X2061211Y-2388027D01*
X2052001Y-2373094D01*
X2039596Y-2360689D01*
X2030022Y-2354784D01*
X2024664Y-2351479D01*
X2024663Y-2351479D01*
X2024663Y-2351479D01*
X2024663Y-2351478D01*
X2022579Y-2350788D01*
X2016835Y-2346811D01*
X2014153Y-2340359D01*
X2014080Y-2339018D01*
X2014080Y-2251717D01*
X2016048Y-2245013D01*
X2019368Y-2241560D01*
X2020492Y-2240773D01*
X2030262Y-2231003D01*
X2036394Y-2227654D01*
X2043363Y-2228153D01*
X2047798Y-2231003D01*
X2057568Y-2240773D01*
X2057568Y-2240773D01*
X2057568Y-2240773D01*
X2075663Y-2253443D01*
X2075663Y-2253443D01*
X2075664Y-2253443D01*
X2095685Y-2262779D01*
X2117023Y-2268497D01*
X2132742Y-2269872D01*
X2139030Y-2270422D01*
X2139030Y-2270422D01*
X2139030Y-2270422D01*
X2144532Y-2269941D01*
X2161037Y-2268497D01*
X2182375Y-2262779D01*
X2202396Y-2253443D01*
X2220492Y-2240773D01*
X2236113Y-2225152D01*
X2248783Y-2207056D01*
X2258119Y-2187035D01*
X2263837Y-2165697D01*
X2265762Y-2143690D01*
X2265762Y-2143690D01*
X2612298Y-2143690D01*
X2612298Y-2143690D01*
X2614223Y-2165696D01*
X2614223Y-2165697D01*
X2619940Y-2187035D01*
X2619941Y-2187035D01*
X2619941Y-2187035D01*
X2628410Y-2205197D01*
X2629277Y-2207056D01*
X2629277Y-2207057D01*
X2641404Y-2224376D01*
X2641947Y-2225152D01*
X2657568Y-2240773D01*
X2657568Y-2240773D01*
X2657568Y-2240773D01*
X2675663Y-2253443D01*
X2675664Y-2253443D01*
X2675664Y-2253443D01*
X2695685Y-2262779D01*
X2717023Y-2268497D01*
X2732742Y-2269872D01*
X2739030Y-2270422D01*
X2739030Y-2270422D01*
X2739030Y-2270422D01*
X2744532Y-2269941D01*
X2761037Y-2268497D01*
X2782375Y-2262779D01*
X2802396Y-2253443D01*
X2820492Y-2240773D01*
X2830262Y-2231003D01*
X2836394Y-2227654D01*
X2843363Y-2228153D01*
X2847798Y-2231003D01*
X2857568Y-2240773D01*
X2857568Y-2240773D01*
X2857568Y-2240773D01*
X2875663Y-2253443D01*
X2875663Y-2253443D01*
X2875664Y-2253443D01*
X2895685Y-2262779D01*
X2917023Y-2268497D01*
X2932742Y-2269872D01*
X2939030Y-2270422D01*
X2939030Y-2270422D01*
X2939030Y-2270422D01*
X2944532Y-2269941D01*
X2961037Y-2268497D01*
X2982375Y-2262779D01*
X3002396Y-2253443D01*
X3020492Y-2240773D01*
X3030262Y-2231003D01*
X3036394Y-2227654D01*
X3043363Y-2228153D01*
X3047798Y-2231003D01*
X3057568Y-2240773D01*
X3057568Y-2240773D01*
X3057568Y-2240773D01*
X3075663Y-2253443D01*
X3075663Y-2253443D01*
X3075664Y-2253443D01*
X3095685Y-2262779D01*
X3117023Y-2268497D01*
X3132742Y-2269872D01*
X3139030Y-2270422D01*
X3139030Y-2270422D01*
X3139030Y-2270422D01*
X3144532Y-2269941D01*
X3161037Y-2268497D01*
X3182375Y-2262779D01*
X3202396Y-2253443D01*
X3220492Y-2240773D01*
X3236113Y-2225152D01*
X3248783Y-2207056D01*
X3258119Y-2187035D01*
X3263837Y-2165697D01*
X3265762Y-2143690D01*
X3263837Y-2121683D01*
X3258119Y-2100345D01*
X3248783Y-2080324D01*
X3236113Y-2062228D01*
X3220492Y-2046607D01*
X3220492Y-2046607D01*
X3220491Y-2046607D01*
X3202397Y-2033937D01*
X3202396Y-2033937D01*
X3194128Y-2030081D01*
X3182375Y-2024601D01*
X3182375Y-2024600D01*
X3182374Y-2024600D01*
X3161037Y-2018883D01*
X3161036Y-2018883D01*
X3139030Y-2016958D01*
X3139030Y-2016958D01*
X3117024Y-2018883D01*
X3117023Y-2018883D01*
X3095685Y-2024600D01*
X3095685Y-2024601D01*
X3075664Y-2033936D01*
X3075664Y-2033937D01*
X3057568Y-2046607D01*
X3047798Y-2056377D01*
X3041666Y-2059726D01*
X3034696Y-2059227D01*
X3030262Y-2056377D01*
X3020492Y-2046607D01*
X3020491Y-2046607D01*
X3002397Y-2033937D01*
X3002396Y-2033937D01*
X2994128Y-2030081D01*
X2982375Y-2024601D01*
X2982375Y-2024600D01*
X2982374Y-2024600D01*
X2961037Y-2018883D01*
X2961036Y-2018883D01*
X2939030Y-2016958D01*
X2939030Y-2016958D01*
X2917024Y-2018883D01*
X2917023Y-2018883D01*
X2895685Y-2024600D01*
X2895685Y-2024601D01*
X2875664Y-2033936D01*
X2875664Y-2033937D01*
X2857568Y-2046607D01*
X2847798Y-2056377D01*
X2841666Y-2059726D01*
X2834696Y-2059227D01*
X2830262Y-2056377D01*
X2820492Y-2046607D01*
X2820491Y-2046607D01*
X2802397Y-2033937D01*
X2802396Y-2033937D01*
X2794128Y-2030081D01*
X2782375Y-2024601D01*
X2782375Y-2024600D01*
X2782375Y-2024600D01*
X2761037Y-2018883D01*
X2761036Y-2018883D01*
X2739030Y-2016958D01*
X2739030Y-2016958D01*
X2717024Y-2018883D01*
X2717023Y-2018883D01*
X2695685Y-2024600D01*
X2695685Y-2024601D01*
X2675664Y-2033936D01*
X2675664Y-2033937D01*
X2657568Y-2046607D01*
X2641948Y-2062228D01*
X2629277Y-2080324D01*
X2629277Y-2080324D01*
X2619941Y-2100345D01*
X2619940Y-2100345D01*
X2614223Y-2121683D01*
X2614223Y-2121684D01*
X2612298Y-2143690D01*
X2265762Y-2143690D01*
X2263837Y-2121683D01*
X2258119Y-2100345D01*
X2248783Y-2080324D01*
X2236113Y-2062228D01*
X2220492Y-2046607D01*
X2220492Y-2046607D01*
X2220492Y-2046607D01*
X2202397Y-2033937D01*
X2202396Y-2033937D01*
X2194128Y-2030081D01*
X2182375Y-2024601D01*
X2182375Y-2024600D01*
X2182375Y-2024600D01*
X2161037Y-2018883D01*
X2161036Y-2018883D01*
X2139030Y-2016958D01*
X2139030Y-2016958D01*
X2117024Y-2018883D01*
X2117023Y-2018883D01*
X2095685Y-2024600D01*
X2095685Y-2024601D01*
X2075664Y-2033936D01*
X2075664Y-2033937D01*
X2057568Y-2046607D01*
X2047798Y-2056377D01*
X2041666Y-2059726D01*
X2034696Y-2059227D01*
X2030262Y-2056377D01*
X2020492Y-2046607D01*
X2020491Y-2046607D01*
X2002397Y-2033937D01*
X2002396Y-2033937D01*
X1994128Y-2030081D01*
X1982375Y-2024601D01*
X1982375Y-2024600D01*
X1982374Y-2024600D01*
X1961037Y-2018883D01*
X1961036Y-2018883D01*
X1939030Y-2016958D01*
X1939030Y-2016958D01*
X1917024Y-2018883D01*
X1917023Y-2018883D01*
X1895685Y-2024600D01*
X1895685Y-2024601D01*
X1875664Y-2033936D01*
X1875664Y-2033937D01*
X1857568Y-2046607D01*
X1841947Y-2062228D01*
X1829277Y-2080324D01*
X1829276Y-2080324D01*
X1819941Y-2100345D01*
X1819940Y-2100345D01*
X1814223Y-2121683D01*
X1814223Y-2121684D01*
X1812298Y-2143690D01*
X1812298Y-2143690D01*
X1814223Y-2165696D01*
X1814223Y-2165697D01*
X1819940Y-2187035D01*
X1819940Y-2187035D01*
X1819941Y-2187035D01*
X1828410Y-2205197D01*
X1829277Y-2207056D01*
X1829277Y-2207057D01*
X1841404Y-2224376D01*
X1841947Y-2225152D01*
X1857568Y-2240773D01*
X1858692Y-2241560D01*
X1863055Y-2247017D01*
X1863980Y-2251717D01*
X1863980Y-2357437D01*
X1862011Y-2364141D01*
X1860348Y-2366205D01*
X1853459Y-2373094D01*
X1844249Y-2388026D01*
X1844249Y-2388027D01*
X1838730Y-2404680D01*
X1838730Y-2404680D01*
X1838730Y-2404680D01*
X1837680Y-2414958D01*
X1837680Y-2549960D01*
X1837680Y-2549962D01*
X1838730Y-2560240D01*
X1838730Y-2560240D01*
X1843521Y-2574696D01*
X1843761Y-2581679D01*
X1840518Y-2587365D01*
X1831303Y-2596580D01*
X1825170Y-2599929D01*
X1825113Y-2599941D01*
X1818600Y-2601326D01*
X1818599Y-2601326D01*
X1801307Y-2609025D01*
X1801306Y-2609025D01*
X1785993Y-2620151D01*
X1773327Y-2634219D01*
X1763862Y-2650612D01*
X1763862Y-2650612D01*
X1759164Y-2665072D01*
X1758013Y-2668614D01*
X1756034Y-2687440D01*
X1351280Y-2687440D01*
X1351280Y-1368760D01*
X1353249Y-1362056D01*
X1358529Y-1357481D01*
X1363680Y-1356360D01*
X1646886Y-1356360D01*
X1653590Y-1358329D01*
G37*
%TD.AperFunction*%
%TD*%
M02*
