%TF.GenerationSoftware,KiCad,Pcbnew,7.0.9*%
%TF.CreationDate,2024-02-21T20:23:42+01:00*%
%TF.ProjectId,VFD-Driverboard,5646442d-4472-4697-9665-72626f617264,rev?*%
%TF.SameCoordinates,Original*%
%TF.FileFunction,Copper,L2,Bot*%
%TF.FilePolarity,Positive*%
%FSLAX46Y46*%
G04 Gerber Fmt 4.6, Leading zero omitted, Abs format (unit mm)*
G04 Created by KiCad (PCBNEW 7.0.9) date 2024-02-21 20:23:42*
%MOMM*%
%LPD*%
G01*
G04 APERTURE LIST*
%TA.AperFunction,ComponentPad*%
%ADD10C,1.524000*%
%TD*%
%TA.AperFunction,ComponentPad*%
%ADD11R,1.700000X1.700000*%
%TD*%
%TA.AperFunction,ComponentPad*%
%ADD12O,1.700000X1.700000*%
%TD*%
%TA.AperFunction,Conductor*%
%ADD13C,1.000000*%
%TD*%
G04 APERTURE END LIST*
D10*
%TO.P,V1,1,F-*%
%TO.N,VF1*%
X107405600Y-15798800D03*
%TO.P,V1,2,F-*%
X105405600Y-15798800D03*
%TO.P,V1,4*%
%TO.N,N/C*%
X101405600Y-15798800D03*
%TO.P,V1,5,VDD*%
%TO.N,VCC*%
X99405600Y-15798800D03*
%TO.P,V1,6,VEE*%
%TO.N,VEE*%
X97405600Y-15798800D03*
%TO.P,V1,7,Gnd*%
%TO.N,GNDD*%
X95405600Y-15798800D03*
%TO.P,V1,8,OSC0*%
%TO.N,Net-(J1-Pin_4)*%
X93405600Y-15798800D03*
%TO.P,V1,9,Reset*%
%TO.N,Net-(J1-Pin_5)*%
X91405600Y-15798800D03*
%TO.P,V1,10,CS*%
%TO.N,Net-(J1-Pin_6)*%
X89405600Y-15798800D03*
%TO.P,V1,11,Clk*%
%TO.N,Net-(J1-Pin_7)*%
X87405600Y-15798800D03*
%TO.P,V1,12,DI*%
%TO.N,Net-(J1-Pin_8)*%
X85405600Y-15798800D03*
%TO.P,V1,39*%
%TO.N,N/C*%
X31405600Y-15798800D03*
%TO.P,V1,40*%
X29405600Y-15798800D03*
%TO.P,V1,41*%
X27405600Y-15798800D03*
%TO.P,V1,44,F+*%
%TO.N,VF2*%
X21405600Y-15798800D03*
%TO.P,V1,45,F+*%
X19405600Y-15798800D03*
%TD*%
D11*
%TO.P,J2,1,Pin_1*%
%TO.N,VF1*%
X75031600Y-35294800D03*
D12*
%TO.P,J2,2,Pin_2*%
%TO.N,VCC*%
X72491600Y-35294800D03*
%TO.P,J2,3,Pin_3*%
%TO.N,VEE*%
X69951600Y-35294800D03*
%TO.P,J2,4,Pin_4*%
%TO.N,GNDD*%
X67411600Y-35294800D03*
%TO.P,J2,5,Pin_5*%
%TO.N,Net-(J1-Pin_4)*%
X64871600Y-35294800D03*
%TO.P,J2,6,Pin_6*%
%TO.N,Net-(J1-Pin_5)*%
X62331600Y-35294800D03*
%TO.P,J2,7,Pin_7*%
%TO.N,Net-(J1-Pin_6)*%
X59791600Y-35294800D03*
%TO.P,J2,8,Pin_8*%
%TO.N,Net-(J1-Pin_7)*%
X57251600Y-35294800D03*
%TO.P,J2,9,Pin_9*%
%TO.N,Net-(J1-Pin_8)*%
X54711600Y-35294800D03*
%TO.P,J2,10,Pin_10*%
%TO.N,VF2*%
X52171600Y-35294800D03*
%TD*%
D13*
%TO.N,VCC*%
X99405600Y-15909900D02*
X99405600Y-15798800D01*
X81870700Y-33444800D02*
X99405600Y-15909900D01*
X72491600Y-35294800D02*
X72491600Y-35116500D01*
X74163300Y-33444800D02*
X81870700Y-33444800D01*
X72491600Y-35116500D02*
X74163300Y-33444800D01*
%TO.N,GNDD*%
X84089500Y-27209100D02*
X75497300Y-27209100D01*
X95405600Y-15798800D02*
X95405600Y-15893000D01*
X75497300Y-27209100D02*
X67411600Y-35294800D01*
X95405600Y-15893000D02*
X84089500Y-27209100D01*
%TO.N,VF1*%
X85909600Y-35294800D02*
X75031600Y-35294800D01*
X105405600Y-15798800D02*
X85909600Y-35294800D01*
X105405600Y-15798800D02*
X107405600Y-15798800D01*
%TO.N,VF2*%
X21405600Y-15798800D02*
X40901600Y-35294800D01*
X19405600Y-15798800D02*
X21405600Y-15798800D01*
X40901600Y-35294800D02*
X52171600Y-35294800D01*
%TO.N,VEE*%
X69951600Y-35294800D02*
X73293400Y-31953000D01*
X81325900Y-31953000D02*
X97405600Y-15873300D01*
X73293400Y-31953000D02*
X81325900Y-31953000D01*
X97405600Y-15873300D02*
X97405600Y-15798800D01*
%TO.N,Net-(J1-Pin_4)*%
X83582300Y-25695200D02*
X74471100Y-25695200D01*
X74471100Y-25695200D02*
X74471100Y-25695300D01*
X74471100Y-25695300D02*
X64871600Y-35294800D01*
X93405600Y-15871900D02*
X83582300Y-25695200D01*
X93405600Y-15798800D02*
X93405600Y-15871900D01*
%TO.N,Net-(J1-Pin_5)*%
X77087900Y-20538500D02*
X86764800Y-20538500D01*
X62331600Y-35294800D02*
X77087900Y-20538500D01*
X86764800Y-20538500D02*
X91405600Y-15897700D01*
X91405600Y-15897700D02*
X91405600Y-15798800D01*
%TO.N,Net-(J1-Pin_6)*%
X89405600Y-15890800D02*
X85958200Y-19338200D01*
X89405600Y-15798800D02*
X89405600Y-15890800D01*
X85958200Y-19338200D02*
X75748200Y-19338200D01*
X75748200Y-19338200D02*
X59791600Y-35294800D01*
%TO.N,Net-(J1-Pin_7)*%
X85648800Y-17640600D02*
X74905800Y-17640600D01*
X74905800Y-17640600D02*
X57251600Y-35294800D01*
X87405600Y-15883800D02*
X85648800Y-17640600D01*
X87405600Y-15798800D02*
X87405600Y-15883800D01*
%TO.N,Net-(J1-Pin_8)*%
X85405600Y-15798800D02*
X74207600Y-15798800D01*
X74207600Y-15798800D02*
X54711600Y-35294800D01*
%TD*%
M02*
