%TF.GenerationSoftware,KiCad,Pcbnew,8.0.3+dfsg-1*%
%TF.CreationDate,2024-07-07T12:28:04+02:00*%
%TF.ProjectId,VFD-Driverboard,5646442d-4472-4697-9665-72626f617264,rev?*%
%TF.SameCoordinates,Original*%
%TF.FileFunction,Paste,Bot*%
%TF.FilePolarity,Positive*%
%FSLAX45Y45*%
G04 Gerber Fmt 4.5, Leading zero omitted, Abs format (unit mm)*
G04 Created by KiCad (PCBNEW 8.0.3+dfsg-1) date 2024-07-07 12:28:04*
%MOMM*%
%LPD*%
G01*
G04 APERTURE LIST*
G04 Aperture macros list*
%AMRoundRect*
0 Rectangle with rounded corners*
0 $1 Rounding radius*
0 $2 $3 $4 $5 $6 $7 $8 $9 X,Y pos of 4 corners*
0 Add a 4 corners polygon primitive as box body*
4,1,4,$2,$3,$4,$5,$6,$7,$8,$9,$2,$3,0*
0 Add four circle primitives for the rounded corners*
1,1,$1+$1,$2,$3*
1,1,$1+$1,$4,$5*
1,1,$1+$1,$6,$7*
1,1,$1+$1,$8,$9*
0 Add four rect primitives between the rounded corners*
20,1,$1+$1,$2,$3,$4,$5,0*
20,1,$1+$1,$4,$5,$6,$7,0*
20,1,$1+$1,$6,$7,$8,$9,0*
20,1,$1+$1,$8,$9,$2,$3,0*%
G04 Aperture macros list end*
%ADD10RoundRect,0.250000X-1.025000X0.875000X-1.025000X-0.875000X1.025000X-0.875000X1.025000X0.875000X0*%
%ADD11RoundRect,0.250000X1.025000X-0.875000X1.025000X0.875000X-1.025000X0.875000X-1.025000X-0.875000X0*%
%ADD12RoundRect,0.250000X0.400000X0.625000X-0.400000X0.625000X-0.400000X-0.625000X0.400000X-0.625000X0*%
%ADD13RoundRect,0.249999X0.737501X2.450001X-0.737501X2.450001X-0.737501X-2.450001X0.737501X-2.450001X0*%
%ADD14RoundRect,0.249999X-0.512501X-1.075001X0.512501X-1.075001X0.512501X1.075001X-0.512501X1.075001X0*%
%ADD15RoundRect,0.042000X0.943000X0.258000X-0.943000X0.258000X-0.943000X-0.258000X0.943000X-0.258000X0*%
%ADD16RoundRect,0.250000X-0.400000X-0.625000X0.400000X-0.625000X0.400000X0.625000X-0.400000X0.625000X0*%
%ADD17RoundRect,0.249999X-0.737501X-2.450001X0.737501X-2.450001X0.737501X2.450001X-0.737501X2.450001X0*%
%ADD18RoundRect,0.225000X0.225000X0.375000X-0.225000X0.375000X-0.225000X-0.375000X0.225000X-0.375000X0*%
%ADD19RoundRect,0.250000X-0.412500X-0.650000X0.412500X-0.650000X0.412500X0.650000X-0.412500X0.650000X0*%
%ADD20R,1.790700X7.493000*%
%ADD21RoundRect,0.250000X0.412500X0.650000X-0.412500X0.650000X-0.412500X-0.650000X0.412500X-0.650000X0*%
G04 APERTURE END LIST*
D10*
%TO.C,C8*%
X9955980Y-3142940D03*
X9955980Y-3782940D03*
%TD*%
D11*
%TO.C,C6*%
X6415100Y-3772780D03*
X6415100Y-3132780D03*
%TD*%
D12*
%TO.C,R9*%
X7179820Y-3447660D03*
X6869820Y-3447660D03*
%TD*%
D13*
%TO.C,C4*%
X2374080Y-3020940D03*
X1846580Y-3020940D03*
%TD*%
D14*
%TO.C,D3*%
X6087370Y-2706020D03*
X6554870Y-2706020D03*
%TD*%
D15*
%TO.C,U1*%
X7526500Y-3097140D03*
X7526500Y-3224140D03*
X7526500Y-3351140D03*
X7526500Y-3478140D03*
X8020500Y-3478140D03*
X8020500Y-3351140D03*
X8020500Y-3224140D03*
X8020500Y-3097140D03*
%TD*%
D16*
%TO.C,R3*%
X4238380Y-3587360D03*
X4548380Y-3587360D03*
%TD*%
D17*
%TO.C,C5*%
X5209190Y-2398640D03*
X5736690Y-2398640D03*
%TD*%
D16*
%TO.C,R2*%
X5178240Y-2883780D03*
X5488240Y-2883780D03*
%TD*%
%TO.C,R1*%
X4238320Y-3234300D03*
X4548320Y-3234300D03*
%TD*%
D18*
%TO.C,D2*%
X9503760Y-3120000D03*
X9173760Y-3120000D03*
%TD*%
D13*
%TO.C,C3*%
X10982140Y-3028560D03*
X10454640Y-3028560D03*
%TD*%
D19*
%TO.C,C2*%
X5176990Y-3236840D03*
X5489490Y-3236840D03*
%TD*%
D20*
%TO.C,L1*%
X7495995Y-2454520D03*
X8056065Y-2454520D03*
%TD*%
D16*
%TO.C,R7*%
X5178240Y-3592440D03*
X5488240Y-3592440D03*
%TD*%
D13*
%TO.C,C1*%
X3775280Y-2746620D03*
X3247780Y-2746620D03*
%TD*%
D12*
%TO.C,R4*%
X4545780Y-2215760D03*
X4235780Y-2215760D03*
%TD*%
D21*
%TO.C,C7*%
X7805280Y-3800720D03*
X7492780Y-3800720D03*
%TD*%
D15*
%TO.C,U2*%
X4148240Y-2533260D03*
X4148240Y-2660260D03*
X4148240Y-2787260D03*
X4148240Y-2914260D03*
X4642240Y-2914260D03*
X4642240Y-2787260D03*
X4642240Y-2660260D03*
X4642240Y-2533260D03*
%TD*%
D16*
%TO.C,R8*%
X6872360Y-3800720D03*
X7182360Y-3800720D03*
%TD*%
D14*
%TO.C,D1*%
X6087300Y-2264060D03*
X6554800Y-2264060D03*
%TD*%
M02*
