M48
; DRILL file {KiCad 7.0.9} date 
; FORMAT={-:-/ absolute / metric / decimal}
; #@! TF.CreationDate,2024-02-18T16:29:43+01:00
; #@! TF.GenerationSoftware,Kicad,Pcbnew,7.0.9
; #@! TF.FileFunction,MixedPlating,1,2
FMAT,2
METRIC
; #@! TA.AperFunction,Plated,PTH,ComponentDrill
T1C0.762
; #@! TA.AperFunction,Plated,PTH,ComponentDrill
T2C1.000
%
G90
G05
T1
X19.406Y-15.799
X21.406Y-15.799
X27.406Y-15.799
X29.406Y-15.799
X31.406Y-15.799
X85.406Y-15.799
X87.406Y-15.799
X89.406Y-15.799
X91.406Y-15.799
X93.406Y-15.799
X95.406Y-15.799
X97.406Y-15.799
X99.406Y-15.799
X101.406Y-15.799
X105.406Y-15.799
X107.406Y-15.799
T2
X52.172Y-35.295
X54.712Y-35.295
X57.252Y-35.295
X59.792Y-35.295
X62.332Y-35.295
X64.872Y-35.295
X67.412Y-35.295
X69.952Y-35.295
X72.492Y-35.295
X75.032Y-35.295
T0
M30
