%TF.GenerationSoftware,KiCad,Pcbnew,8.0.3+dfsg-1*%
%TF.CreationDate,2024-07-07T12:28:03+02:00*%
%TF.ProjectId,VFD-Driverboard,5646442d-4472-4697-9665-72626f617264,rev?*%
%TF.SameCoordinates,Original*%
%TF.FileFunction,Copper,L2,Bot*%
%TF.FilePolarity,Positive*%
%FSLAX45Y45*%
G04 Gerber Fmt 4.5, Leading zero omitted, Abs format (unit mm)*
G04 Created by KiCad (PCBNEW 8.0.3+dfsg-1) date 2024-07-07 12:28:03*
%MOMM*%
%LPD*%
G01*
G04 APERTURE LIST*
G04 Aperture macros list*
%AMRoundRect*
0 Rectangle with rounded corners*
0 $1 Rounding radius*
0 $2 $3 $4 $5 $6 $7 $8 $9 X,Y pos of 4 corners*
0 Add a 4 corners polygon primitive as box body*
4,1,4,$2,$3,$4,$5,$6,$7,$8,$9,$2,$3,0*
0 Add four circle primitives for the rounded corners*
1,1,$1+$1,$2,$3*
1,1,$1+$1,$4,$5*
1,1,$1+$1,$6,$7*
1,1,$1+$1,$8,$9*
0 Add four rect primitives between the rounded corners*
20,1,$1+$1,$2,$3,$4,$5,0*
20,1,$1+$1,$4,$5,$6,$7,0*
20,1,$1+$1,$6,$7,$8,$9,0*
20,1,$1+$1,$8,$9,$2,$3,0*%
G04 Aperture macros list end*
%ADD10C,0.250000*%
%TA.AperFunction,NonConductor*%
%ADD11C,0.250000*%
%TD*%
%TA.AperFunction,EtchedComponent*%
%ADD12C,0.000000*%
%TD*%
%TA.AperFunction,ComponentPad*%
%ADD13C,1.524000*%
%TD*%
%TA.AperFunction,SMDPad,CuDef*%
%ADD14C,2.500000*%
%TD*%
%TA.AperFunction,ComponentPad*%
%ADD15C,3.600000*%
%TD*%
%TA.AperFunction,ConnectorPad*%
%ADD16C,5.500000*%
%TD*%
%TA.AperFunction,ComponentPad*%
%ADD17R,1.700000X1.700000*%
%TD*%
%TA.AperFunction,ComponentPad*%
%ADD18O,1.700000X1.700000*%
%TD*%
%TA.AperFunction,SMDPad,CuDef*%
%ADD19RoundRect,0.250000X-1.025000X0.875000X-1.025000X-0.875000X1.025000X-0.875000X1.025000X0.875000X0*%
%TD*%
%TA.AperFunction,SMDPad,CuDef*%
%ADD20RoundRect,0.250000X1.025000X-0.875000X1.025000X0.875000X-1.025000X0.875000X-1.025000X-0.875000X0*%
%TD*%
%TA.AperFunction,SMDPad,CuDef*%
%ADD21RoundRect,0.250000X0.400000X0.625000X-0.400000X0.625000X-0.400000X-0.625000X0.400000X-0.625000X0*%
%TD*%
%TA.AperFunction,SMDPad,CuDef*%
%ADD22RoundRect,0.249999X0.737501X2.450001X-0.737501X2.450001X-0.737501X-2.450001X0.737501X-2.450001X0*%
%TD*%
%TA.AperFunction,SMDPad,CuDef*%
%ADD23RoundRect,0.249999X-0.512501X-1.075001X0.512501X-1.075001X0.512501X1.075001X-0.512501X1.075001X0*%
%TD*%
%TA.AperFunction,SMDPad,CuDef*%
%ADD24RoundRect,0.042000X0.943000X0.258000X-0.943000X0.258000X-0.943000X-0.258000X0.943000X-0.258000X0*%
%TD*%
%TA.AperFunction,SMDPad,CuDef*%
%ADD25RoundRect,0.250000X-0.400000X-0.625000X0.400000X-0.625000X0.400000X0.625000X-0.400000X0.625000X0*%
%TD*%
%TA.AperFunction,SMDPad,CuDef*%
%ADD26RoundRect,0.249999X-0.737501X-2.450001X0.737501X-2.450001X0.737501X2.450001X-0.737501X2.450001X0*%
%TD*%
%TA.AperFunction,SMDPad,CuDef*%
%ADD27RoundRect,0.225000X0.225000X0.375000X-0.225000X0.375000X-0.225000X-0.375000X0.225000X-0.375000X0*%
%TD*%
%TA.AperFunction,SMDPad,CuDef*%
%ADD28RoundRect,0.250000X-0.412500X-0.650000X0.412500X-0.650000X0.412500X0.650000X-0.412500X0.650000X0*%
%TD*%
%TA.AperFunction,SMDPad,CuDef*%
%ADD29R,1.790700X7.493000*%
%TD*%
%TA.AperFunction,SMDPad,CuDef*%
%ADD30RoundRect,0.250000X0.412500X0.650000X-0.412500X0.650000X-0.412500X-0.650000X0.412500X-0.650000X0*%
%TD*%
%TA.AperFunction,ViaPad*%
%ADD31C,0.800000*%
%TD*%
%TA.AperFunction,Conductor*%
%ADD32C,0.500000*%
%TD*%
G04 APERTURE END LIST*
D10*
D11*
X3973259Y-3770410D02*
X3926593Y-3910410D01*
X3926593Y-3910410D02*
X3879926Y-3770410D01*
X3786593Y-3837077D02*
X3833259Y-3837077D01*
X3833259Y-3910410D02*
X3833259Y-3770410D01*
X3833259Y-3770410D02*
X3766593Y-3770410D01*
X3713259Y-3910410D02*
X3713259Y-3770410D01*
X3713259Y-3770410D02*
X3679926Y-3770410D01*
X3679926Y-3770410D02*
X3659926Y-3777077D01*
X3659926Y-3777077D02*
X3646593Y-3790410D01*
X3646593Y-3790410D02*
X3639926Y-3803743D01*
X3639926Y-3803743D02*
X3633259Y-3830410D01*
X3633259Y-3830410D02*
X3633259Y-3850410D01*
X3633259Y-3850410D02*
X3639926Y-3877077D01*
X3639926Y-3877077D02*
X3646593Y-3890410D01*
X3646593Y-3890410D02*
X3659926Y-3903743D01*
X3659926Y-3903743D02*
X3679926Y-3910410D01*
X3679926Y-3910410D02*
X3713259Y-3910410D01*
X3406593Y-3910410D02*
X3406593Y-3770410D01*
X3406593Y-3903743D02*
X3419926Y-3910410D01*
X3419926Y-3910410D02*
X3446593Y-3910410D01*
X3446593Y-3910410D02*
X3459926Y-3903743D01*
X3459926Y-3903743D02*
X3466593Y-3897077D01*
X3466593Y-3897077D02*
X3473259Y-3883743D01*
X3473259Y-3883743D02*
X3473259Y-3843743D01*
X3473259Y-3843743D02*
X3466593Y-3830410D01*
X3466593Y-3830410D02*
X3459926Y-3823743D01*
X3459926Y-3823743D02*
X3446593Y-3817077D01*
X3446593Y-3817077D02*
X3419926Y-3817077D01*
X3419926Y-3817077D02*
X3406593Y-3823743D01*
X3339926Y-3910410D02*
X3339926Y-3817077D01*
X3339926Y-3843743D02*
X3333259Y-3830410D01*
X3333259Y-3830410D02*
X3326593Y-3823743D01*
X3326593Y-3823743D02*
X3313259Y-3817077D01*
X3313259Y-3817077D02*
X3299926Y-3817077D01*
X3253259Y-3910410D02*
X3253259Y-3817077D01*
X3253259Y-3770410D02*
X3259926Y-3777077D01*
X3259926Y-3777077D02*
X3253259Y-3783743D01*
X3253259Y-3783743D02*
X3246593Y-3777077D01*
X3246593Y-3777077D02*
X3253259Y-3770410D01*
X3253259Y-3770410D02*
X3253259Y-3783743D01*
X3199926Y-3817077D02*
X3166592Y-3910410D01*
X3166592Y-3910410D02*
X3133259Y-3817077D01*
X3026592Y-3903743D02*
X3039926Y-3910410D01*
X3039926Y-3910410D02*
X3066592Y-3910410D01*
X3066592Y-3910410D02*
X3079926Y-3903743D01*
X3079926Y-3903743D02*
X3086592Y-3890410D01*
X3086592Y-3890410D02*
X3086592Y-3837077D01*
X3086592Y-3837077D02*
X3079926Y-3823743D01*
X3079926Y-3823743D02*
X3066592Y-3817077D01*
X3066592Y-3817077D02*
X3039926Y-3817077D01*
X3039926Y-3817077D02*
X3026592Y-3823743D01*
X3026592Y-3823743D02*
X3019926Y-3837077D01*
X3019926Y-3837077D02*
X3019926Y-3850410D01*
X3019926Y-3850410D02*
X3086592Y-3863743D01*
X2959926Y-3910410D02*
X2959926Y-3817077D01*
X2959926Y-3843743D02*
X2953259Y-3830410D01*
X2953259Y-3830410D02*
X2946592Y-3823743D01*
X2946592Y-3823743D02*
X2933259Y-3817077D01*
X2933259Y-3817077D02*
X2919926Y-3817077D01*
X2766592Y-3910410D02*
X2766592Y-3770410D01*
X2766592Y-3823743D02*
X2753259Y-3817077D01*
X2753259Y-3817077D02*
X2726592Y-3817077D01*
X2726592Y-3817077D02*
X2713259Y-3823743D01*
X2713259Y-3823743D02*
X2706592Y-3830410D01*
X2706592Y-3830410D02*
X2699926Y-3843743D01*
X2699926Y-3843743D02*
X2699926Y-3883743D01*
X2699926Y-3883743D02*
X2706592Y-3897077D01*
X2706592Y-3897077D02*
X2713259Y-3903743D01*
X2713259Y-3903743D02*
X2726592Y-3910410D01*
X2726592Y-3910410D02*
X2753259Y-3910410D01*
X2753259Y-3910410D02*
X2766592Y-3903743D01*
X2619926Y-3910410D02*
X2633259Y-3903743D01*
X2633259Y-3903743D02*
X2639926Y-3897077D01*
X2639926Y-3897077D02*
X2646592Y-3883743D01*
X2646592Y-3883743D02*
X2646592Y-3843743D01*
X2646592Y-3843743D02*
X2639926Y-3830410D01*
X2639926Y-3830410D02*
X2633259Y-3823743D01*
X2633259Y-3823743D02*
X2619926Y-3817077D01*
X2619926Y-3817077D02*
X2599926Y-3817077D01*
X2599926Y-3817077D02*
X2586592Y-3823743D01*
X2586592Y-3823743D02*
X2579926Y-3830410D01*
X2579926Y-3830410D02*
X2573259Y-3843743D01*
X2573259Y-3843743D02*
X2573259Y-3883743D01*
X2573259Y-3883743D02*
X2579926Y-3897077D01*
X2579926Y-3897077D02*
X2586592Y-3903743D01*
X2586592Y-3903743D02*
X2599926Y-3910410D01*
X2599926Y-3910410D02*
X2619926Y-3910410D01*
X2453259Y-3910410D02*
X2453259Y-3837077D01*
X2453259Y-3837077D02*
X2459926Y-3823743D01*
X2459926Y-3823743D02*
X2473259Y-3817077D01*
X2473259Y-3817077D02*
X2499926Y-3817077D01*
X2499926Y-3817077D02*
X2513259Y-3823743D01*
X2453259Y-3903743D02*
X2466592Y-3910410D01*
X2466592Y-3910410D02*
X2499926Y-3910410D01*
X2499926Y-3910410D02*
X2513259Y-3903743D01*
X2513259Y-3903743D02*
X2519926Y-3890410D01*
X2519926Y-3890410D02*
X2519926Y-3877077D01*
X2519926Y-3877077D02*
X2513259Y-3863743D01*
X2513259Y-3863743D02*
X2499926Y-3857077D01*
X2499926Y-3857077D02*
X2466592Y-3857077D01*
X2466592Y-3857077D02*
X2453259Y-3850410D01*
X2386592Y-3910410D02*
X2386592Y-3817077D01*
X2386592Y-3843743D02*
X2379926Y-3830410D01*
X2379926Y-3830410D02*
X2373259Y-3823743D01*
X2373259Y-3823743D02*
X2359926Y-3817077D01*
X2359926Y-3817077D02*
X2346592Y-3817077D01*
X2239926Y-3910410D02*
X2239926Y-3770410D01*
X2239926Y-3903743D02*
X2253259Y-3910410D01*
X2253259Y-3910410D02*
X2279926Y-3910410D01*
X2279926Y-3910410D02*
X2293259Y-3903743D01*
X2293259Y-3903743D02*
X2299926Y-3897077D01*
X2299926Y-3897077D02*
X2306592Y-3883743D01*
X2306592Y-3883743D02*
X2306592Y-3843743D01*
X2306592Y-3843743D02*
X2299926Y-3830410D01*
X2299926Y-3830410D02*
X2293259Y-3823743D01*
X2293259Y-3823743D02*
X2279926Y-3817077D01*
X2279926Y-3817077D02*
X2253259Y-3817077D01*
X2253259Y-3817077D02*
X2239926Y-3823743D01*
X2086592Y-3817077D02*
X2033259Y-3817077D01*
X2066592Y-3910410D02*
X2066592Y-3790410D01*
X2066592Y-3790410D02*
X2059926Y-3777077D01*
X2059926Y-3777077D02*
X2046592Y-3770410D01*
X2046592Y-3770410D02*
X2033259Y-3770410D01*
X1966592Y-3910410D02*
X1979926Y-3903743D01*
X1979926Y-3903743D02*
X1986592Y-3897077D01*
X1986592Y-3897077D02*
X1993259Y-3883743D01*
X1993259Y-3883743D02*
X1993259Y-3843743D01*
X1993259Y-3843743D02*
X1986592Y-3830410D01*
X1986592Y-3830410D02*
X1979926Y-3823743D01*
X1979926Y-3823743D02*
X1966592Y-3817077D01*
X1966592Y-3817077D02*
X1946592Y-3817077D01*
X1946592Y-3817077D02*
X1933259Y-3823743D01*
X1933259Y-3823743D02*
X1926592Y-3830410D01*
X1926592Y-3830410D02*
X1919926Y-3843743D01*
X1919926Y-3843743D02*
X1919926Y-3883743D01*
X1919926Y-3883743D02*
X1926592Y-3897077D01*
X1926592Y-3897077D02*
X1933259Y-3903743D01*
X1933259Y-3903743D02*
X1946592Y-3910410D01*
X1946592Y-3910410D02*
X1966592Y-3910410D01*
X1859925Y-3910410D02*
X1859925Y-3817077D01*
X1859925Y-3843743D02*
X1853259Y-3830410D01*
X1853259Y-3830410D02*
X1846592Y-3823743D01*
X1846592Y-3823743D02*
X1833259Y-3817077D01*
X1833259Y-3817077D02*
X1819925Y-3817077D01*
X3959926Y-4129136D02*
X3939926Y-4135802D01*
X3939926Y-4135802D02*
X3906593Y-4135802D01*
X3906593Y-4135802D02*
X3893259Y-4129136D01*
X3893259Y-4129136D02*
X3886593Y-4122469D01*
X3886593Y-4122469D02*
X3879926Y-4109136D01*
X3879926Y-4109136D02*
X3879926Y-4095802D01*
X3879926Y-4095802D02*
X3886593Y-4082469D01*
X3886593Y-4082469D02*
X3893259Y-4075802D01*
X3893259Y-4075802D02*
X3906593Y-4069136D01*
X3906593Y-4069136D02*
X3933259Y-4062469D01*
X3933259Y-4062469D02*
X3946593Y-4055802D01*
X3946593Y-4055802D02*
X3953259Y-4049136D01*
X3953259Y-4049136D02*
X3959926Y-4035802D01*
X3959926Y-4035802D02*
X3959926Y-4022469D01*
X3959926Y-4022469D02*
X3953259Y-4009136D01*
X3953259Y-4009136D02*
X3946593Y-4002469D01*
X3946593Y-4002469D02*
X3933259Y-3995802D01*
X3933259Y-3995802D02*
X3899926Y-3995802D01*
X3899926Y-3995802D02*
X3879926Y-4002469D01*
X3759926Y-4135802D02*
X3759926Y-4062469D01*
X3759926Y-4062469D02*
X3766593Y-4049136D01*
X3766593Y-4049136D02*
X3779926Y-4042469D01*
X3779926Y-4042469D02*
X3806593Y-4042469D01*
X3806593Y-4042469D02*
X3819926Y-4049136D01*
X3759926Y-4129136D02*
X3773259Y-4135802D01*
X3773259Y-4135802D02*
X3806593Y-4135802D01*
X3806593Y-4135802D02*
X3819926Y-4129136D01*
X3819926Y-4129136D02*
X3826593Y-4115802D01*
X3826593Y-4115802D02*
X3826593Y-4102469D01*
X3826593Y-4102469D02*
X3819926Y-4089136D01*
X3819926Y-4089136D02*
X3806593Y-4082469D01*
X3806593Y-4082469D02*
X3773259Y-4082469D01*
X3773259Y-4082469D02*
X3759926Y-4075802D01*
X3693259Y-4135802D02*
X3693259Y-4042469D01*
X3693259Y-4055802D02*
X3686593Y-4049136D01*
X3686593Y-4049136D02*
X3673259Y-4042469D01*
X3673259Y-4042469D02*
X3653259Y-4042469D01*
X3653259Y-4042469D02*
X3639926Y-4049136D01*
X3639926Y-4049136D02*
X3633259Y-4062469D01*
X3633259Y-4062469D02*
X3633259Y-4135802D01*
X3633259Y-4062469D02*
X3626593Y-4049136D01*
X3626593Y-4049136D02*
X3613259Y-4042469D01*
X3613259Y-4042469D02*
X3593259Y-4042469D01*
X3593259Y-4042469D02*
X3579926Y-4049136D01*
X3579926Y-4049136D02*
X3573259Y-4062469D01*
X3573259Y-4062469D02*
X3573259Y-4135802D01*
X3513259Y-4129136D02*
X3499926Y-4135802D01*
X3499926Y-4135802D02*
X3473259Y-4135802D01*
X3473259Y-4135802D02*
X3459926Y-4129136D01*
X3459926Y-4129136D02*
X3453259Y-4115802D01*
X3453259Y-4115802D02*
X3453259Y-4109136D01*
X3453259Y-4109136D02*
X3459926Y-4095802D01*
X3459926Y-4095802D02*
X3473259Y-4089136D01*
X3473259Y-4089136D02*
X3493259Y-4089136D01*
X3493259Y-4089136D02*
X3506593Y-4082469D01*
X3506593Y-4082469D02*
X3513259Y-4069136D01*
X3513259Y-4069136D02*
X3513259Y-4062469D01*
X3513259Y-4062469D02*
X3506593Y-4049136D01*
X3506593Y-4049136D02*
X3493259Y-4042469D01*
X3493259Y-4042469D02*
X3473259Y-4042469D01*
X3473259Y-4042469D02*
X3459926Y-4049136D01*
X3333259Y-4042469D02*
X3333259Y-4135802D01*
X3393259Y-4042469D02*
X3393259Y-4115802D01*
X3393259Y-4115802D02*
X3386593Y-4129136D01*
X3386593Y-4129136D02*
X3373259Y-4135802D01*
X3373259Y-4135802D02*
X3353259Y-4135802D01*
X3353259Y-4135802D02*
X3339926Y-4129136D01*
X3339926Y-4129136D02*
X3333259Y-4122469D01*
X3266593Y-4042469D02*
X3266593Y-4135802D01*
X3266593Y-4055802D02*
X3259926Y-4049136D01*
X3259926Y-4049136D02*
X3246593Y-4042469D01*
X3246593Y-4042469D02*
X3226593Y-4042469D01*
X3226593Y-4042469D02*
X3213259Y-4049136D01*
X3213259Y-4049136D02*
X3206593Y-4062469D01*
X3206593Y-4062469D02*
X3206593Y-4135802D01*
X3079926Y-4042469D02*
X3079926Y-4155802D01*
X3079926Y-4155802D02*
X3086593Y-4169136D01*
X3086593Y-4169136D02*
X3093259Y-4175802D01*
X3093259Y-4175802D02*
X3106593Y-4182469D01*
X3106593Y-4182469D02*
X3126593Y-4182469D01*
X3126593Y-4182469D02*
X3139926Y-4175802D01*
X3079926Y-4129136D02*
X3093259Y-4135802D01*
X3093259Y-4135802D02*
X3119926Y-4135802D01*
X3119926Y-4135802D02*
X3133259Y-4129136D01*
X3133259Y-4129136D02*
X3139926Y-4122469D01*
X3139926Y-4122469D02*
X3146593Y-4109136D01*
X3146593Y-4109136D02*
X3146593Y-4069136D01*
X3146593Y-4069136D02*
X3139926Y-4055802D01*
X3139926Y-4055802D02*
X3133259Y-4049136D01*
X3133259Y-4049136D02*
X3119926Y-4042469D01*
X3119926Y-4042469D02*
X3093259Y-4042469D01*
X3093259Y-4042469D02*
X3079926Y-4049136D01*
X2906592Y-4135802D02*
X2906592Y-3995802D01*
X2906592Y-4062469D02*
X2826592Y-4062469D01*
X2826592Y-4135802D02*
X2826592Y-3995802D01*
X2679926Y-4122469D02*
X2686593Y-4129136D01*
X2686593Y-4129136D02*
X2706593Y-4135802D01*
X2706593Y-4135802D02*
X2719926Y-4135802D01*
X2719926Y-4135802D02*
X2739926Y-4129136D01*
X2739926Y-4129136D02*
X2753259Y-4115802D01*
X2753259Y-4115802D02*
X2759926Y-4102469D01*
X2759926Y-4102469D02*
X2766593Y-4075802D01*
X2766593Y-4075802D02*
X2766593Y-4055802D01*
X2766593Y-4055802D02*
X2759926Y-4029136D01*
X2759926Y-4029136D02*
X2753259Y-4015802D01*
X2753259Y-4015802D02*
X2739926Y-4002469D01*
X2739926Y-4002469D02*
X2719926Y-3995802D01*
X2719926Y-3995802D02*
X2706593Y-3995802D01*
X2706593Y-3995802D02*
X2686593Y-4002469D01*
X2686593Y-4002469D02*
X2679926Y-4009136D01*
X2626593Y-4129136D02*
X2606593Y-4135802D01*
X2606593Y-4135802D02*
X2573259Y-4135802D01*
X2573259Y-4135802D02*
X2559926Y-4129136D01*
X2559926Y-4129136D02*
X2553259Y-4122469D01*
X2553259Y-4122469D02*
X2546593Y-4109136D01*
X2546593Y-4109136D02*
X2546593Y-4095802D01*
X2546593Y-4095802D02*
X2553259Y-4082469D01*
X2553259Y-4082469D02*
X2559926Y-4075802D01*
X2559926Y-4075802D02*
X2573259Y-4069136D01*
X2573259Y-4069136D02*
X2599926Y-4062469D01*
X2599926Y-4062469D02*
X2613259Y-4055802D01*
X2613259Y-4055802D02*
X2619926Y-4049136D01*
X2619926Y-4049136D02*
X2626593Y-4035802D01*
X2626593Y-4035802D02*
X2626593Y-4022469D01*
X2626593Y-4022469D02*
X2619926Y-4009136D01*
X2619926Y-4009136D02*
X2613259Y-4002469D01*
X2613259Y-4002469D02*
X2599926Y-3995802D01*
X2599926Y-3995802D02*
X2566593Y-3995802D01*
X2566593Y-3995802D02*
X2546593Y-4002469D01*
X2486593Y-4082469D02*
X2379926Y-4082469D01*
X2239926Y-4135802D02*
X2319926Y-4135802D01*
X2279926Y-4135802D02*
X2279926Y-3995802D01*
X2279926Y-3995802D02*
X2293259Y-4015802D01*
X2293259Y-4015802D02*
X2306593Y-4029136D01*
X2306593Y-4029136D02*
X2319926Y-4035802D01*
X2186593Y-4009136D02*
X2179926Y-4002469D01*
X2179926Y-4002469D02*
X2166593Y-3995802D01*
X2166593Y-3995802D02*
X2133259Y-3995802D01*
X2133259Y-3995802D02*
X2119926Y-4002469D01*
X2119926Y-4002469D02*
X2113259Y-4009136D01*
X2113259Y-4009136D02*
X2106593Y-4022469D01*
X2106593Y-4022469D02*
X2106593Y-4035802D01*
X2106593Y-4035802D02*
X2113259Y-4055802D01*
X2113259Y-4055802D02*
X2193259Y-4135802D01*
X2193259Y-4135802D02*
X2106593Y-4135802D01*
X2053259Y-4129136D02*
X2033259Y-4135802D01*
X2033259Y-4135802D02*
X1999926Y-4135802D01*
X1999926Y-4135802D02*
X1986593Y-4129136D01*
X1986593Y-4129136D02*
X1979926Y-4122469D01*
X1979926Y-4122469D02*
X1973259Y-4109136D01*
X1973259Y-4109136D02*
X1973259Y-4095802D01*
X1973259Y-4095802D02*
X1979926Y-4082469D01*
X1979926Y-4082469D02*
X1986593Y-4075802D01*
X1986593Y-4075802D02*
X1999926Y-4069136D01*
X1999926Y-4069136D02*
X2026593Y-4062469D01*
X2026593Y-4062469D02*
X2039926Y-4055802D01*
X2039926Y-4055802D02*
X2046593Y-4049136D01*
X2046593Y-4049136D02*
X2053259Y-4035802D01*
X2053259Y-4035802D02*
X2053259Y-4022469D01*
X2053259Y-4022469D02*
X2046593Y-4009136D01*
X2046593Y-4009136D02*
X2039926Y-4002469D01*
X2039926Y-4002469D02*
X2026593Y-3995802D01*
X2026593Y-3995802D02*
X1993259Y-3995802D01*
X1993259Y-3995802D02*
X1973259Y-4002469D01*
X1919926Y-4129136D02*
X1899926Y-4135802D01*
X1899926Y-4135802D02*
X1866593Y-4135802D01*
X1866593Y-4135802D02*
X1853259Y-4129136D01*
X1853259Y-4129136D02*
X1846593Y-4122469D01*
X1846593Y-4122469D02*
X1839926Y-4109136D01*
X1839926Y-4109136D02*
X1839926Y-4095802D01*
X1839926Y-4095802D02*
X1846593Y-4082469D01*
X1846593Y-4082469D02*
X1853259Y-4075802D01*
X1853259Y-4075802D02*
X1866593Y-4069136D01*
X1866593Y-4069136D02*
X1893259Y-4062469D01*
X1893259Y-4062469D02*
X1906593Y-4055802D01*
X1906593Y-4055802D02*
X1913259Y-4049136D01*
X1913259Y-4049136D02*
X1919926Y-4035802D01*
X1919926Y-4035802D02*
X1919926Y-4022469D01*
X1919926Y-4022469D02*
X1913259Y-4009136D01*
X1913259Y-4009136D02*
X1906593Y-4002469D01*
X1906593Y-4002469D02*
X1893259Y-3995802D01*
X1893259Y-3995802D02*
X1859926Y-3995802D01*
X1859926Y-3995802D02*
X1839926Y-4002469D01*
X1713259Y-3995802D02*
X1779926Y-3995802D01*
X1779926Y-3995802D02*
X1786593Y-4062469D01*
X1786593Y-4062469D02*
X1779926Y-4055802D01*
X1779926Y-4055802D02*
X1766593Y-4049136D01*
X1766593Y-4049136D02*
X1733259Y-4049136D01*
X1733259Y-4049136D02*
X1719926Y-4055802D01*
X1719926Y-4055802D02*
X1713259Y-4062469D01*
X1713259Y-4062469D02*
X1706593Y-4075802D01*
X1706593Y-4075802D02*
X1706593Y-4109136D01*
X1706593Y-4109136D02*
X1713259Y-4122469D01*
X1713259Y-4122469D02*
X1719926Y-4129136D01*
X1719926Y-4129136D02*
X1733259Y-4135802D01*
X1733259Y-4135802D02*
X1766593Y-4135802D01*
X1766593Y-4135802D02*
X1779926Y-4129136D01*
X1779926Y-4129136D02*
X1786593Y-4122469D01*
X1639926Y-4135802D02*
X1613259Y-4135802D01*
X1613259Y-4135802D02*
X1599926Y-4129136D01*
X1599926Y-4129136D02*
X1593259Y-4122469D01*
X1593259Y-4122469D02*
X1579926Y-4102469D01*
X1579926Y-4102469D02*
X1573259Y-4075802D01*
X1573259Y-4075802D02*
X1573259Y-4022469D01*
X1573259Y-4022469D02*
X1579926Y-4009136D01*
X1579926Y-4009136D02*
X1586593Y-4002469D01*
X1586593Y-4002469D02*
X1599926Y-3995802D01*
X1599926Y-3995802D02*
X1626593Y-3995802D01*
X1626593Y-3995802D02*
X1639926Y-4002469D01*
X1639926Y-4002469D02*
X1646593Y-4009136D01*
X1646593Y-4009136D02*
X1653259Y-4022469D01*
X1653259Y-4022469D02*
X1653259Y-4055802D01*
X1653259Y-4055802D02*
X1646593Y-4069136D01*
X1646593Y-4069136D02*
X1639926Y-4075802D01*
X1639926Y-4075802D02*
X1626593Y-4082469D01*
X1626593Y-4082469D02*
X1599926Y-4082469D01*
X1599926Y-4082469D02*
X1586593Y-4075802D01*
X1586593Y-4075802D02*
X1579926Y-4069136D01*
X1579926Y-4069136D02*
X1573259Y-4055802D01*
X1533259Y-3995802D02*
X1453259Y-3995802D01*
X1493259Y-4135802D02*
X1493259Y-3995802D01*
X3913259Y-4414528D02*
X3919926Y-4407861D01*
X3919926Y-4407861D02*
X3933259Y-4387861D01*
X3933259Y-4387861D02*
X3939926Y-4374528D01*
X3939926Y-4374528D02*
X3946593Y-4354528D01*
X3946593Y-4354528D02*
X3953259Y-4321194D01*
X3953259Y-4321194D02*
X3953259Y-4294528D01*
X3953259Y-4294528D02*
X3946593Y-4261194D01*
X3946593Y-4261194D02*
X3939926Y-4241194D01*
X3939926Y-4241194D02*
X3933259Y-4227861D01*
X3933259Y-4227861D02*
X3919926Y-4207861D01*
X3919926Y-4207861D02*
X3913259Y-4201194D01*
X3799926Y-4354528D02*
X3813259Y-4361194D01*
X3813259Y-4361194D02*
X3839926Y-4361194D01*
X3839926Y-4361194D02*
X3853259Y-4354528D01*
X3853259Y-4354528D02*
X3859926Y-4347861D01*
X3859926Y-4347861D02*
X3866593Y-4334528D01*
X3866593Y-4334528D02*
X3866593Y-4294528D01*
X3866593Y-4294528D02*
X3859926Y-4281194D01*
X3859926Y-4281194D02*
X3853259Y-4274528D01*
X3853259Y-4274528D02*
X3839926Y-4267861D01*
X3839926Y-4267861D02*
X3813259Y-4267861D01*
X3813259Y-4267861D02*
X3799926Y-4274528D01*
X3753259Y-4414528D02*
X3746593Y-4407861D01*
X3746593Y-4407861D02*
X3733259Y-4387861D01*
X3733259Y-4387861D02*
X3726593Y-4374528D01*
X3726593Y-4374528D02*
X3719926Y-4354528D01*
X3719926Y-4354528D02*
X3713259Y-4321194D01*
X3713259Y-4321194D02*
X3713259Y-4294528D01*
X3713259Y-4294528D02*
X3719926Y-4261194D01*
X3719926Y-4261194D02*
X3726593Y-4241194D01*
X3726593Y-4241194D02*
X3733259Y-4227861D01*
X3733259Y-4227861D02*
X3746593Y-4207861D01*
X3746593Y-4207861D02*
X3753259Y-4201194D01*
X3546593Y-4234528D02*
X3539926Y-4227861D01*
X3539926Y-4227861D02*
X3526593Y-4221194D01*
X3526593Y-4221194D02*
X3493259Y-4221194D01*
X3493259Y-4221194D02*
X3479926Y-4227861D01*
X3479926Y-4227861D02*
X3473259Y-4234528D01*
X3473259Y-4234528D02*
X3466593Y-4247861D01*
X3466593Y-4247861D02*
X3466593Y-4261194D01*
X3466593Y-4261194D02*
X3473259Y-4281194D01*
X3473259Y-4281194D02*
X3553259Y-4361194D01*
X3553259Y-4361194D02*
X3466593Y-4361194D01*
X3379926Y-4221194D02*
X3366593Y-4221194D01*
X3366593Y-4221194D02*
X3353259Y-4227861D01*
X3353259Y-4227861D02*
X3346593Y-4234528D01*
X3346593Y-4234528D02*
X3339926Y-4247861D01*
X3339926Y-4247861D02*
X3333259Y-4274528D01*
X3333259Y-4274528D02*
X3333259Y-4307861D01*
X3333259Y-4307861D02*
X3339926Y-4334528D01*
X3339926Y-4334528D02*
X3346593Y-4347861D01*
X3346593Y-4347861D02*
X3353259Y-4354528D01*
X3353259Y-4354528D02*
X3366593Y-4361194D01*
X3366593Y-4361194D02*
X3379926Y-4361194D01*
X3379926Y-4361194D02*
X3393259Y-4354528D01*
X3393259Y-4354528D02*
X3399926Y-4347861D01*
X3399926Y-4347861D02*
X3406593Y-4334528D01*
X3406593Y-4334528D02*
X3413259Y-4307861D01*
X3413259Y-4307861D02*
X3413259Y-4274528D01*
X3413259Y-4274528D02*
X3406593Y-4247861D01*
X3406593Y-4247861D02*
X3399926Y-4234528D01*
X3399926Y-4234528D02*
X3393259Y-4227861D01*
X3393259Y-4227861D02*
X3379926Y-4221194D01*
X3279926Y-4234528D02*
X3273259Y-4227861D01*
X3273259Y-4227861D02*
X3259926Y-4221194D01*
X3259926Y-4221194D02*
X3226593Y-4221194D01*
X3226593Y-4221194D02*
X3213259Y-4227861D01*
X3213259Y-4227861D02*
X3206593Y-4234528D01*
X3206593Y-4234528D02*
X3199926Y-4247861D01*
X3199926Y-4247861D02*
X3199926Y-4261194D01*
X3199926Y-4261194D02*
X3206593Y-4281194D01*
X3206593Y-4281194D02*
X3286593Y-4361194D01*
X3286593Y-4361194D02*
X3199926Y-4361194D01*
X3079926Y-4267861D02*
X3079926Y-4361194D01*
X3113259Y-4214528D02*
X3146593Y-4314528D01*
X3146593Y-4314528D02*
X3059926Y-4314528D01*
X2899926Y-4361194D02*
X2899926Y-4267861D01*
X2899926Y-4294528D02*
X2893259Y-4281194D01*
X2893259Y-4281194D02*
X2886593Y-4274528D01*
X2886593Y-4274528D02*
X2873259Y-4267861D01*
X2873259Y-4267861D02*
X2859926Y-4267861D01*
X2793259Y-4361194D02*
X2806593Y-4354528D01*
X2806593Y-4354528D02*
X2813259Y-4341194D01*
X2813259Y-4341194D02*
X2813259Y-4221194D01*
X2739926Y-4267861D02*
X2739926Y-4361194D01*
X2739926Y-4281194D02*
X2733260Y-4274528D01*
X2733260Y-4274528D02*
X2719926Y-4267861D01*
X2719926Y-4267861D02*
X2699926Y-4267861D01*
X2699926Y-4267861D02*
X2686593Y-4274528D01*
X2686593Y-4274528D02*
X2679926Y-4287861D01*
X2679926Y-4287861D02*
X2679926Y-4361194D01*
X2553259Y-4361194D02*
X2553259Y-4221194D01*
X2553259Y-4354528D02*
X2566593Y-4361194D01*
X2566593Y-4361194D02*
X2593259Y-4361194D01*
X2593259Y-4361194D02*
X2606593Y-4354528D01*
X2606593Y-4354528D02*
X2613259Y-4347861D01*
X2613259Y-4347861D02*
X2619926Y-4334528D01*
X2619926Y-4334528D02*
X2619926Y-4294528D01*
X2619926Y-4294528D02*
X2613259Y-4281194D01*
X2613259Y-4281194D02*
X2606593Y-4274528D01*
X2606593Y-4274528D02*
X2593259Y-4267861D01*
X2593259Y-4267861D02*
X2566593Y-4267861D01*
X2566593Y-4267861D02*
X2553259Y-4274528D01*
X3953259Y-4586587D02*
X3953259Y-4446587D01*
X3953259Y-4513253D02*
X3873259Y-4513253D01*
X3873259Y-4586587D02*
X3873259Y-4446587D01*
X3819926Y-4446587D02*
X3786593Y-4586587D01*
X3786593Y-4586587D02*
X3759926Y-4486587D01*
X3759926Y-4486587D02*
X3733259Y-4586587D01*
X3733259Y-4586587D02*
X3699926Y-4446587D01*
X3646593Y-4533253D02*
X3539926Y-4533253D01*
X3393259Y-4586587D02*
X3439926Y-4519920D01*
X3473259Y-4586587D02*
X3473259Y-4446587D01*
X3473259Y-4446587D02*
X3419926Y-4446587D01*
X3419926Y-4446587D02*
X3406593Y-4453253D01*
X3406593Y-4453253D02*
X3399926Y-4459920D01*
X3399926Y-4459920D02*
X3393259Y-4473253D01*
X3393259Y-4473253D02*
X3393259Y-4493253D01*
X3393259Y-4493253D02*
X3399926Y-4506587D01*
X3399926Y-4506587D02*
X3406593Y-4513253D01*
X3406593Y-4513253D02*
X3419926Y-4519920D01*
X3419926Y-4519920D02*
X3473259Y-4519920D01*
X3279926Y-4579920D02*
X3293259Y-4586587D01*
X3293259Y-4586587D02*
X3319926Y-4586587D01*
X3319926Y-4586587D02*
X3333259Y-4579920D01*
X3333259Y-4579920D02*
X3339926Y-4566587D01*
X3339926Y-4566587D02*
X3339926Y-4513253D01*
X3339926Y-4513253D02*
X3333259Y-4499920D01*
X3333259Y-4499920D02*
X3319926Y-4493253D01*
X3319926Y-4493253D02*
X3293259Y-4493253D01*
X3293259Y-4493253D02*
X3279926Y-4499920D01*
X3279926Y-4499920D02*
X3273259Y-4513253D01*
X3273259Y-4513253D02*
X3273259Y-4526587D01*
X3273259Y-4526587D02*
X3339926Y-4539920D01*
X3226593Y-4493253D02*
X3193259Y-4586587D01*
X3193259Y-4586587D02*
X3159926Y-4493253D01*
X3106593Y-4573253D02*
X3099926Y-4579920D01*
X3099926Y-4579920D02*
X3106593Y-4586587D01*
X3106593Y-4586587D02*
X3113259Y-4579920D01*
X3113259Y-4579920D02*
X3106593Y-4573253D01*
X3106593Y-4573253D02*
X3106593Y-4586587D01*
X2859926Y-4586587D02*
X2939926Y-4586587D01*
X2899926Y-4586587D02*
X2899926Y-4446587D01*
X2899926Y-4446587D02*
X2913259Y-4466587D01*
X2913259Y-4466587D02*
X2926593Y-4479920D01*
X2926593Y-4479920D02*
X2939926Y-4486587D01*
X2799926Y-4573253D02*
X2793259Y-4579920D01*
X2793259Y-4579920D02*
X2799926Y-4586587D01*
X2799926Y-4586587D02*
X2806593Y-4579920D01*
X2806593Y-4579920D02*
X2799926Y-4573253D01*
X2799926Y-4573253D02*
X2799926Y-4586587D01*
X2659926Y-4586587D02*
X2739926Y-4586587D01*
X2699926Y-4586587D02*
X2699926Y-4446587D01*
X2699926Y-4446587D02*
X2713259Y-4466587D01*
X2713259Y-4466587D02*
X2726593Y-4479920D01*
X2726593Y-4479920D02*
X2739926Y-4486587D01*
X2599926Y-4573253D02*
X2593259Y-4579920D01*
X2593259Y-4579920D02*
X2599926Y-4586587D01*
X2599926Y-4586587D02*
X2606593Y-4579920D01*
X2606593Y-4579920D02*
X2599926Y-4573253D01*
X2599926Y-4573253D02*
X2599926Y-4586587D01*
X2506593Y-4446587D02*
X2493259Y-4446587D01*
X2493259Y-4446587D02*
X2479926Y-4453253D01*
X2479926Y-4453253D02*
X2473259Y-4459920D01*
X2473259Y-4459920D02*
X2466593Y-4473253D01*
X2466593Y-4473253D02*
X2459926Y-4499920D01*
X2459926Y-4499920D02*
X2459926Y-4533253D01*
X2459926Y-4533253D02*
X2466593Y-4559920D01*
X2466593Y-4559920D02*
X2473259Y-4573253D01*
X2473259Y-4573253D02*
X2479926Y-4579920D01*
X2479926Y-4579920D02*
X2493259Y-4586587D01*
X2493259Y-4586587D02*
X2506593Y-4586587D01*
X2506593Y-4586587D02*
X2519926Y-4579920D01*
X2519926Y-4579920D02*
X2526593Y-4573253D01*
X2526593Y-4573253D02*
X2533259Y-4559920D01*
X2533259Y-4559920D02*
X2539926Y-4533253D01*
X2539926Y-4533253D02*
X2539926Y-4499920D01*
X2539926Y-4499920D02*
X2533259Y-4473253D01*
X2533259Y-4473253D02*
X2526593Y-4459920D01*
X2526593Y-4459920D02*
X2519926Y-4453253D01*
X2519926Y-4453253D02*
X2506593Y-4446587D01*
D12*
%TA.AperFunction,EtchedComponent*%
%TO.C,G\u002A\u002A\u002A*%
G36*
X2814163Y-3115114D02*
G01*
X2821048Y-3118554D01*
X2827346Y-3123748D01*
X2832472Y-3130412D01*
X2835643Y-3137567D01*
X2837480Y-3143662D01*
X2852917Y-3144685D01*
X2861306Y-3145563D01*
X2869789Y-3146979D01*
X2876824Y-3148665D01*
X2878195Y-3149103D01*
X2884155Y-3151499D01*
X2892067Y-3155143D01*
X2900978Y-3159547D01*
X2909939Y-3164226D01*
X2917999Y-3168692D01*
X2924206Y-3172461D01*
X2925306Y-3173201D01*
X2930863Y-3176606D01*
X2938914Y-3180945D01*
X2948808Y-3185914D01*
X2959891Y-3191211D01*
X2971512Y-3196535D01*
X2983018Y-3201584D01*
X2993758Y-3206054D01*
X3003080Y-3209644D01*
X3006681Y-3210907D01*
X3016906Y-3214194D01*
X3026063Y-3216740D01*
X3034965Y-3218685D01*
X3044426Y-3220171D01*
X3055259Y-3221337D01*
X3068276Y-3222324D01*
X3075373Y-3222766D01*
X3090159Y-3223175D01*
X3104712Y-3222537D01*
X3119893Y-3220756D01*
X3136567Y-3217736D01*
X3152140Y-3214225D01*
X3171434Y-3209915D01*
X3189780Y-3206594D01*
X3208039Y-3204167D01*
X3227068Y-3202540D01*
X3247729Y-3201621D01*
X3270563Y-3201314D01*
X3309834Y-3202253D01*
X3348578Y-3205260D01*
X3387771Y-3210437D01*
X3428388Y-3217888D01*
X3428574Y-3217926D01*
X3434047Y-3219225D01*
X3441850Y-3221305D01*
X3451541Y-3224030D01*
X3462677Y-3227263D01*
X3474817Y-3230868D01*
X3487518Y-3234709D01*
X3500338Y-3238649D01*
X3512835Y-3242551D01*
X3524567Y-3246279D01*
X3535092Y-3249696D01*
X3543968Y-3252667D01*
X3550752Y-3255053D01*
X3555003Y-3256719D01*
X3556165Y-3257326D01*
X3558614Y-3258525D01*
X3563160Y-3260269D01*
X3567150Y-3261629D01*
X3576067Y-3264938D01*
X3586960Y-3269634D01*
X3598947Y-3275296D01*
X3611147Y-3281502D01*
X3622681Y-3287830D01*
X3626298Y-3289937D01*
X3638694Y-3297939D01*
X3650561Y-3306820D01*
X3661244Y-3316020D01*
X3670089Y-3324977D01*
X3676149Y-3332683D01*
X3680891Y-3340920D01*
X3685571Y-3350932D01*
X3689734Y-3361564D01*
X3692927Y-3371661D01*
X3694676Y-3379894D01*
X3695525Y-3386173D01*
X3696604Y-3393927D01*
X3697494Y-3400174D01*
X3698213Y-3406599D01*
X3698277Y-3412482D01*
X3697618Y-3419024D01*
X3696165Y-3427427D01*
X3695835Y-3429122D01*
X3693054Y-3441081D01*
X3689586Y-3451080D01*
X3684888Y-3460268D01*
X3678415Y-3469795D01*
X3673807Y-3475715D01*
X3665749Y-3485087D01*
X3656141Y-3495211D01*
X3645444Y-3505692D01*
X3634117Y-3516131D01*
X3622619Y-3526132D01*
X3611412Y-3535298D01*
X3600954Y-3543232D01*
X3591705Y-3549537D01*
X3584125Y-3553816D01*
X3582502Y-3554540D01*
X3580010Y-3555786D01*
X3575291Y-3558321D01*
X3569053Y-3561760D01*
X3562924Y-3565195D01*
X3554266Y-3569799D01*
X3544803Y-3574373D01*
X3535963Y-3578245D01*
X3531661Y-3579912D01*
X3523444Y-3582889D01*
X3514801Y-3586050D01*
X3507389Y-3588790D01*
X3506312Y-3589193D01*
X3498219Y-3591842D01*
X3487691Y-3594620D01*
X3474489Y-3597581D01*
X3458374Y-3600780D01*
X3441705Y-3603815D01*
X3433168Y-3605340D01*
X3425032Y-3606830D01*
X3418362Y-3608087D01*
X3414966Y-3608758D01*
X3409453Y-3609667D01*
X3401168Y-3610735D01*
X3390713Y-3611906D01*
X3378691Y-3613126D01*
X3365702Y-3614339D01*
X3352349Y-3615491D01*
X3339233Y-3616525D01*
X3326956Y-3617386D01*
X3316119Y-3618020D01*
X3312174Y-3618203D01*
X3303051Y-3618610D01*
X3295074Y-3619010D01*
X3288877Y-3619368D01*
X3285093Y-3619649D01*
X3284290Y-3619753D01*
X3281801Y-3619823D01*
X3276900Y-3619598D01*
X3270534Y-3619125D01*
X3268873Y-3618978D01*
X3258499Y-3617830D01*
X3248343Y-3616344D01*
X3239303Y-3614679D01*
X3232277Y-3612990D01*
X3229738Y-3612162D01*
X3226984Y-3610579D01*
X3226000Y-3607914D01*
X3226100Y-3604239D01*
X3226736Y-3600386D01*
X3228393Y-3597668D01*
X3231867Y-3595109D01*
X3235074Y-3593291D01*
X3244682Y-3588834D01*
X3260857Y-3588834D01*
X3265710Y-3593995D01*
X3272534Y-3599802D01*
X3279104Y-3602274D01*
X3285659Y-3601419D01*
X3292440Y-3597246D01*
X3294923Y-3594991D01*
X3299289Y-3590354D01*
X3302485Y-3586493D01*
X3410552Y-3586493D01*
X3410781Y-3589599D01*
X3411618Y-3591849D01*
X3413890Y-3595593D01*
X3416459Y-3597603D01*
X3416489Y-3597611D01*
X3422295Y-3598409D01*
X3429518Y-3598444D01*
X3436414Y-3597768D01*
X3440187Y-3596876D01*
X3445656Y-3593732D01*
X3448387Y-3589577D01*
X3448554Y-3585106D01*
X3446334Y-3581017D01*
X3441904Y-3578008D01*
X3435439Y-3576777D01*
X3435107Y-3576774D01*
X3427107Y-3577500D01*
X3419705Y-3579449D01*
X3414026Y-3582275D01*
X3412323Y-3583750D01*
X3410552Y-3586493D01*
X3302485Y-3586493D01*
X3303244Y-3585577D01*
X3303904Y-3584681D01*
X3307488Y-3579647D01*
X3303390Y-3580599D01*
X3297723Y-3581844D01*
X3290180Y-3583409D01*
X3281978Y-3585052D01*
X3274336Y-3586529D01*
X3268468Y-3587598D01*
X3267400Y-3587776D01*
X3260857Y-3588834D01*
X3244682Y-3588834D01*
X3246027Y-3588210D01*
X3258160Y-3584026D01*
X3269780Y-3581302D01*
X3272253Y-3580934D01*
X3283208Y-3579266D01*
X3296473Y-3576829D01*
X3311117Y-3573813D01*
X3326210Y-3570408D01*
X3339006Y-3567272D01*
X3349049Y-3564747D01*
X3359557Y-3562174D01*
X3369286Y-3559853D01*
X3376994Y-3558084D01*
X3377030Y-3558076D01*
X3387843Y-3555370D01*
X3401045Y-3551572D01*
X3415923Y-3546931D01*
X3431762Y-3541692D01*
X3434637Y-3540693D01*
X3458676Y-3540693D01*
X3460602Y-3542898D01*
X3463102Y-3545010D01*
X3468254Y-3549790D01*
X3471578Y-3554539D01*
X3473355Y-3560108D01*
X3473868Y-3567347D01*
X3473465Y-3576225D01*
X3472312Y-3591939D01*
X3477904Y-3590902D01*
X3482476Y-3589821D01*
X3488765Y-3588049D01*
X3494452Y-3586277D01*
X3501240Y-3583697D01*
X3505727Y-3580946D01*
X3508957Y-3577360D01*
X3509284Y-3576880D01*
X3513806Y-3567899D01*
X3517068Y-3556879D01*
X3518745Y-3545028D01*
X3518899Y-3540899D01*
X3518813Y-3534618D01*
X3518198Y-3530559D01*
X3516699Y-3527571D01*
X3513961Y-3524500D01*
X3513788Y-3524326D01*
X3508589Y-3519124D01*
X3492663Y-3526165D01*
X3484848Y-3529499D01*
X3477139Y-3532579D01*
X3470713Y-3534945D01*
X3468288Y-3535734D01*
X3462227Y-3537633D01*
X3459121Y-3539112D01*
X3458676Y-3540693D01*
X3434637Y-3540693D01*
X3447848Y-3536103D01*
X3463467Y-3530410D01*
X3477905Y-3524862D01*
X3490447Y-3519704D01*
X3498818Y-3515939D01*
X3515325Y-3507422D01*
X3532065Y-3497571D01*
X3546445Y-3488130D01*
X3567589Y-3488130D01*
X3570010Y-3493873D01*
X3573908Y-3500076D01*
X3577862Y-3506511D01*
X3581356Y-3513256D01*
X3583343Y-3518061D01*
X3585094Y-3522482D01*
X3586657Y-3525029D01*
X3587322Y-3525297D01*
X3588109Y-3523333D01*
X3588957Y-3518921D01*
X3589692Y-3512985D01*
X3589739Y-3512495D01*
X3590786Y-3505269D01*
X3592742Y-3498020D01*
X3595942Y-3489670D01*
X3598777Y-3483290D01*
X3602747Y-3474205D01*
X3605306Y-3467032D01*
X3606761Y-3460770D01*
X3607376Y-3455097D01*
X3608053Y-3444113D01*
X3595629Y-3456819D01*
X3589417Y-3462925D01*
X3583040Y-3468784D01*
X3577473Y-3473517D01*
X3575177Y-3475273D01*
X3570138Y-3479492D01*
X3567620Y-3483557D01*
X3567589Y-3488130D01*
X3546445Y-3488130D01*
X3548471Y-3486799D01*
X3563974Y-3475521D01*
X3578007Y-3464148D01*
X3590002Y-3453094D01*
X3599391Y-3442773D01*
X3599455Y-3442693D01*
X3603699Y-3436447D01*
X3605607Y-3430750D01*
X3605072Y-3425068D01*
X3602999Y-3420911D01*
X3611028Y-3420911D01*
X3611340Y-3422113D01*
X3613248Y-3421963D01*
X3617238Y-3420609D01*
X3621405Y-3418816D01*
X3631561Y-3415378D01*
X3640736Y-3414893D01*
X3648632Y-3417370D01*
X3649356Y-3417791D01*
X3652711Y-3421008D01*
X3656689Y-3426558D01*
X3660820Y-3433575D01*
X3664637Y-3441195D01*
X3667673Y-3448550D01*
X3669458Y-3454774D01*
X3669516Y-3455097D01*
X3670641Y-3461054D01*
X3671647Y-3464051D01*
X3672871Y-3464480D01*
X3674648Y-3462730D01*
X3675334Y-3461846D01*
X3677951Y-3457886D01*
X3681109Y-3452422D01*
X3682834Y-3449158D01*
X3685288Y-3443364D01*
X3686846Y-3437838D01*
X3687137Y-3435339D01*
X3686076Y-3429820D01*
X3683220Y-3422622D01*
X3679060Y-3414554D01*
X3674084Y-3406428D01*
X3668785Y-3399056D01*
X3663650Y-3393246D01*
X3659837Y-3390175D01*
X3653190Y-3387926D01*
X3645258Y-3387821D01*
X3637554Y-3389812D01*
X3633620Y-3392261D01*
X3628922Y-3396375D01*
X3623947Y-3401555D01*
X3619183Y-3407198D01*
X3615117Y-3412706D01*
X3612237Y-3417477D01*
X3611028Y-3420911D01*
X3602999Y-3420911D01*
X3601983Y-3418873D01*
X3596232Y-3411631D01*
X3592194Y-3407318D01*
X3592060Y-3407179D01*
X3603831Y-3407179D01*
X3604571Y-3411610D01*
X3604589Y-3411646D01*
X3605629Y-3412838D01*
X3607051Y-3412451D01*
X3609287Y-3410110D01*
X3612772Y-3405437D01*
X3614374Y-3403171D01*
X3619039Y-3397030D01*
X3623924Y-3391400D01*
X3628082Y-3387361D01*
X3628625Y-3386928D01*
X3632607Y-3383380D01*
X3634381Y-3379940D01*
X3634748Y-3375846D01*
X3635092Y-3371812D01*
X3636462Y-3368575D01*
X3639363Y-3365658D01*
X3644301Y-3362584D01*
X3651782Y-3358879D01*
X3653744Y-3357966D01*
X3659779Y-3355054D01*
X3664560Y-3352515D01*
X3667300Y-3350776D01*
X3667623Y-3350448D01*
X3667250Y-3348304D01*
X3664590Y-3345792D01*
X3660593Y-3343517D01*
X3656209Y-3342083D01*
X3654140Y-3341871D01*
X3649589Y-3343019D01*
X3643503Y-3346122D01*
X3636661Y-3350669D01*
X3629838Y-3356148D01*
X3624316Y-3361499D01*
X3619309Y-3367893D01*
X3614572Y-3375706D01*
X3610382Y-3384240D01*
X3607011Y-3392795D01*
X3604736Y-3400675D01*
X3603831Y-3407179D01*
X3592060Y-3407179D01*
X3584894Y-3399792D01*
X3560390Y-3398664D01*
X3550188Y-3398061D01*
X3539839Y-3397222D01*
X3530463Y-3396251D01*
X3523182Y-3395252D01*
X3522366Y-3395111D01*
X3514893Y-3394097D01*
X3505431Y-3393279D01*
X3495367Y-3392759D01*
X3488631Y-3392628D01*
X3481941Y-3392641D01*
X3476365Y-3392797D01*
X3471271Y-3393211D01*
X3466029Y-3393997D01*
X3460011Y-3395267D01*
X3452586Y-3397136D01*
X3443125Y-3399717D01*
X3432018Y-3402836D01*
X3417670Y-3406900D01*
X3406047Y-3410248D01*
X3396614Y-3413060D01*
X3388838Y-3415512D01*
X3382184Y-3417784D01*
X3376118Y-3420054D01*
X3370104Y-3422501D01*
X3363610Y-3425303D01*
X3360131Y-3426841D01*
X3343575Y-3434123D01*
X3329599Y-3440065D01*
X3317745Y-3444805D01*
X3307551Y-3448480D01*
X3298559Y-3451229D01*
X3290309Y-3453188D01*
X3282341Y-3454496D01*
X3274195Y-3455290D01*
X3265413Y-3455706D01*
X3263523Y-3455757D01*
X3254269Y-3456116D01*
X3247736Y-3456734D01*
X3243268Y-3457704D01*
X3240212Y-3459122D01*
X3240188Y-3459138D01*
X3235487Y-3461104D01*
X3231174Y-3461538D01*
X3227363Y-3459868D01*
X3226060Y-3456345D01*
X3227330Y-3451454D01*
X3229351Y-3448068D01*
X3233157Y-3442724D01*
X3215461Y-3443726D01*
X3206767Y-3444462D01*
X3198671Y-3445580D01*
X3192300Y-3446910D01*
X3190226Y-3447558D01*
X3184723Y-3449340D01*
X3179824Y-3450469D01*
X3178461Y-3450630D01*
X3175432Y-3450256D01*
X3174081Y-3448018D01*
X3173718Y-3445543D01*
X3173821Y-3442215D01*
X3175142Y-3439465D01*
X3178123Y-3437002D01*
X3183202Y-3434532D01*
X3190820Y-3431765D01*
X3197884Y-3429498D01*
X3207343Y-3426530D01*
X3213813Y-3424406D01*
X3217536Y-3422984D01*
X3218754Y-3422118D01*
X3217708Y-3421664D01*
X3214642Y-3421478D01*
X3211415Y-3421429D01*
X3201739Y-3422256D01*
X3192898Y-3425233D01*
X3192674Y-3425336D01*
X3186365Y-3427505D01*
X3181613Y-3427748D01*
X3178808Y-3426394D01*
X3178337Y-3423768D01*
X3180590Y-3420198D01*
X3183530Y-3417651D01*
X3186829Y-3414951D01*
X3188535Y-3413042D01*
X3188600Y-3412821D01*
X3187066Y-3412580D01*
X3182974Y-3412875D01*
X3177094Y-3413641D01*
X3174658Y-3414024D01*
X3166277Y-3415052D01*
X3155456Y-3415872D01*
X3143129Y-3416456D01*
X3130232Y-3416776D01*
X3117700Y-3416803D01*
X3106468Y-3416509D01*
X3101568Y-3416228D01*
X3089738Y-3415384D01*
X3088620Y-3431438D01*
X3086743Y-3447206D01*
X3083432Y-3460223D01*
X3078564Y-3470851D01*
X3072487Y-3478957D01*
X3061727Y-3488836D01*
X3050883Y-3495615D01*
X3041436Y-3498908D01*
X3029521Y-3502794D01*
X3017646Y-3509016D01*
X3007189Y-3516809D01*
X3004254Y-3519625D01*
X2999856Y-3524050D01*
X2997016Y-3526373D01*
X2994985Y-3526966D01*
X2993018Y-3526200D01*
X2992150Y-3525641D01*
X2989599Y-3523103D01*
X2988543Y-3519275D01*
X2988435Y-3515713D01*
X2988821Y-3510340D01*
X2989668Y-3505979D01*
X2989982Y-3505118D01*
X2990480Y-3503589D01*
X2989878Y-3502704D01*
X2987590Y-3502362D01*
X2983026Y-3502459D01*
X2976789Y-3502819D01*
X2968240Y-3503603D01*
X2961409Y-3504994D01*
X2954640Y-3507416D01*
X2949295Y-3509834D01*
X2941904Y-3513229D01*
X2936902Y-3515137D01*
X2933693Y-3515656D01*
X2931680Y-3514886D01*
X2930297Y-3512978D01*
X2929780Y-3508552D01*
X2932213Y-3503424D01*
X2937312Y-3497883D01*
X2944796Y-3492218D01*
X2954381Y-3486717D01*
X2957437Y-3485229D01*
X2963232Y-3482434D01*
X2966308Y-3480656D01*
X2967045Y-3479561D01*
X2965822Y-3478815D01*
X2964989Y-3478571D01*
X2958828Y-3477322D01*
X2951654Y-3476453D01*
X2944490Y-3476020D01*
X2938358Y-3476075D01*
X2934280Y-3476674D01*
X2933716Y-3476907D01*
X2929102Y-3477954D01*
X2925485Y-3476114D01*
X2924093Y-3473595D01*
X2924197Y-3468792D01*
X2927478Y-3464361D01*
X2932715Y-3461058D01*
X2935886Y-3459795D01*
X2939433Y-3459048D01*
X2944121Y-3458766D01*
X2950715Y-3458898D01*
X2958978Y-3459335D01*
X2967962Y-3459800D01*
X2974345Y-3459896D01*
X2978894Y-3459572D01*
X2982373Y-3458779D01*
X2985239Y-3457614D01*
X2990553Y-3455854D01*
X2997304Y-3454595D01*
X3001102Y-3454258D01*
X3006714Y-3453838D01*
X3011010Y-3453203D01*
X3012620Y-3452701D01*
X3014226Y-3450360D01*
X3016056Y-3445779D01*
X3017780Y-3440051D01*
X3019072Y-3434271D01*
X3019604Y-3429534D01*
X3019605Y-3429387D01*
X3018932Y-3424468D01*
X3017298Y-3419056D01*
X3017156Y-3418709D01*
X3015322Y-3415046D01*
X3013064Y-3413346D01*
X3009121Y-3412866D01*
X3007203Y-3412849D01*
X3000604Y-3412420D01*
X2992212Y-3411284D01*
X2983226Y-3409664D01*
X2974841Y-3407784D01*
X2968253Y-3405866D01*
X2966745Y-3405291D01*
X2961018Y-3402898D01*
X2951236Y-3412148D01*
X2939012Y-3422202D01*
X2926043Y-3429707D01*
X2911547Y-3435031D01*
X2895670Y-3438401D01*
X2884853Y-3440586D01*
X2875712Y-3443773D01*
X2866561Y-3448590D01*
X2863686Y-3450369D01*
X2858775Y-3453243D01*
X2855684Y-3454280D01*
X2853566Y-3453722D01*
X2853124Y-3453390D01*
X2850849Y-3449574D01*
X2851385Y-3444779D01*
X2854627Y-3439733D01*
X2855184Y-3439155D01*
X2859758Y-3434581D01*
X2835200Y-3435156D01*
X2825046Y-3435463D01*
X2817676Y-3435884D01*
X2812496Y-3436492D01*
X2808911Y-3437362D01*
X2806327Y-3438566D01*
X2805985Y-3438783D01*
X2801244Y-3440879D01*
X2798009Y-3440161D01*
X2796576Y-3436725D01*
X2796531Y-3435699D01*
X2797403Y-3431780D01*
X2800308Y-3428469D01*
X2805678Y-3425442D01*
X2813947Y-3422372D01*
X2814545Y-3422180D01*
X2822388Y-3419348D01*
X2830754Y-3415838D01*
X2836245Y-3413210D01*
X2846385Y-3407941D01*
X2839942Y-3407860D01*
X2834375Y-3407256D01*
X2827795Y-3405827D01*
X2825106Y-3405033D01*
X2819842Y-3403492D01*
X2816064Y-3403176D01*
X2812101Y-3404099D01*
X2809103Y-3405193D01*
X2802647Y-3407087D01*
X2798636Y-3406813D01*
X2796873Y-3404312D01*
X2796840Y-3401451D01*
X2798029Y-3397995D01*
X2800911Y-3395349D01*
X2886171Y-3395349D01*
X2886939Y-3398818D01*
X2888127Y-3400681D01*
X2890994Y-3401951D01*
X2895693Y-3402657D01*
X2897363Y-3402709D01*
X2903586Y-3403518D01*
X2908815Y-3406447D01*
X2910122Y-3407530D01*
X2915875Y-3411876D01*
X2920488Y-3413541D01*
X2924749Y-3412618D01*
X2928770Y-3409795D01*
X2930673Y-3408025D01*
X2931391Y-3406380D01*
X2930756Y-3404070D01*
X2928598Y-3400306D01*
X2925813Y-3395949D01*
X2922689Y-3390438D01*
X2920546Y-3385386D01*
X2919898Y-3382395D01*
X2918908Y-3379033D01*
X2916425Y-3375113D01*
X2913178Y-3371414D01*
X2909895Y-3368716D01*
X2907305Y-3367799D01*
X2906579Y-3368153D01*
X2905132Y-3370712D01*
X2903427Y-3375021D01*
X2903065Y-3376111D01*
X2900648Y-3380757D01*
X2896806Y-3385380D01*
X2892485Y-3389047D01*
X2888631Y-3390830D01*
X2888052Y-3390879D01*
X2886538Y-3392232D01*
X2886171Y-3395349D01*
X2800911Y-3395349D01*
X2801190Y-3395092D01*
X2804916Y-3392992D01*
X2808769Y-3391276D01*
X2812744Y-3390161D01*
X2817703Y-3389523D01*
X2824505Y-3389241D01*
X2831668Y-3389189D01*
X2844256Y-3388957D01*
X2856478Y-3388305D01*
X2867713Y-3387300D01*
X2877338Y-3386008D01*
X2884732Y-3384495D01*
X2888775Y-3383096D01*
X2892633Y-3379922D01*
X2896539Y-3374800D01*
X2899683Y-3369029D01*
X2901254Y-3363906D01*
X2901308Y-3363039D01*
X2900340Y-3360641D01*
X2897767Y-3356401D01*
X2894090Y-3351125D01*
X2892960Y-3349609D01*
X2888647Y-3343325D01*
X2887406Y-3341290D01*
X2898329Y-3341290D01*
X2898362Y-3343845D01*
X2900810Y-3347592D01*
X2905683Y-3352905D01*
X2912993Y-3360158D01*
X2913324Y-3360482D01*
X2927784Y-3373604D01*
X2941774Y-3384029D01*
X2956056Y-3392210D01*
X2971390Y-3398597D01*
X2984116Y-3402504D01*
X2989751Y-3403668D01*
X2995034Y-3404245D01*
X2995063Y-3404246D01*
X3000096Y-3404399D01*
X2996202Y-3401189D01*
X3005417Y-3401189D01*
X3010308Y-3404398D01*
X3015199Y-3407606D01*
X3017377Y-3401355D01*
X3018763Y-3397341D01*
X3019528Y-3395056D01*
X3019579Y-3394879D01*
X3021030Y-3394436D01*
X3023797Y-3393852D01*
X3029211Y-3394356D01*
X3033831Y-3397744D01*
X3037343Y-3403553D01*
X3039434Y-3411319D01*
X3039884Y-3417602D01*
X3038834Y-3424915D01*
X3035759Y-3429691D01*
X3030774Y-3431777D01*
X3029297Y-3431861D01*
X3027015Y-3432301D01*
X3025303Y-3434096D01*
X3023691Y-3437960D01*
X3022299Y-3442536D01*
X3020220Y-3448561D01*
X3017872Y-3453550D01*
X3016043Y-3456107D01*
X3013313Y-3459591D01*
X3013452Y-3463120D01*
X3015997Y-3467065D01*
X3019859Y-3470055D01*
X3025665Y-3471287D01*
X3026348Y-3471328D01*
X3034118Y-3473105D01*
X3040518Y-3476850D01*
X3047129Y-3480865D01*
X3052138Y-3481932D01*
X3055589Y-3480053D01*
X3056820Y-3477817D01*
X3057498Y-3474062D01*
X3056479Y-3470032D01*
X3053489Y-3465247D01*
X3048253Y-3459228D01*
X3043392Y-3454305D01*
X3038024Y-3448590D01*
X3034465Y-3443869D01*
X3033126Y-3440687D01*
X3033125Y-3440610D01*
X3034661Y-3435913D01*
X3038755Y-3431368D01*
X3044632Y-3427694D01*
X3048558Y-3426246D01*
X3054884Y-3423754D01*
X3059111Y-3420161D01*
X3061354Y-3415057D01*
X3061731Y-3408035D01*
X3060357Y-3398688D01*
X3058576Y-3391157D01*
X3057610Y-3388143D01*
X3095653Y-3388143D01*
X3096606Y-3391760D01*
X3099012Y-3396829D01*
X3102186Y-3402178D01*
X3105446Y-3406640D01*
X3107740Y-3408838D01*
X3110724Y-3409802D01*
X3115952Y-3410707D01*
X3122289Y-3411428D01*
X3128599Y-3411842D01*
X3133746Y-3411824D01*
X3134522Y-3411760D01*
X3137988Y-3411483D01*
X3143866Y-3411095D01*
X3151193Y-3410659D01*
X3155852Y-3410400D01*
X3168591Y-3409374D01*
X3181108Y-3407744D01*
X3192576Y-3405657D01*
X3202167Y-3403260D01*
X3206454Y-3401735D01*
X3273508Y-3401735D01*
X3273561Y-3403736D01*
X3276123Y-3406666D01*
X3280600Y-3410112D01*
X3286398Y-3413662D01*
X3292924Y-3416903D01*
X3298447Y-3419056D01*
X3304362Y-3420739D01*
X3308444Y-3420921D01*
X3311902Y-3419571D01*
X3313232Y-3418702D01*
X3316847Y-3414366D01*
X3319060Y-3408112D01*
X3319550Y-3401223D01*
X3318698Y-3396708D01*
X3316604Y-3391783D01*
X3314033Y-3389806D01*
X3310080Y-3390371D01*
X3307173Y-3391537D01*
X3302473Y-3393280D01*
X3295820Y-3395344D01*
X3288562Y-3397315D01*
X3287722Y-3397524D01*
X3281428Y-3399154D01*
X3276489Y-3400589D01*
X3273757Y-3401577D01*
X3273508Y-3401735D01*
X3206454Y-3401735D01*
X3208035Y-3401173D01*
X3214905Y-3396830D01*
X3221546Y-3390392D01*
X3226844Y-3383028D01*
X3228526Y-3379649D01*
X3229993Y-3373972D01*
X3230466Y-3367114D01*
X3230053Y-3359968D01*
X3228863Y-3353424D01*
X3227005Y-3348374D01*
X3224588Y-3345710D01*
X3224366Y-3345624D01*
X3222989Y-3345987D01*
X3220474Y-3347772D01*
X3216640Y-3351158D01*
X3211302Y-3356321D01*
X3204279Y-3363439D01*
X3195388Y-3372691D01*
X3184446Y-3384252D01*
X3182685Y-3386124D01*
X3175962Y-3392894D01*
X3170172Y-3397514D01*
X3164260Y-3400501D01*
X3157171Y-3402378D01*
X3147849Y-3403663D01*
X3146894Y-3403764D01*
X3140788Y-3404187D01*
X3136982Y-3403774D01*
X3134468Y-3402385D01*
X3134004Y-3401950D01*
X3131607Y-3399095D01*
X3130990Y-3396570D01*
X3132430Y-3393852D01*
X3136203Y-3390418D01*
X3142549Y-3385769D01*
X3146863Y-3382434D01*
X3148995Y-3379558D01*
X3149690Y-3375909D01*
X3149731Y-3373883D01*
X3149417Y-3369310D01*
X3147898Y-3366733D01*
X3144312Y-3364785D01*
X3143871Y-3364599D01*
X3137773Y-3362685D01*
X3131914Y-3362482D01*
X3125355Y-3364108D01*
X3117161Y-3367684D01*
X3116249Y-3368137D01*
X3107087Y-3373479D01*
X3100418Y-3378996D01*
X3096543Y-3384394D01*
X3095653Y-3388143D01*
X3057610Y-3388143D01*
X3055539Y-3381684D01*
X3052204Y-3375456D01*
X3048603Y-3372527D01*
X3047189Y-3372290D01*
X3044733Y-3373350D01*
X3040837Y-3376083D01*
X3037734Y-3378678D01*
X3028236Y-3386865D01*
X3020088Y-3393268D01*
X3013632Y-3397630D01*
X3010139Y-3399394D01*
X3005417Y-3401189D01*
X2996202Y-3401189D01*
X2993972Y-3399352D01*
X2989374Y-3394438D01*
X2985515Y-3388465D01*
X2984783Y-3386890D01*
X2981716Y-3379476D01*
X2968232Y-3377569D01*
X2956615Y-3375284D01*
X2947691Y-3372154D01*
X2941613Y-3368288D01*
X2938535Y-3363797D01*
X2938610Y-3358789D01*
X2939374Y-3357004D01*
X2942780Y-3353086D01*
X2949006Y-3348522D01*
X2957618Y-3343577D01*
X2968181Y-3338515D01*
X2973687Y-3336173D01*
X2983380Y-3331843D01*
X2989918Y-3328052D01*
X2993463Y-3324689D01*
X2994256Y-3322355D01*
X2993727Y-3320685D01*
X2991759Y-3319461D01*
X2987780Y-3318507D01*
X2981220Y-3317646D01*
X2977833Y-3317297D01*
X2971109Y-3316844D01*
X2965658Y-3317173D01*
X2959964Y-3318492D01*
X2953578Y-3320626D01*
X2946136Y-3323570D01*
X2938698Y-3326979D01*
X2932877Y-3330113D01*
X2922804Y-3334634D01*
X2912598Y-3337034D01*
X2905458Y-3338259D01*
X2900698Y-3339553D01*
X2898329Y-3341290D01*
X2887406Y-3341290D01*
X2883676Y-3335175D01*
X2878768Y-3326380D01*
X2875834Y-3320651D01*
X2871963Y-3313039D01*
X2868768Y-3307189D01*
X3021361Y-3307189D01*
X3021782Y-3311953D01*
X3021870Y-3312202D01*
X3024239Y-3314476D01*
X3028140Y-3314373D01*
X3032783Y-3311969D01*
X3033954Y-3311029D01*
X3036700Y-3307872D01*
X3038521Y-3303497D01*
X3039838Y-3296862D01*
X3039929Y-3296242D01*
X3041124Y-3285450D01*
X3041261Y-3281730D01*
X3072241Y-3281730D01*
X3072935Y-3284823D01*
X3075268Y-3287882D01*
X3078322Y-3290837D01*
X3082583Y-3295191D01*
X3086001Y-3299347D01*
X3087138Y-3301114D01*
X3088421Y-3306675D01*
X3087745Y-3313927D01*
X3085244Y-3321908D01*
X3083821Y-3324976D01*
X3080205Y-3333552D01*
X3078564Y-3340978D01*
X3078994Y-3346680D01*
X3079894Y-3348540D01*
X3082524Y-3351276D01*
X3085359Y-3351809D01*
X3088745Y-3349948D01*
X3093028Y-3345498D01*
X3098556Y-3338267D01*
X3098699Y-3338068D01*
X3102907Y-3331974D01*
X3163386Y-3331974D01*
X3163842Y-3334640D01*
X3165582Y-3336119D01*
X3166828Y-3336665D01*
X3175016Y-3338427D01*
X3175663Y-3338334D01*
X3270009Y-3338334D01*
X3270030Y-3346988D01*
X3270218Y-3354633D01*
X3270582Y-3360570D01*
X3271130Y-3364097D01*
X3271387Y-3364659D01*
X3274332Y-3366113D01*
X3278160Y-3364391D01*
X3282913Y-3359467D01*
X3284887Y-3356869D01*
X3288149Y-3351084D01*
X3290867Y-3344077D01*
X3291755Y-3340700D01*
X3292761Y-3332079D01*
X3292489Y-3323144D01*
X3291096Y-3314756D01*
X3288740Y-3307776D01*
X3285576Y-3303064D01*
X3284766Y-3302402D01*
X3280442Y-3300873D01*
X3275898Y-3301359D01*
X3272581Y-3303626D01*
X3272112Y-3304444D01*
X3271425Y-3307638D01*
X3270863Y-3313323D01*
X3270434Y-3320801D01*
X3270146Y-3329372D01*
X3270009Y-3338334D01*
X3175663Y-3338334D01*
X3182793Y-3337301D01*
X3188531Y-3334064D01*
X3192750Y-3329954D01*
X3195782Y-3325387D01*
X3197880Y-3319652D01*
X3199297Y-3312034D01*
X3200284Y-3301823D01*
X3200366Y-3300666D01*
X3201247Y-3291389D01*
X3202463Y-3283195D01*
X3203861Y-3277020D01*
X3204517Y-3275132D01*
X3206968Y-3268244D01*
X3242955Y-3268244D01*
X3243902Y-3273035D01*
X3244160Y-3274019D01*
X3246012Y-3279715D01*
X3248178Y-3284678D01*
X3248932Y-3285990D01*
X3251614Y-3290103D01*
X3255781Y-3285259D01*
X3258514Y-3281284D01*
X3259373Y-3277093D01*
X3259129Y-3273143D01*
X3257712Y-3266715D01*
X3255288Y-3261416D01*
X3252328Y-3258085D01*
X3250284Y-3257373D01*
X3247693Y-3258671D01*
X3244947Y-3261767D01*
X3243272Y-3264966D01*
X3242955Y-3268244D01*
X3206968Y-3268244D01*
X3207827Y-3265828D01*
X3209459Y-3257860D01*
X3209307Y-3251839D01*
X3208791Y-3250254D01*
X3205251Y-3245758D01*
X3199463Y-3241572D01*
X3192551Y-3238234D01*
X3185639Y-3236286D01*
X3179851Y-3236264D01*
X3179700Y-3236301D01*
X3174366Y-3239289D01*
X3170103Y-3244940D01*
X3167105Y-3252650D01*
X3165568Y-3261818D01*
X3165686Y-3271841D01*
X3166470Y-3277215D01*
X3168311Y-3287339D01*
X3169329Y-3294973D01*
X3169552Y-3300899D01*
X3169006Y-3305896D01*
X3167720Y-3310748D01*
X3167655Y-3310945D01*
X3165736Y-3317789D01*
X3164201Y-3325038D01*
X3163886Y-3327054D01*
X3163386Y-3331974D01*
X3102907Y-3331974D01*
X3103652Y-3330895D01*
X3108409Y-3323505D01*
X3112217Y-3317087D01*
X3113420Y-3314833D01*
X3115307Y-3310970D01*
X3116573Y-3307706D01*
X3117304Y-3304281D01*
X3117585Y-3299939D01*
X3117503Y-3293920D01*
X3117143Y-3285466D01*
X3117024Y-3282990D01*
X3116377Y-3272086D01*
X3115444Y-3263817D01*
X3113943Y-3257438D01*
X3111595Y-3252204D01*
X3108117Y-3247370D01*
X3103230Y-3242191D01*
X3100719Y-3239763D01*
X3095675Y-3235069D01*
X3093177Y-3233139D01*
X3284320Y-3233139D01*
X3285045Y-3238887D01*
X3287796Y-3245121D01*
X3292786Y-3252251D01*
X3300227Y-3260686D01*
X3305207Y-3265797D01*
X3311712Y-3272366D01*
X3316297Y-3277282D01*
X3319444Y-3281268D01*
X3321636Y-3285049D01*
X3323356Y-3289349D01*
X3325084Y-3294892D01*
X3325482Y-3296242D01*
X3328542Y-3309647D01*
X3329310Y-3321820D01*
X3328092Y-3332796D01*
X3326096Y-3337734D01*
X3321629Y-3343799D01*
X3316876Y-3348930D01*
X3311880Y-3354252D01*
X3307616Y-3359242D01*
X3304833Y-3363011D01*
X3304438Y-3363694D01*
X3302137Y-3369425D01*
X3300810Y-3375342D01*
X3300505Y-3380605D01*
X3301271Y-3384375D01*
X3303148Y-3385809D01*
X3305132Y-3384683D01*
X3308220Y-3381900D01*
X3308930Y-3381162D01*
X3312524Y-3376574D01*
X3316028Y-3370964D01*
X3316772Y-3369554D01*
X3319668Y-3365159D01*
X3324297Y-3359603D01*
X3329799Y-3353893D01*
X3331499Y-3352295D01*
X3334198Y-3349647D01*
X3352224Y-3349647D01*
X3354339Y-3352784D01*
X3358139Y-3356775D01*
X3363075Y-3361086D01*
X3368602Y-3365181D01*
X3372489Y-3367609D01*
X3379404Y-3372022D01*
X3383639Y-3376274D01*
X3385708Y-3381307D01*
X3386126Y-3388065D01*
X3385891Y-3392192D01*
X3385263Y-3398466D01*
X3384490Y-3403676D01*
X3383796Y-3406511D01*
X3383329Y-3408103D01*
X3383796Y-3409004D01*
X3385634Y-3409164D01*
X3389281Y-3408533D01*
X3395176Y-3407059D01*
X3403755Y-3404694D01*
X3406604Y-3403891D01*
X3415913Y-3401095D01*
X3422102Y-3398823D01*
X3425374Y-3396992D01*
X3426039Y-3395910D01*
X3424706Y-3393724D01*
X3421256Y-3390629D01*
X3417589Y-3388053D01*
X3410407Y-3383292D01*
X3405712Y-3379512D01*
X3403004Y-3376115D01*
X3401781Y-3372503D01*
X3401534Y-3368886D01*
X3400574Y-3361417D01*
X3397399Y-3354747D01*
X3391568Y-3348028D01*
X3389809Y-3346391D01*
X3383506Y-3341779D01*
X3378208Y-3340181D01*
X3378135Y-3340181D01*
X3374084Y-3340749D01*
X3368182Y-3342198D01*
X3361711Y-3344145D01*
X3355954Y-3346205D01*
X3352341Y-3347900D01*
X3352224Y-3349647D01*
X3334198Y-3349647D01*
X3337771Y-3346141D01*
X3342170Y-3340537D01*
X3345202Y-3334487D01*
X3347375Y-3326995D01*
X3348764Y-3319479D01*
X3388017Y-3319479D01*
X3388188Y-3325604D01*
X3389153Y-3328969D01*
X3391587Y-3330058D01*
X3391697Y-3330041D01*
X3437023Y-3330041D01*
X3437023Y-3339277D01*
X3437300Y-3345139D01*
X3438470Y-3349094D01*
X3441045Y-3352597D01*
X3442093Y-3353700D01*
X3445005Y-3357089D01*
X3446530Y-3360457D01*
X3447100Y-3365109D01*
X3447163Y-3369045D01*
X3447400Y-3375232D01*
X3448342Y-3379258D01*
X3450337Y-3382322D01*
X3451311Y-3383351D01*
X3454667Y-3385963D01*
X3458752Y-3387199D01*
X3464408Y-3387488D01*
X3472208Y-3386699D01*
X3477781Y-3384531D01*
X3482770Y-3380439D01*
X3487153Y-3375522D01*
X3490174Y-3370749D01*
X3491102Y-3367519D01*
X3489534Y-3362827D01*
X3485152Y-3359341D01*
X3481001Y-3357934D01*
X3476108Y-3355397D01*
X3470686Y-3349746D01*
X3469576Y-3348301D01*
X3466033Y-3343654D01*
X3557550Y-3343654D01*
X3558305Y-3358675D01*
X3562186Y-3373489D01*
X3568872Y-3387192D01*
X3572317Y-3391227D01*
X3575480Y-3392076D01*
X3577971Y-3389767D01*
X3579076Y-3386445D01*
X3580773Y-3382061D01*
X3583895Y-3376764D01*
X3585903Y-3374035D01*
X3591654Y-3366885D01*
X3592603Y-3343625D01*
X3593045Y-3334048D01*
X3593557Y-3327066D01*
X3594278Y-3321897D01*
X3595348Y-3317757D01*
X3596904Y-3313863D01*
X3598465Y-3310653D01*
X3603379Y-3300941D01*
X3597912Y-3296056D01*
X3593866Y-3293016D01*
X3590348Y-3291311D01*
X3589515Y-3291178D01*
X3583909Y-3292758D01*
X3577990Y-3297139D01*
X3572151Y-3303817D01*
X3566787Y-3312288D01*
X3562292Y-3322047D01*
X3559997Y-3328934D01*
X3557550Y-3343654D01*
X3466033Y-3343654D01*
X3463899Y-3340854D01*
X3459567Y-3335751D01*
X3456006Y-3332557D01*
X3452643Y-3330833D01*
X3448904Y-3330143D01*
X3445603Y-3330041D01*
X3437023Y-3330041D01*
X3391697Y-3330041D01*
X3396163Y-3329355D01*
X3400247Y-3328268D01*
X3405224Y-3326215D01*
X3408187Y-3323005D01*
X3409428Y-3317998D01*
X3409239Y-3310550D01*
X3409069Y-3308847D01*
X3407984Y-3301673D01*
X3406360Y-3297404D01*
X3403828Y-3295570D01*
X3400015Y-3295701D01*
X3398899Y-3295965D01*
X3393811Y-3298974D01*
X3390256Y-3304819D01*
X3388338Y-3313273D01*
X3388017Y-3319479D01*
X3348764Y-3319479D01*
X3349090Y-3317715D01*
X3349742Y-3303187D01*
X3347066Y-3289004D01*
X3345787Y-3285305D01*
X3344708Y-3281461D01*
X3343392Y-3275292D01*
X3342047Y-3267827D01*
X3341383Y-3263618D01*
X3341253Y-3262979D01*
X3415160Y-3262979D01*
X3415302Y-3269154D01*
X3415859Y-3275514D01*
X3416765Y-3281012D01*
X3417955Y-3284603D01*
X3418239Y-3285023D01*
X3422047Y-3287547D01*
X3426382Y-3286783D01*
X3428863Y-3284995D01*
X3431355Y-3280597D01*
X3431759Y-3274326D01*
X3430090Y-3266956D01*
X3428461Y-3263054D01*
X3426573Y-3260127D01*
X3452613Y-3260127D01*
X3452908Y-3264208D01*
X3455387Y-3274940D01*
X3459450Y-3286990D01*
X3464591Y-3299020D01*
X3469971Y-3309146D01*
X3474624Y-3316240D01*
X3479967Y-3323342D01*
X3485521Y-3329932D01*
X3490809Y-3335487D01*
X3495354Y-3339486D01*
X3498678Y-3341405D01*
X3499543Y-3341477D01*
X3501538Y-3339706D01*
X3503702Y-3335764D01*
X3504622Y-3333353D01*
X3506837Y-3327724D01*
X3509350Y-3322784D01*
X3510156Y-3321539D01*
X3514103Y-3313428D01*
X3515893Y-3303551D01*
X3515620Y-3294918D01*
X3512764Y-3285511D01*
X3506676Y-3277066D01*
X3497365Y-3269597D01*
X3494623Y-3267935D01*
X3488973Y-3264525D01*
X3483641Y-3261058D01*
X3481807Y-3259772D01*
X3475694Y-3255797D01*
X3469180Y-3252336D01*
X3463299Y-3249881D01*
X3459086Y-3248924D01*
X3459018Y-3248923D01*
X3455735Y-3250439D01*
X3453491Y-3254445D01*
X3452613Y-3260127D01*
X3426573Y-3260127D01*
X3425070Y-3257797D01*
X3421349Y-3254796D01*
X3417878Y-3254421D01*
X3416382Y-3255369D01*
X3415498Y-3258035D01*
X3415160Y-3262979D01*
X3341253Y-3262979D01*
X3338427Y-3249099D01*
X3334274Y-3237579D01*
X3328783Y-3228845D01*
X3321811Y-3222686D01*
X3313216Y-3218889D01*
X3311032Y-3218336D01*
X3304849Y-3217207D01*
X3300242Y-3217211D01*
X3295589Y-3218390D01*
X3294508Y-3218771D01*
X3289536Y-3221146D01*
X3286691Y-3224383D01*
X3285411Y-3227467D01*
X3284320Y-3233139D01*
X3093177Y-3233139D01*
X3092046Y-3232265D01*
X3088846Y-3230866D01*
X3085085Y-3230384D01*
X3081550Y-3230334D01*
X3072266Y-3230334D01*
X3074010Y-3236652D01*
X3074765Y-3242043D01*
X3074915Y-3249996D01*
X3074487Y-3259752D01*
X3073505Y-3270552D01*
X3072647Y-3277318D01*
X3072241Y-3281730D01*
X3041261Y-3281730D01*
X3041469Y-3276085D01*
X3040975Y-3268724D01*
X3039653Y-3263942D01*
X3039262Y-3263306D01*
X3037396Y-3261119D01*
X3036172Y-3261735D01*
X3035237Y-3263406D01*
X3033699Y-3267325D01*
X3032323Y-3272341D01*
X3032271Y-3272582D01*
X3030733Y-3277669D01*
X3028269Y-3283787D01*
X3026968Y-3286535D01*
X3024177Y-3293358D01*
X3022234Y-3300616D01*
X3021361Y-3307189D01*
X2868768Y-3307189D01*
X2868178Y-3306106D01*
X2864950Y-3300689D01*
X2862987Y-3297887D01*
X2857334Y-3293249D01*
X2848875Y-3289529D01*
X2837451Y-3286674D01*
X2822902Y-3284633D01*
X2821814Y-3284525D01*
X2808665Y-3283158D01*
X2798157Y-3281820D01*
X2789559Y-3280346D01*
X2782139Y-3278572D01*
X2775163Y-3276331D01*
X2767900Y-3273459D01*
X2762732Y-3271199D01*
X2747885Y-3263174D01*
X2734166Y-3253101D01*
X2722228Y-3241566D01*
X2712723Y-3229152D01*
X2709406Y-3223419D01*
X2708118Y-3219262D01*
X2707067Y-3212734D01*
X2706756Y-3209521D01*
X2712034Y-3209521D01*
X2713464Y-3216450D01*
X2717475Y-3224441D01*
X2723650Y-3233001D01*
X2731570Y-3241634D01*
X2740815Y-3249845D01*
X2750969Y-3257141D01*
X2753790Y-3258877D01*
X2770695Y-3267091D01*
X2789682Y-3272875D01*
X2805826Y-3275714D01*
X2814975Y-3276808D01*
X2821456Y-3277317D01*
X2825941Y-3277179D01*
X2829101Y-3276336D01*
X2831607Y-3274727D01*
X2833172Y-3273274D01*
X2837328Y-3269118D01*
X2883380Y-3269118D01*
X2884302Y-3273103D01*
X2887115Y-3278095D01*
X2891173Y-3281217D01*
X2895552Y-3281810D01*
X2896238Y-3281620D01*
X2899643Y-3280732D01*
X2904293Y-3279818D01*
X2904330Y-3279812D01*
X2908422Y-3278602D01*
X2911086Y-3276149D01*
X2912823Y-3271712D01*
X2913991Y-3265516D01*
X2914146Y-3258948D01*
X2913063Y-3251719D01*
X2911040Y-3245015D01*
X2908380Y-3240021D01*
X2907197Y-3238762D01*
X2904050Y-3237274D01*
X2899239Y-3236067D01*
X2897995Y-3235874D01*
X2891168Y-3234958D01*
X2891168Y-3242102D01*
X2890137Y-3249050D01*
X2887901Y-3253835D01*
X2884000Y-3261500D01*
X2883380Y-3269118D01*
X2837328Y-3269118D01*
X2837551Y-3268895D01*
X2833178Y-3264522D01*
X2831080Y-3262617D01*
X2828847Y-3261351D01*
X2825755Y-3260580D01*
X2821079Y-3260162D01*
X2814095Y-3259953D01*
X2809710Y-3259885D01*
X2791494Y-3258699D01*
X2775975Y-3255664D01*
X2763004Y-3250749D01*
X2762525Y-3250507D01*
X2758444Y-3247830D01*
X2752684Y-3243279D01*
X2745882Y-3237439D01*
X2738678Y-3230895D01*
X2731709Y-3224232D01*
X2725614Y-3218035D01*
X2721032Y-3212889D01*
X2719915Y-3211460D01*
X2716090Y-3206850D01*
X2713598Y-3205252D01*
X2712302Y-3206631D01*
X2712034Y-3209521D01*
X2706756Y-3209521D01*
X2706288Y-3204690D01*
X2705817Y-3195987D01*
X2705688Y-3187481D01*
X2705746Y-3185745D01*
X2711734Y-3185745D01*
X2714543Y-3194075D01*
X2716230Y-3196948D01*
X2720418Y-3202502D01*
X2726460Y-3209331D01*
X2733749Y-3216865D01*
X2741683Y-3224531D01*
X2749657Y-3231760D01*
X2757066Y-3237981D01*
X2763307Y-3242622D01*
X2766730Y-3244661D01*
X2778019Y-3248946D01*
X2791066Y-3251907D01*
X2804418Y-3253271D01*
X2812225Y-3253194D01*
X2818999Y-3252546D01*
X2823784Y-3251301D01*
X2827968Y-3248985D01*
X2830746Y-3246904D01*
X2835974Y-3243315D01*
X2840761Y-3241668D01*
X2845894Y-3241318D01*
X2851432Y-3240872D01*
X2853704Y-3239577D01*
X2852700Y-3237499D01*
X2848406Y-3234703D01*
X2847185Y-3234080D01*
X2841951Y-3231968D01*
X2837355Y-3231635D01*
X2833243Y-3232365D01*
X2827427Y-3233161D01*
X2820254Y-3233413D01*
X2815916Y-3233245D01*
X2804270Y-3231020D01*
X2794676Y-3226378D01*
X2787376Y-3219504D01*
X2782611Y-3210585D01*
X2781538Y-3206799D01*
X2780331Y-3203433D01*
X2786391Y-3203433D01*
X2787946Y-3209441D01*
X2792219Y-3215435D01*
X2798624Y-3220697D01*
X2801997Y-3222610D01*
X2809574Y-3225312D01*
X2818307Y-3226797D01*
X2826985Y-3226989D01*
X2834400Y-3225813D01*
X2837090Y-3224774D01*
X2840515Y-3221450D01*
X2842909Y-3216256D01*
X2843757Y-3210664D01*
X2843185Y-3207378D01*
X2842191Y-3205771D01*
X2840859Y-3206534D01*
X2838732Y-3209727D01*
X2836211Y-3213160D01*
X2833305Y-3214724D01*
X2828607Y-3215121D01*
X2827906Y-3215124D01*
X2822780Y-3214761D01*
X2819367Y-3213136D01*
X2816030Y-3209442D01*
X2815821Y-3209170D01*
X2812479Y-3202854D01*
X2811232Y-3196071D01*
X2812159Y-3189906D01*
X2814155Y-3186528D01*
X2815743Y-3183755D01*
X2928734Y-3183755D01*
X2929332Y-3185372D01*
X2931875Y-3188781D01*
X2935860Y-3193443D01*
X2940783Y-3198820D01*
X2946141Y-3204372D01*
X2951431Y-3209561D01*
X2956150Y-3213849D01*
X2958969Y-3216117D01*
X2966609Y-3222520D01*
X2971662Y-3228901D01*
X2974788Y-3236178D01*
X2975580Y-3239244D01*
X2976267Y-3243199D01*
X2976295Y-3246994D01*
X2975535Y-3251528D01*
X2973854Y-3257703D01*
X2972030Y-3263576D01*
X2968741Y-3274415D01*
X2966658Y-3282551D01*
X2965698Y-3288405D01*
X2965780Y-3292398D01*
X2966134Y-3293699D01*
X2967568Y-3295924D01*
X2969518Y-3295422D01*
X2972353Y-3292316D01*
X2975533Y-3289646D01*
X2980716Y-3286632D01*
X2985904Y-3284289D01*
X2991727Y-3281592D01*
X2996477Y-3278652D01*
X2998878Y-3276397D01*
X2999948Y-3274529D01*
X3000541Y-3272438D01*
X3000619Y-3269526D01*
X3000142Y-3265195D01*
X2999071Y-3258850D01*
X2997365Y-3249891D01*
X2997012Y-3248078D01*
X2995723Y-3240616D01*
X2994765Y-3233446D01*
X2994324Y-3227983D01*
X2994315Y-3227486D01*
X2993761Y-3221025D01*
X2992397Y-3215725D01*
X2990499Y-3212423D01*
X2989107Y-3211744D01*
X2987077Y-3211020D01*
X2982533Y-3209004D01*
X2975978Y-3205932D01*
X2967912Y-3202040D01*
X2958838Y-3197561D01*
X2958401Y-3197343D01*
X2949383Y-3192903D01*
X2941431Y-3189103D01*
X2935025Y-3186164D01*
X2930642Y-3184303D01*
X2928760Y-3183740D01*
X2928734Y-3183755D01*
X2815743Y-3183755D01*
X2815835Y-3183594D01*
X2814474Y-3181972D01*
X2810169Y-3181720D01*
X2806659Y-3182172D01*
X2799065Y-3184839D01*
X2792692Y-3189658D01*
X2788239Y-3195896D01*
X2786404Y-3202819D01*
X2786391Y-3203433D01*
X2780331Y-3203433D01*
X2779491Y-3201093D01*
X2776467Y-3196094D01*
X2775592Y-3195107D01*
X2771312Y-3190826D01*
X2762894Y-3194769D01*
X2757698Y-3196930D01*
X2753141Y-3197918D01*
X2747729Y-3197943D01*
X2743010Y-3197536D01*
X2735118Y-3196407D01*
X2730015Y-3194558D01*
X2727112Y-3191384D01*
X2725822Y-3186280D01*
X2725553Y-3179580D01*
X2725159Y-3171666D01*
X2723946Y-3166996D01*
X2721868Y-3165526D01*
X2718878Y-3167210D01*
X2716177Y-3170296D01*
X2712279Y-3177815D01*
X2711734Y-3185745D01*
X2705746Y-3185745D01*
X2705937Y-3180028D01*
X2706599Y-3174484D01*
X2707302Y-3172243D01*
X2711085Y-3166875D01*
X2716777Y-3160728D01*
X2718676Y-3159005D01*
X2825953Y-3159005D01*
X2828246Y-3160468D01*
X2833942Y-3162715D01*
X2839776Y-3165533D01*
X2844632Y-3168336D01*
X2847347Y-3170481D01*
X2850309Y-3172351D01*
X2852789Y-3171103D01*
X2853730Y-3168730D01*
X2853649Y-3165300D01*
X2852749Y-3160284D01*
X2852243Y-3158308D01*
X2850766Y-3153752D01*
X2849055Y-3151595D01*
X2846101Y-3150945D01*
X2843882Y-3150906D01*
X2837902Y-3151449D01*
X2832580Y-3152860D01*
X2828457Y-3154808D01*
X2826068Y-3156967D01*
X2825953Y-3159005D01*
X2718676Y-3159005D01*
X2723375Y-3154741D01*
X2729880Y-3149858D01*
X2733124Y-3147948D01*
X2744913Y-3143020D01*
X2752719Y-3141013D01*
X2782537Y-3141013D01*
X2785214Y-3142111D01*
X2789771Y-3142988D01*
X2795505Y-3143717D01*
X2799295Y-3143366D01*
X2802478Y-3141666D01*
X2804464Y-3140051D01*
X2809206Y-3135956D01*
X2804265Y-3134066D01*
X2797105Y-3132973D01*
X2789543Y-3135105D01*
X2785592Y-3137356D01*
X2782751Y-3139546D01*
X2782537Y-3141013D01*
X2752719Y-3141013D01*
X2756800Y-3139964D01*
X2765889Y-3139096D01*
X2771217Y-3138374D01*
X2776606Y-3136021D01*
X2782521Y-3131715D01*
X2789422Y-3125132D01*
X2795825Y-3118167D01*
X2800968Y-3114636D01*
X2807275Y-3113713D01*
X2814163Y-3115114D01*
G37*
%TD.AperFunction*%
%TD*%
D13*
%TO.P,V1,1,F-*%
%TO.N,VF1*%
X10739030Y-2143690D03*
%TO.P,V1,2,F-*%
X10539030Y-2143690D03*
%TO.P,V1,4*%
%TO.N,N/C*%
X10139030Y-2143690D03*
%TO.P,V1,5,VDD*%
%TO.N,VCC*%
X9939030Y-2143690D03*
%TO.P,V1,6,VEE*%
%TO.N,VEE*%
X9739030Y-2143690D03*
%TO.P,V1,7,Gnd*%
%TO.N,Gnd*%
X9539030Y-2143690D03*
%TO.P,V1,8,OSC0*%
%TO.N,Net-(J1-Pin_4)*%
X9339030Y-2143690D03*
%TO.P,V1,9,Reset*%
%TO.N,Net-(J1-Pin_5)*%
X9139030Y-2143690D03*
%TO.P,V1,10,CS*%
%TO.N,Net-(J1-Pin_6)*%
X8939030Y-2143690D03*
%TO.P,V1,11,Clk*%
%TO.N,Net-(J1-Pin_7)*%
X8739030Y-2143690D03*
%TO.P,V1,12,DI*%
%TO.N,Net-(J1-Pin_8)*%
X8539030Y-2143690D03*
%TO.P,V1,39*%
%TO.N,N/C*%
X3139030Y-2143690D03*
%TO.P,V1,40*%
X2939030Y-2143690D03*
%TO.P,V1,41*%
X2739030Y-2143690D03*
%TO.P,V1,44,F+*%
%TO.N,VF2*%
X2139030Y-2143690D03*
%TO.P,V1,45,F+*%
X1939030Y-2143690D03*
%TD*%
D14*
%TO.P,TP3,1,1*%
%TO.N,VF2*%
X2326640Y-1694180D03*
%TD*%
%TO.P,TP2,1,1*%
%TO.N,VF1*%
X10424160Y-1699260D03*
%TD*%
%TO.P,TP1,1,1*%
%TO.N,VEE*%
X6337300Y-1694180D03*
%TD*%
D15*
%TO.P,H1,1*%
%TO.N,N/C*%
X1719340Y-1698340D03*
D16*
X1719340Y-1698340D03*
%TD*%
D15*
%TO.P,H4,1*%
%TO.N,N/C*%
X10949340Y-4498340D03*
D16*
X10949340Y-4498340D03*
%TD*%
D17*
%TO.P,J1,1,Pin_1*%
%TO.N,VCC*%
X10016940Y-1644260D03*
D18*
%TO.P,J1,2,Pin_2*%
%TO.N,unconnected-(J1-Pin_2-Pad2)*%
X9762940Y-1644260D03*
%TO.P,J1,3,Pin_3*%
%TO.N,Gnd*%
X9508940Y-1644260D03*
%TO.P,J1,4,Pin_4*%
%TO.N,Net-(J1-Pin_4)*%
X9254940Y-1644260D03*
%TO.P,J1,5,Pin_5*%
%TO.N,Net-(J1-Pin_5)*%
X9000940Y-1644260D03*
%TO.P,J1,6,Pin_6*%
%TO.N,Net-(J1-Pin_6)*%
X8746940Y-1644260D03*
%TO.P,J1,7,Pin_7*%
%TO.N,Net-(J1-Pin_7)*%
X8492940Y-1644260D03*
%TO.P,J1,8,Pin_8*%
%TO.N,Net-(J1-Pin_8)*%
X8238940Y-1644260D03*
%TD*%
D15*
%TO.P,H2,1*%
%TO.N,N/C*%
X10969340Y-1698340D03*
D16*
X10969340Y-1698340D03*
%TD*%
D15*
%TO.P,H3,1*%
%TO.N,N/C*%
X1719340Y-4498340D03*
D16*
X1719340Y-4498340D03*
%TD*%
D19*
%TO.P,C8,1*%
%TO.N,VEE*%
X9955980Y-3142940D03*
%TO.P,C8,2*%
%TO.N,Net-(U1-GND)*%
X9955980Y-3782940D03*
%TD*%
D20*
%TO.P,C6,1*%
%TO.N,VCC*%
X6415100Y-3772780D03*
%TO.P,C6,2*%
%TO.N,Gnd*%
X6415100Y-3132780D03*
%TD*%
D21*
%TO.P,R9,1*%
%TO.N,Net-(U1-DC)*%
X7179820Y-3447660D03*
%TO.P,R9,2*%
%TO.N,Net-(U1-Ipk)*%
X6869820Y-3447660D03*
%TD*%
D22*
%TO.P,C4,1*%
%TO.N,Net-(U2-V02)*%
X2374080Y-3020940D03*
%TO.P,C4,2*%
%TO.N,VF2*%
X1846580Y-3020940D03*
%TD*%
D23*
%TO.P,D3,1,K*%
%TO.N,Net-(D3-K)*%
X6087370Y-2706020D03*
%TO.P,D3,2,A*%
%TO.N,Gnd*%
X6554870Y-2706020D03*
%TD*%
D24*
%TO.P,U1,8,DC*%
%TO.N,Net-(U1-DC)*%
X7526500Y-3097140D03*
%TO.P,U1,7,Ipk*%
%TO.N,Net-(U1-Ipk)*%
X7526500Y-3224140D03*
%TO.P,U1,6,Vin*%
%TO.N,VCC*%
X7526500Y-3351140D03*
%TO.P,U1,5,Vfb*%
%TO.N,Net-(U1-Vfb)*%
X7526500Y-3478140D03*
%TO.P,U1,4,GND*%
%TO.N,Net-(U1-GND)*%
X8020500Y-3478140D03*
%TO.P,U1,3,TC*%
%TO.N,Net-(U1-TC)*%
X8020500Y-3351140D03*
%TO.P,U1,2,SwE*%
%TO.N,Net-(U1-GND)*%
X8020500Y-3224140D03*
%TO.P,U1,1,SwC*%
%TO.N,Net-(D2-A)*%
X8020500Y-3097140D03*
%TD*%
D25*
%TO.P,R3,1*%
%TO.N,Net-(U2-V01)*%
X4238380Y-3587360D03*
%TO.P,R3,2*%
%TO.N,Net-(U2--IN)*%
X4548380Y-3587360D03*
%TD*%
D26*
%TO.P,C5,1*%
%TO.N,Net-(U2-BYPASS)*%
X5209190Y-2398640D03*
%TO.P,C5,2*%
%TO.N,Net-(D3-K)*%
X5736690Y-2398640D03*
%TD*%
D25*
%TO.P,R2,1*%
%TO.N,Net-(U2-+IN)*%
X5178240Y-2883780D03*
%TO.P,R2,2*%
%TO.N,Net-(D3-K)*%
X5488240Y-2883780D03*
%TD*%
%TO.P,R1,1*%
%TO.N,VCC*%
X4238320Y-3234300D03*
%TO.P,R1,2*%
%TO.N,Net-(U2-+IN)*%
X4548320Y-3234300D03*
%TD*%
D27*
%TO.P,D2,1,K*%
%TO.N,VEE*%
X9503760Y-3120000D03*
%TO.P,D2,2,A*%
%TO.N,Net-(D2-A)*%
X9173760Y-3120000D03*
%TD*%
D22*
%TO.P,C3,1*%
%TO.N,Net-(U2-V01)*%
X10982140Y-3028560D03*
%TO.P,C3,2*%
%TO.N,VF1*%
X10454640Y-3028560D03*
%TD*%
D28*
%TO.P,C2,1*%
%TO.N,Net-(U2--IN)*%
X5176990Y-3236840D03*
%TO.P,C2,2*%
%TO.N,Net-(D3-K)*%
X5489490Y-3236840D03*
%TD*%
D29*
%TO.P,L1,1,1*%
%TO.N,Net-(U1-Ipk)*%
X7495995Y-2454520D03*
%TO.P,L1,2,2*%
%TO.N,Net-(D2-A)*%
X8056065Y-2454520D03*
%TD*%
D25*
%TO.P,R7,1*%
%TO.N,Net-(D1-K)*%
X5178240Y-3592440D03*
%TO.P,R7,2*%
%TO.N,Net-(D3-K)*%
X5488240Y-3592440D03*
%TD*%
D22*
%TO.P,C1,1*%
%TO.N,VCC*%
X3775280Y-2746620D03*
%TO.P,C1,2*%
%TO.N,Net-(D3-K)*%
X3247780Y-2746620D03*
%TD*%
D21*
%TO.P,R4,1*%
%TO.N,Net-(U2-+IN)*%
X4545780Y-2215760D03*
%TO.P,R4,2*%
%TO.N,Net-(U2-V01)*%
X4235780Y-2215760D03*
%TD*%
D30*
%TO.P,C7,1*%
%TO.N,Net-(U1-TC)*%
X7805280Y-3800720D03*
%TO.P,C7,2*%
%TO.N,Net-(U1-GND)*%
X7492780Y-3800720D03*
%TD*%
D24*
%TO.P,U2,8,V02*%
%TO.N,Net-(U2-V02)*%
X4148240Y-2533260D03*
%TO.P,U2,7,GND*%
%TO.N,Net-(D3-K)*%
X4148240Y-2660260D03*
%TO.P,U2,6,VDD*%
%TO.N,VCC*%
X4148240Y-2787260D03*
%TO.P,U2,5,V01*%
%TO.N,Net-(U2-V01)*%
X4148240Y-2914260D03*
%TO.P,U2,4,-IN*%
%TO.N,Net-(U2--IN)*%
X4642240Y-2914260D03*
%TO.P,U2,3,+IN*%
%TO.N,Net-(U2-+IN)*%
X4642240Y-2787260D03*
%TO.P,U2,2,BYPASS*%
%TO.N,Net-(U2-BYPASS)*%
X4642240Y-2660260D03*
%TO.P,U2,1,SHUTDOWN*%
%TO.N,Net-(D3-K)*%
X4642240Y-2533260D03*
%TD*%
D25*
%TO.P,R8,1*%
%TO.N,VCC*%
X6872360Y-3800720D03*
%TO.P,R8,2*%
%TO.N,Net-(U1-Ipk)*%
X7182360Y-3800720D03*
%TD*%
D23*
%TO.P,D1,1,K*%
%TO.N,Net-(D1-K)*%
X6087300Y-2264060D03*
%TO.P,D1,2,A*%
%TO.N,VEE*%
X6554800Y-2264060D03*
%TD*%
D31*
%TO.N,VCC*%
X7695400Y-3378120D03*
%TO.N,VF1*%
X10454640Y-2698090D03*
%TO.N,VF2*%
X1846580Y-2687440D03*
%TO.N,VEE*%
X9631060Y-2583130D03*
X8855570Y-2701900D03*
X6831940Y-2387310D03*
%TO.N,Net-(U2-V01)*%
X4235780Y-2369130D03*
X3956160Y-2834610D03*
%TO.N,Net-(U1-GND)*%
X9619450Y-3217010D03*
%TO.N,Net-(D1-K)*%
X6226250Y-2310490D03*
X8789630Y-2290980D03*
X10720460Y-2462970D03*
X5178240Y-3440380D03*
%TO.N,Net-(U2-+IN)*%
X4483650Y-2793940D03*
X4545780Y-2367390D03*
%TO.N,Net-(U1-Vfb)*%
X7701720Y-3507230D03*
%TD*%
D32*
%TO.N,VF2*%
X2139030Y-2143690D02*
X2139030Y-1881790D01*
X2139030Y-1881790D02*
X2326640Y-1694180D01*
%TO.N,VEE*%
X6554800Y-2264060D02*
X6554800Y-1911680D01*
X6554800Y-1911680D02*
X6337300Y-1694180D01*
%TO.N,VF1*%
X10539030Y-2143690D02*
X10539030Y-1814130D01*
X10539030Y-1814130D02*
X10424160Y-1699260D01*
%TO.N,VCC*%
X4428680Y-3424660D02*
X4238320Y-3234300D01*
X3775280Y-2746620D02*
X4107600Y-2746620D01*
X7668420Y-3351140D02*
X7695400Y-3378120D01*
X6415100Y-3772780D02*
X4531920Y-3772780D01*
X4148240Y-2787260D02*
X4215670Y-2787260D01*
X6872360Y-3800720D02*
X7007690Y-3936050D01*
X4292280Y-2863870D02*
X4292280Y-3180340D01*
X4428680Y-3669540D02*
X4428680Y-3424660D01*
X4292280Y-3180340D02*
X4238320Y-3234300D01*
X4215670Y-2787260D02*
X4292280Y-2863870D01*
X7311690Y-3879440D02*
X7311690Y-3494700D01*
X7311690Y-3494700D02*
X7455250Y-3351140D01*
X6415100Y-3772780D02*
X6844420Y-3772780D01*
X4107600Y-2746620D02*
X4148240Y-2787260D01*
X7526500Y-3351140D02*
X7668420Y-3351140D01*
X7455250Y-3351140D02*
X7526500Y-3351140D01*
X4531920Y-3772780D02*
X4428680Y-3669540D01*
X7255080Y-3936050D02*
X7311690Y-3879440D01*
X6844420Y-3772780D02*
X6872360Y-3800720D01*
X7007690Y-3936050D02*
X7255080Y-3936050D01*
%TO.N,VF1*%
X10454640Y-3028560D02*
X10454640Y-2698090D01*
%TO.N,VF2*%
X1846580Y-3020940D02*
X1846580Y-2687440D01*
%TO.N,VEE*%
X9503760Y-2701900D02*
X8855570Y-2701900D01*
X9631060Y-2583130D02*
X9512290Y-2701900D01*
X9503760Y-2701900D02*
X9503760Y-3120000D01*
X6678050Y-2387310D02*
X6554800Y-2264060D01*
X9933040Y-3120000D02*
X9503760Y-3120000D01*
X6831940Y-2387310D02*
X6678050Y-2387310D01*
X9512290Y-2701900D02*
X9503760Y-2701900D01*
X9955980Y-3142940D02*
X9933040Y-3120000D01*
%TO.N,Net-(D3-K)*%
X4084550Y-2660260D02*
X3947780Y-2523490D01*
X5489490Y-2883780D02*
X5488240Y-2883780D01*
X5488240Y-3238090D02*
X5488240Y-3592440D01*
X5855660Y-2517610D02*
X5736690Y-2398640D01*
X3878460Y-2431050D02*
X3563350Y-2431050D01*
X3563350Y-2431050D02*
X3247780Y-2746620D01*
X4148240Y-2660260D02*
X4084550Y-2660260D01*
X5489490Y-3236840D02*
X5488240Y-3238090D01*
X5419000Y-2080950D02*
X5736690Y-2398640D01*
X5489490Y-2883780D02*
X5489490Y-3236840D01*
X5094550Y-2080950D02*
X5419000Y-2080950D01*
X3947780Y-2523490D02*
X3947780Y-2500370D01*
X4642240Y-2533260D02*
X5094550Y-2080950D01*
X4642240Y-2533260D02*
X4473030Y-2533260D01*
X6044070Y-2706020D02*
X5855660Y-2517610D01*
X6087370Y-2706020D02*
X6044070Y-2706020D01*
X4473030Y-2533260D02*
X4346030Y-2660260D01*
X4346030Y-2660260D02*
X4148240Y-2660260D01*
X3947780Y-2500370D02*
X3878460Y-2431050D01*
X5855660Y-2517610D02*
X5489490Y-2883780D01*
%TO.N,Net-(U2--IN)*%
X4642240Y-2914260D02*
X4898090Y-3170110D01*
X4898090Y-3170110D02*
X4898090Y-3236840D01*
X4898090Y-3236840D02*
X5176990Y-3236840D01*
X4898090Y-3237650D02*
X4548380Y-3587360D01*
X4898090Y-3236840D02*
X4898090Y-3237650D01*
%TO.N,Net-(U2-V01)*%
X10982140Y-3050170D02*
X10982140Y-3028560D01*
X4127160Y-2914260D02*
X4035810Y-2914260D01*
X4238380Y-3587360D02*
X4659800Y-4008780D01*
X4127160Y-3476140D02*
X4238380Y-3587360D01*
X4235780Y-2369130D02*
X4235780Y-2215760D01*
X4127160Y-2914260D02*
X4127160Y-3476140D01*
X4148240Y-2914260D02*
X4127160Y-2914260D01*
X4659800Y-4008780D02*
X10023530Y-4008780D01*
X4035810Y-2914260D02*
X3956160Y-2834610D01*
X10023530Y-4008780D02*
X10982140Y-3050170D01*
%TO.N,Net-(U2-V02)*%
X3033980Y-2361040D02*
X2374080Y-3020940D01*
X4148240Y-2533260D02*
X3976020Y-2361040D01*
X3976020Y-2361040D02*
X3033980Y-2361040D01*
%TO.N,Net-(U2-BYPASS)*%
X4947570Y-2660260D02*
X4642240Y-2660260D01*
X5209190Y-2398640D02*
X4947570Y-2660260D01*
%TO.N,Gnd*%
X7462700Y-1876770D02*
X9411430Y-1876770D01*
X9411430Y-1876770D02*
X9508940Y-1779260D01*
X6554870Y-2706020D02*
X6633450Y-2706020D01*
X9508940Y-1644260D02*
X9508940Y-1779260D01*
X6554870Y-2993010D02*
X6554870Y-2706020D01*
X6415100Y-3132780D02*
X6554870Y-2993010D01*
X6633450Y-2706020D02*
X7462700Y-1876770D01*
X9539030Y-2143690D02*
X9539030Y-2004370D01*
X9539030Y-2004370D02*
X9411430Y-1876770D01*
%TO.N,Net-(U1-GND)*%
X8164040Y-3401850D02*
X8164040Y-3351910D01*
X8164040Y-3351910D02*
X9524950Y-3351910D01*
X8020500Y-3478140D02*
X8087750Y-3478140D01*
X8164040Y-3351910D02*
X8164040Y-3304970D01*
X9619450Y-3257410D02*
X9524950Y-3351910D01*
X9524950Y-3351910D02*
X9955980Y-3782940D01*
X7879410Y-3937850D02*
X7629910Y-3937850D01*
X8020500Y-3478140D02*
X8020500Y-3796760D01*
X8164040Y-3304970D02*
X8083210Y-3224140D01*
X8020500Y-3796760D02*
X7879410Y-3937850D01*
X7629910Y-3937850D02*
X7492780Y-3800720D01*
X8083210Y-3224140D02*
X8020500Y-3224140D01*
X9619450Y-3217010D02*
X9619450Y-3257410D01*
X8087750Y-3478140D02*
X8164040Y-3401850D01*
%TO.N,Net-(U1-TC)*%
X7956830Y-3351140D02*
X7805280Y-3502690D01*
X8020500Y-3351140D02*
X7956830Y-3351140D01*
X7805280Y-3502690D02*
X7805280Y-3800720D01*
%TO.N,Net-(D1-K)*%
X5178240Y-3440380D02*
X5178240Y-3592440D01*
X8789630Y-2290980D02*
X10548470Y-2290980D01*
X6133730Y-2310490D02*
X6087300Y-2264060D01*
X10548470Y-2290980D02*
X10720460Y-2462970D01*
X6226250Y-2310490D02*
X6133730Y-2310490D01*
%TO.N,Net-(D2-A)*%
X8020500Y-3097140D02*
X8020500Y-2914740D01*
X9173760Y-3120000D02*
X8043360Y-3120000D01*
X8043360Y-3120000D02*
X8020500Y-3097140D01*
X8056070Y-2454520D02*
X8056070Y-2879170D01*
X8020500Y-2914740D02*
X8056070Y-2879170D01*
%TO.N,Net-(U1-Ipk)*%
X7496000Y-2454520D02*
X7496000Y-2666840D01*
X7496000Y-2878420D02*
X6938890Y-3435530D01*
X6869820Y-3447660D02*
X6938890Y-3447660D01*
X7590220Y-3224140D02*
X7526500Y-3224140D01*
X6938890Y-3435530D02*
X6938890Y-3447660D01*
X6938890Y-3557250D02*
X7182360Y-3800720D01*
X7672640Y-3141720D02*
X7590220Y-3224140D01*
X6938890Y-3447660D02*
X6938890Y-3557250D01*
X7496000Y-2878420D02*
X7497710Y-2878420D01*
X7672640Y-3053350D02*
X7672640Y-3141720D01*
X7496000Y-2666840D02*
X7496000Y-2878420D01*
X7497710Y-2878420D02*
X7672640Y-3053350D01*
%TO.N,Net-(U2-+IN)*%
X4545780Y-2367390D02*
X4545780Y-2215760D01*
X4498700Y-2793940D02*
X4483650Y-2793940D01*
X4498700Y-2793940D02*
X4498700Y-3184680D01*
X4635560Y-2793940D02*
X4642240Y-2787260D01*
X4498700Y-3184680D02*
X4548320Y-3234300D01*
X5081720Y-2787260D02*
X5178240Y-2883780D01*
X4642240Y-2787260D02*
X5081720Y-2787260D01*
X4498700Y-2793940D02*
X4635560Y-2793940D01*
%TO.N,Net-(U1-DC)*%
X7179820Y-3380340D02*
X7179820Y-3447660D01*
X7526500Y-3097140D02*
X7463020Y-3097140D01*
X7463020Y-3097140D02*
X7179820Y-3380340D01*
%TO.N,Net-(U1-Vfb)*%
X7555590Y-3507230D02*
X7701720Y-3507230D01*
X7526500Y-3478140D02*
X7555590Y-3507230D01*
%TD*%
%TA.AperFunction,Conductor*%
%TO.N,Gnd*%
G36*
X1653590Y-1358329D02*
G01*
X1658166Y-1363609D01*
X1659160Y-1370525D01*
X1656258Y-1376880D01*
X1650380Y-1380658D01*
X1649552Y-1380870D01*
X1632252Y-1384678D01*
X1598849Y-1395933D01*
X1598849Y-1395933D01*
X1566861Y-1410732D01*
X1566860Y-1410733D01*
X1536658Y-1428904D01*
X1508599Y-1450235D01*
X1508598Y-1450235D01*
X1483008Y-1474475D01*
X1460190Y-1501338D01*
X1460190Y-1501339D01*
X1440409Y-1530513D01*
X1423900Y-1561654D01*
X1423899Y-1561655D01*
X1410853Y-1594399D01*
X1410853Y-1594399D01*
X1401423Y-1628360D01*
X1401423Y-1628361D01*
X1395721Y-1663144D01*
X1393813Y-1698340D01*
X1393813Y-1698340D01*
X1395721Y-1733535D01*
X1399681Y-1757691D01*
X1401090Y-1766288D01*
X1401423Y-1768319D01*
X1401423Y-1768320D01*
X1410853Y-1802281D01*
X1410853Y-1802281D01*
X1423899Y-1835024D01*
X1423900Y-1835026D01*
X1437086Y-1859899D01*
X1440409Y-1866167D01*
X1456425Y-1889788D01*
X1460190Y-1895341D01*
X1460190Y-1895342D01*
X1473753Y-1911309D01*
X1483009Y-1922205D01*
X1508598Y-1946445D01*
X1508599Y-1946445D01*
X1508599Y-1946445D01*
X1515146Y-1951423D01*
X1536658Y-1967775D01*
X1566860Y-1985947D01*
X1566861Y-1985947D01*
X1566861Y-1985948D01*
X1598849Y-2000747D01*
X1598849Y-2000747D01*
X1598850Y-2000747D01*
X1632252Y-2012002D01*
X1666675Y-2019579D01*
X1701716Y-2023390D01*
X1701717Y-2023390D01*
X1736963Y-2023390D01*
X1736964Y-2023390D01*
X1772004Y-2019579D01*
X1806428Y-2012002D01*
X1839830Y-2000747D01*
X1839831Y-2000747D01*
X1839831Y-2000747D01*
X1871819Y-1985948D01*
X1871820Y-1985947D01*
X1902022Y-1967775D01*
X1930082Y-1946445D01*
X1955671Y-1922205D01*
X1978490Y-1895341D01*
X1998270Y-1866167D01*
X2014781Y-1835025D01*
X2027827Y-1802281D01*
X2037257Y-1768319D01*
X2042959Y-1733536D01*
X2044817Y-1699260D01*
X2044867Y-1698340D01*
X2044867Y-1698340D01*
X2042959Y-1663144D01*
X2042959Y-1663144D01*
X2037257Y-1628361D01*
X2029486Y-1600374D01*
X2027827Y-1594399D01*
X2027827Y-1594399D01*
X2014781Y-1561655D01*
X2014780Y-1561654D01*
X2012394Y-1557153D01*
X1998270Y-1530513D01*
X1978490Y-1501339D01*
X1978490Y-1501339D01*
X1978489Y-1501338D01*
X1955671Y-1474475D01*
X1930082Y-1450235D01*
X1930081Y-1450235D01*
X1930081Y-1450235D01*
X1902021Y-1428904D01*
X1871820Y-1410733D01*
X1871819Y-1410732D01*
X1839831Y-1395933D01*
X1839831Y-1395933D01*
X1839830Y-1395933D01*
X1839830Y-1395933D01*
X1823946Y-1390581D01*
X1806428Y-1384678D01*
X1806428Y-1384678D01*
X1806428Y-1384678D01*
X1789128Y-1380870D01*
X1783004Y-1377507D01*
X1779671Y-1371366D01*
X1780186Y-1364398D01*
X1784387Y-1358815D01*
X1790940Y-1356390D01*
X1791794Y-1356360D01*
X10896886Y-1356360D01*
X10903590Y-1358329D01*
X10908166Y-1363609D01*
X10909160Y-1370525D01*
X10906258Y-1376880D01*
X10900380Y-1380658D01*
X10899552Y-1380870D01*
X10882252Y-1384678D01*
X10848849Y-1395933D01*
X10848849Y-1395933D01*
X10816861Y-1410732D01*
X10816860Y-1410733D01*
X10786658Y-1428904D01*
X10758599Y-1450235D01*
X10758598Y-1450235D01*
X10733009Y-1474475D01*
X10710191Y-1501338D01*
X10710190Y-1501339D01*
X10690410Y-1530513D01*
X10673900Y-1561654D01*
X10673899Y-1561655D01*
X10660853Y-1594399D01*
X10660853Y-1594399D01*
X10651423Y-1628360D01*
X10651423Y-1628361D01*
X10645721Y-1663144D01*
X10643813Y-1698340D01*
X10643813Y-1698340D01*
X10645721Y-1733535D01*
X10649681Y-1757691D01*
X10651090Y-1766288D01*
X10651423Y-1768319D01*
X10651423Y-1768320D01*
X10660853Y-1802281D01*
X10660853Y-1802281D01*
X10673899Y-1835024D01*
X10673900Y-1835026D01*
X10687086Y-1859899D01*
X10690410Y-1866167D01*
X10706425Y-1889788D01*
X10710190Y-1895341D01*
X10710191Y-1895342D01*
X10723753Y-1911309D01*
X10733009Y-1922205D01*
X10758598Y-1946445D01*
X10758599Y-1946445D01*
X10758599Y-1946445D01*
X10765146Y-1951423D01*
X10786658Y-1967775D01*
X10816860Y-1985947D01*
X10816861Y-1985947D01*
X10816861Y-1985948D01*
X10848849Y-2000747D01*
X10848849Y-2000747D01*
X10848850Y-2000747D01*
X10882252Y-2012002D01*
X10916676Y-2019579D01*
X10951716Y-2023390D01*
X10951717Y-2023390D01*
X10986963Y-2023390D01*
X10986964Y-2023390D01*
X11022005Y-2019579D01*
X11056428Y-2012002D01*
X11089830Y-2000747D01*
X11089831Y-2000747D01*
X11089831Y-2000747D01*
X11121819Y-1985948D01*
X11121820Y-1985947D01*
X11152022Y-1967775D01*
X11180082Y-1946445D01*
X11205671Y-1922205D01*
X11228490Y-1895341D01*
X11248270Y-1866167D01*
X11264781Y-1835025D01*
X11277827Y-1802281D01*
X11287257Y-1768319D01*
X11292959Y-1733536D01*
X11294817Y-1699260D01*
X11294867Y-1698340D01*
X11294867Y-1698340D01*
X11292959Y-1663144D01*
X11292959Y-1663144D01*
X11287257Y-1628361D01*
X11279486Y-1600374D01*
X11277827Y-1594399D01*
X11277827Y-1594399D01*
X11264781Y-1561655D01*
X11264780Y-1561654D01*
X11262394Y-1557153D01*
X11248270Y-1530513D01*
X11228490Y-1501339D01*
X11228490Y-1501339D01*
X11228489Y-1501338D01*
X11205671Y-1474475D01*
X11180082Y-1450235D01*
X11180081Y-1450235D01*
X11180081Y-1450235D01*
X11152022Y-1428904D01*
X11121820Y-1410733D01*
X11121819Y-1410732D01*
X11089831Y-1395933D01*
X11089831Y-1395933D01*
X11089830Y-1395933D01*
X11089830Y-1395933D01*
X11073947Y-1390581D01*
X11056428Y-1384678D01*
X11056428Y-1384678D01*
X11056428Y-1384678D01*
X11039128Y-1380870D01*
X11033004Y-1377507D01*
X11029671Y-1371366D01*
X11030186Y-1364398D01*
X11034387Y-1358815D01*
X11040940Y-1356390D01*
X11041794Y-1356360D01*
X11316000Y-1356360D01*
X11322704Y-1358329D01*
X11327279Y-1363609D01*
X11328400Y-1368760D01*
X11328400Y-4816153D01*
X11326431Y-4822857D01*
X11321151Y-4827432D01*
X11316013Y-4828553D01*
X11062189Y-4828811D01*
X11055483Y-4826849D01*
X11050902Y-4821574D01*
X11049901Y-4814659D01*
X11052797Y-4808300D01*
X11058217Y-4804660D01*
X11069830Y-4800747D01*
X11069831Y-4800747D01*
X11069831Y-4800747D01*
X11101819Y-4785948D01*
X11101820Y-4785947D01*
X11132022Y-4767775D01*
X11160082Y-4746445D01*
X11185671Y-4722205D01*
X11208490Y-4695341D01*
X11228270Y-4666167D01*
X11244781Y-4635025D01*
X11257827Y-4602281D01*
X11267257Y-4568319D01*
X11272959Y-4533536D01*
X11274867Y-4498340D01*
X11272959Y-4463144D01*
X11267257Y-4428361D01*
X11263010Y-4413067D01*
X11257827Y-4394399D01*
X11257827Y-4394399D01*
X11244781Y-4361656D01*
X11244780Y-4361654D01*
X11228270Y-4330513D01*
X11208490Y-4301339D01*
X11208490Y-4301339D01*
X11208489Y-4301338D01*
X11185671Y-4274475D01*
X11160082Y-4250235D01*
X11160081Y-4250235D01*
X11160081Y-4250235D01*
X11132022Y-4228904D01*
X11101820Y-4210733D01*
X11101819Y-4210732D01*
X11069831Y-4195933D01*
X11069831Y-4195933D01*
X11069830Y-4195933D01*
X11069830Y-4195933D01*
X11059183Y-4192345D01*
X11036428Y-4184678D01*
X11002004Y-4177101D01*
X10966964Y-4173290D01*
X10966964Y-4173290D01*
X10931716Y-4173290D01*
X10931716Y-4173290D01*
X10896676Y-4177101D01*
X10862252Y-4184678D01*
X10828849Y-4195933D01*
X10828849Y-4195933D01*
X10796861Y-4210732D01*
X10796860Y-4210733D01*
X10766658Y-4228904D01*
X10738599Y-4250235D01*
X10738598Y-4250235D01*
X10713009Y-4274475D01*
X10690191Y-4301338D01*
X10690190Y-4301339D01*
X10670410Y-4330513D01*
X10653900Y-4361654D01*
X10653899Y-4361656D01*
X10640853Y-4394399D01*
X10640853Y-4394399D01*
X10631423Y-4428360D01*
X10631423Y-4428361D01*
X10625721Y-4463145D01*
X10623813Y-4498340D01*
X10623813Y-4498340D01*
X10625721Y-4533535D01*
X10631423Y-4568319D01*
X10631423Y-4568320D01*
X10640853Y-4602281D01*
X10640853Y-4602281D01*
X10653899Y-4635024D01*
X10653900Y-4635026D01*
X10670410Y-4666167D01*
X10690190Y-4695341D01*
X10690191Y-4695342D01*
X10713009Y-4722205D01*
X10713009Y-4722205D01*
X10738598Y-4746445D01*
X10766658Y-4767775D01*
X10796860Y-4785947D01*
X10796861Y-4785948D01*
X10796861Y-4785948D01*
X10828849Y-4800747D01*
X10828850Y-4800747D01*
X10841143Y-4804889D01*
X10846867Y-4808895D01*
X10849517Y-4815360D01*
X10848251Y-4822232D01*
X10843471Y-4827328D01*
X10837196Y-4829040D01*
X1801248Y-4838242D01*
X1794542Y-4836280D01*
X1789961Y-4831004D01*
X1788959Y-4824090D01*
X1791855Y-4817731D01*
X1797729Y-4813948D01*
X1798568Y-4813732D01*
X1804211Y-4812490D01*
X1806428Y-4812002D01*
X1815648Y-4808895D01*
X1839830Y-4800747D01*
X1839831Y-4800747D01*
X1839831Y-4800747D01*
X1871819Y-4785948D01*
X1871820Y-4785947D01*
X1902022Y-4767775D01*
X1930082Y-4746445D01*
X1955671Y-4722205D01*
X1978490Y-4695341D01*
X1998270Y-4666167D01*
X2003415Y-4656463D01*
X2008295Y-4651462D01*
X2014371Y-4649871D01*
X4036453Y-4649871D01*
X4036453Y-3707217D01*
X1390209Y-3707217D01*
X1390209Y-4649871D01*
X1424309Y-4649871D01*
X1431013Y-4651839D01*
X1435265Y-4656463D01*
X1440409Y-4666167D01*
X1460190Y-4695341D01*
X1460190Y-4695342D01*
X1483008Y-4722205D01*
X1483009Y-4722205D01*
X1508598Y-4746445D01*
X1536658Y-4767775D01*
X1566860Y-4785947D01*
X1566861Y-4785948D01*
X1566861Y-4785948D01*
X1598849Y-4800747D01*
X1598849Y-4800747D01*
X1598850Y-4800747D01*
X1632252Y-4812002D01*
X1639109Y-4813511D01*
X1640865Y-4813898D01*
X1646989Y-4817261D01*
X1650322Y-4823402D01*
X1649807Y-4830370D01*
X1645606Y-4835953D01*
X1639053Y-4838378D01*
X1638212Y-4838408D01*
X1363693Y-4838687D01*
X1356987Y-4836726D01*
X1352406Y-4831450D01*
X1351280Y-4826287D01*
X1351280Y-2770938D01*
X1697780Y-2770938D01*
X1697780Y-3270942D01*
X1698830Y-3281220D01*
X1704348Y-3297873D01*
X1704349Y-3297874D01*
X1705478Y-3299705D01*
X1713559Y-3312806D01*
X1725964Y-3325211D01*
X1740896Y-3334421D01*
X1757550Y-3339940D01*
X1767829Y-3340990D01*
X1767829Y-3340990D01*
X1925330Y-3340990D01*
X1925331Y-3340990D01*
X1935610Y-3339940D01*
X1952263Y-3334421D01*
X1967196Y-3325211D01*
X1979601Y-3312806D01*
X1988811Y-3297873D01*
X1994330Y-3281220D01*
X1995380Y-3270941D01*
X1995380Y-2770939D01*
X1995380Y-2770938D01*
X2225280Y-2770938D01*
X2225280Y-3270942D01*
X2226330Y-3281220D01*
X2231849Y-3297873D01*
X2231849Y-3297874D01*
X2232978Y-3299705D01*
X2241059Y-3312806D01*
X2253464Y-3325211D01*
X2268397Y-3334421D01*
X2285050Y-3339940D01*
X2295329Y-3340990D01*
X2295330Y-3340990D01*
X2452831Y-3340990D01*
X2452831Y-3340990D01*
X2463110Y-3339940D01*
X2479764Y-3334421D01*
X2494696Y-3325211D01*
X2507101Y-3312806D01*
X2516311Y-3297873D01*
X2521830Y-3281220D01*
X2522880Y-3270941D01*
X2522880Y-3188246D01*
X2655144Y-3188246D01*
X2655273Y-3196753D01*
X2655341Y-3198720D01*
X2655812Y-3207425D01*
X2655973Y-3209562D01*
X2656441Y-3214391D01*
X2656441Y-3214392D01*
X2656752Y-3217602D01*
X2657160Y-3220769D01*
X2658210Y-3227297D01*
X2659832Y-3234222D01*
X2661026Y-3238077D01*
X2661120Y-3238379D01*
X2665654Y-3248739D01*
X2665654Y-3248739D01*
X2665654Y-3248739D01*
X2668972Y-3254472D01*
X2672588Y-3259884D01*
X2680599Y-3270346D01*
X2682092Y-3272296D01*
X2686556Y-3277306D01*
X2687102Y-3277917D01*
X2699040Y-3289453D01*
X2704248Y-3293847D01*
X2704249Y-3293848D01*
X2717966Y-3303919D01*
X2717966Y-3303920D01*
X2723846Y-3307642D01*
X2723846Y-3307642D01*
X2723847Y-3307643D01*
X2723847Y-3307643D01*
X2738695Y-3315669D01*
X2740765Y-3316678D01*
X2742483Y-3317517D01*
X2747648Y-3319775D01*
X2747650Y-3319775D01*
X2749311Y-3320467D01*
X2749312Y-3320467D01*
X2749314Y-3320468D01*
X2750895Y-3321093D01*
X2756574Y-3323339D01*
X2759702Y-3324458D01*
X2766678Y-3326699D01*
X2770381Y-3327735D01*
X2770384Y-3327736D01*
X2772906Y-3328339D01*
X2778968Y-3331813D01*
X2782190Y-3338012D01*
X2781548Y-3344970D01*
X2777247Y-3350476D01*
X2776661Y-3350850D01*
X2776670Y-3350863D01*
X2776370Y-3351055D01*
X2766996Y-3357862D01*
X2766950Y-3357900D01*
X2766387Y-3358382D01*
X2765340Y-3359219D01*
X2764961Y-3359731D01*
X2763835Y-3360766D01*
X2756796Y-3368752D01*
X2756796Y-3368753D01*
X2750459Y-3381104D01*
X2750228Y-3381554D01*
X2749039Y-3385009D01*
X2748528Y-3386645D01*
X2748180Y-3387758D01*
X2748180Y-3387759D01*
X2746294Y-3402021D01*
X2746294Y-3402021D01*
X2746326Y-3404881D01*
X2746369Y-3406468D01*
X2748133Y-3415869D01*
X2748049Y-3420848D01*
X2747188Y-3424720D01*
X2747188Y-3424721D01*
X2747188Y-3424721D01*
X2747188Y-3424721D01*
X2746796Y-3429174D01*
X2746029Y-3437891D01*
X2746073Y-3438915D01*
X2746073Y-3438916D01*
X2746138Y-3439766D01*
X2746330Y-3442260D01*
X2746330Y-3442261D01*
X2749924Y-3456192D01*
X2751357Y-3459625D01*
X2751358Y-3459628D01*
X2753250Y-3463589D01*
X2753541Y-3464199D01*
X2754572Y-3465589D01*
X2762114Y-3475754D01*
X2762115Y-3475754D01*
X2771808Y-3483074D01*
X2773596Y-3484425D01*
X2787056Y-3489510D01*
X2790291Y-3490228D01*
X2793442Y-3490823D01*
X2807479Y-3490994D01*
X2807829Y-3490998D01*
X2807829Y-3490998D01*
X2807829Y-3490998D01*
X2810319Y-3490300D01*
X2817305Y-3490384D01*
X2822442Y-3493477D01*
X2822752Y-3493787D01*
X2822798Y-3493833D01*
X2823241Y-3494165D01*
X2827443Y-3496999D01*
X2840693Y-3502605D01*
X2842811Y-3503163D01*
X2843298Y-3503289D01*
X2849785Y-3503971D01*
X2857607Y-3504793D01*
X2857607Y-3504793D01*
X2857607Y-3504793D01*
X2857608Y-3504793D01*
X2864999Y-3503441D01*
X2871948Y-3504172D01*
X2877399Y-3508543D01*
X2879546Y-3514202D01*
X2880087Y-3518835D01*
X2880087Y-3518836D01*
X2882673Y-3529929D01*
X2887175Y-3538478D01*
X2889378Y-3542660D01*
X2890766Y-3544573D01*
X2890953Y-3544829D01*
X2890953Y-3544829D01*
X2901038Y-3555090D01*
X2901038Y-3555090D01*
X2901039Y-3555090D01*
X2901039Y-3555090D01*
X2913607Y-3562094D01*
X2915619Y-3562865D01*
X2927381Y-3565811D01*
X2941767Y-3565557D01*
X2943907Y-3565211D01*
X2944976Y-3565038D01*
X2950853Y-3563459D01*
X2957838Y-3563621D01*
X2961840Y-3565772D01*
X2964806Y-3568157D01*
X2964807Y-3568158D01*
X2965589Y-3568661D01*
X2965676Y-3568716D01*
X2974668Y-3573301D01*
X2976635Y-3574068D01*
X2980670Y-3575447D01*
X2994909Y-3577516D01*
X3009153Y-3575490D01*
X3011184Y-3574897D01*
X3016698Y-3572934D01*
X3029018Y-3565503D01*
X3031859Y-3563180D01*
X3035710Y-3559684D01*
X3039227Y-3556146D01*
X3040612Y-3554945D01*
X3042815Y-3553303D01*
X3043863Y-3552522D01*
X3045515Y-3551483D01*
X3048307Y-3550020D01*
X3050216Y-3549215D01*
X3057109Y-3546967D01*
X3058074Y-3546641D01*
X3067521Y-3543349D01*
X3077680Y-3538478D01*
X3088524Y-3531698D01*
X3095912Y-3526074D01*
X3106673Y-3516195D01*
X3112935Y-3509277D01*
X3119011Y-3501171D01*
X3119161Y-3500919D01*
X3124356Y-3492181D01*
X3129474Y-3487424D01*
X3136351Y-3486190D01*
X3142331Y-3488673D01*
X3142345Y-3488650D01*
X3142490Y-3488739D01*
X3142804Y-3488869D01*
X3142946Y-3488986D01*
X3143100Y-3489114D01*
X3143100Y-3489114D01*
X3143100Y-3489114D01*
X3155357Y-3496649D01*
X3155358Y-3496649D01*
X3155358Y-3496649D01*
X3169240Y-3500426D01*
X3169240Y-3500426D01*
X3169241Y-3500426D01*
X3172269Y-3500799D01*
X3184405Y-3500829D01*
X3185768Y-3500668D01*
X3190843Y-3499786D01*
X3197785Y-3500576D01*
X3199510Y-3501469D01*
X3207074Y-3506167D01*
X3210884Y-3507837D01*
X3210885Y-3507837D01*
X3210885Y-3507837D01*
X3221852Y-3511221D01*
X3236227Y-3511834D01*
X3238219Y-3511634D01*
X3245086Y-3512923D01*
X3250166Y-3517719D01*
X3251847Y-3524501D01*
X3249595Y-3531115D01*
X3244124Y-3535461D01*
X3242900Y-3535885D01*
X3241681Y-3536237D01*
X3241679Y-3536238D01*
X3229549Y-3540421D01*
X3229547Y-3540422D01*
X3224754Y-3542354D01*
X3224475Y-3542483D01*
X3222265Y-3543264D01*
X3221761Y-3543390D01*
X3220693Y-3544238D01*
X3213802Y-3547435D01*
X3210145Y-3549316D01*
X3206938Y-3551134D01*
X3201895Y-3554403D01*
X3200140Y-3555696D01*
X3198420Y-3556962D01*
X3198420Y-3556962D01*
X3194384Y-3560268D01*
X3194383Y-3560269D01*
X3185225Y-3571364D01*
X3183569Y-3574083D01*
X3183566Y-3574087D01*
X3181205Y-3578427D01*
X3181205Y-3578427D01*
X3181205Y-3578427D01*
X3181205Y-3578428D01*
X3180167Y-3581706D01*
X3176862Y-3592145D01*
X3176226Y-3595997D01*
X3176226Y-3595997D01*
X3175568Y-3602867D01*
X3175568Y-3602868D01*
X3175568Y-3602869D01*
X3175485Y-3605920D01*
X3175468Y-3606542D01*
X3175568Y-3611363D01*
X3178582Y-3625432D01*
X3179179Y-3627047D01*
X3179566Y-3628095D01*
X3179567Y-3628098D01*
X3182096Y-3633824D01*
X3182096Y-3633824D01*
X3182096Y-3633825D01*
X3189330Y-3643944D01*
X3190464Y-3645529D01*
X3190464Y-3645530D01*
X3201789Y-3654402D01*
X3201790Y-3654403D01*
X3204544Y-3655986D01*
X3204545Y-3655986D01*
X3204545Y-3655987D01*
X3214068Y-3660222D01*
X3214068Y-3660222D01*
X3216605Y-3661049D01*
X3216607Y-3661050D01*
X3216607Y-3661050D01*
X3220462Y-3662140D01*
X3220462Y-3662140D01*
X3220463Y-3662140D01*
X3226148Y-3663507D01*
X3227488Y-3663829D01*
X3230145Y-3664392D01*
X3239185Y-3666058D01*
X3241028Y-3666362D01*
X3247023Y-3667239D01*
X3251187Y-3667848D01*
X3252171Y-3667974D01*
X3252935Y-3668072D01*
X3255567Y-3668364D01*
X3263302Y-3669221D01*
X3263308Y-3669221D01*
X3263309Y-3669221D01*
X3264423Y-3669332D01*
X3264429Y-3669333D01*
X3264430Y-3669333D01*
X3266082Y-3669479D01*
X3266150Y-3669484D01*
X3266794Y-3669537D01*
X3273160Y-3670009D01*
X3274581Y-3670094D01*
X3274581Y-3670094D01*
X3274583Y-3670094D01*
X3279482Y-3670319D01*
X3283219Y-3670353D01*
X3283220Y-3670353D01*
X3283221Y-3670353D01*
X3284186Y-3670326D01*
X3284422Y-3670388D01*
X3288836Y-3670060D01*
X3288836Y-3670060D01*
X3292123Y-3669816D01*
X3292305Y-3669804D01*
X3297780Y-3669488D01*
X3297798Y-3669487D01*
X3305454Y-3669103D01*
X3305461Y-3669102D01*
X3314425Y-3668703D01*
X3314523Y-3668698D01*
X3314530Y-3668698D01*
X3314536Y-3668698D01*
X3314986Y-3668677D01*
X3318468Y-3668515D01*
X3319069Y-3668483D01*
X3329906Y-3667850D01*
X3330494Y-3667812D01*
X3342771Y-3666951D01*
X3343206Y-3666918D01*
X3356322Y-3665884D01*
X3356328Y-3665884D01*
X3356343Y-3665882D01*
X3356505Y-3665869D01*
X3356691Y-3665854D01*
X3370044Y-3664702D01*
X3370404Y-3664670D01*
X3370403Y-3664670D01*
X3370427Y-3664668D01*
X3383370Y-3663459D01*
X3383369Y-3663459D01*
X3383392Y-3663457D01*
X3383794Y-3663418D01*
X3383802Y-3663417D01*
X3383819Y-3663415D01*
X3395800Y-3662199D01*
X3395814Y-3662198D01*
X3395817Y-3662198D01*
X3396342Y-3662142D01*
X3406797Y-3660970D01*
X3407628Y-3660870D01*
X3415913Y-3659802D01*
X3417672Y-3659544D01*
X3423185Y-3658636D01*
X3424771Y-3658348D01*
X3427900Y-3657730D01*
X3427985Y-3657713D01*
X3434269Y-3656529D01*
X3442160Y-3655084D01*
X3450594Y-3653578D01*
X3450596Y-3653577D01*
X3450603Y-3653576D01*
X3450771Y-3653546D01*
X3460540Y-3651767D01*
X3467429Y-3650513D01*
X3468216Y-3650363D01*
X3484332Y-3647164D01*
X3485554Y-3646905D01*
X3498756Y-3643944D01*
X3500589Y-3643496D01*
X3511117Y-3640718D01*
X3513944Y-3639883D01*
X3522037Y-3637235D01*
X3523990Y-3636550D01*
X3524989Y-3636177D01*
X3532263Y-3633489D01*
X3540727Y-3630392D01*
X3540738Y-3630388D01*
X3548879Y-3627439D01*
X3549090Y-3627360D01*
X3549928Y-3627046D01*
X3554230Y-3625379D01*
X3556242Y-3624549D01*
X3565082Y-3620677D01*
X3566801Y-3619886D01*
X3576263Y-3615312D01*
X3577997Y-3614432D01*
X3586656Y-3609828D01*
X3586660Y-3609826D01*
X3587201Y-3609531D01*
X3587644Y-3609289D01*
X3593580Y-3605961D01*
X3593626Y-3605935D01*
X3599418Y-3602743D01*
X3599501Y-3602698D01*
X3603125Y-3600751D01*
X3603441Y-3600587D01*
X3603611Y-3600502D01*
X3603873Y-3600371D01*
X3604367Y-3600137D01*
X3604726Y-3599977D01*
X3608975Y-3597836D01*
X3616555Y-3593557D01*
X3620178Y-3591305D01*
X3629427Y-3585000D01*
X3631234Y-3583700D01*
X3631504Y-3583505D01*
X3631504Y-3583505D01*
X3631506Y-3583504D01*
X3641964Y-3575570D01*
X3643413Y-3574428D01*
X3654621Y-3565262D01*
X3655796Y-3564272D01*
X3667293Y-3554271D01*
X3668374Y-3553302D01*
X3679701Y-3542863D01*
X3680820Y-3541800D01*
X3689249Y-3533543D01*
X3691516Y-3531321D01*
X3691536Y-3531301D01*
X3692810Y-3530007D01*
X3702417Y-3519882D01*
X3704078Y-3518043D01*
X3712136Y-3508672D01*
X3713695Y-3506767D01*
X3718303Y-3500848D01*
X3720229Y-3498202D01*
X3726701Y-3488675D01*
X3729895Y-3483283D01*
X3734593Y-3474095D01*
X3737345Y-3467646D01*
X3740813Y-3457646D01*
X3742290Y-3452532D01*
X3745071Y-3440572D01*
X3745455Y-3438775D01*
X3745785Y-3437081D01*
X3745976Y-3436038D01*
X3747429Y-3427635D01*
X3747827Y-3424721D01*
X3747912Y-3424098D01*
X3748169Y-3421554D01*
X3748572Y-3417555D01*
X3748824Y-3411932D01*
X3748760Y-3406048D01*
X3748450Y-3400975D01*
X3747730Y-3394550D01*
X3747539Y-3393048D01*
X3746664Y-3386905D01*
X3745868Y-3381187D01*
X3745608Y-3379321D01*
X3745602Y-3379273D01*
X3744955Y-3374492D01*
X3744770Y-3373122D01*
X3744123Y-3369394D01*
X3742926Y-3363755D01*
X3742376Y-3361164D01*
X3742375Y-3361163D01*
X3742375Y-3361160D01*
X3741124Y-3356416D01*
X3737930Y-3346319D01*
X3736804Y-3343133D01*
X3732641Y-3332501D01*
X3731366Y-3329529D01*
X3726686Y-3319516D01*
X3724699Y-3315698D01*
X3719957Y-3307461D01*
X3719539Y-3306842D01*
X3715884Y-3301435D01*
X3715883Y-3301434D01*
X3713577Y-3298501D01*
X3709823Y-3293728D01*
X3706057Y-3289458D01*
X3697212Y-3280501D01*
X3694230Y-3277716D01*
X3685220Y-3269957D01*
X3683548Y-3268517D01*
X3680850Y-3266350D01*
X3668983Y-3257468D01*
X3666111Y-3255470D01*
X3653716Y-3247468D01*
X3652700Y-3246845D01*
X3651742Y-3246257D01*
X3651740Y-3246256D01*
X3651739Y-3246255D01*
X3648127Y-3244151D01*
X3647000Y-3243514D01*
X3647000Y-3243514D01*
X3646997Y-3243513D01*
X3635463Y-3237184D01*
X3635462Y-3237183D01*
X3635460Y-3237182D01*
X3634065Y-3236445D01*
X3621869Y-3230242D01*
X3620968Y-3229800D01*
X3620536Y-3229588D01*
X3620533Y-3229587D01*
X3620530Y-3229585D01*
X3608550Y-3223927D01*
X3606975Y-3223215D01*
X3601537Y-3220871D01*
X3596081Y-3218518D01*
X3593655Y-3217546D01*
X3589190Y-3215889D01*
X3584733Y-3214235D01*
X3583458Y-3213781D01*
X3580590Y-3212804D01*
X3580155Y-3212646D01*
X3579517Y-3212402D01*
X3578519Y-3211968D01*
X3578377Y-3211898D01*
X3573450Y-3209656D01*
X3569198Y-3207989D01*
X3567528Y-3207368D01*
X3567527Y-3207368D01*
X3560743Y-3204981D01*
X3560739Y-3204980D01*
X3560015Y-3204731D01*
X3556258Y-3203474D01*
X3551134Y-3201759D01*
X3551123Y-3201756D01*
X3551117Y-3201754D01*
X3550715Y-3201621D01*
X3540186Y-3198202D01*
X3540130Y-3198184D01*
X3539875Y-3198103D01*
X3530463Y-3195112D01*
X3528152Y-3194377D01*
X3528100Y-3194361D01*
X3527901Y-3194298D01*
X3527890Y-3194295D01*
X3515392Y-3190393D01*
X3515175Y-3190325D01*
X3502381Y-3186394D01*
X3502162Y-3186327D01*
X3502150Y-3186323D01*
X3489449Y-3182482D01*
X3489434Y-3182478D01*
X3489204Y-3182409D01*
X3477087Y-3178810D01*
X3477077Y-3178807D01*
X3477069Y-3178805D01*
X3476772Y-3178718D01*
X3476768Y-3178717D01*
X3476754Y-3178713D01*
X3465631Y-3175483D01*
X3465235Y-3175370D01*
X3460490Y-3174035D01*
X3455534Y-3172642D01*
X3455282Y-3172573D01*
X3454873Y-3172461D01*
X3447063Y-3170379D01*
X3445713Y-3170039D01*
X3440239Y-3168741D01*
X3438822Y-3168426D01*
X3438636Y-3168388D01*
X3437513Y-3168169D01*
X3396893Y-3160717D01*
X3396892Y-3160717D01*
X3396891Y-3160717D01*
X3396402Y-3160640D01*
X3394390Y-3160323D01*
X3355199Y-3155145D01*
X3352801Y-3154894D01*
X3352489Y-3154861D01*
X3352489Y-3154861D01*
X3352487Y-3154861D01*
X3313746Y-3151855D01*
X3311043Y-3151718D01*
X3271767Y-3150779D01*
X3269888Y-3150769D01*
X3269887Y-3150769D01*
X3269885Y-3150769D01*
X3250434Y-3151030D01*
X3247051Y-3151075D01*
X3245479Y-3151121D01*
X3224821Y-3152040D01*
X3222767Y-3152173D01*
X3222764Y-3152174D01*
X3222763Y-3152174D01*
X3216646Y-3152697D01*
X3203730Y-3153801D01*
X3201380Y-3154057D01*
X3183121Y-3156484D01*
X3180775Y-3156852D01*
X3164374Y-3159821D01*
X3162425Y-3160174D01*
X3160416Y-3160580D01*
X3146849Y-3163611D01*
X3141121Y-3164890D01*
X3141114Y-3164892D01*
X3141114Y-3164891D01*
X3141026Y-3164911D01*
X3141026Y-3164911D01*
X3126753Y-3168130D01*
X3126235Y-3168235D01*
X3112820Y-3170665D01*
X3112055Y-3170779D01*
X3101103Y-3172063D01*
X3100201Y-3172136D01*
X3090195Y-3172574D01*
X3089309Y-3172582D01*
X3077853Y-3172265D01*
X3077426Y-3172245D01*
X3071835Y-3171898D01*
X3071668Y-3171886D01*
X3060073Y-3171007D01*
X3059683Y-3170971D01*
X3051356Y-3170075D01*
X3050759Y-3169996D01*
X3044655Y-3169038D01*
X3043931Y-3168902D01*
X3038578Y-3167732D01*
X3037904Y-3167565D01*
X3031657Y-3165828D01*
X3031184Y-3165686D01*
X3022933Y-3163034D01*
X3022625Y-3162930D01*
X3020710Y-3162259D01*
X3020356Y-3162128D01*
X3012713Y-3159184D01*
X3012405Y-3159061D01*
X3002995Y-3155144D01*
X3002782Y-3155053D01*
X2992284Y-3150447D01*
X2992102Y-3150366D01*
X2981416Y-3145470D01*
X2981238Y-3145387D01*
X2971160Y-3140570D01*
X2970946Y-3140465D01*
X2962412Y-3136179D01*
X2962096Y-3136014D01*
X2959740Y-3134745D01*
X2956379Y-3132934D01*
X2955783Y-3132591D01*
X2952863Y-3130802D01*
X2952556Y-3130605D01*
X2952556Y-3130605D01*
X2952436Y-3130528D01*
X2952434Y-3130526D01*
X2950439Y-3129251D01*
X2944231Y-3125482D01*
X2944231Y-3125482D01*
X2944228Y-3125480D01*
X2942504Y-3124479D01*
X2934441Y-3120011D01*
X2933337Y-3119417D01*
X2929290Y-3117304D01*
X2924374Y-3114737D01*
X2923543Y-3114315D01*
X2923375Y-3114229D01*
X2914461Y-3109824D01*
X2913214Y-3109229D01*
X2905299Y-3105584D01*
X2903014Y-3104599D01*
X2897052Y-3102202D01*
X2893590Y-3100954D01*
X2892628Y-3100647D01*
X2892220Y-3100516D01*
X2889735Y-3099822D01*
X2888602Y-3099506D01*
X2883579Y-3098302D01*
X2881568Y-3097820D01*
X2881567Y-3097820D01*
X2881566Y-3097820D01*
X2878115Y-3097119D01*
X2874217Y-3096469D01*
X2867929Y-3093423D01*
X2867344Y-3092856D01*
X2859511Y-3084752D01*
X2859510Y-3084751D01*
X2853213Y-3079558D01*
X2853213Y-3079557D01*
X2843641Y-3073334D01*
X2843641Y-3073333D01*
X2842900Y-3072963D01*
X2836756Y-3069894D01*
X2824237Y-3065578D01*
X2821806Y-3065083D01*
X2817347Y-3064177D01*
X2814344Y-3063660D01*
X2814344Y-3063660D01*
X2814237Y-3063660D01*
X2799956Y-3063696D01*
X2799955Y-3063696D01*
X2793648Y-3064619D01*
X2785255Y-3066590D01*
X2785255Y-3066590D01*
X2772356Y-3072963D01*
X2767212Y-3076494D01*
X2767212Y-3076495D01*
X2758611Y-3083956D01*
X2756496Y-3086257D01*
X2750509Y-3089860D01*
X2749507Y-3090078D01*
X2745087Y-3090853D01*
X2744211Y-3091006D01*
X2738519Y-3092470D01*
X2738518Y-3092470D01*
X2732323Y-3094063D01*
X2725419Y-3096380D01*
X2713630Y-3101308D01*
X2707479Y-3104386D01*
X2704234Y-3106296D01*
X2704233Y-3106297D01*
X2699532Y-3109431D01*
X2699530Y-3109432D01*
X2693028Y-3114314D01*
X2693027Y-3114315D01*
X2689409Y-3117304D01*
X2684855Y-3121435D01*
X2684852Y-3121437D01*
X2684852Y-3121437D01*
X2682811Y-3123289D01*
X2679682Y-3126387D01*
X2673992Y-3132533D01*
X2669768Y-3137751D01*
X2669768Y-3137752D01*
X2665987Y-3143116D01*
X2665286Y-3144136D01*
X2659070Y-3157112D01*
X2658367Y-3159353D01*
X2656405Y-3168492D01*
X2655744Y-3174034D01*
X2655415Y-3178339D01*
X2655224Y-3184057D01*
X2655166Y-3185793D01*
X2655144Y-3188246D01*
X2522880Y-3188246D01*
X2522880Y-2983413D01*
X2524849Y-2976709D01*
X2526512Y-2974645D01*
X3061435Y-2439722D01*
X3067567Y-2436373D01*
X3070203Y-2436090D01*
X3104054Y-2436090D01*
X3110757Y-2438059D01*
X3115333Y-2443339D01*
X3116327Y-2450255D01*
X3114607Y-2455000D01*
X3105549Y-2469686D01*
X3105548Y-2469687D01*
X3104310Y-2473424D01*
X3100030Y-2486340D01*
X3100030Y-2486340D01*
X3100030Y-2486340D01*
X3098980Y-2496618D01*
X3098980Y-2996622D01*
X3100030Y-3006900D01*
X3105548Y-3023553D01*
X3105549Y-3023554D01*
X3106566Y-3025203D01*
X3114759Y-3038486D01*
X3127164Y-3050891D01*
X3142096Y-3060101D01*
X3158750Y-3065620D01*
X3169029Y-3066670D01*
X3169029Y-3066670D01*
X3326530Y-3066670D01*
X3326531Y-3066670D01*
X3336810Y-3065620D01*
X3353463Y-3060101D01*
X3368396Y-3050891D01*
X3380801Y-3038486D01*
X3390011Y-3023553D01*
X3395530Y-3006900D01*
X3396580Y-2996621D01*
X3396580Y-2709093D01*
X3398548Y-2702389D01*
X3400212Y-2700325D01*
X3590805Y-2509732D01*
X3596937Y-2506383D01*
X3599573Y-2506100D01*
X3614080Y-2506100D01*
X3620784Y-2508069D01*
X3625359Y-2513349D01*
X3626480Y-2518500D01*
X3626480Y-2996622D01*
X3627530Y-3006900D01*
X3633048Y-3023553D01*
X3633049Y-3023554D01*
X3634066Y-3025203D01*
X3642259Y-3038486D01*
X3654664Y-3050891D01*
X3669596Y-3060101D01*
X3686250Y-3065620D01*
X3696529Y-3066670D01*
X3696529Y-3066670D01*
X3854030Y-3066670D01*
X3854031Y-3066670D01*
X3864310Y-3065620D01*
X3880963Y-3060101D01*
X3895896Y-3050891D01*
X3908301Y-3038486D01*
X3917511Y-3023553D01*
X3923030Y-3006900D01*
X3924080Y-2996621D01*
X3924080Y-2938603D01*
X3926048Y-2931899D01*
X3931329Y-2927323D01*
X3938245Y-2926329D01*
X3944600Y-2929232D01*
X3945248Y-2929835D01*
X3977515Y-2962102D01*
X3985693Y-2970280D01*
X3987968Y-2972555D01*
X4000260Y-2980768D01*
X4000261Y-2980769D01*
X4013918Y-2986426D01*
X4013919Y-2986426D01*
X4013919Y-2986426D01*
X4013919Y-2986426D01*
X4028418Y-2989310D01*
X4028418Y-2989310D01*
X4028418Y-2989310D01*
X4028594Y-2989310D01*
X4028784Y-2989346D01*
X4029024Y-2989370D01*
X4029022Y-2989391D01*
X4033143Y-2990174D01*
X4040975Y-2993263D01*
X4041188Y-2993288D01*
X4041348Y-2993357D01*
X4041745Y-2993458D01*
X4041729Y-2993521D01*
X4047609Y-2996042D01*
X4051523Y-3001830D01*
X4052110Y-3005600D01*
X4052110Y-3483532D01*
X4052110Y-3483532D01*
X4052110Y-3483532D01*
X4054994Y-3498031D01*
X4054994Y-3498032D01*
X4060651Y-3511689D01*
X4060651Y-3511689D01*
X4060652Y-3511689D01*
X4062469Y-3514410D01*
X4062971Y-3515161D01*
X4062971Y-3515161D01*
X4068865Y-3523981D01*
X4068865Y-3523982D01*
X4119698Y-3574815D01*
X4123047Y-3580947D01*
X4123330Y-3583583D01*
X4123330Y-3654860D01*
X4123330Y-3654862D01*
X4124380Y-3665140D01*
X4124380Y-3665140D01*
X4129898Y-3681793D01*
X4129899Y-3681794D01*
X4133387Y-3687449D01*
X4139109Y-3696726D01*
X4151514Y-3709131D01*
X4166447Y-3718341D01*
X4183100Y-3723860D01*
X4193379Y-3724910D01*
X4264657Y-3724910D01*
X4271361Y-3726878D01*
X4273425Y-3728542D01*
X4611959Y-4067075D01*
X4614906Y-4069044D01*
X4619327Y-4071999D01*
X4624251Y-4075288D01*
X4624251Y-4075288D01*
X4624251Y-4075288D01*
X4624251Y-4075289D01*
X4637908Y-4080946D01*
X4637909Y-4080946D01*
X4637909Y-4080946D01*
X4637909Y-4080946D01*
X4652408Y-4083830D01*
X4652408Y-4083830D01*
X10030922Y-4083830D01*
X10040676Y-4081890D01*
X10045421Y-4080946D01*
X10059080Y-4075288D01*
X10064003Y-4071999D01*
X10064003Y-4071998D01*
X10066437Y-4070372D01*
X10071372Y-4067075D01*
X10826166Y-3312280D01*
X10832298Y-3308932D01*
X10839267Y-3309430D01*
X10844861Y-3313618D01*
X10845488Y-3314539D01*
X10848718Y-3319775D01*
X10849119Y-3320426D01*
X10861524Y-3332831D01*
X10876457Y-3342041D01*
X10893110Y-3347560D01*
X10903389Y-3348610D01*
X10903390Y-3348610D01*
X11060891Y-3348610D01*
X11060891Y-3348610D01*
X11071170Y-3347560D01*
X11087824Y-3342041D01*
X11102756Y-3332831D01*
X11115161Y-3320426D01*
X11124371Y-3305493D01*
X11129890Y-3288840D01*
X11130940Y-3278561D01*
X11130940Y-2778559D01*
X11129890Y-2768280D01*
X11124371Y-2751627D01*
X11115161Y-2736694D01*
X11102756Y-2724289D01*
X11087824Y-2715079D01*
X11071170Y-2709560D01*
X11071170Y-2709560D01*
X11060892Y-2708510D01*
X11060891Y-2708510D01*
X10903389Y-2708510D01*
X10903388Y-2708510D01*
X10893110Y-2709560D01*
X10893110Y-2709560D01*
X10891054Y-2710242D01*
X10876457Y-2715079D01*
X10876456Y-2715079D01*
X10861524Y-2724289D01*
X10849119Y-2736694D01*
X10839909Y-2751626D01*
X10839909Y-2751627D01*
X10839090Y-2754097D01*
X10834390Y-2768280D01*
X10834390Y-2768280D01*
X10834390Y-2768280D01*
X10833340Y-2778558D01*
X10833340Y-3087697D01*
X10831372Y-3094401D01*
X10829708Y-3096465D01*
X10622068Y-3304105D01*
X10615936Y-3307454D01*
X10608967Y-3306955D01*
X10603373Y-3302768D01*
X10600932Y-3296222D01*
X10601529Y-3291437D01*
X10602390Y-3288840D01*
X10603440Y-3278561D01*
X10603440Y-2778559D01*
X10602390Y-2768280D01*
X10596871Y-2751627D01*
X10587661Y-2736694D01*
X10575256Y-2724289D01*
X10560324Y-2715079D01*
X10560323Y-2715079D01*
X10560323Y-2715078D01*
X10560323Y-2715078D01*
X10553445Y-2712799D01*
X10547700Y-2708822D01*
X10545018Y-2702370D01*
X10545013Y-2699732D01*
X10545186Y-2698090D01*
X10545186Y-2698090D01*
X10545090Y-2697174D01*
X10543207Y-2679264D01*
X10537358Y-2661262D01*
X10527893Y-2644868D01*
X10515227Y-2630801D01*
X10514418Y-2630213D01*
X10499913Y-2619675D01*
X10499913Y-2619675D01*
X10482621Y-2611976D01*
X10482620Y-2611976D01*
X10468040Y-2608877D01*
X10464105Y-2608040D01*
X10445175Y-2608040D01*
X10441930Y-2608730D01*
X10426660Y-2611976D01*
X10426659Y-2611976D01*
X10409367Y-2619675D01*
X10409367Y-2619675D01*
X10394053Y-2630801D01*
X10381387Y-2644869D01*
X10371922Y-2661262D01*
X10371922Y-2661262D01*
X10366222Y-2678804D01*
X10366073Y-2679264D01*
X10364190Y-2697174D01*
X10364094Y-2698090D01*
X10364267Y-2699733D01*
X10363010Y-2706606D01*
X10358236Y-2711708D01*
X10355835Y-2712799D01*
X10348957Y-2715078D01*
X10334024Y-2724289D01*
X10321619Y-2736694D01*
X10312409Y-2751626D01*
X10312409Y-2751627D01*
X10311590Y-2754097D01*
X10306890Y-2768280D01*
X10306890Y-2768280D01*
X10306890Y-2768280D01*
X10305840Y-2778558D01*
X10305840Y-3278562D01*
X10306890Y-3288840D01*
X10312409Y-3305493D01*
X10312409Y-3305494D01*
X10313735Y-3307643D01*
X10321619Y-3320426D01*
X10334024Y-3332831D01*
X10348957Y-3342041D01*
X10365610Y-3347560D01*
X10375889Y-3348610D01*
X10375890Y-3348610D01*
X10533391Y-3348610D01*
X10533391Y-3348610D01*
X10543670Y-3347560D01*
X10546267Y-3346699D01*
X10553249Y-3346459D01*
X10559253Y-3350032D01*
X10562373Y-3356284D01*
X10561617Y-3363230D01*
X10558935Y-3367238D01*
X10154698Y-3771475D01*
X10148566Y-3774824D01*
X10141597Y-3774325D01*
X10136003Y-3770138D01*
X10133562Y-3763592D01*
X10133530Y-3762707D01*
X10133530Y-3690440D01*
X10133530Y-3690438D01*
X10132480Y-3680160D01*
X10132480Y-3680160D01*
X10131660Y-3677685D01*
X10126961Y-3663507D01*
X10117751Y-3648574D01*
X10105346Y-3636169D01*
X10095974Y-3630388D01*
X10090414Y-3626959D01*
X10090413Y-3626958D01*
X10085806Y-3625432D01*
X10073760Y-3621440D01*
X10073760Y-3621440D01*
X10063482Y-3620390D01*
X10063481Y-3620390D01*
X9904703Y-3620390D01*
X9897999Y-3618421D01*
X9895935Y-3616758D01*
X9639855Y-3360678D01*
X9636506Y-3354546D01*
X9637005Y-3347577D01*
X9639855Y-3343142D01*
X9677745Y-3305252D01*
X9677745Y-3305252D01*
X9684505Y-3295135D01*
X9685958Y-3292959D01*
X9691616Y-3279301D01*
X9693397Y-3270345D01*
X9694820Y-3266565D01*
X9702168Y-3253838D01*
X9708017Y-3235836D01*
X9709996Y-3217010D01*
X9709127Y-3208746D01*
X9710384Y-3201873D01*
X9715158Y-3196771D01*
X9721460Y-3195050D01*
X9766030Y-3195050D01*
X9772734Y-3197018D01*
X9777310Y-3202299D01*
X9778430Y-3207450D01*
X9778430Y-3235442D01*
X9779480Y-3245720D01*
X9779480Y-3245720D01*
X9784999Y-3262373D01*
X9784999Y-3262374D01*
X9785828Y-3263718D01*
X9794209Y-3277306D01*
X9806614Y-3289711D01*
X9821547Y-3298921D01*
X9838200Y-3304440D01*
X9848479Y-3305490D01*
X10063481Y-3305490D01*
X10073760Y-3304440D01*
X10090413Y-3298921D01*
X10105346Y-3289711D01*
X10117751Y-3277306D01*
X10126961Y-3262373D01*
X10132480Y-3245720D01*
X10133530Y-3235441D01*
X10133530Y-3050439D01*
X10132480Y-3040160D01*
X10126961Y-3023507D01*
X10117751Y-3008574D01*
X10105346Y-2996169D01*
X10094358Y-2989391D01*
X10090414Y-2986959D01*
X10090413Y-2986958D01*
X10087667Y-2986048D01*
X10073760Y-2981440D01*
X10073760Y-2981440D01*
X10063481Y-2980390D01*
X9848480Y-2980390D01*
X9848478Y-2980390D01*
X9838200Y-2981440D01*
X9838200Y-2981440D01*
X9821547Y-2986958D01*
X9821546Y-2986959D01*
X9806614Y-2996169D01*
X9794209Y-3008574D01*
X9784999Y-3023506D01*
X9784999Y-3023507D01*
X9780709Y-3036450D01*
X9776732Y-3042195D01*
X9770281Y-3044877D01*
X9768939Y-3044950D01*
X9595260Y-3044950D01*
X9588557Y-3042981D01*
X9584707Y-3039060D01*
X9583557Y-3037196D01*
X9582442Y-3036081D01*
X9579093Y-3029948D01*
X9578810Y-3027313D01*
X9578810Y-2746653D01*
X9580779Y-2739949D01*
X9582442Y-2737885D01*
X9646337Y-2673990D01*
X9652469Y-2670641D01*
X9652503Y-2670634D01*
X9659040Y-2669244D01*
X9676333Y-2661545D01*
X9691647Y-2650419D01*
X9704313Y-2636352D01*
X9713778Y-2619958D01*
X9719627Y-2601956D01*
X9721606Y-2583130D01*
X9719627Y-2564304D01*
X9713778Y-2546302D01*
X9704313Y-2529908D01*
X9691647Y-2515841D01*
X9691647Y-2515841D01*
X9676333Y-2504715D01*
X9676333Y-2504715D01*
X9659041Y-2497016D01*
X9659040Y-2497016D01*
X9644460Y-2493917D01*
X9640525Y-2493080D01*
X9621595Y-2493080D01*
X9618350Y-2493770D01*
X9603080Y-2497016D01*
X9603079Y-2497016D01*
X9585787Y-2504715D01*
X9585787Y-2504715D01*
X9570473Y-2515841D01*
X9557807Y-2529909D01*
X9548342Y-2546302D01*
X9548342Y-2546302D01*
X9542808Y-2563334D01*
X9539783Y-2568270D01*
X9484835Y-2623218D01*
X9478703Y-2626567D01*
X9476067Y-2626850D01*
X8909504Y-2626850D01*
X8902800Y-2624882D01*
X8902215Y-2624482D01*
X8900843Y-2623485D01*
X8900843Y-2623485D01*
X8883551Y-2615786D01*
X8883550Y-2615786D01*
X8868970Y-2612687D01*
X8865035Y-2611850D01*
X8846105Y-2611850D01*
X8842860Y-2612540D01*
X8827590Y-2615786D01*
X8827589Y-2615786D01*
X8810297Y-2623485D01*
X8810297Y-2623485D01*
X8794983Y-2634611D01*
X8782317Y-2648679D01*
X8772852Y-2665072D01*
X8772852Y-2665072D01*
X8767670Y-2681020D01*
X8767003Y-2683074D01*
X8765024Y-2701900D01*
X8767003Y-2720726D01*
X8767145Y-2721163D01*
X8772852Y-2738728D01*
X8772852Y-2738728D01*
X8782317Y-2755122D01*
X8791999Y-2765875D01*
X8794983Y-2769189D01*
X8810297Y-2780315D01*
X8810297Y-2780315D01*
X8827589Y-2788014D01*
X8827590Y-2788014D01*
X8846105Y-2791950D01*
X8846106Y-2791950D01*
X8865034Y-2791950D01*
X8865035Y-2791950D01*
X8883550Y-2788014D01*
X8900843Y-2780315D01*
X8901048Y-2780166D01*
X8902215Y-2779318D01*
X8908796Y-2776970D01*
X8909504Y-2776950D01*
X9416310Y-2776950D01*
X9423014Y-2778919D01*
X9427589Y-2784199D01*
X9428710Y-2789350D01*
X9428710Y-3027313D01*
X9426742Y-3034016D01*
X9425078Y-3036081D01*
X9423963Y-3037195D01*
X9423963Y-3037196D01*
X9415060Y-3051629D01*
X9415060Y-3051630D01*
X9409725Y-3067729D01*
X9408710Y-3077665D01*
X9408710Y-3162334D01*
X9408710Y-3162335D01*
X9409725Y-3172271D01*
X9409725Y-3172271D01*
X9415060Y-3188369D01*
X9415060Y-3188370D01*
X9423963Y-3202804D01*
X9423963Y-3202804D01*
X9435956Y-3214797D01*
X9435956Y-3214797D01*
X9450389Y-3223700D01*
X9450390Y-3223700D01*
X9450390Y-3223700D01*
X9466489Y-3229035D01*
X9476426Y-3230050D01*
X9510737Y-3230050D01*
X9517441Y-3232018D01*
X9522016Y-3237299D01*
X9523011Y-3244215D01*
X9520108Y-3250570D01*
X9519505Y-3251218D01*
X9497495Y-3273228D01*
X9491363Y-3276577D01*
X9488727Y-3276860D01*
X8241915Y-3276860D01*
X8235211Y-3274891D01*
X8230904Y-3269920D01*
X8230835Y-3269957D01*
X8230673Y-3269654D01*
X8230636Y-3269611D01*
X8230572Y-3269466D01*
X8230548Y-3269420D01*
X8227259Y-3264497D01*
X8227258Y-3264497D01*
X8222336Y-3257129D01*
X8222335Y-3257128D01*
X8181425Y-3216218D01*
X8178076Y-3210086D01*
X8178575Y-3203117D01*
X8182762Y-3197523D01*
X8189308Y-3195082D01*
X8190193Y-3195050D01*
X9082260Y-3195050D01*
X9088964Y-3197018D01*
X9092814Y-3200940D01*
X9093963Y-3202804D01*
X9105956Y-3214797D01*
X9105956Y-3214797D01*
X9120389Y-3223700D01*
X9120390Y-3223700D01*
X9120390Y-3223700D01*
X9136489Y-3229035D01*
X9146426Y-3230050D01*
X9201094Y-3230050D01*
X9201095Y-3230050D01*
X9201096Y-3230050D01*
X9206536Y-3229494D01*
X9211031Y-3229035D01*
X9227130Y-3223700D01*
X9241564Y-3214797D01*
X9253557Y-3202804D01*
X9262460Y-3188370D01*
X9267795Y-3172271D01*
X9268810Y-3162334D01*
X9268810Y-3077666D01*
X9268330Y-3072963D01*
X9267795Y-3067729D01*
X9267795Y-3067729D01*
X9262460Y-3051630D01*
X9262460Y-3051630D01*
X9262460Y-3051629D01*
X9253557Y-3037196D01*
X9253557Y-3037195D01*
X9241564Y-3025203D01*
X9241564Y-3025203D01*
X9227131Y-3016300D01*
X9227130Y-3016300D01*
X9227130Y-3016300D01*
X9219013Y-3013610D01*
X9211031Y-3010965D01*
X9201095Y-3009950D01*
X9146426Y-3009950D01*
X9146424Y-3009950D01*
X9136489Y-3010965D01*
X9136489Y-3010965D01*
X9120391Y-3016300D01*
X9120389Y-3016300D01*
X9105956Y-3025203D01*
X9105956Y-3025203D01*
X9093963Y-3037196D01*
X9092814Y-3039060D01*
X9087619Y-3043732D01*
X9082260Y-3044950D01*
X8169031Y-3044950D01*
X8162327Y-3042981D01*
X8159151Y-3040042D01*
X8159130Y-3040016D01*
X8153521Y-3032619D01*
X8146453Y-3027259D01*
X8141639Y-3023608D01*
X8141638Y-3023608D01*
X8127766Y-3018137D01*
X8127765Y-3018137D01*
X8119047Y-3017090D01*
X8119047Y-3017090D01*
X8107950Y-3017090D01*
X8101246Y-3015121D01*
X8096671Y-3009841D01*
X8095550Y-3004690D01*
X8095550Y-2950963D01*
X8097518Y-2944259D01*
X8099181Y-2942195D01*
X8114365Y-2927012D01*
X8119498Y-2919329D01*
X8122578Y-2914719D01*
X8128236Y-2901061D01*
X8129869Y-2892849D01*
X8130595Y-2889201D01*
X8133834Y-2883010D01*
X8139905Y-2879552D01*
X8142757Y-2879220D01*
X8150387Y-2879220D01*
X8150387Y-2879220D01*
X8156348Y-2878579D01*
X8169833Y-2873550D01*
X8181355Y-2864925D01*
X8189980Y-2853403D01*
X8195009Y-2839918D01*
X8195650Y-2833957D01*
X8195650Y-2143690D01*
X8412298Y-2143690D01*
X8412298Y-2143690D01*
X8414223Y-2165696D01*
X8414223Y-2165697D01*
X8419940Y-2187035D01*
X8419941Y-2187035D01*
X8419941Y-2187035D01*
X8426809Y-2201765D01*
X8429277Y-2207056D01*
X8429277Y-2207057D01*
X8441947Y-2225152D01*
X8441948Y-2225152D01*
X8457568Y-2240772D01*
X8457568Y-2240773D01*
X8475663Y-2253443D01*
X8475664Y-2253443D01*
X8475664Y-2253443D01*
X8495685Y-2262779D01*
X8517023Y-2268497D01*
X8532742Y-2269872D01*
X8539030Y-2270422D01*
X8539030Y-2270422D01*
X8539030Y-2270422D01*
X8544532Y-2269941D01*
X8561037Y-2268497D01*
X8582375Y-2262779D01*
X8602396Y-2253443D01*
X8620492Y-2240773D01*
X8630262Y-2231003D01*
X8636394Y-2227654D01*
X8643363Y-2228153D01*
X8647798Y-2231003D01*
X8657568Y-2240772D01*
X8657568Y-2240773D01*
X8675663Y-2253443D01*
X8675664Y-2253443D01*
X8675664Y-2253443D01*
X8693734Y-2261870D01*
X8698978Y-2266487D01*
X8700894Y-2273206D01*
X8700826Y-2274404D01*
X8699412Y-2287855D01*
X8699084Y-2290980D01*
X8701063Y-2309806D01*
X8701063Y-2309806D01*
X8706912Y-2327808D01*
X8706912Y-2327808D01*
X8716377Y-2344202D01*
X8721872Y-2350304D01*
X8729043Y-2358269D01*
X8744357Y-2369395D01*
X8744357Y-2369395D01*
X8761649Y-2377094D01*
X8761650Y-2377094D01*
X8780165Y-2381030D01*
X8780166Y-2381030D01*
X8799094Y-2381030D01*
X8799095Y-2381030D01*
X8817610Y-2377094D01*
X8834903Y-2369395D01*
X8836157Y-2368484D01*
X8836275Y-2368398D01*
X8842856Y-2366050D01*
X8843564Y-2366030D01*
X10512247Y-2366030D01*
X10518951Y-2367999D01*
X10521015Y-2369662D01*
X10629183Y-2477830D01*
X10632208Y-2482766D01*
X10637742Y-2499798D01*
X10637742Y-2499798D01*
X10647207Y-2516192D01*
X10659557Y-2529908D01*
X10659873Y-2530259D01*
X10675187Y-2541385D01*
X10675187Y-2541385D01*
X10692479Y-2549084D01*
X10692480Y-2549084D01*
X10710995Y-2553020D01*
X10710996Y-2553020D01*
X10729924Y-2553020D01*
X10729925Y-2553020D01*
X10748440Y-2549084D01*
X10765733Y-2541385D01*
X10781047Y-2530259D01*
X10793713Y-2516192D01*
X10803178Y-2499798D01*
X10809027Y-2481796D01*
X10811006Y-2462970D01*
X10809027Y-2444144D01*
X10803178Y-2426142D01*
X10793713Y-2409748D01*
X10781047Y-2395681D01*
X10780565Y-2395331D01*
X10765733Y-2384555D01*
X10765733Y-2384555D01*
X10748441Y-2376856D01*
X10748440Y-2376856D01*
X10741927Y-2375471D01*
X10735779Y-2372152D01*
X10735737Y-2372110D01*
X10621214Y-2257587D01*
X10617865Y-2251455D01*
X10618364Y-2244486D01*
X10621214Y-2240051D01*
X10630262Y-2231003D01*
X10636394Y-2227654D01*
X10643363Y-2228153D01*
X10647798Y-2231003D01*
X10657568Y-2240772D01*
X10657568Y-2240773D01*
X10675663Y-2253443D01*
X10675664Y-2253443D01*
X10675664Y-2253443D01*
X10695685Y-2262779D01*
X10717023Y-2268497D01*
X10732742Y-2269872D01*
X10739030Y-2270422D01*
X10739030Y-2270422D01*
X10739030Y-2270422D01*
X10744532Y-2269941D01*
X10761037Y-2268497D01*
X10782375Y-2262779D01*
X10802396Y-2253443D01*
X10820492Y-2240773D01*
X10836113Y-2225152D01*
X10848783Y-2207056D01*
X10858119Y-2187035D01*
X10863837Y-2165697D01*
X10865762Y-2143690D01*
X10863837Y-2121683D01*
X10858119Y-2100345D01*
X10848783Y-2080324D01*
X10836113Y-2062228D01*
X10820492Y-2046607D01*
X10820492Y-2046607D01*
X10820492Y-2046607D01*
X10802397Y-2033937D01*
X10802396Y-2033937D01*
X10794943Y-2030461D01*
X10782375Y-2024601D01*
X10782375Y-2024600D01*
X10782375Y-2024600D01*
X10761037Y-2018883D01*
X10761036Y-2018883D01*
X10739030Y-2016958D01*
X10739030Y-2016958D01*
X10717024Y-2018883D01*
X10717023Y-2018883D01*
X10695685Y-2024600D01*
X10695685Y-2024601D01*
X10675664Y-2033936D01*
X10675664Y-2033937D01*
X10657568Y-2046607D01*
X10647798Y-2056377D01*
X10641666Y-2059726D01*
X10634697Y-2059227D01*
X10630262Y-2056377D01*
X10620492Y-2046608D01*
X10620492Y-2046607D01*
X10620492Y-2046607D01*
X10620492Y-2046607D01*
X10620491Y-2046607D01*
X10619368Y-2045820D01*
X10615005Y-2040362D01*
X10614080Y-2035663D01*
X10614080Y-1806738D01*
X10611196Y-1792239D01*
X10611196Y-1792239D01*
X10611196Y-1792239D01*
X10605841Y-1779310D01*
X10605539Y-1778581D01*
X10605538Y-1778580D01*
X10597325Y-1766288D01*
X10597325Y-1766288D01*
X10594860Y-1763823D01*
X10591512Y-1757691D01*
X10591779Y-1751400D01*
X10591901Y-1751003D01*
X10591902Y-1751002D01*
X10597740Y-1725423D01*
X10598121Y-1720342D01*
X10599701Y-1699260D01*
X10599701Y-1699259D01*
X10597740Y-1673098D01*
X10597740Y-1673097D01*
X10597740Y-1673097D01*
X10591902Y-1647518D01*
X10582317Y-1623096D01*
X10569199Y-1600374D01*
X10552841Y-1579862D01*
X10552840Y-1579862D01*
X10552840Y-1579861D01*
X10533608Y-1562017D01*
X10522903Y-1554718D01*
X10511930Y-1547237D01*
X10511930Y-1547237D01*
X10511930Y-1547237D01*
X10511930Y-1547237D01*
X10488293Y-1535854D01*
X10488293Y-1535854D01*
X10463222Y-1528121D01*
X10463222Y-1528120D01*
X10463222Y-1528120D01*
X10450742Y-1526239D01*
X10437279Y-1524210D01*
X10437278Y-1524210D01*
X10411042Y-1524210D01*
X10411041Y-1524210D01*
X10394885Y-1526645D01*
X10385099Y-1528120D01*
X10385098Y-1528120D01*
X10385098Y-1528121D01*
X10360027Y-1535854D01*
X10336390Y-1547237D01*
X10336390Y-1547237D01*
X10314712Y-1562017D01*
X10295480Y-1579861D01*
X10279121Y-1600374D01*
X10266003Y-1623096D01*
X10256418Y-1647518D01*
X10256418Y-1647520D01*
X10250580Y-1673097D01*
X10250580Y-1673098D01*
X10248619Y-1699259D01*
X10248619Y-1699260D01*
X10250580Y-1725422D01*
X10250580Y-1725422D01*
X10256418Y-1751000D01*
X10256418Y-1751001D01*
X10256418Y-1751002D01*
X10266003Y-1775424D01*
X10279121Y-1798146D01*
X10285974Y-1806738D01*
X10295480Y-1818658D01*
X10309237Y-1831423D01*
X10314712Y-1836503D01*
X10336390Y-1851283D01*
X10336390Y-1851283D01*
X10336390Y-1851283D01*
X10336390Y-1851283D01*
X10348944Y-1857329D01*
X10360027Y-1862666D01*
X10360027Y-1862666D01*
X10360028Y-1862666D01*
X10385099Y-1870400D01*
X10411042Y-1874310D01*
X10437278Y-1874310D01*
X10449732Y-1872433D01*
X10456654Y-1873380D01*
X10461966Y-1877919D01*
X10463980Y-1884610D01*
X10463980Y-1884694D01*
X10463980Y-2035663D01*
X10462012Y-2042366D01*
X10458693Y-2045820D01*
X10457569Y-2046607D01*
X10457568Y-2046607D01*
X10441947Y-2062228D01*
X10429277Y-2080324D01*
X10429277Y-2080324D01*
X10419941Y-2100345D01*
X10419940Y-2100345D01*
X10414223Y-2121683D01*
X10414223Y-2121684D01*
X10412298Y-2143690D01*
X10412298Y-2143690D01*
X10414223Y-2165696D01*
X10414223Y-2165697D01*
X10419940Y-2187035D01*
X10419941Y-2187035D01*
X10419941Y-2187035D01*
X10425189Y-2198290D01*
X10426238Y-2205197D01*
X10423386Y-2211576D01*
X10417538Y-2215400D01*
X10413951Y-2215930D01*
X10264110Y-2215930D01*
X10257406Y-2213962D01*
X10252830Y-2208681D01*
X10251836Y-2201765D01*
X10252871Y-2198290D01*
X10258119Y-2187035D01*
X10263837Y-2165697D01*
X10265762Y-2143690D01*
X10263837Y-2121683D01*
X10258119Y-2100345D01*
X10248783Y-2080324D01*
X10236113Y-2062228D01*
X10220492Y-2046607D01*
X10220492Y-2046607D01*
X10220492Y-2046607D01*
X10202397Y-2033937D01*
X10202396Y-2033937D01*
X10194943Y-2030461D01*
X10182375Y-2024601D01*
X10182375Y-2024600D01*
X10182375Y-2024600D01*
X10161037Y-2018883D01*
X10161036Y-2018883D01*
X10139030Y-2016958D01*
X10139030Y-2016958D01*
X10117024Y-2018883D01*
X10117023Y-2018883D01*
X10095685Y-2024600D01*
X10095685Y-2024601D01*
X10075664Y-2033936D01*
X10075664Y-2033937D01*
X10057568Y-2046607D01*
X10047798Y-2056377D01*
X10041666Y-2059726D01*
X10034697Y-2059227D01*
X10030262Y-2056377D01*
X10020492Y-2046607D01*
X10020492Y-2046607D01*
X10002397Y-2033937D01*
X10002396Y-2033937D01*
X9994943Y-2030461D01*
X9982375Y-2024601D01*
X9982375Y-2024600D01*
X9982375Y-2024600D01*
X9961037Y-2018883D01*
X9961036Y-2018883D01*
X9939030Y-2016958D01*
X9939030Y-2016958D01*
X9917024Y-2018883D01*
X9917023Y-2018883D01*
X9895685Y-2024600D01*
X9895685Y-2024601D01*
X9875664Y-2033936D01*
X9875664Y-2033937D01*
X9857568Y-2046607D01*
X9847798Y-2056377D01*
X9841666Y-2059726D01*
X9834697Y-2059227D01*
X9830262Y-2056377D01*
X9820492Y-2046607D01*
X9820492Y-2046607D01*
X9802397Y-2033937D01*
X9802396Y-2033937D01*
X9794943Y-2030461D01*
X9782375Y-2024601D01*
X9782375Y-2024600D01*
X9782375Y-2024600D01*
X9761037Y-2018883D01*
X9761036Y-2018883D01*
X9739030Y-2016958D01*
X9739030Y-2016958D01*
X9717024Y-2018883D01*
X9717023Y-2018883D01*
X9695685Y-2024600D01*
X9695685Y-2024601D01*
X9675664Y-2033936D01*
X9675664Y-2033937D01*
X9657568Y-2046607D01*
X9641948Y-2062228D01*
X9629277Y-2080324D01*
X9622796Y-2094222D01*
X9620326Y-2097750D01*
X9577130Y-2140945D01*
X9577130Y-2138674D01*
X9574534Y-2128984D01*
X9569518Y-2120296D01*
X9562424Y-2113202D01*
X9553736Y-2108186D01*
X9544046Y-2105590D01*
X9541775Y-2105590D01*
X9608849Y-2038516D01*
X9608849Y-2038516D01*
X9602371Y-2033980D01*
X9602371Y-2033980D01*
X9582358Y-2024648D01*
X9582357Y-2024647D01*
X9561029Y-2018933D01*
X9561028Y-2018932D01*
X9539030Y-2017008D01*
X9539030Y-2017008D01*
X9517032Y-2018932D01*
X9517031Y-2018933D01*
X9495703Y-2024647D01*
X9495702Y-2024648D01*
X9475689Y-2033980D01*
X9469211Y-2038516D01*
X9536285Y-2105590D01*
X9534014Y-2105590D01*
X9524324Y-2108186D01*
X9515636Y-2113202D01*
X9508542Y-2120296D01*
X9503526Y-2128984D01*
X9500930Y-2138674D01*
X9500930Y-2140945D01*
X9457734Y-2097749D01*
X9455264Y-2094222D01*
X9448783Y-2080324D01*
X9436113Y-2062228D01*
X9420492Y-2046607D01*
X9420492Y-2046607D01*
X9420492Y-2046607D01*
X9402397Y-2033937D01*
X9402396Y-2033937D01*
X9394943Y-2030461D01*
X9382375Y-2024601D01*
X9382375Y-2024600D01*
X9382375Y-2024600D01*
X9361037Y-2018883D01*
X9361036Y-2018883D01*
X9339030Y-2016958D01*
X9339030Y-2016958D01*
X9317024Y-2018883D01*
X9317023Y-2018883D01*
X9295685Y-2024600D01*
X9295685Y-2024601D01*
X9275664Y-2033936D01*
X9275664Y-2033937D01*
X9257568Y-2046607D01*
X9247798Y-2056377D01*
X9241666Y-2059726D01*
X9234697Y-2059227D01*
X9230262Y-2056377D01*
X9220492Y-2046607D01*
X9220492Y-2046607D01*
X9202397Y-2033937D01*
X9202396Y-2033937D01*
X9194943Y-2030461D01*
X9182375Y-2024601D01*
X9182375Y-2024600D01*
X9182375Y-2024600D01*
X9161037Y-2018883D01*
X9161036Y-2018883D01*
X9139030Y-2016958D01*
X9139030Y-2016958D01*
X9117024Y-2018883D01*
X9117023Y-2018883D01*
X9095685Y-2024600D01*
X9095685Y-2024601D01*
X9075664Y-2033936D01*
X9075664Y-2033937D01*
X9057568Y-2046607D01*
X9047798Y-2056377D01*
X9041666Y-2059726D01*
X9034697Y-2059227D01*
X9030262Y-2056377D01*
X9020492Y-2046607D01*
X9020492Y-2046607D01*
X9002397Y-2033937D01*
X9002396Y-2033937D01*
X8994943Y-2030461D01*
X8982375Y-2024601D01*
X8982375Y-2024600D01*
X8982375Y-2024600D01*
X8961037Y-2018883D01*
X8961036Y-2018883D01*
X8939030Y-2016958D01*
X8939030Y-2016958D01*
X8917024Y-2018883D01*
X8917023Y-2018883D01*
X8895685Y-2024600D01*
X8895685Y-2024601D01*
X8875664Y-2033936D01*
X8875664Y-2033937D01*
X8857568Y-2046607D01*
X8847798Y-2056377D01*
X8841666Y-2059726D01*
X8834697Y-2059227D01*
X8830262Y-2056377D01*
X8820492Y-2046607D01*
X8820492Y-2046607D01*
X8802397Y-2033937D01*
X8802396Y-2033937D01*
X8794943Y-2030461D01*
X8782375Y-2024601D01*
X8782375Y-2024600D01*
X8782375Y-2024600D01*
X8761037Y-2018883D01*
X8761036Y-2018883D01*
X8739030Y-2016958D01*
X8739030Y-2016958D01*
X8717024Y-2018883D01*
X8717023Y-2018883D01*
X8695685Y-2024600D01*
X8695685Y-2024601D01*
X8675664Y-2033936D01*
X8675664Y-2033937D01*
X8657568Y-2046607D01*
X8647798Y-2056377D01*
X8641666Y-2059726D01*
X8634697Y-2059227D01*
X8630262Y-2056377D01*
X8620492Y-2046607D01*
X8620492Y-2046607D01*
X8602397Y-2033937D01*
X8602396Y-2033937D01*
X8594943Y-2030461D01*
X8582375Y-2024601D01*
X8582375Y-2024600D01*
X8582375Y-2024600D01*
X8561037Y-2018883D01*
X8561036Y-2018883D01*
X8539030Y-2016958D01*
X8539030Y-2016958D01*
X8517024Y-2018883D01*
X8517023Y-2018883D01*
X8495685Y-2024600D01*
X8495685Y-2024601D01*
X8475664Y-2033936D01*
X8475664Y-2033937D01*
X8457568Y-2046607D01*
X8441948Y-2062228D01*
X8429277Y-2080324D01*
X8429277Y-2080324D01*
X8419941Y-2100345D01*
X8419940Y-2100345D01*
X8414223Y-2121683D01*
X8414223Y-2121684D01*
X8412298Y-2143690D01*
X8195650Y-2143690D01*
X8195650Y-2075083D01*
X8195009Y-2069122D01*
X8193992Y-2066394D01*
X8189980Y-2055637D01*
X8189979Y-2055636D01*
X8181355Y-2044115D01*
X8181354Y-2044115D01*
X8169833Y-2035491D01*
X8169833Y-2035490D01*
X8156348Y-2030461D01*
X8156348Y-2030461D01*
X8150388Y-2029820D01*
X8150388Y-2029820D01*
X8150387Y-2029820D01*
X8150386Y-2029820D01*
X7961743Y-2029820D01*
X7961742Y-2029820D01*
X7955782Y-2030461D01*
X7942297Y-2035490D01*
X7942296Y-2035491D01*
X7930776Y-2044115D01*
X7930775Y-2044115D01*
X7930547Y-2044421D01*
X7930241Y-2044649D01*
X7930148Y-2044743D01*
X7930134Y-2044729D01*
X7924954Y-2048608D01*
X7920620Y-2049390D01*
X7631440Y-2049390D01*
X7624736Y-2047421D01*
X7621513Y-2044421D01*
X7621285Y-2044115D01*
X7621284Y-2044115D01*
X7609763Y-2035491D01*
X7609763Y-2035490D01*
X7596278Y-2030461D01*
X7596278Y-2030461D01*
X7590318Y-2029820D01*
X7590318Y-2029820D01*
X7590317Y-2029820D01*
X7590316Y-2029820D01*
X7401673Y-2029820D01*
X7401672Y-2029820D01*
X7395712Y-2030461D01*
X7382227Y-2035490D01*
X7382226Y-2035491D01*
X7370705Y-2044115D01*
X7370705Y-2044115D01*
X7362081Y-2055636D01*
X7362080Y-2055637D01*
X7357051Y-2069122D01*
X7356410Y-2075082D01*
X7356410Y-2075082D01*
X7356410Y-2075083D01*
X7356410Y-2833957D01*
X7356410Y-2833958D01*
X7357051Y-2839918D01*
X7362080Y-2853403D01*
X7362081Y-2853403D01*
X7370705Y-2864924D01*
X7370705Y-2864924D01*
X7370705Y-2864925D01*
X7377923Y-2870328D01*
X7382110Y-2875921D01*
X7382609Y-2882890D01*
X7379260Y-2889023D01*
X6954561Y-3313722D01*
X6948428Y-3317071D01*
X6941892Y-3316725D01*
X6941754Y-3316679D01*
X6941753Y-3316679D01*
X6925100Y-3311160D01*
X6925099Y-3311160D01*
X6914821Y-3310110D01*
X6824820Y-3310110D01*
X6824818Y-3310110D01*
X6814540Y-3311160D01*
X6814540Y-3311160D01*
X6797887Y-3316678D01*
X6797886Y-3316679D01*
X6782954Y-3325889D01*
X6770549Y-3338294D01*
X6761339Y-3353226D01*
X6761338Y-3353227D01*
X6759328Y-3359294D01*
X6755820Y-3369880D01*
X6755820Y-3369880D01*
X6755820Y-3369880D01*
X6754770Y-3380158D01*
X6754770Y-3515160D01*
X6754770Y-3515161D01*
X6755820Y-3525440D01*
X6755820Y-3525440D01*
X6761338Y-3542093D01*
X6761339Y-3542094D01*
X6764144Y-3546641D01*
X6770549Y-3557026D01*
X6782954Y-3569431D01*
X6797887Y-3578641D01*
X6814540Y-3584160D01*
X6824819Y-3585210D01*
X6860952Y-3585210D01*
X6867656Y-3587178D01*
X6872072Y-3592274D01*
X6872095Y-3592262D01*
X6872147Y-3592361D01*
X6872232Y-3592459D01*
X6872374Y-3592785D01*
X6872382Y-3592800D01*
X6872746Y-3593344D01*
X6874518Y-3595997D01*
X6874518Y-3595997D01*
X6880595Y-3605091D01*
X6880595Y-3605092D01*
X6917505Y-3642002D01*
X6920853Y-3648134D01*
X6920355Y-3655103D01*
X6916168Y-3660697D01*
X6909621Y-3663138D01*
X6908737Y-3663170D01*
X6827360Y-3663170D01*
X6827358Y-3663170D01*
X6817080Y-3664220D01*
X6817080Y-3664220D01*
X6800427Y-3669738D01*
X6800426Y-3669739D01*
X6785494Y-3678949D01*
X6773089Y-3691354D01*
X6772789Y-3691840D01*
X6767595Y-3696512D01*
X6762236Y-3697730D01*
X6605050Y-3697730D01*
X6598346Y-3695761D01*
X6593770Y-3690481D01*
X6592650Y-3685330D01*
X6592650Y-3680280D01*
X6592650Y-3680278D01*
X6591600Y-3670000D01*
X6591600Y-3670000D01*
X6591170Y-3668703D01*
X6586081Y-3653347D01*
X6576871Y-3638414D01*
X6564466Y-3626009D01*
X6549533Y-3616799D01*
X6532880Y-3611280D01*
X6532879Y-3611280D01*
X6522601Y-3610230D01*
X6307600Y-3610230D01*
X6307598Y-3610230D01*
X6297320Y-3611280D01*
X6297320Y-3611280D01*
X6280667Y-3616798D01*
X6280666Y-3616799D01*
X6265734Y-3626009D01*
X6253329Y-3638414D01*
X6244119Y-3653346D01*
X6244118Y-3653347D01*
X6241934Y-3659940D01*
X6238600Y-3670000D01*
X6238600Y-3670000D01*
X6238600Y-3670000D01*
X6237550Y-3680278D01*
X6237550Y-3685330D01*
X6235581Y-3692034D01*
X6230301Y-3696609D01*
X6225150Y-3697730D01*
X5610296Y-3697730D01*
X5603592Y-3695761D01*
X5599016Y-3690481D01*
X5598022Y-3683565D01*
X5598525Y-3681430D01*
X5599347Y-3678949D01*
X5602240Y-3670220D01*
X5603290Y-3659941D01*
X5603290Y-3524939D01*
X5602552Y-3517719D01*
X5602240Y-3514660D01*
X5602240Y-3514660D01*
X5601100Y-3511221D01*
X5596721Y-3498007D01*
X5587511Y-3483074D01*
X5575106Y-3470669D01*
X5575106Y-3470669D01*
X5569180Y-3467014D01*
X5564508Y-3461819D01*
X5563290Y-3456460D01*
X5563290Y-3376862D01*
X5565259Y-3370158D01*
X5569181Y-3366308D01*
X5577520Y-3361164D01*
X5577606Y-3361111D01*
X5590011Y-3348706D01*
X5599221Y-3333773D01*
X5604740Y-3317120D01*
X5605790Y-3306841D01*
X5605790Y-3225279D01*
X6237600Y-3225279D01*
X6238649Y-3235550D01*
X6244164Y-3252192D01*
X6244164Y-3252192D01*
X6253368Y-3267114D01*
X6265765Y-3279511D01*
X6280687Y-3288716D01*
X6280688Y-3288716D01*
X6297330Y-3294230D01*
X6297331Y-3294231D01*
X6307602Y-3295280D01*
X6390100Y-3295280D01*
X6440100Y-3295280D01*
X6522597Y-3295280D01*
X6522599Y-3295280D01*
X6532870Y-3294230D01*
X6549512Y-3288716D01*
X6549512Y-3288716D01*
X6564434Y-3279511D01*
X6576831Y-3267114D01*
X6586036Y-3252192D01*
X6586036Y-3252192D01*
X6591550Y-3235550D01*
X6591551Y-3235549D01*
X6592600Y-3225279D01*
X6592600Y-3225277D01*
X6592600Y-3157780D01*
X6440100Y-3157780D01*
X6440100Y-3295280D01*
X6390100Y-3295280D01*
X6390100Y-3295280D01*
X6390100Y-3157780D01*
X6237600Y-3157780D01*
X6237600Y-3225279D01*
X5605790Y-3225279D01*
X5605790Y-3166839D01*
X5605591Y-3164891D01*
X5604740Y-3156560D01*
X5604740Y-3156560D01*
X5604071Y-3154541D01*
X5599221Y-3139907D01*
X5590011Y-3124974D01*
X5577606Y-3112569D01*
X5577606Y-3112569D01*
X5570430Y-3108143D01*
X5565758Y-3102948D01*
X5564540Y-3097589D01*
X5564540Y-3040281D01*
X6237600Y-3040281D01*
X6237600Y-3107780D01*
X6390100Y-3107780D01*
X6440100Y-3107780D01*
X6592600Y-3107780D01*
X6592600Y-3040283D01*
X6592600Y-3040281D01*
X6591550Y-3030010D01*
X6586036Y-3013368D01*
X6586036Y-3013367D01*
X6576831Y-2998445D01*
X6564434Y-2986048D01*
X6549512Y-2976844D01*
X6549512Y-2976844D01*
X6532870Y-2971329D01*
X6532869Y-2971329D01*
X6522599Y-2970280D01*
X6440100Y-2970280D01*
X6440100Y-3107780D01*
X6390100Y-3107780D01*
X6390100Y-2970280D01*
X6307603Y-2970280D01*
X6307601Y-2970280D01*
X6297330Y-2971329D01*
X6280688Y-2976844D01*
X6280687Y-2976844D01*
X6265765Y-2986048D01*
X6253368Y-2998445D01*
X6244164Y-3013367D01*
X6244164Y-3013368D01*
X6238649Y-3030010D01*
X6238649Y-3030011D01*
X6237600Y-3040281D01*
X5564540Y-3040281D01*
X5564540Y-3018989D01*
X5566509Y-3012285D01*
X5570430Y-3008435D01*
X5575106Y-3005551D01*
X5587511Y-2993146D01*
X5596721Y-2978213D01*
X5602240Y-2961560D01*
X5603290Y-2951281D01*
X5603290Y-2881253D01*
X5605258Y-2874549D01*
X5606921Y-2872485D01*
X5757085Y-2722322D01*
X5763217Y-2718973D01*
X5765853Y-2718690D01*
X5815440Y-2718690D01*
X5815441Y-2718690D01*
X5825720Y-2717640D01*
X5842373Y-2712121D01*
X5857306Y-2702911D01*
X5869711Y-2690506D01*
X5878921Y-2675574D01*
X5879708Y-2673201D01*
X5883685Y-2667456D01*
X5890136Y-2664774D01*
X5897014Y-2666006D01*
X5900246Y-2668333D01*
X5957438Y-2725525D01*
X5960787Y-2731657D01*
X5961070Y-2734293D01*
X5961070Y-2818522D01*
X5962120Y-2828800D01*
X5967638Y-2845453D01*
X5967639Y-2845454D01*
X5971127Y-2851109D01*
X5976849Y-2860386D01*
X5989254Y-2872791D01*
X6004186Y-2882001D01*
X6020840Y-2887520D01*
X6031119Y-2888570D01*
X6031119Y-2888570D01*
X6143620Y-2888570D01*
X6143621Y-2888570D01*
X6153900Y-2887520D01*
X6170553Y-2882001D01*
X6185486Y-2872791D01*
X6197891Y-2860386D01*
X6207101Y-2845453D01*
X6212620Y-2828800D01*
X6213670Y-2818521D01*
X6213670Y-2818519D01*
X6428620Y-2818519D01*
X6429669Y-2828790D01*
X6429669Y-2828790D01*
X6435184Y-2845432D01*
X6435184Y-2845433D01*
X6444388Y-2860354D01*
X6444388Y-2860354D01*
X6456785Y-2872752D01*
X6456786Y-2872752D01*
X6471707Y-2881955D01*
X6471708Y-2881956D01*
X6488350Y-2887470D01*
X6498622Y-2888520D01*
X6529870Y-2888520D01*
X6579870Y-2888520D01*
X6611117Y-2888520D01*
X6611119Y-2888520D01*
X6621390Y-2887470D01*
X6621390Y-2887470D01*
X6638032Y-2881956D01*
X6638033Y-2881955D01*
X6652954Y-2872752D01*
X6652954Y-2872752D01*
X6665352Y-2860354D01*
X6665352Y-2860354D01*
X6674555Y-2845433D01*
X6674556Y-2845432D01*
X6680070Y-2828790D01*
X6681120Y-2818519D01*
X6681120Y-2818517D01*
X6681120Y-2731020D01*
X6579870Y-2731020D01*
X6579870Y-2888520D01*
X6529870Y-2888520D01*
X6529870Y-2888520D01*
X6529870Y-2731020D01*
X6428620Y-2731020D01*
X6428620Y-2818519D01*
X6213670Y-2818519D01*
X6213670Y-2593521D01*
X6428620Y-2593521D01*
X6428620Y-2681020D01*
X6529870Y-2681020D01*
X6579870Y-2681020D01*
X6681120Y-2681020D01*
X6681120Y-2593523D01*
X6681120Y-2593521D01*
X6680070Y-2583250D01*
X6680070Y-2583250D01*
X6674556Y-2566608D01*
X6674555Y-2566607D01*
X6665352Y-2551686D01*
X6665352Y-2551686D01*
X6652954Y-2539288D01*
X6652954Y-2539288D01*
X6638033Y-2530085D01*
X6638032Y-2530084D01*
X6621390Y-2524569D01*
X6611119Y-2523520D01*
X6579870Y-2523520D01*
X6579870Y-2681020D01*
X6529870Y-2681020D01*
X6529870Y-2523520D01*
X6498623Y-2523520D01*
X6498621Y-2523520D01*
X6488350Y-2524569D01*
X6488350Y-2524569D01*
X6471708Y-2530084D01*
X6471707Y-2530085D01*
X6456786Y-2539288D01*
X6456785Y-2539288D01*
X6444388Y-2551686D01*
X6444388Y-2551686D01*
X6435184Y-2566607D01*
X6435184Y-2566608D01*
X6429669Y-2583250D01*
X6428620Y-2593521D01*
X6213670Y-2593521D01*
X6213670Y-2593519D01*
X6212620Y-2583240D01*
X6207101Y-2566587D01*
X6197891Y-2551654D01*
X6185486Y-2539249D01*
X6170910Y-2530259D01*
X6170554Y-2530039D01*
X6170553Y-2530039D01*
X6170161Y-2529908D01*
X6153900Y-2524520D01*
X6153900Y-2524520D01*
X6143622Y-2523470D01*
X6143621Y-2523470D01*
X6031119Y-2523470D01*
X6031118Y-2523470D01*
X6020840Y-2524520D01*
X6020840Y-2524520D01*
X6012587Y-2527255D01*
X6004187Y-2530039D01*
X6004186Y-2530039D01*
X5994000Y-2536322D01*
X5987261Y-2538166D01*
X5980595Y-2536073D01*
X5978722Y-2534536D01*
X5889122Y-2444935D01*
X5885773Y-2438803D01*
X5885490Y-2436167D01*
X5885490Y-2151558D01*
X5961000Y-2151558D01*
X5961000Y-2376562D01*
X5962050Y-2386840D01*
X5967568Y-2403493D01*
X5967569Y-2403494D01*
X5969198Y-2406136D01*
X5976779Y-2418426D01*
X5989184Y-2430831D01*
X6004116Y-2440041D01*
X6020770Y-2445560D01*
X6031049Y-2446610D01*
X6031049Y-2446610D01*
X6143550Y-2446610D01*
X6143551Y-2446610D01*
X6153830Y-2445560D01*
X6170483Y-2440041D01*
X6185416Y-2430831D01*
X6197821Y-2418426D01*
X6205242Y-2406394D01*
X6210437Y-2401722D01*
X6216135Y-2400738D01*
X6216135Y-2400540D01*
X6235714Y-2400540D01*
X6235715Y-2400540D01*
X6254230Y-2396604D01*
X6271523Y-2388905D01*
X6286837Y-2377779D01*
X6299503Y-2363712D01*
X6308968Y-2347318D01*
X6314817Y-2329316D01*
X6316796Y-2310490D01*
X6314817Y-2291664D01*
X6308968Y-2273662D01*
X6299503Y-2257268D01*
X6286837Y-2243201D01*
X6285755Y-2242415D01*
X6271523Y-2232075D01*
X6271523Y-2232075D01*
X6254231Y-2224376D01*
X6254230Y-2224376D01*
X6239510Y-2221247D01*
X6235715Y-2220440D01*
X6226000Y-2220440D01*
X6219296Y-2218472D01*
X6214721Y-2213191D01*
X6213600Y-2208040D01*
X6213600Y-2151560D01*
X6213600Y-2151558D01*
X6212796Y-2143690D01*
X6212550Y-2141280D01*
X6207031Y-2124627D01*
X6197821Y-2109694D01*
X6185416Y-2097289D01*
X6170483Y-2088079D01*
X6153830Y-2082560D01*
X6153830Y-2082560D01*
X6143552Y-2081510D01*
X6143551Y-2081510D01*
X6031049Y-2081510D01*
X6031048Y-2081510D01*
X6020770Y-2082560D01*
X6020770Y-2082560D01*
X6014075Y-2084778D01*
X6004117Y-2088078D01*
X6004116Y-2088079D01*
X5989184Y-2097289D01*
X5976779Y-2109694D01*
X5967569Y-2124626D01*
X5967569Y-2124627D01*
X5962050Y-2141280D01*
X5962050Y-2141280D01*
X5962050Y-2141280D01*
X5961000Y-2151558D01*
X5885490Y-2151558D01*
X5885490Y-2148640D01*
X5885490Y-2148638D01*
X5885451Y-2148260D01*
X5884440Y-2138360D01*
X5878921Y-2121707D01*
X5869711Y-2106774D01*
X5857306Y-2094369D01*
X5847107Y-2088078D01*
X5842374Y-2085159D01*
X5842373Y-2085158D01*
X5839547Y-2084222D01*
X5825720Y-2079640D01*
X5825720Y-2079640D01*
X5815442Y-2078590D01*
X5815441Y-2078590D01*
X5657939Y-2078590D01*
X5657938Y-2078590D01*
X5647660Y-2079640D01*
X5647660Y-2079640D01*
X5639407Y-2082375D01*
X5631007Y-2085158D01*
X5631006Y-2085159D01*
X5616074Y-2094369D01*
X5603669Y-2106774D01*
X5594459Y-2121706D01*
X5594458Y-2121707D01*
X5593672Y-2124079D01*
X5589695Y-2129824D01*
X5583243Y-2132506D01*
X5576366Y-2131274D01*
X5573134Y-2128947D01*
X5466842Y-2022655D01*
X5458315Y-2016958D01*
X5458315Y-2016958D01*
X5454550Y-2014442D01*
X5454549Y-2014441D01*
X5440892Y-2008784D01*
X5440891Y-2008784D01*
X5426392Y-2005900D01*
X5426392Y-2005900D01*
X5101942Y-2005900D01*
X5087158Y-2005900D01*
X5087158Y-2005900D01*
X5072659Y-2008784D01*
X5072658Y-2008784D01*
X5059001Y-2014441D01*
X5059000Y-2014442D01*
X5046708Y-2022655D01*
X5046708Y-2022655D01*
X4645038Y-2424326D01*
X4638905Y-2427674D01*
X4631936Y-2427176D01*
X4626343Y-2422988D01*
X4623901Y-2416442D01*
X4625386Y-2409615D01*
X4625525Y-2409367D01*
X4628498Y-2404218D01*
X4634347Y-2386216D01*
X4636326Y-2367390D01*
X4634347Y-2348564D01*
X4633572Y-2346179D01*
X4633373Y-2339195D01*
X4636597Y-2333579D01*
X4636598Y-2333579D01*
X4645051Y-2325126D01*
X4654261Y-2310193D01*
X4659780Y-2293540D01*
X4660830Y-2283261D01*
X4660830Y-2148259D01*
X4659780Y-2137980D01*
X4654261Y-2121327D01*
X4645051Y-2106394D01*
X4632646Y-2093989D01*
X4622226Y-2087562D01*
X4617714Y-2084779D01*
X4617713Y-2084778D01*
X4612748Y-2083133D01*
X4601060Y-2079260D01*
X4601060Y-2079260D01*
X4590781Y-2078210D01*
X4500780Y-2078210D01*
X4500778Y-2078210D01*
X4490500Y-2079260D01*
X4490500Y-2079260D01*
X4473847Y-2084778D01*
X4473846Y-2084779D01*
X4458914Y-2093989D01*
X4446509Y-2106394D01*
X4437299Y-2121326D01*
X4437299Y-2121327D01*
X4434774Y-2128947D01*
X4431780Y-2137980D01*
X4431780Y-2137980D01*
X4431780Y-2137980D01*
X4430730Y-2148258D01*
X4430730Y-2283260D01*
X4430730Y-2283262D01*
X4431780Y-2293540D01*
X4431780Y-2293540D01*
X4436780Y-2308628D01*
X4437299Y-2310193D01*
X4443360Y-2320021D01*
X4446509Y-2325126D01*
X4454963Y-2333579D01*
X4458311Y-2339712D01*
X4457988Y-2346179D01*
X4457213Y-2348564D01*
X4457213Y-2348564D01*
X4456171Y-2358477D01*
X4455234Y-2367390D01*
X4457213Y-2386216D01*
X4457213Y-2386216D01*
X4463062Y-2404218D01*
X4463062Y-2404218D01*
X4463062Y-2404218D01*
X4472527Y-2420612D01*
X4485193Y-2434679D01*
X4486706Y-2435778D01*
X4490973Y-2441311D01*
X4491571Y-2448272D01*
X4488310Y-2454452D01*
X4482226Y-2457888D01*
X4479418Y-2458210D01*
X4465638Y-2458210D01*
X4451139Y-2461094D01*
X4451138Y-2461094D01*
X4437481Y-2466751D01*
X4437480Y-2466752D01*
X4425188Y-2474965D01*
X4425188Y-2474965D01*
X4318575Y-2581578D01*
X4312443Y-2584927D01*
X4309807Y-2585210D01*
X4308138Y-2585210D01*
X4301434Y-2583242D01*
X4296858Y-2577961D01*
X4295826Y-2571332D01*
X4296790Y-2563307D01*
X4296790Y-2503213D01*
X4295743Y-2494495D01*
X4295743Y-2494494D01*
X4290272Y-2480622D01*
X4290272Y-2480622D01*
X4290098Y-2480392D01*
X4287799Y-2477360D01*
X4281261Y-2468739D01*
X4280182Y-2467920D01*
X4276030Y-2462301D01*
X4275575Y-2455329D01*
X4278962Y-2449218D01*
X4280573Y-2447990D01*
X4280527Y-2447927D01*
X4289633Y-2441311D01*
X4296367Y-2436419D01*
X4309033Y-2422352D01*
X4318498Y-2405958D01*
X4324347Y-2387956D01*
X4326326Y-2369130D01*
X4324347Y-2350304D01*
X4323146Y-2346606D01*
X4322946Y-2339622D01*
X4326170Y-2334006D01*
X4335051Y-2325126D01*
X4344261Y-2310193D01*
X4349780Y-2293540D01*
X4350830Y-2283261D01*
X4350830Y-2148259D01*
X4349780Y-2137980D01*
X4344261Y-2121327D01*
X4335051Y-2106394D01*
X4322646Y-2093989D01*
X4312226Y-2087562D01*
X4307714Y-2084779D01*
X4307713Y-2084778D01*
X4302748Y-2083133D01*
X4291060Y-2079260D01*
X4291060Y-2079260D01*
X4280781Y-2078210D01*
X4190780Y-2078210D01*
X4190778Y-2078210D01*
X4180500Y-2079260D01*
X4180500Y-2079260D01*
X4163847Y-2084778D01*
X4163846Y-2084779D01*
X4148914Y-2093989D01*
X4136509Y-2106394D01*
X4127299Y-2121326D01*
X4127298Y-2121327D01*
X4124773Y-2128947D01*
X4121780Y-2137980D01*
X4121780Y-2137980D01*
X4121780Y-2137980D01*
X4120730Y-2148258D01*
X4120730Y-2283260D01*
X4120730Y-2283262D01*
X4121780Y-2293540D01*
X4121780Y-2293540D01*
X4126780Y-2308628D01*
X4127299Y-2310193D01*
X4136509Y-2325126D01*
X4144962Y-2333579D01*
X4145389Y-2334006D01*
X4148738Y-2340139D01*
X4148414Y-2346606D01*
X4147213Y-2350304D01*
X4147213Y-2350304D01*
X4147213Y-2350304D01*
X4145234Y-2369130D01*
X4147213Y-2387956D01*
X4147213Y-2387956D01*
X4149609Y-2395331D01*
X4149809Y-2402315D01*
X4146201Y-2408299D01*
X4139930Y-2411381D01*
X4132989Y-2410585D01*
X4129048Y-2407931D01*
X4023861Y-2302745D01*
X4018936Y-2299454D01*
X4015653Y-2297260D01*
X4011569Y-2294532D01*
X4011569Y-2294532D01*
X4011569Y-2294531D01*
X4011569Y-2294531D01*
X3997912Y-2288874D01*
X3997911Y-2288874D01*
X3983412Y-2285990D01*
X3983412Y-2285990D01*
X3188532Y-2285990D01*
X3181829Y-2284022D01*
X3177253Y-2278741D01*
X3176259Y-2271825D01*
X3179161Y-2265470D01*
X3183292Y-2262352D01*
X3183729Y-2262148D01*
X3202396Y-2253443D01*
X3220492Y-2240773D01*
X3236113Y-2225152D01*
X3248783Y-2207056D01*
X3258119Y-2187035D01*
X3263837Y-2165697D01*
X3265762Y-2143690D01*
X3263837Y-2121683D01*
X3258119Y-2100345D01*
X3248783Y-2080324D01*
X3236113Y-2062228D01*
X3220492Y-2046607D01*
X3220492Y-2046607D01*
X3220491Y-2046607D01*
X3202397Y-2033937D01*
X3202396Y-2033937D01*
X3194942Y-2030461D01*
X3182375Y-2024601D01*
X3182375Y-2024600D01*
X3182374Y-2024600D01*
X3161037Y-2018883D01*
X3161036Y-2018883D01*
X3139030Y-2016958D01*
X3139030Y-2016958D01*
X3117024Y-2018883D01*
X3117023Y-2018883D01*
X3095685Y-2024600D01*
X3095685Y-2024601D01*
X3075664Y-2033936D01*
X3075664Y-2033937D01*
X3057568Y-2046607D01*
X3047798Y-2056377D01*
X3041666Y-2059726D01*
X3034696Y-2059227D01*
X3030262Y-2056377D01*
X3020492Y-2046607D01*
X3020491Y-2046607D01*
X3002397Y-2033937D01*
X3002396Y-2033937D01*
X2994942Y-2030461D01*
X2982375Y-2024601D01*
X2982375Y-2024600D01*
X2982374Y-2024600D01*
X2961037Y-2018883D01*
X2961036Y-2018883D01*
X2939030Y-2016958D01*
X2939030Y-2016958D01*
X2917024Y-2018883D01*
X2917023Y-2018883D01*
X2895685Y-2024600D01*
X2895685Y-2024601D01*
X2875664Y-2033936D01*
X2875664Y-2033937D01*
X2857568Y-2046607D01*
X2847798Y-2056377D01*
X2841666Y-2059726D01*
X2834696Y-2059227D01*
X2830262Y-2056377D01*
X2820492Y-2046607D01*
X2820491Y-2046607D01*
X2802397Y-2033937D01*
X2802396Y-2033937D01*
X2794943Y-2030461D01*
X2782375Y-2024601D01*
X2782375Y-2024600D01*
X2782375Y-2024600D01*
X2761037Y-2018883D01*
X2761036Y-2018883D01*
X2739030Y-2016958D01*
X2739030Y-2016958D01*
X2717024Y-2018883D01*
X2717023Y-2018883D01*
X2695685Y-2024600D01*
X2695685Y-2024601D01*
X2675664Y-2033936D01*
X2675664Y-2033937D01*
X2657568Y-2046607D01*
X2641948Y-2062228D01*
X2629277Y-2080324D01*
X2629277Y-2080324D01*
X2619941Y-2100345D01*
X2619940Y-2100345D01*
X2614223Y-2121683D01*
X2614223Y-2121684D01*
X2612298Y-2143690D01*
X2612298Y-2143690D01*
X2614223Y-2165696D01*
X2614223Y-2165697D01*
X2619940Y-2187035D01*
X2619941Y-2187035D01*
X2619941Y-2187035D01*
X2626809Y-2201765D01*
X2629277Y-2207056D01*
X2629277Y-2207057D01*
X2641947Y-2225152D01*
X2641948Y-2225152D01*
X2657568Y-2240772D01*
X2657568Y-2240773D01*
X2675663Y-2253443D01*
X2675664Y-2253443D01*
X2675664Y-2253443D01*
X2695685Y-2262779D01*
X2717023Y-2268497D01*
X2732742Y-2269872D01*
X2739030Y-2270422D01*
X2739030Y-2270422D01*
X2739030Y-2270422D01*
X2744532Y-2269941D01*
X2761037Y-2268497D01*
X2782375Y-2262779D01*
X2802396Y-2253443D01*
X2820492Y-2240773D01*
X2830262Y-2231003D01*
X2836394Y-2227654D01*
X2843363Y-2228153D01*
X2847798Y-2231003D01*
X2857568Y-2240772D01*
X2857568Y-2240773D01*
X2875663Y-2253443D01*
X2875663Y-2253443D01*
X2875664Y-2253443D01*
X2895685Y-2262779D01*
X2917023Y-2268497D01*
X2932742Y-2269872D01*
X2939030Y-2270422D01*
X2939030Y-2270422D01*
X2939030Y-2270422D01*
X2944532Y-2269941D01*
X2961037Y-2268497D01*
X2982375Y-2262779D01*
X3002396Y-2253443D01*
X3020492Y-2240773D01*
X3030262Y-2231003D01*
X3036394Y-2227654D01*
X3043363Y-2228153D01*
X3047798Y-2231003D01*
X3057568Y-2240772D01*
X3057568Y-2240773D01*
X3075663Y-2253443D01*
X3075663Y-2253443D01*
X3075664Y-2253443D01*
X3093734Y-2261870D01*
X3094768Y-2262352D01*
X3100012Y-2266969D01*
X3101927Y-2273688D01*
X3099905Y-2280377D01*
X3094589Y-2284910D01*
X3089527Y-2285990D01*
X3026588Y-2285990D01*
X3012089Y-2288874D01*
X3012088Y-2288874D01*
X2998431Y-2294531D01*
X2998430Y-2294532D01*
X2986138Y-2302745D01*
X2986138Y-2302745D01*
X2537636Y-2751247D01*
X2531504Y-2754595D01*
X2524535Y-2754097D01*
X2518941Y-2749910D01*
X2517098Y-2746380D01*
X2516311Y-2744007D01*
X2507101Y-2729074D01*
X2494696Y-2716669D01*
X2480359Y-2707826D01*
X2479764Y-2707459D01*
X2479763Y-2707459D01*
X2477190Y-2706606D01*
X2463110Y-2701940D01*
X2463110Y-2701940D01*
X2452832Y-2700890D01*
X2452831Y-2700890D01*
X2295329Y-2700890D01*
X2295328Y-2700890D01*
X2285050Y-2701940D01*
X2285050Y-2701940D01*
X2279166Y-2703890D01*
X2268397Y-2707459D01*
X2268396Y-2707459D01*
X2253464Y-2716669D01*
X2241059Y-2729074D01*
X2231849Y-2744006D01*
X2231849Y-2744007D01*
X2229893Y-2749910D01*
X2226330Y-2760660D01*
X2226330Y-2760660D01*
X2226330Y-2760660D01*
X2225280Y-2770938D01*
X1995380Y-2770938D01*
X1994330Y-2760660D01*
X1988811Y-2744007D01*
X1979601Y-2729074D01*
X1967196Y-2716669D01*
X1952858Y-2707826D01*
X1952264Y-2707459D01*
X1952263Y-2707459D01*
X1945077Y-2705077D01*
X1939333Y-2701100D01*
X1936650Y-2694648D01*
X1936646Y-2692010D01*
X1937126Y-2687440D01*
X1937126Y-2687440D01*
X1937126Y-2687440D01*
X1935147Y-2668614D01*
X1929298Y-2650612D01*
X1919833Y-2634218D01*
X1907167Y-2620151D01*
X1907167Y-2620151D01*
X1891853Y-2609025D01*
X1891853Y-2609025D01*
X1874561Y-2601326D01*
X1874560Y-2601326D01*
X1859980Y-2598227D01*
X1856045Y-2597390D01*
X1837115Y-2597390D01*
X1833870Y-2598080D01*
X1818600Y-2601326D01*
X1818599Y-2601326D01*
X1801307Y-2609025D01*
X1801306Y-2609025D01*
X1785993Y-2620151D01*
X1773327Y-2634219D01*
X1763862Y-2650612D01*
X1763862Y-2650612D01*
X1758389Y-2667456D01*
X1758013Y-2668614D01*
X1756034Y-2687440D01*
X1756034Y-2687440D01*
X1756514Y-2692011D01*
X1755257Y-2698884D01*
X1750484Y-2703986D01*
X1748083Y-2705077D01*
X1740897Y-2707458D01*
X1740896Y-2707459D01*
X1725964Y-2716669D01*
X1713559Y-2729074D01*
X1704349Y-2744006D01*
X1704348Y-2744007D01*
X1702392Y-2749910D01*
X1698830Y-2760660D01*
X1698830Y-2760660D01*
X1698830Y-2760660D01*
X1697780Y-2770938D01*
X1351280Y-2770938D01*
X1351280Y-2143690D01*
X1812298Y-2143690D01*
X1812298Y-2143690D01*
X1814223Y-2165696D01*
X1814223Y-2165697D01*
X1819940Y-2187035D01*
X1819940Y-2187035D01*
X1819941Y-2187035D01*
X1826809Y-2201765D01*
X1829277Y-2207056D01*
X1829277Y-2207057D01*
X1841947Y-2225152D01*
X1841947Y-2225152D01*
X1857568Y-2240772D01*
X1857568Y-2240773D01*
X1875663Y-2253443D01*
X1875663Y-2253443D01*
X1875664Y-2253443D01*
X1895685Y-2262779D01*
X1917023Y-2268497D01*
X1932742Y-2269872D01*
X1939030Y-2270422D01*
X1939030Y-2270422D01*
X1939030Y-2270422D01*
X1944532Y-2269941D01*
X1961037Y-2268497D01*
X1982375Y-2262779D01*
X2002396Y-2253443D01*
X2020492Y-2240773D01*
X2030262Y-2231003D01*
X2036394Y-2227654D01*
X2043363Y-2228153D01*
X2047798Y-2231003D01*
X2057568Y-2240772D01*
X2057568Y-2240773D01*
X2075663Y-2253443D01*
X2075663Y-2253443D01*
X2075664Y-2253443D01*
X2095685Y-2262779D01*
X2117023Y-2268497D01*
X2132742Y-2269872D01*
X2139030Y-2270422D01*
X2139030Y-2270422D01*
X2139030Y-2270422D01*
X2144532Y-2269941D01*
X2161037Y-2268497D01*
X2182375Y-2262779D01*
X2202396Y-2253443D01*
X2220492Y-2240773D01*
X2236113Y-2225152D01*
X2248783Y-2207056D01*
X2258119Y-2187035D01*
X2263837Y-2165697D01*
X2265762Y-2143690D01*
X2263837Y-2121683D01*
X2258119Y-2100345D01*
X2248783Y-2080324D01*
X2236113Y-2062228D01*
X2220492Y-2046607D01*
X2220492Y-2046607D01*
X2220491Y-2046607D01*
X2219368Y-2045820D01*
X2215005Y-2040362D01*
X2214080Y-2035663D01*
X2214080Y-1918013D01*
X2216049Y-1911309D01*
X2217712Y-1909245D01*
X2262469Y-1864487D01*
X2268602Y-1861139D01*
X2274892Y-1861406D01*
X2287579Y-1865320D01*
X2313522Y-1869230D01*
X2339758Y-1869230D01*
X2365702Y-1865320D01*
X2390772Y-1857586D01*
X2414410Y-1846203D01*
X2436088Y-1831423D01*
X2455321Y-1813578D01*
X2471679Y-1793066D01*
X2484797Y-1770344D01*
X2494382Y-1745922D01*
X2500220Y-1720343D01*
X2500220Y-1720342D01*
X2502181Y-1694180D01*
X2502181Y-1694179D01*
X6161759Y-1694179D01*
X6161759Y-1694180D01*
X6163720Y-1720342D01*
X6163720Y-1720342D01*
X6169558Y-1745920D01*
X6169558Y-1745921D01*
X6169558Y-1745922D01*
X6179143Y-1770344D01*
X6192261Y-1793066D01*
X6196312Y-1798146D01*
X6208620Y-1813578D01*
X6226775Y-1830424D01*
X6227852Y-1831423D01*
X6249530Y-1846203D01*
X6249530Y-1846203D01*
X6249530Y-1846203D01*
X6249530Y-1846203D01*
X6262084Y-1852249D01*
X6273167Y-1857586D01*
X6273167Y-1857586D01*
X6273168Y-1857586D01*
X6298238Y-1865320D01*
X6324182Y-1869230D01*
X6350418Y-1869230D01*
X6376361Y-1865320D01*
X6389048Y-1861406D01*
X6396034Y-1861311D01*
X6401471Y-1864487D01*
X6476118Y-1939135D01*
X6479467Y-1945267D01*
X6479750Y-1947903D01*
X6479750Y-2076429D01*
X6477781Y-2083133D01*
X6472501Y-2087709D01*
X6471922Y-2087936D01*
X6471617Y-2088078D01*
X6456684Y-2097289D01*
X6444279Y-2109694D01*
X6435069Y-2124626D01*
X6435069Y-2124627D01*
X6429550Y-2141280D01*
X6429550Y-2141280D01*
X6429550Y-2141280D01*
X6428500Y-2151558D01*
X6428500Y-2376562D01*
X6429550Y-2386840D01*
X6435068Y-2403493D01*
X6435069Y-2403494D01*
X6436698Y-2406136D01*
X6444279Y-2418426D01*
X6456684Y-2430831D01*
X6471616Y-2440041D01*
X6488270Y-2445560D01*
X6498549Y-2446610D01*
X6498549Y-2446610D01*
X6611050Y-2446610D01*
X6611051Y-2446610D01*
X6621330Y-2445560D01*
X6621468Y-2445514D01*
X6621557Y-2445511D01*
X6621991Y-2445418D01*
X6622008Y-2445496D01*
X6628450Y-2445274D01*
X6632258Y-2446974D01*
X6642500Y-2453818D01*
X6642501Y-2453819D01*
X6655770Y-2459315D01*
X6656159Y-2459476D01*
X6656159Y-2459476D01*
X6656159Y-2459476D01*
X6670658Y-2462360D01*
X6670658Y-2462360D01*
X6778006Y-2462360D01*
X6784710Y-2464329D01*
X6785295Y-2464728D01*
X6786666Y-2465725D01*
X6786667Y-2465725D01*
X6803959Y-2473424D01*
X6803960Y-2473424D01*
X6822475Y-2477360D01*
X6822475Y-2477360D01*
X6841404Y-2477360D01*
X6841405Y-2477360D01*
X6859920Y-2473424D01*
X6877213Y-2465725D01*
X6892527Y-2454599D01*
X6905193Y-2440532D01*
X6914658Y-2424138D01*
X6920507Y-2406136D01*
X6922486Y-2387310D01*
X6920507Y-2368484D01*
X6918956Y-2363711D01*
X6914658Y-2350482D01*
X6914658Y-2350482D01*
X6914658Y-2350482D01*
X6905193Y-2334088D01*
X6892527Y-2320021D01*
X6892527Y-2320021D01*
X6877213Y-2308895D01*
X6877213Y-2308895D01*
X6859921Y-2301196D01*
X6859920Y-2301196D01*
X6845340Y-2298097D01*
X6841405Y-2297260D01*
X6822475Y-2297260D01*
X6819230Y-2297950D01*
X6803960Y-2301196D01*
X6803959Y-2301196D01*
X6786667Y-2308895D01*
X6786666Y-2308895D01*
X6785295Y-2309892D01*
X6778714Y-2312240D01*
X6778006Y-2312260D01*
X6714273Y-2312260D01*
X6707569Y-2310292D01*
X6705505Y-2308628D01*
X6684732Y-2287855D01*
X6681383Y-2281723D01*
X6681100Y-2279087D01*
X6681100Y-2151560D01*
X6681100Y-2151558D01*
X6680296Y-2143690D01*
X6680050Y-2141280D01*
X6674531Y-2124627D01*
X6665321Y-2109694D01*
X6652916Y-2097289D01*
X6637983Y-2088079D01*
X6637983Y-2088078D01*
X6637983Y-2088078D01*
X6637329Y-2087773D01*
X6637428Y-2087562D01*
X6632604Y-2084222D01*
X6629923Y-2077770D01*
X6629850Y-2076429D01*
X6629850Y-1904288D01*
X6626966Y-1889789D01*
X6626966Y-1889789D01*
X6626966Y-1889789D01*
X6626966Y-1889788D01*
X6621309Y-1876131D01*
X6621308Y-1876130D01*
X6613095Y-1863838D01*
X6608461Y-1859204D01*
X6602642Y-1853385D01*
X6508000Y-1758743D01*
X6504651Y-1752611D01*
X6504919Y-1746319D01*
X6505041Y-1745923D01*
X6505042Y-1745922D01*
X6510880Y-1720343D01*
X6510880Y-1720342D01*
X6512841Y-1694180D01*
X6512841Y-1694179D01*
X6510880Y-1668018D01*
X6510880Y-1668017D01*
X6510880Y-1668017D01*
X6505458Y-1644260D01*
X8103374Y-1644260D01*
X8103374Y-1644260D01*
X8105434Y-1667800D01*
X8105434Y-1667801D01*
X8111549Y-1690625D01*
X8111550Y-1690626D01*
X8111550Y-1690626D01*
X8119520Y-1707719D01*
X8121536Y-1712043D01*
X8121537Y-1712043D01*
X8127348Y-1720343D01*
X8135090Y-1731400D01*
X8151800Y-1748109D01*
X8161478Y-1754886D01*
X8171156Y-1761663D01*
X8171157Y-1761663D01*
X8171157Y-1761663D01*
X8192574Y-1771650D01*
X8215399Y-1777766D01*
X8233043Y-1779310D01*
X8238940Y-1779826D01*
X8238940Y-1779826D01*
X8238940Y-1779826D01*
X8244837Y-1779310D01*
X8262481Y-1777766D01*
X8285306Y-1771650D01*
X8306723Y-1761663D01*
X8326080Y-1748109D01*
X8342789Y-1731400D01*
X8355782Y-1712844D01*
X8361240Y-1708482D01*
X8368190Y-1707762D01*
X8374425Y-1710915D01*
X8376097Y-1712844D01*
X8389090Y-1731399D01*
X8389091Y-1731400D01*
X8405800Y-1748109D01*
X8415478Y-1754886D01*
X8425157Y-1761663D01*
X8425157Y-1761663D01*
X8425157Y-1761663D01*
X8446574Y-1771650D01*
X8469399Y-1777766D01*
X8487043Y-1779310D01*
X8492940Y-1779826D01*
X8492940Y-1779826D01*
X8492940Y-1779826D01*
X8498837Y-1779310D01*
X8516481Y-1777766D01*
X8539306Y-1771650D01*
X8560723Y-1761663D01*
X8580080Y-1748109D01*
X8596790Y-1731400D01*
X8609783Y-1712844D01*
X8615240Y-1708482D01*
X8622190Y-1707762D01*
X8628426Y-1710915D01*
X8630098Y-1712844D01*
X8643090Y-1731399D01*
X8643091Y-1731400D01*
X8659800Y-1748109D01*
X8669478Y-1754886D01*
X8679157Y-1761663D01*
X8679157Y-1761663D01*
X8679157Y-1761663D01*
X8700574Y-1771650D01*
X8723399Y-1777766D01*
X8741043Y-1779310D01*
X8746940Y-1779826D01*
X8746940Y-1779826D01*
X8746940Y-1779826D01*
X8752837Y-1779310D01*
X8770481Y-1777766D01*
X8793306Y-1771650D01*
X8814723Y-1761663D01*
X8834080Y-1748109D01*
X8850790Y-1731400D01*
X8863783Y-1712844D01*
X8869240Y-1708482D01*
X8876190Y-1707762D01*
X8882426Y-1710915D01*
X8884098Y-1712844D01*
X8897090Y-1731399D01*
X8897091Y-1731400D01*
X8913800Y-1748109D01*
X8923478Y-1754886D01*
X8933157Y-1761663D01*
X8933157Y-1761663D01*
X8933157Y-1761663D01*
X8954574Y-1771650D01*
X8977399Y-1777766D01*
X8995043Y-1779310D01*
X9000940Y-1779826D01*
X9000940Y-1779826D01*
X9000940Y-1779826D01*
X9006837Y-1779310D01*
X9024481Y-1777766D01*
X9047306Y-1771650D01*
X9068723Y-1761663D01*
X9088080Y-1748109D01*
X9104790Y-1731400D01*
X9117783Y-1712844D01*
X9123240Y-1708482D01*
X9130190Y-1707762D01*
X9136426Y-1710915D01*
X9138098Y-1712844D01*
X9151090Y-1731399D01*
X9151091Y-1731400D01*
X9167800Y-1748109D01*
X9177478Y-1754886D01*
X9187157Y-1761663D01*
X9187157Y-1761663D01*
X9187157Y-1761663D01*
X9208574Y-1771650D01*
X9231399Y-1777766D01*
X9249043Y-1779310D01*
X9254940Y-1779826D01*
X9254940Y-1779826D01*
X9254940Y-1779826D01*
X9260837Y-1779310D01*
X9278481Y-1777766D01*
X9301306Y-1771650D01*
X9322723Y-1761663D01*
X9342080Y-1748109D01*
X9358790Y-1731400D01*
X9371813Y-1712800D01*
X9377271Y-1708438D01*
X9384221Y-1707719D01*
X9390456Y-1710871D01*
X9392128Y-1712800D01*
X9405129Y-1731368D01*
X9421832Y-1748070D01*
X9441182Y-1761620D01*
X9462591Y-1771603D01*
X9462592Y-1771603D01*
X9483940Y-1777323D01*
X9483940Y-1687561D01*
X9489641Y-1690852D01*
X9502357Y-1694260D01*
X9515523Y-1694260D01*
X9528239Y-1690852D01*
X9533940Y-1687561D01*
X9533940Y-1777323D01*
X9555288Y-1771603D01*
X9555289Y-1771603D01*
X9576698Y-1761620D01*
X9596048Y-1748070D01*
X9612751Y-1731368D01*
X9625752Y-1712800D01*
X9631210Y-1708438D01*
X9638160Y-1707719D01*
X9644395Y-1710871D01*
X9646067Y-1712800D01*
X9659091Y-1731400D01*
X9675800Y-1748109D01*
X9685478Y-1754886D01*
X9695157Y-1761663D01*
X9695157Y-1761663D01*
X9695157Y-1761663D01*
X9716574Y-1771650D01*
X9739399Y-1777766D01*
X9757043Y-1779310D01*
X9762940Y-1779826D01*
X9762940Y-1779826D01*
X9762940Y-1779826D01*
X9768837Y-1779310D01*
X9786481Y-1777766D01*
X9809306Y-1771650D01*
X9830723Y-1761663D01*
X9850080Y-1748109D01*
X9862273Y-1735917D01*
X9868405Y-1732568D01*
X9875374Y-1733067D01*
X9880967Y-1737254D01*
X9882659Y-1740352D01*
X9887560Y-1753493D01*
X9887561Y-1753493D01*
X9896185Y-1765014D01*
X9896186Y-1765015D01*
X9907706Y-1773639D01*
X9907707Y-1773640D01*
X9921192Y-1778669D01*
X9921192Y-1778669D01*
X9921884Y-1778743D01*
X9927153Y-1779310D01*
X10106727Y-1779310D01*
X10112688Y-1778669D01*
X10126173Y-1773640D01*
X10137695Y-1765015D01*
X10146320Y-1753493D01*
X10151349Y-1740008D01*
X10151990Y-1734047D01*
X10151990Y-1554473D01*
X10151349Y-1548512D01*
X10151221Y-1548168D01*
X10146320Y-1535027D01*
X10146319Y-1535026D01*
X10137695Y-1523505D01*
X10137694Y-1523505D01*
X10126174Y-1514881D01*
X10126173Y-1514880D01*
X10112688Y-1509851D01*
X10112688Y-1509851D01*
X10106728Y-1509210D01*
X10106728Y-1509210D01*
X10106727Y-1509210D01*
X10106726Y-1509210D01*
X9927153Y-1509210D01*
X9927152Y-1509210D01*
X9921192Y-1509851D01*
X9907707Y-1514880D01*
X9907706Y-1514881D01*
X9896186Y-1523505D01*
X9896185Y-1523505D01*
X9887561Y-1535026D01*
X9887560Y-1535027D01*
X9882659Y-1548168D01*
X9878472Y-1553762D01*
X9871925Y-1556203D01*
X9865098Y-1554718D01*
X9862273Y-1552603D01*
X9850080Y-1540411D01*
X9850080Y-1540410D01*
X9830723Y-1526857D01*
X9830723Y-1526856D01*
X9830723Y-1526856D01*
X9809306Y-1516870D01*
X9809306Y-1516870D01*
X9809306Y-1516869D01*
X9786481Y-1510754D01*
X9786480Y-1510754D01*
X9762940Y-1508694D01*
X9762940Y-1508694D01*
X9739400Y-1510754D01*
X9739399Y-1510754D01*
X9716574Y-1516869D01*
X9716574Y-1516870D01*
X9695157Y-1526856D01*
X9695157Y-1526856D01*
X9675800Y-1540410D01*
X9659091Y-1557119D01*
X9646067Y-1575719D01*
X9640609Y-1580082D01*
X9633659Y-1580801D01*
X9627424Y-1577649D01*
X9625752Y-1575719D01*
X9612751Y-1557153D01*
X9612751Y-1557152D01*
X9596048Y-1540449D01*
X9576698Y-1526900D01*
X9555289Y-1516917D01*
X9555289Y-1516917D01*
X9533940Y-1511196D01*
X9533940Y-1600959D01*
X9528239Y-1597667D01*
X9515523Y-1594260D01*
X9502357Y-1594260D01*
X9489641Y-1597667D01*
X9483940Y-1600959D01*
X9483940Y-1511196D01*
X9483940Y-1511196D01*
X9462591Y-1516917D01*
X9462591Y-1516917D01*
X9441182Y-1526900D01*
X9441182Y-1526900D01*
X9421833Y-1540449D01*
X9421832Y-1540449D01*
X9405129Y-1557152D01*
X9405129Y-1557152D01*
X9392128Y-1575719D01*
X9386670Y-1580082D01*
X9379720Y-1580801D01*
X9373485Y-1577649D01*
X9371813Y-1575719D01*
X9358789Y-1557120D01*
X9342080Y-1540411D01*
X9342080Y-1540410D01*
X9322723Y-1526857D01*
X9322723Y-1526856D01*
X9322723Y-1526856D01*
X9301306Y-1516870D01*
X9301306Y-1516870D01*
X9301306Y-1516869D01*
X9278481Y-1510754D01*
X9278480Y-1510754D01*
X9254940Y-1508694D01*
X9254940Y-1508694D01*
X9231400Y-1510754D01*
X9231399Y-1510754D01*
X9208574Y-1516869D01*
X9208574Y-1516870D01*
X9187157Y-1526856D01*
X9187157Y-1526856D01*
X9167800Y-1540410D01*
X9151091Y-1557120D01*
X9138098Y-1575676D01*
X9132640Y-1580038D01*
X9125690Y-1580758D01*
X9119455Y-1577605D01*
X9117783Y-1575676D01*
X9104789Y-1557120D01*
X9088080Y-1540411D01*
X9088080Y-1540410D01*
X9068723Y-1526857D01*
X9068723Y-1526856D01*
X9068723Y-1526856D01*
X9047306Y-1516870D01*
X9047306Y-1516870D01*
X9047306Y-1516869D01*
X9024481Y-1510754D01*
X9024480Y-1510754D01*
X9000940Y-1508694D01*
X9000940Y-1508694D01*
X8977400Y-1510754D01*
X8977399Y-1510754D01*
X8954574Y-1516869D01*
X8954574Y-1516870D01*
X8933157Y-1526856D01*
X8933157Y-1526856D01*
X8913800Y-1540410D01*
X8897091Y-1557120D01*
X8884098Y-1575676D01*
X8878640Y-1580038D01*
X8871690Y-1580758D01*
X8865455Y-1577605D01*
X8863783Y-1575676D01*
X8850789Y-1557120D01*
X8834080Y-1540411D01*
X8834080Y-1540410D01*
X8814723Y-1526857D01*
X8814723Y-1526856D01*
X8814723Y-1526856D01*
X8793306Y-1516870D01*
X8793306Y-1516870D01*
X8793306Y-1516869D01*
X8770481Y-1510754D01*
X8770480Y-1510754D01*
X8746940Y-1508694D01*
X8746940Y-1508694D01*
X8723400Y-1510754D01*
X8723399Y-1510754D01*
X8700574Y-1516869D01*
X8700574Y-1516870D01*
X8679157Y-1526856D01*
X8679157Y-1526856D01*
X8659800Y-1540410D01*
X8643091Y-1557120D01*
X8630098Y-1575676D01*
X8624640Y-1580038D01*
X8617690Y-1580758D01*
X8611455Y-1577605D01*
X8609783Y-1575676D01*
X8596789Y-1557120D01*
X8580080Y-1540411D01*
X8580080Y-1540410D01*
X8560723Y-1526857D01*
X8560723Y-1526856D01*
X8560723Y-1526856D01*
X8539306Y-1516870D01*
X8539306Y-1516870D01*
X8539306Y-1516869D01*
X8516481Y-1510754D01*
X8516480Y-1510754D01*
X8492940Y-1508694D01*
X8492940Y-1508694D01*
X8469400Y-1510754D01*
X8469399Y-1510754D01*
X8446574Y-1516869D01*
X8446574Y-1516870D01*
X8425157Y-1526856D01*
X8425157Y-1526856D01*
X8405800Y-1540410D01*
X8389091Y-1557120D01*
X8376097Y-1575676D01*
X8370640Y-1580038D01*
X8363690Y-1580758D01*
X8357454Y-1577605D01*
X8355782Y-1575676D01*
X8342789Y-1557120D01*
X8326080Y-1540411D01*
X8326079Y-1540410D01*
X8306723Y-1526857D01*
X8306723Y-1526856D01*
X8306723Y-1526856D01*
X8285306Y-1516870D01*
X8285306Y-1516870D01*
X8285305Y-1516869D01*
X8262481Y-1510754D01*
X8262480Y-1510754D01*
X8238940Y-1508694D01*
X8238940Y-1508694D01*
X8215400Y-1510754D01*
X8215399Y-1510754D01*
X8192574Y-1516869D01*
X8192573Y-1516870D01*
X8171157Y-1526856D01*
X8171157Y-1526856D01*
X8151800Y-1540410D01*
X8135090Y-1557120D01*
X8121536Y-1576477D01*
X8121536Y-1576477D01*
X8111550Y-1597893D01*
X8111549Y-1597894D01*
X8105434Y-1620719D01*
X8105434Y-1620720D01*
X8103374Y-1644260D01*
X6505458Y-1644260D01*
X6505042Y-1642438D01*
X6495457Y-1618016D01*
X6482339Y-1595294D01*
X6465980Y-1574782D01*
X6465980Y-1574782D01*
X6465980Y-1574781D01*
X6446748Y-1556937D01*
X6434391Y-1548512D01*
X6425070Y-1542157D01*
X6425070Y-1542157D01*
X6425070Y-1542157D01*
X6425070Y-1542157D01*
X6401432Y-1530774D01*
X6401433Y-1530774D01*
X6376362Y-1523041D01*
X6376362Y-1523040D01*
X6376361Y-1523040D01*
X6363882Y-1521159D01*
X6350419Y-1519130D01*
X6350418Y-1519130D01*
X6324182Y-1519130D01*
X6324181Y-1519130D01*
X6308025Y-1521565D01*
X6298238Y-1523040D01*
X6298238Y-1523040D01*
X6298238Y-1523041D01*
X6273167Y-1530774D01*
X6249530Y-1542157D01*
X6249530Y-1542157D01*
X6227852Y-1556937D01*
X6208620Y-1574781D01*
X6192261Y-1595294D01*
X6179143Y-1618016D01*
X6169558Y-1642438D01*
X6169558Y-1642440D01*
X6163720Y-1668017D01*
X6163720Y-1668018D01*
X6161759Y-1694179D01*
X2502181Y-1694179D01*
X2500220Y-1668018D01*
X2500220Y-1668017D01*
X2500220Y-1668017D01*
X2494382Y-1642438D01*
X2484797Y-1618016D01*
X2471679Y-1595294D01*
X2455321Y-1574782D01*
X2455320Y-1574782D01*
X2455320Y-1574781D01*
X2436088Y-1556937D01*
X2423731Y-1548512D01*
X2414410Y-1542157D01*
X2414410Y-1542157D01*
X2414410Y-1542157D01*
X2414410Y-1542157D01*
X2390773Y-1530774D01*
X2390773Y-1530774D01*
X2365702Y-1523041D01*
X2365702Y-1523040D01*
X2365702Y-1523040D01*
X2353222Y-1521159D01*
X2339759Y-1519130D01*
X2339758Y-1519130D01*
X2313522Y-1519130D01*
X2313521Y-1519130D01*
X2297365Y-1521565D01*
X2287579Y-1523040D01*
X2287578Y-1523040D01*
X2287578Y-1523041D01*
X2262507Y-1530774D01*
X2238870Y-1542157D01*
X2238870Y-1542157D01*
X2217192Y-1556937D01*
X2197960Y-1574781D01*
X2181601Y-1595294D01*
X2168483Y-1618016D01*
X2158898Y-1642438D01*
X2158898Y-1642440D01*
X2153060Y-1668017D01*
X2153060Y-1668018D01*
X2151099Y-1694179D01*
X2151099Y-1694180D01*
X2153060Y-1720342D01*
X2153060Y-1720342D01*
X2158898Y-1745921D01*
X2159021Y-1746321D01*
X2159116Y-1753308D01*
X2155940Y-1758743D01*
X2080735Y-1833948D01*
X2075811Y-1841317D01*
X2072522Y-1846240D01*
X2072521Y-1846241D01*
X2066864Y-1859899D01*
X2066864Y-1859899D01*
X2063980Y-1874398D01*
X2063980Y-2035663D01*
X2062011Y-2042366D01*
X2058692Y-2045820D01*
X2057569Y-2046607D01*
X2057568Y-2046607D01*
X2047798Y-2056377D01*
X2041666Y-2059726D01*
X2034697Y-2059227D01*
X2030262Y-2056377D01*
X2029521Y-2055636D01*
X2020492Y-2046607D01*
X2020492Y-2046607D01*
X2020491Y-2046607D01*
X2002397Y-2033937D01*
X2002396Y-2033937D01*
X1994942Y-2030461D01*
X1982375Y-2024601D01*
X1982375Y-2024600D01*
X1982374Y-2024600D01*
X1961037Y-2018883D01*
X1961036Y-2018883D01*
X1939030Y-2016958D01*
X1939030Y-2016958D01*
X1917024Y-2018883D01*
X1917023Y-2018883D01*
X1895685Y-2024600D01*
X1895685Y-2024601D01*
X1875664Y-2033936D01*
X1875664Y-2033937D01*
X1857568Y-2046607D01*
X1841947Y-2062228D01*
X1829277Y-2080324D01*
X1829276Y-2080324D01*
X1819941Y-2100345D01*
X1819940Y-2100345D01*
X1814223Y-2121683D01*
X1814223Y-2121684D01*
X1812298Y-2143690D01*
X1351280Y-2143690D01*
X1351280Y-1368760D01*
X1353249Y-1362056D01*
X1358529Y-1357481D01*
X1363680Y-1356360D01*
X1646886Y-1356360D01*
X1653590Y-1358329D01*
G37*
%TD.AperFunction*%
%TD*%
M02*
